<svg width="709" height="473" viewBox="0 0 709 473" fill="none" xmlns="http://www.w3.org/2000/svg">
<path d="M665.703 181.254C658.235 154.387 608.605 183.619 608.605 183.619L621.556 160.063C623.069 157.698 624.487 155.239 625.716 152.59C632.239 138.021 632.144 122.318 625.716 108.79C623.92 100.56 618.531 88.7349 603.69 75.7747C575.519 51.2733 481.08 34.5291 453.76 38.2185C426.44 41.9079 478.622 53.4491 478.622 53.4491H474.462C394.865 45.0297 314.89 43.8945 235.482 45.5973C215.536 45.9757 195.589 46.6379 176.115 50.0435C170.538 50.9895 164.488 52.5031 161.179 57.0439C146.337 77.1937 207.028 79.0857 216.481 78.7073C174.792 84.0994 128.565 85.8022 89.8064 101.884C84.418 104.155 79.0296 106.803 74.9646 110.966C70.8997 115.128 68.2528 120.993 69.1981 126.953C71.845 144.17 95.5729 149.279 108.997 153.063C108.997 153.063 31.7629 204.431 40.8381 230.54C44.6194 241.325 50.1969 252.677 60.5956 263.839C54.64 271.313 49.4406 279.07 45.3757 287.395C42.9178 292.409 39.7037 299.409 42.4452 305.18C56.5306 334.789 269.892 436.579 440.903 407.537C486.374 399.78 531.561 387.103 571.359 364.494C610.969 342.074 651.334 304.99 661.355 258.258C661.638 256.744 661.922 255.231 662.111 253.812C668.256 232.054 671.943 203.674 665.703 181.254Z" fill="#DA5D5D"/>
<path opacity="0.8" d="M665.703 181.254C658.235 154.387 608.605 183.619 608.605 183.619L621.556 160.063C623.069 157.698 624.487 155.239 625.716 152.59C632.239 138.021 632.144 122.318 625.716 108.79C623.92 100.56 618.531 88.7349 603.69 75.7747C575.519 51.2733 481.08 34.5291 453.76 38.2185C426.44 41.9079 478.622 53.4491 478.622 53.4491H474.462C394.865 45.0297 314.89 43.8945 235.482 45.5973C215.536 45.9757 195.589 46.6379 176.115 50.0435C170.538 50.9895 164.488 52.5031 161.179 57.0439C146.337 77.1937 207.028 79.0857 216.481 78.7073C174.792 84.0994 128.565 85.8022 89.8064 101.884C84.418 104.155 79.0296 106.803 74.9646 110.966C70.8997 115.128 69.2926 120.993 69.1981 126.953C68.82 142.846 94.344 148.711 108.997 153.063C108.997 153.063 31.7629 204.431 40.8381 230.54C44.6194 241.325 50.1969 252.677 60.5956 263.839C54.64 271.313 49.4406 279.07 45.3757 287.395C42.9178 292.409 39.7037 299.409 42.4452 305.18C56.5306 334.789 269.892 436.579 440.903 407.537C486.374 399.78 531.561 387.103 571.359 364.494C610.969 342.074 651.334 304.99 661.355 258.258C661.638 256.744 661.922 255.231 662.111 253.812C668.256 232.054 671.943 203.674 665.703 181.254Z" fill="white"/>
<path d="M527.496 151.928C527.496 151.928 528.441 148.995 533.263 148.049C538.084 147.103 543.85 152.401 543.85 152.401C543.85 152.401 547.726 144.643 551.602 144.17C555.478 143.697 559.826 147.103 559.826 147.103" stroke="#263238" stroke-miterlimit="10"/>
<path d="M514.923 170.28C514.923 170.28 515.868 167.347 520.689 166.401C525.511 165.455 531.277 170.753 531.277 170.753C531.277 170.753 535.153 162.996 539.029 162.523C542.905 162.05 547.253 165.455 547.253 165.455" stroke="#263238" stroke-miterlimit="10"/>
<path d="M560.771 170.375C560.771 170.375 561.528 168.199 565.215 167.442C568.901 166.685 573.25 170.753 573.25 170.753C573.25 170.753 576.18 164.888 579.111 164.509C582.041 164.131 585.35 166.685 585.35 166.685" stroke="#263238" stroke-miterlimit="10"/>
<path d="M614.372 189.768C614.372 189.768 614.845 188.349 617.303 187.876C619.666 187.403 622.596 190.051 622.596 190.051C622.596 190.051 624.487 186.173 626.472 185.984C628.363 185.7 630.537 187.403 630.537 187.403" stroke="#263238" stroke-miterlimit="10"/>
<path d="M357.431 146.819C352.421 124.399 326.613 107.749 304.114 110.871C298.537 111.628 293.054 113.804 288.8 117.682C283.033 122.98 284.451 128.94 281.615 135.562C280.859 137.359 279.252 138.967 277.361 139.346C271.784 140.292 267.246 134.71 261.574 134.71C257.32 134.71 251.932 136.981 249.568 140.67C247.394 144.076 248.907 150.036 244.936 152.306C240.493 154.86 235.105 150.036 230.378 151.738C224.422 153.914 227.164 158.266 224.99 160.915C222.815 163.658 218.467 162.523 212.511 161.955C206.556 161.388 201.734 168.483 201.734 168.483H389.383C389.383 168.483 390.99 165.739 383.995 154.955C376.999 144.17 367.262 151.738 362.914 151.738C358.565 151.644 357.431 146.819 357.431 146.819Z" stroke="#263238" stroke-miterlimit="10"/>
<path d="M409.708 110.777C407.723 101.79 397.324 95.073 388.343 96.3974C386.075 96.6812 383.9 97.5326 382.199 99.1408C379.93 101.222 380.403 103.682 379.268 106.33C378.985 107.087 378.323 107.749 377.567 107.844C375.298 108.222 373.502 105.952 371.233 105.952C369.531 105.952 367.357 106.898 366.412 108.317C365.561 109.641 366.128 112.101 364.521 112.952C362.725 113.993 360.551 112.006 358.66 112.763C356.297 113.615 357.337 115.412 356.486 116.453C355.635 117.493 353.839 117.115 351.475 116.926C349.112 116.736 347.127 119.574 347.127 119.574H422.565C422.565 119.574 423.226 118.534 420.39 114.182C417.554 109.831 413.678 112.858 411.882 112.858C410.181 112.763 409.708 110.777 409.708 110.777Z" stroke="#263238" stroke-miterlimit="10"/>
<path d="M570.319 220.986C568.334 211.999 557.936 205.282 548.955 206.606C546.686 206.89 544.512 207.742 542.81 209.35C540.541 211.431 541.014 213.891 539.88 216.539C539.596 217.296 538.934 217.958 538.178 218.053C535.909 218.431 534.113 216.161 531.844 216.161C530.143 216.161 527.968 217.107 527.023 218.526C526.172 219.85 526.74 222.31 525.132 223.161C523.336 224.202 521.162 222.215 519.271 222.972C516.908 223.824 517.948 225.621 517.097 226.662C516.246 227.702 514.45 227.324 512.087 227.135C509.724 226.945 507.738 229.783 507.738 229.783H582.987C582.987 229.783 583.649 228.743 580.813 224.391C577.977 220.04 574.101 223.067 572.305 223.067C570.792 222.972 570.319 220.986 570.319 220.986Z" stroke="#263238" stroke-miterlimit="10"/>
<path d="M449.601 211.147C446.576 197.336 430.694 187.119 416.892 189.105C413.489 189.578 410.086 190.903 407.533 193.268C404.036 196.484 404.886 200.174 403.09 204.241C402.617 205.377 401.672 206.323 400.443 206.512C397.04 207.079 394.204 203.674 390.801 203.674C388.154 203.674 384.845 205.093 383.427 207.363C382.104 209.444 383.049 213.134 380.591 214.458C377.85 215.972 374.541 213.039 371.611 214.08C367.924 215.404 369.625 218.053 368.302 219.756C366.978 221.459 364.331 220.796 360.645 220.418C356.958 220.04 354.027 224.391 354.027 224.391H469.358C469.358 224.391 470.398 222.688 466.049 216.066C461.701 209.444 455.745 214.08 453.098 214.08C450.262 214.174 449.601 211.147 449.601 211.147Z" stroke="#263238" stroke-miterlimit="10"/>
<path d="M476.731 369.791C476.731 369.791 469.831 362.602 471.816 362.886C473.706 363.075 477.393 368.467 477.393 368.467C477.393 368.467 477.488 356.642 479.189 359.291C480.891 361.845 478.811 368.562 478.811 368.562C478.811 368.562 483.727 360.899 483.727 362.129C483.727 366.007 479.946 369.035 479.946 369.035C479.946 369.035 487.792 363.169 486.563 365.534C485.239 367.899 480.229 370.17 480.229 370.17C480.229 370.17 489.304 368.372 486.09 369.602C482.876 370.927 479.757 371.778 479.757 371.778H477.204C477.204 371.778 468.602 367.521 471.816 368.089C475.03 368.751 476.731 369.791 476.731 369.791Z" fill="#263238"/>
<path d="M567.767 347.466C567.767 347.466 562.379 341.884 563.892 342.074C565.404 342.263 568.24 346.425 568.24 346.425C568.24 346.425 568.24 337.249 569.658 339.236C570.982 341.222 569.375 346.425 569.375 346.425C569.375 346.425 573.156 340.465 573.156 341.411C573.156 344.439 570.225 346.804 570.225 346.804C570.225 346.804 576.37 342.263 575.33 344.06C574.29 345.858 570.414 347.655 570.414 347.655C570.414 347.655 577.504 346.236 574.952 347.277C572.4 348.317 570.036 348.979 570.036 348.979H568.051C568.051 348.979 561.339 345.668 563.892 346.141C566.349 346.614 567.767 347.466 567.767 347.466Z" fill="#263238"/>
<path d="M652.28 327.505C652.28 327.505 646.892 321.924 648.404 322.113C649.917 322.302 652.753 326.465 652.753 326.465C652.753 326.465 652.753 317.288 654.171 319.275C655.494 321.262 653.887 326.465 653.887 326.465C653.887 326.465 657.669 320.505 657.669 321.451C657.669 324.478 654.738 326.843 654.738 326.843C654.738 326.843 660.883 322.302 659.843 324.1C658.803 325.897 654.927 327.694 654.927 327.694C654.927 327.694 662.017 326.275 659.465 327.316C656.912 328.357 654.549 329.019 654.549 329.019H652.564C652.564 329.019 645.852 325.708 648.404 326.181C650.862 326.654 652.28 327.505 652.28 327.505Z" fill="#263238"/>
<path d="M544.512 373.008C544.512 373.008 538.084 366.386 539.88 366.575C541.676 366.764 545.079 371.778 545.079 371.778C545.079 371.778 545.079 360.805 546.686 363.264C548.293 365.629 546.308 371.873 546.308 371.873C546.308 371.873 550.845 364.778 550.845 365.913C550.845 369.508 547.348 372.346 547.348 372.346C547.348 372.346 554.627 366.953 553.492 369.129C552.263 371.305 547.631 373.386 547.631 373.386C547.631 373.386 556.045 371.683 553.114 372.913C550.089 374.143 547.253 374.9 547.253 374.9H544.89C544.89 374.9 536.949 370.927 539.88 371.494C542.905 372.062 544.512 373.008 544.512 373.008Z" fill="#DA5D5D"/>
<path d="M417.743 344.249L361.023 280.584L348.639 290.611L286.531 196.957L232.363 208.971L216.198 178.794L200.505 177.943L170.727 119.101L126.108 159.779L104.649 152.117L26.375 231.959" stroke="#263238" stroke-miterlimit="10"/>
<path d="M428.331 356.169L422.47 349.452" stroke="#263238" stroke-miterlimit="10"/>
<path d="M203.341 216.729L198.614 218.053" stroke="#263238" stroke-miterlimit="10"/>
<path d="M232.269 208.971L208.636 215.31" stroke="#263238" stroke-miterlimit="10"/>
<path d="M143.029 181.727L156.264 162.144L155.319 155.428L170.538 124.494" stroke="#263238" stroke-miterlimit="10"/>
<path d="M137.452 189.862L140.761 184.943" stroke="#263238" stroke-miterlimit="10"/>
<path d="M116.938 201.498L95.3848 230.635" stroke="#263238" stroke-miterlimit="10"/>
<path d="M105.688 155.428L111.077 167.537L123.177 177.375L121.759 194.781L118.829 198.755" stroke="#263238" stroke-miterlimit="10"/>
<path d="M216.198 178.794L205.043 189.389L200.979 182.673" stroke="#263238" stroke-miterlimit="10"/>
<path d="M668.351 298.368L581.38 236.973L555.005 274.34L522.391 263.461L471.816 334.127L439.202 327.127L422.942 341.128" stroke="#263238" stroke-miterlimit="10"/>
<path d="M581.381 236.973L571.076 282.476L558.787 277.178" stroke="#263238" stroke-miterlimit="10"/>
<path d="M522.58 266.11L497.056 340.465L479.567 337.438" stroke="#263238" stroke-miterlimit="10"/>
<path d="M521.445 260.812C498.852 260.812 480.418 279.07 480.418 301.585C480.418 311.991 484.388 321.545 490.817 328.735C493.747 328.262 499.23 327.978 505.186 330.059C513.126 332.803 518.042 337.154 519.082 338.195H522.769C523.809 337.154 528.819 332.708 536.665 330.059C543.188 327.884 549.049 328.357 551.791 328.83C558.313 321.64 562.284 312.085 562.284 301.585C562.473 278.975 544.039 260.812 521.445 260.812Z" fill="#DA5D5D"/>
<path d="M540.541 317.856C539.312 318.424 537.989 319.086 536.76 319.748C535.531 320.41 534.302 321.167 533.167 321.924C532.695 322.208 532.317 322.491 531.939 322.87L538.65 310.383L529.481 324.856C528.535 325.613 527.59 326.37 526.739 327.127C525.227 328.451 523.809 329.776 522.391 331.1L521.918 317.478L531.56 302.815L521.823 315.491L521.445 303.382L520.784 317.005L520.122 330.627C518.893 329.492 517.664 328.357 516.341 327.221C515.301 326.37 514.261 325.519 513.221 324.667L504.524 309.815L510.952 322.964C510.574 322.681 510.196 322.397 509.818 322.208C508.683 321.451 507.454 320.694 506.225 320.032C504.997 319.37 503.768 318.707 502.444 318.14C499.892 316.91 497.339 315.775 494.692 314.829C497.245 315.964 499.703 317.194 502.161 318.518C503.389 319.181 504.524 319.937 505.753 320.599C506.887 321.356 508.022 322.113 509.061 322.964C511.141 324.667 513.126 326.465 515.112 328.357C516.813 330.059 518.42 331.762 519.933 333.465L519.082 350.777H523.147L522.58 334.222C524.281 332.235 526.172 330.249 528.063 328.451C529.953 326.559 531.939 324.762 534.113 323.059C535.153 322.208 536.287 321.451 537.421 320.694C538.556 319.937 539.785 319.275 541.014 318.613C543.472 317.288 545.929 315.964 548.482 314.923C545.646 315.491 543.093 316.626 540.541 317.856Z" fill="#263238"/>
<path d="M206.744 316.721C206.744 328.451 200.221 329.303 192.091 329.303C183.961 329.303 177.438 328.451 177.438 316.721C177.438 304.99 183.961 280.584 192.091 280.584C200.221 280.489 206.744 304.99 206.744 316.721Z" fill="#DA5D5D"/>
<path d="M197.102 322.018L194.644 322.113L200.978 317.856L196.44 320.221L197.102 318.424L195.022 320.883L192.564 322.113L192.375 313.694L193.699 310.572L192.375 312.369L192.281 307.45L196.251 302.152L192.186 306.315L191.997 295.53L191.713 302.436L189.161 299.504L191.713 303.761L191.335 314.64L189.161 313.126L187.081 309.531L187.932 312.369L183.867 309.72L191.335 316.153L190.201 351.817H193.226L192.564 323.532L193.321 323.059L197.102 322.018Z" fill="#263238"/>
<path d="M600.759 276.327C600.759 299.22 587.902 300.923 572.115 300.923C556.328 300.923 543.472 299.22 543.472 276.327C543.472 253.433 556.328 205.66 572.115 205.66C587.997 205.66 600.759 253.528 600.759 276.327Z" fill="#DA5D5D"/>
<path opacity="0.31" d="M600.759 276.327C600.759 299.22 587.902 300.923 572.115 300.923C556.328 300.923 543.472 299.22 543.472 276.327C543.472 253.433 556.328 205.66 572.115 205.66C587.997 205.66 600.759 253.528 600.759 276.327Z" fill="white"/>
<path d="M581.852 286.733L577.125 287.111L589.414 278.786L580.623 283.232L581.852 279.732L577.787 284.651L573.06 287.016L572.682 270.556L575.234 264.502L572.682 267.907L572.398 258.447L580.245 247.947L572.398 256.082L571.926 235.081L571.453 248.514L566.443 242.838L571.359 251.068L570.697 272.353L566.348 269.421L562.378 262.42L563.985 267.907L556.139 262.799L570.602 275.286L568.428 345.006H574.384L573.155 289.76L574.478 288.814L581.852 286.733Z" fill="#263238"/>
<path d="M662.016 285.408C662.016 297.139 655.494 297.99 647.364 297.99C639.234 297.99 632.711 297.139 632.711 285.408C632.711 273.678 639.234 249.271 647.364 249.271C655.494 249.176 662.016 273.678 662.016 285.408Z" fill="#DA5D5D"/>
<path opacity="0.5" d="M662.016 285.408C662.016 297.139 655.494 297.99 647.364 297.99C639.234 297.99 632.711 297.139 632.711 285.408C632.711 273.678 639.234 249.271 647.364 249.271C655.494 249.176 662.016 273.678 662.016 285.408Z" fill="white"/>
<path d="M652.373 290.706L649.916 290.895L656.249 286.638L651.712 288.908L652.373 287.111L650.294 289.571L647.836 290.8L647.647 282.381L648.97 279.354L647.647 281.057L647.552 276.232L651.523 270.84L647.552 275.002L647.269 264.218L647.08 271.124L644.433 268.191L646.985 272.448L646.701 283.327L644.433 281.813L642.353 278.219L643.204 281.057L639.233 278.408L646.607 284.841L645.473 320.505H648.592L647.93 292.219L648.592 291.746L652.373 290.706Z" fill="#263238"/>
<path d="M64.944 275.475C64.944 287.206 58.4212 288.057 50.2913 288.057C42.1615 288.057 35.6387 287.206 35.6387 275.475C35.6387 263.745 42.1615 239.338 50.2913 239.338C58.4212 239.338 64.944 263.745 64.944 275.475Z" fill="#DA5D5D"/>
<path opacity="0.5" d="M64.944 275.475C64.944 287.206 58.4212 288.057 50.2913 288.057C42.1615 288.057 35.6387 287.206 35.6387 275.475C35.6387 263.745 42.1615 239.338 50.2913 239.338C58.4212 239.338 64.944 263.745 64.944 275.475Z" fill="white"/>
<path d="M55.2075 280.773L52.7497 280.962L59.0834 276.705L54.6403 278.975L55.2075 277.178L53.1278 279.732L50.7645 280.962L50.5754 272.543L51.8043 269.421L50.4809 271.124L50.3863 266.299L54.4513 260.907L50.3863 265.069L50.1027 254.379L49.9137 261.191L47.3612 258.353L49.9137 262.515L49.5355 273.394L47.2667 271.975L45.2815 268.286L46.0378 271.124L42.0674 268.475L49.441 274.908L48.4011 310.572H51.4262L50.7645 282.286L51.5207 281.813L55.2075 280.773Z" fill="#263238"/>
<path d="M137.546 248.893C114.953 248.893 96.5186 267.15 96.5186 289.665C96.5186 300.071 100.489 309.626 106.917 316.815C109.848 316.342 115.331 316.059 121.286 318.14C129.227 320.883 134.143 325.235 135.183 326.275H138.869C139.909 325.235 144.92 320.789 152.766 318.14C159.289 315.964 165.15 316.437 167.891 316.91C174.414 309.72 178.384 300.166 178.384 289.665C178.479 267.15 160.139 248.893 137.546 248.893Z" fill="#DA5D5D"/>
<path opacity="0.33" d="M137.546 248.893C114.953 248.893 96.5186 267.15 96.5186 289.665C96.5186 300.071 100.489 309.626 106.917 316.815C109.848 316.342 115.331 316.059 121.286 318.14C129.227 320.883 134.143 325.235 135.183 326.275H138.869C139.909 325.235 144.92 320.789 152.766 318.14C159.289 315.964 165.15 316.437 167.891 316.91C174.414 309.72 178.384 300.166 178.384 289.665C178.479 267.15 160.139 248.893 137.546 248.893Z" fill="white"/>
<path d="M156.547 306.031C155.318 306.599 153.995 307.261 152.766 307.923C151.537 308.585 150.308 309.342 149.173 310.099C148.701 310.383 148.323 310.666 147.944 311.045L154.656 298.558L145.487 313.031C144.541 313.788 143.596 314.545 142.745 315.302C141.233 316.626 139.815 317.951 138.397 319.275L137.924 305.653L147.566 290.99L137.829 303.666L137.451 291.557L136.789 305.18L136.128 318.802C134.899 317.667 133.67 316.532 132.346 315.396C131.307 314.545 130.267 313.694 129.227 312.842L120.53 297.99L126.958 311.139C126.58 310.856 126.202 310.572 125.824 310.383C124.689 309.626 123.46 308.869 122.231 308.207C121.002 307.545 119.773 306.882 118.45 306.315C115.898 305.085 113.345 303.95 110.698 303.004C113.251 304.139 115.709 305.369 118.166 306.693C119.395 307.355 120.53 308.112 121.759 308.774C122.893 309.531 124.027 310.288 125.067 311.139C127.147 312.842 129.132 314.64 131.117 316.532C132.819 318.234 134.426 319.937 135.939 321.64L135.088 338.952H139.153L138.586 322.397C140.287 320.41 142.178 318.424 144.069 316.626C145.959 314.734 147.944 312.937 150.119 311.234C151.159 310.383 152.293 309.626 153.427 308.869C154.562 308.112 155.791 307.45 157.02 306.788C159.477 305.463 161.935 304.139 164.488 303.098C161.652 303.666 159.099 304.801 156.547 306.031Z" fill="#263238"/>
<path d="M251.269 370.454V332.992H202.49V308.964L244.369 209.634H280.102V309.531H295.606V332.992H280.102V370.548H251.269V370.454ZM226.691 309.531H251.269V241.23L226.691 309.531Z" fill="#263238"/>
<path d="M353.082 370.548C343.44 370.548 335.404 368.562 329.071 364.588C322.737 360.615 317.916 355.128 314.796 348.223C311.582 341.317 310.069 333.276 310.069 324.1V252.014C310.069 242.649 311.582 234.419 314.607 227.324C317.632 220.229 322.359 214.742 328.692 210.769C335.026 206.796 343.156 204.809 353.082 204.809C362.913 204.809 370.949 206.796 377.188 210.769C383.427 214.742 388.154 220.229 391.179 227.324C394.204 234.419 395.717 242.649 395.717 252.014V324.1C395.717 333.276 394.109 341.317 390.99 348.223C387.776 355.128 383.049 360.615 376.715 364.588C370.382 368.562 362.535 370.548 353.082 370.548ZM353.082 343.587C356.674 343.587 359.227 342.452 360.834 340.182C362.441 337.911 363.481 335.262 364.048 332.141C364.615 329.019 364.804 326.181 364.804 323.532V252.582C364.804 249.649 364.615 246.622 364.142 243.406C363.67 240.189 362.63 237.446 361.023 235.176C359.416 232.905 356.769 231.675 353.082 231.675C349.395 231.675 346.654 232.811 345.047 235.176C343.345 237.541 342.305 240.284 341.833 243.406C341.36 246.622 341.171 249.649 341.171 252.582V323.532C341.171 326.181 341.454 329.019 341.927 332.141C342.494 335.262 343.534 337.911 345.33 340.182C347.126 342.452 349.679 343.587 353.082 343.587Z" fill="#263238"/>
<path d="M461.228 370.454V332.992H412.449V308.964L454.327 209.634H490.061V309.531H505.565V332.992H490.061V370.548H461.228V370.454ZM436.65 309.531H461.228V241.23L436.65 309.531Z" fill="#263238"/>
<path d="M680.734 292.882C618.909 333.465 496.867 360.994 356.39 360.994C211.565 360.994 86.4031 331.668 26.5635 289.098V452.188H680.734V292.882Z" fill="white"/>
<path d="M667.31 301.017C602.272 337.06 487.319 361.088 356.39 361.088C211.565 361.088 86.4031 331.762 26.5635 289.192" stroke="#263238" stroke-miterlimit="10"/>
<path d="M681.017 292.692C678.276 294.49 675.345 296.382 672.32 298.085" stroke="#263238" stroke-miterlimit="10"/>
<path d="M641.314 283.516C641.314 307.45 627.89 309.247 611.347 309.247C594.804 309.247 581.38 307.45 581.38 283.516C581.38 259.582 594.804 209.634 611.347 209.634C627.89 209.634 641.314 259.582 641.314 283.516Z" fill="#DA5D5D"/>
<path d="M621.462 294.301L616.546 294.679L629.402 285.976L620.233 290.611L621.462 287.016L617.302 292.125L612.292 294.584L611.914 277.462L614.561 271.124L611.914 274.624L611.63 264.691L619.855 253.717L611.63 262.231L611.063 240.284L610.685 254.285L605.391 248.42L610.59 257.028L609.834 279.259L605.296 276.232L601.137 268.853L602.744 274.624L594.614 269.232L609.74 282.381L607.471 355.318H613.71L612.386 297.422L613.804 296.476L621.462 294.301Z" fill="#263238"/>
<path d="M609.362 355.885C609.362 355.885 598.302 344.439 601.421 344.817C604.541 345.195 610.307 353.709 610.307 353.709C610.307 353.709 610.402 334.789 613.143 338.952C615.885 343.114 612.482 353.804 612.482 353.804C612.482 353.804 620.328 341.506 620.328 343.493C620.233 349.736 614.278 354.561 614.278 354.561C614.278 354.561 626.851 345.195 624.865 348.979C622.786 352.763 614.75 356.358 614.75 356.358C614.75 356.358 629.308 353.425 624.109 355.507C618.91 357.588 613.994 359.007 613.994 359.007H609.929C609.929 359.007 596.222 352.101 601.327 353.142C606.62 354.182 609.362 355.885 609.362 355.885Z" fill="#263238"/>
<path d="M80.0696 341.695C80.0696 341.695 70.5217 331.762 73.1686 332.046C75.8156 332.33 80.8258 339.709 80.8258 339.709C80.8258 339.709 80.9204 323.343 83.2837 326.938C85.647 330.532 82.7165 339.803 82.7165 339.803C82.7165 339.803 89.5229 329.208 89.5229 330.911C89.5229 336.303 84.229 340.465 84.229 340.465C84.229 340.465 95.1004 332.33 93.3988 335.641C91.6026 338.952 84.6072 341.979 84.6072 341.979C84.6072 341.979 97.1801 339.425 92.737 341.222C88.294 343.02 84.04 344.249 84.04 344.249H80.5422C80.5422 344.249 68.631 338.29 73.1686 339.141C77.7062 340.182 80.0696 341.695 80.0696 341.695Z" fill="#263238"/>
<path d="M114.669 270.461C114.669 294.395 101.245 296.193 84.7014 296.193C68.1581 296.193 54.7344 294.395 54.7344 270.461C54.7344 246.528 68.1581 196.484 84.7014 196.484C101.245 196.484 114.669 246.528 114.669 270.461Z" fill="#DA5D5D"/>
<path d="M94.817 281.34L89.8067 281.624L102.758 272.921L93.4935 277.556L94.817 273.962L90.563 279.07L85.6473 281.624L85.2691 264.407L87.8215 258.069L85.1746 261.569L84.9855 251.636L93.2099 240.662L84.891 249.176L84.4183 227.229L83.9457 241.23L78.6518 235.365L83.8511 243.973L83.1894 266.204L78.5573 263.177L74.3978 255.798L76.0994 261.569L67.875 256.177L83.0949 269.326L80.7315 342.357H87.0653L85.7418 284.462L87.1598 283.422L94.817 281.34Z" fill="#263238"/>
<path d="M184.718 366.575C184.718 366.575 175.17 356.642 177.817 356.926C180.464 357.209 185.474 364.588 185.474 364.588C185.474 364.588 185.569 348.222 187.932 351.817C190.296 355.412 187.365 364.683 187.365 364.683C187.365 364.683 194.172 354.088 194.172 355.79C194.172 361.183 188.878 365.345 188.878 365.345C188.878 365.345 199.749 357.209 198.047 360.52C196.251 363.832 189.256 366.859 189.256 366.859C189.256 366.859 201.829 364.305 197.386 366.102C192.943 367.899 188.689 369.129 188.689 369.129H185.285C185.285 369.129 173.374 363.169 177.912 364.021C182.355 365.061 184.718 366.575 184.718 366.575Z" fill="#263238"/>
<path d="M235.388 388.333C235.388 388.333 225.84 378.4 228.487 378.684C231.134 378.968 236.144 386.346 236.144 386.346C236.144 386.346 236.239 369.981 238.602 373.575C240.965 377.17 238.035 386.441 238.035 386.441C238.035 386.441 244.841 375.846 244.841 377.549C244.841 382.941 239.547 387.103 239.547 387.103C239.547 387.103 250.419 378.968 248.717 382.279C246.921 385.59 239.926 388.617 239.926 388.617C239.926 388.617 252.499 386.063 248.055 387.86C243.612 389.657 239.358 390.887 239.358 390.887H235.861C235.861 390.887 223.949 384.927 228.487 385.779C233.025 386.819 235.388 388.333 235.388 388.333Z" fill="#263238"/>
<path d="M371.422 373.765C371.422 373.765 364.521 366.575 366.506 366.859C368.397 367.048 372.084 372.44 372.084 372.44C372.084 372.44 372.178 360.615 373.88 363.264C375.581 365.818 373.502 372.535 373.502 372.535C373.502 372.535 378.417 364.872 378.417 366.102C378.417 369.981 374.636 373.008 374.636 373.008C374.636 373.008 382.482 367.143 381.253 369.508C379.93 371.873 374.92 374.143 374.92 374.143C374.92 374.143 383.995 372.346 380.781 373.575C377.567 374.9 374.447 375.751 374.447 375.751H371.895C371.895 375.751 363.292 371.494 366.506 372.062C369.72 372.629 371.422 373.765 371.422 373.765Z" fill="#263238"/>
<path d="M639.046 356.642C639.046 356.642 633.657 351.061 635.17 351.25C636.682 351.439 639.518 355.601 639.518 355.601C639.518 355.601 639.518 346.425 640.936 348.412C642.354 350.398 640.653 355.601 640.653 355.601C640.653 355.601 644.434 349.642 644.434 350.588C644.434 353.615 641.504 355.98 641.504 355.98C641.504 355.98 647.648 351.439 646.608 353.236C645.569 355.034 641.693 356.831 641.693 356.831C641.693 356.831 648.783 355.412 646.23 356.453C643.678 357.493 641.315 358.156 641.315 358.156H639.329C639.329 358.156 632.618 354.845 635.17 355.318C637.722 355.791 639.046 356.642 639.046 356.642Z" fill="#263238"/>
<path d="M277.834 373.765C277.834 373.765 268.286 363.832 270.933 364.115C273.58 364.399 278.591 371.778 278.591 371.778C278.591 371.778 278.685 355.412 281.048 359.007C283.412 362.602 280.481 371.873 280.481 371.873C280.481 371.873 287.288 361.277 287.288 362.98C287.288 368.372 281.994 372.535 281.994 372.535C281.994 372.535 292.865 364.399 291.163 367.71C289.367 371.021 282.372 374.048 282.372 374.048C282.372 374.048 294.945 371.494 290.502 373.292C286.059 375.089 281.805 376.319 281.805 376.319H278.307C278.307 376.319 266.396 370.359 270.933 371.21C275.471 372.251 277.834 373.765 277.834 373.765Z" fill="#DA5D5D"/>
<path d="M208.919 367.143C208.919 367.143 202.491 360.521 204.287 360.71C206.083 360.899 209.486 365.913 209.486 365.913C209.486 365.913 209.486 354.939 211.093 357.399C212.7 359.764 210.715 366.007 210.715 366.007C210.715 366.007 215.253 358.912 215.253 360.048C215.253 363.642 211.755 366.48 211.755 366.48C211.755 366.48 219.034 361.088 217.9 363.264C216.671 365.44 212.039 367.521 212.039 367.521C212.039 367.521 220.452 365.818 217.522 367.048C214.496 368.278 211.66 369.035 211.66 369.035H209.297C209.297 369.035 201.356 365.061 204.287 365.629C207.312 366.197 208.919 367.143 208.919 367.143Z" fill="#DA5D5D"/>
<path d="M128.85 393.441C128.85 393.441 122.421 386.819 124.218 387.009C126.014 387.198 129.417 392.212 129.417 392.212C129.417 392.212 129.417 381.238 131.024 383.698C132.631 386.063 130.646 392.306 130.646 392.306C130.646 392.306 135.183 385.211 135.183 386.346C135.183 389.941 131.686 392.779 131.686 392.779C131.686 392.779 138.965 387.387 137.83 389.563C136.601 391.739 131.969 393.82 131.969 393.82C131.969 393.82 140.383 392.117 137.452 393.347C134.427 394.577 131.591 395.333 131.591 395.333H129.228C129.228 395.333 121.287 391.36 124.218 391.928C127.243 392.401 128.85 393.441 128.85 393.441Z" fill="#DA5D5D"/>
<path d="M343.156 394.671C343.156 394.671 336.728 388.049 338.524 388.238C340.32 388.428 343.724 393.441 343.724 393.441C343.724 393.441 343.724 382.468 345.331 384.927C346.938 387.292 344.952 393.536 344.952 393.536C344.952 393.536 349.49 386.441 349.49 387.576C349.49 391.171 345.992 394.009 345.992 394.009C345.992 394.009 353.271 388.617 352.137 390.793C350.908 392.968 346.276 395.05 346.276 395.05C346.276 395.05 354.689 393.347 351.759 394.577C348.734 395.806 345.898 396.563 345.898 396.563H343.534C343.534 396.563 335.594 392.59 338.524 393.158C341.549 393.725 343.156 394.671 343.156 394.671Z" fill="#DA5D5D"/>
<path d="M447.143 395.05C447.143 395.05 440.714 388.428 442.511 388.617C444.307 388.806 447.71 393.82 447.71 393.82C447.71 393.82 447.71 382.846 449.317 385.306C450.924 387.671 448.939 393.914 448.939 393.914C448.939 393.914 453.476 386.819 453.476 387.955C453.476 391.549 449.979 394.387 449.979 394.387C449.979 394.387 457.258 388.995 456.123 391.171C454.894 393.347 450.262 395.428 450.262 395.428C450.262 395.428 458.676 393.725 455.745 394.955C452.72 396.185 449.884 396.942 449.884 396.942H447.521C447.521 396.942 439.58 392.968 442.511 393.536C445.441 394.104 447.143 395.05 447.143 395.05Z" fill="#DA5D5D"/>
<path d="M640.464 374.238C640.464 374.238 630.727 364.115 633.468 364.399C636.21 364.683 641.314 372.251 641.314 372.251C641.314 372.251 641.409 355.601 643.772 359.196C646.23 362.886 643.205 372.251 643.205 372.251C643.205 372.251 650.201 361.372 650.106 363.169C650.011 368.656 644.718 372.913 644.718 372.913C644.718 372.913 655.873 364.683 654.076 367.994C652.28 371.305 645.096 374.521 645.096 374.521C645.096 374.521 657.952 371.967 653.415 373.765C648.877 375.562 644.529 376.886 644.529 376.886H640.936C640.936 376.886 628.836 370.832 633.374 371.683C638.006 372.724 640.464 374.238 640.464 374.238Z" fill="#DA5D5D"/>
<path d="M59.0837 374.238C59.0837 374.238 49.3468 364.115 52.0883 364.399C54.8297 364.683 59.9345 372.251 59.9345 372.251C59.9345 372.251 60.0291 355.601 62.3924 359.196C64.8503 362.886 61.8252 372.251 61.8252 372.251C61.8252 372.251 68.8207 361.372 68.7261 363.169C68.6316 368.656 63.3377 372.913 63.3377 372.913C63.3377 372.913 74.4927 364.683 72.6965 367.994C70.9004 371.305 63.7159 374.521 63.7159 374.521C63.7159 374.521 76.5724 371.967 72.0348 373.765C67.4972 375.562 63.1487 376.886 63.1487 376.886H59.5564C59.5564 376.886 47.4561 370.832 51.9937 371.683C56.7204 372.724 59.0837 374.238 59.0837 374.238Z" fill="#DA5D5D"/>
<path d="M107.202 359.953C107.202 359.953 97.181 342.736 100.112 341.411C102.948 340.087 108.809 353.236 108.809 353.236C108.809 353.236 107.674 328.546 110.321 330.816C112.968 333.087 115.426 350.588 115.426 350.588C115.426 350.588 120.72 331.573 122.421 335.546C124.123 339.519 121.098 351.628 121.098 351.628C121.098 351.628 128.755 337.06 129.511 341.79C130.268 346.52 125.919 354.372 125.919 354.372C125.919 354.372 135.94 344.344 136.696 348.317C137.452 352.29 134.049 356.264 134.049 356.264C134.049 356.264 147.378 349.074 144.07 353.047C140.855 357.02 136.129 362.129 136.129 362.129C136.129 362.129 148.891 357.588 147.284 360.237C145.771 362.886 140.099 365.724 140.099 365.724C140.099 365.724 150.498 363.832 149.363 365.534C148.229 367.237 145.582 368.94 145.582 368.94H98.3154C98.3154 368.94 85.7425 364.399 90.7527 364.021C95.6685 363.642 100.206 365.724 100.206 365.724C100.206 365.724 84.7971 355.318 92.0762 354.561C99.2607 353.804 105.216 362.886 105.216 362.886C105.216 362.886 95.0067 348.412 98.599 350.682L107.202 359.953Z" fill="#DA5D5D"/>
<path d="M107.863 364.872C107.863 364.872 95.0068 351.534 98.599 351.912C102.191 352.29 108.998 362.318 108.998 362.318C108.998 362.318 109.092 340.276 112.306 345.101C115.521 349.925 111.55 362.413 111.55 362.413C111.55 362.413 120.72 348.033 120.72 350.398C120.625 357.683 113.63 363.359 113.63 363.359C113.63 363.359 128.377 352.48 125.919 356.831C123.461 361.277 114.103 365.44 114.103 365.44C114.103 365.44 131.118 362.034 125.068 364.399C119.018 366.859 113.346 368.467 113.346 368.467H108.62C108.62 368.467 92.5489 360.426 98.599 361.656C104.649 362.886 107.863 364.872 107.863 364.872Z" fill="#263238" stroke="#263238" stroke-miterlimit="10"/>
<path d="M532.412 390.32C532.412 390.32 513.505 357.777 518.894 355.223C524.282 352.669 535.437 377.454 535.437 377.454C535.437 377.454 533.263 330.816 538.273 335.073C543.283 339.425 547.915 372.44 547.915 372.44C547.915 372.44 557.936 336.492 561.15 344.06C564.364 351.628 558.598 374.427 558.598 374.427C558.598 374.427 573.061 346.898 574.479 355.885C575.897 364.872 567.673 379.63 567.673 379.63C567.673 379.63 586.674 360.615 588.092 368.183C589.51 375.751 583.082 383.225 583.082 383.225C583.082 383.225 608.228 369.602 602.083 377.076C595.938 384.644 587.052 394.293 587.052 394.293C587.052 394.293 611.064 385.684 608.228 390.698C605.392 395.712 594.615 401.104 594.615 401.104C594.615 401.104 614.372 397.509 612.198 400.726C610.024 403.942 605.014 407.158 605.014 407.158H515.68C515.68 407.158 491.952 398.644 501.31 397.888C510.669 397.131 519.272 401.104 519.272 401.104C519.272 401.104 490.25 381.333 503.863 379.914C517.476 378.495 528.631 395.712 528.631 395.712C528.631 395.712 509.251 368.467 516.058 372.724L532.412 390.32Z" fill="#DA5D5D"/>
<path d="M533.64 399.59C533.64 399.59 509.251 374.332 516.152 375.089C523.053 375.846 535.815 394.766 535.815 394.766C535.815 394.766 536.004 353.142 542.054 362.223C548.104 371.305 540.636 394.955 540.636 394.955C540.636 394.955 558.03 367.805 557.936 372.251C557.841 385.968 544.512 396.658 544.512 396.658C544.512 396.658 572.305 376.035 567.767 384.36C563.229 392.685 545.457 400.631 545.457 400.631C545.457 400.631 577.504 394.198 566.16 398.739C554.721 403.28 543.945 406.402 543.945 406.402H535.058C535.058 406.402 504.808 391.171 516.152 393.441C527.59 395.806 533.64 399.59 533.64 399.59Z" fill="#263238" stroke="#263238" stroke-miterlimit="10"/>
<path d="M139.721 360.994C139.721 360.994 141.611 359.291 143.313 359.291C145.015 359.291 150.025 361.75 150.025 361.75C150.025 361.75 152.01 364.872 152.199 365.061C152.388 365.251 154.846 366.291 155.035 366.764C155.224 367.237 155.602 368.656 155.602 368.656H140.193L137.357 361.183L139.721 360.994Z" fill="white" stroke="#263238" stroke-miterlimit="10"/>
<path d="M143.313 359.196L143.218 360.71C143.218 360.71 147.189 362.98 147.094 363.832C147 364.683 146.149 366.575 146.149 366.575L148.134 368.656H137.357L138.208 362.318C138.303 362.318 140.572 359.007 143.313 359.196Z" fill="#263238"/>
<path d="M119.585 360.048C119.585 360.048 127.336 348.412 129.038 348.317C130.74 348.128 134.426 349.642 135.844 352.007C137.262 354.372 138.491 359.102 138.586 359.385C138.68 359.669 139.059 359.858 141.138 363.264C143.218 366.67 143.124 368.562 143.124 368.562H113.251C113.251 368.562 113.913 365.534 114.953 363.737C115.992 361.94 118.639 361.372 118.639 361.372L119.585 360.048Z" fill="white" stroke="#263238" stroke-miterlimit="10"/>
<path d="M131.496 368.372C131.496 368.372 130.646 366.386 130.551 366.102C130.456 365.818 130.456 363.169 130.173 362.034C129.889 360.899 127.62 357.493 127.62 357.493L129.322 352.669L128.471 352.007L129.889 348.601L129.133 348.223C127.337 348.506 119.68 359.953 119.68 359.953L118.829 361.277C118.829 361.277 116.276 361.94 115.142 363.642C114.197 365.156 113.629 367.521 113.44 368.278H131.496V368.372Z" fill="#263238"/>
<path d="M437.5 363.831C437.5 363.831 438.729 362.696 439.769 362.696C440.809 362.696 444.023 364.21 444.023 364.21C444.023 364.21 445.252 366.197 445.441 366.291C445.536 366.386 447.143 367.048 447.237 367.332C447.332 367.615 447.615 368.467 447.615 368.467H437.973L436.177 363.737L437.5 363.831Z" fill="white" stroke="#263238" stroke-miterlimit="10"/>
<path d="M439.769 362.791L439.674 363.737C439.674 363.737 442.132 365.156 442.132 365.724C442.132 366.291 441.565 367.426 441.565 367.426L442.794 368.751H436.082L436.555 364.778C436.649 364.683 438.067 362.602 439.769 362.791Z" fill="#263238"/>
<path d="M424.927 363.264C424.927 363.264 429.749 355.98 430.883 355.885C432.017 355.791 434.286 356.737 435.137 358.156C435.988 359.669 436.839 362.602 436.839 362.791C436.933 362.98 437.122 363.075 438.446 365.251C439.769 367.426 439.675 368.562 439.675 368.562H420.957C420.957 368.562 421.335 366.67 422.091 365.534C422.753 364.399 424.36 364.021 424.36 364.021L424.927 363.264Z" fill="white" stroke="#263238" stroke-miterlimit="10"/>
<path d="M432.395 368.467C432.395 368.467 431.923 367.237 431.828 367.048C431.733 366.859 431.733 365.156 431.639 364.494C431.45 363.832 430.032 361.656 430.032 361.656L431.072 358.629L430.599 358.25L431.45 356.074L430.977 355.885C429.843 356.074 425.022 363.264 425.022 363.264L424.549 364.115C424.549 364.115 422.942 364.494 422.28 365.629C421.713 366.575 421.335 368.089 421.24 368.467H432.395Z" fill="#263238"/>
<path d="M593.859 392.117C593.859 392.117 597.546 388.806 600.665 388.806C603.785 388.806 613.333 393.441 613.333 393.441C613.333 393.441 617.114 399.306 617.492 399.685C617.87 400.063 622.503 402.05 622.881 402.901C623.259 403.753 623.921 406.401 623.921 406.401H594.71L589.321 392.212L593.859 392.117Z" fill="white" stroke="#263238" stroke-miterlimit="10"/>
<path d="M600.666 388.806L600.477 391.549C600.477 391.549 607.945 395.901 607.756 397.509C607.567 399.117 606.054 402.712 606.054 402.712L609.835 406.685H589.511L591.118 394.671C591.118 394.766 595.466 388.522 600.666 388.806Z" fill="#263238"/>
<path d="M555.856 390.414C555.856 390.414 570.415 368.467 573.723 368.183C577.032 367.805 583.933 370.643 586.58 375.184C589.227 379.724 591.59 388.617 591.779 389.09C591.968 389.657 592.63 389.941 596.6 396.374C600.571 402.807 600.382 406.496 600.382 406.496H543.945C543.945 406.496 545.174 400.726 547.254 397.415C549.334 394.104 554.249 392.874 554.249 392.874L555.856 390.414Z" fill="white" stroke="#263238" stroke-miterlimit="10"/>
<path d="M578.261 406.023C578.261 406.023 576.654 402.239 576.56 401.672C576.371 401.104 576.371 396.09 575.898 394.009C575.331 391.928 571.077 385.495 571.077 385.495L574.196 376.413L572.589 375.184L575.236 368.751L573.818 368.089C570.415 368.656 555.951 390.32 555.951 390.32L554.344 392.779C554.344 392.779 549.523 394.009 547.349 397.32C545.553 400.158 544.418 404.699 544.135 406.023H578.261Z" fill="#263238"/>
</svg>
