<svg width="64" height="64" viewBox="0 0 64 64" fill="none" xmlns="http://www.w3.org/2000/svg">
<g clip-path="url(#clip0_146_2967)">
<path d="M53.7341 11.5158C53.4055 11.5158 53.083 11.3821 52.8506 11.1496C52.6181 10.9171 52.4844 10.5947 52.4844 10.266C52.4844 9.93732 52.6181 9.61488 52.8506 9.38242C53.083 9.15009 53.4055 9.01624 53.7341 9.01624C54.0628 9.01624 54.3853 9.14996 54.6177 9.38242C54.8502 9.61488 54.9839 9.93732 54.9839 10.266C54.9839 10.5959 54.8502 10.9171 54.6177 11.1496C54.3853 11.3821 54.0628 11.5158 53.7341 11.5158Z" fill="white"/>
<path d="M31.9991 63.9999C25.3632 64 18.8783 61.9433 13.4751 58.1008L5.21706 60.3136C4.78564 60.429 4.3256 60.3058 4.00978 59.9901C3.69409 59.6744 3.57073 59.2141 3.68634 58.783L5.89906 50.525C1.62509 44.5148 -0.439538 37.1655 0.0782426 29.76C0.61577 22.0741 3.91567 14.8373 9.37018 9.38268C20.2887 -1.53571 37.4273 -3.1113 50.1222 5.63649C50.6904 6.02817 50.8338 6.80628 50.4421 7.37467C50.0506 7.94332 49.2722 8.08642 48.7038 7.69474C37.0023 -0.368795 21.2035 1.08444 11.1379 11.1501C0.88822 21.3997 -0.346931 37.8993 8.26488 49.5293C8.49159 49.8355 8.56633 50.2285 8.46772 50.5964L6.66105 57.339L13.4035 55.5323C13.7714 55.4338 14.1644 55.5084 14.4706 55.735C26.101 64.3469 42.6005 63.1118 52.8499 52.8622C62.9158 42.7964 64.3688 26.9972 56.3049 15.2955C55.9132 14.7271 56.0565 13.9489 56.6249 13.5572C57.1931 13.1656 57.9715 13.3088 58.3632 13.8771C67.1115 26.5721 65.5362 43.7111 54.6175 54.6297C49.1628 60.0843 41.9262 63.3842 34.2402 63.9218C33.4924 63.9739 32.7443 63.9999 31.9991 63.9999Z" fill="white"/>
<path d="M31.7879 41.8034C29.6107 41.8034 27.8477 40.0406 27.8477 37.8737C27.8477 33.7521 30.1558 30.0302 33.8713 28.1604C35.5132 27.334 36.5195 25.6108 36.4349 23.7704C36.3331 21.5551 34.2228 19.4449 32.0076 19.343C30.7187 19.2845 29.4957 19.739 28.5667 20.6262C28.0127 21.1554 27.61 21.7834 27.3697 22.4926C26.8242 24.1036 25.3353 25.197 23.6649 25.2135V25.2136C23.6517 25.2138 23.6386 25.2138 23.6255 25.2138C22.3709 25.2138 21.1817 24.6114 20.438 23.5968C19.6853 22.5703 19.479 21.2915 19.8718 20.0882C20.5049 18.1487 21.6321 16.3669 23.1312 14.935C25.6296 12.549 28.9093 11.3233 32.3692 11.4816C35.4011 11.621 38.3156 12.9424 40.5755 15.2023C42.8355 17.4623 44.1568 20.3767 44.2962 23.4089C44.5235 28.3456 41.8201 32.9701 37.409 35.1902C36.3656 35.7152 35.7173 36.7437 35.7173 37.8738C35.7176 40.0406 33.9548 41.8034 31.7879 41.8034ZM31.7793 16.8382C31.8935 16.8382 32.0079 16.8408 32.1228 16.8462C35.6512 17.0084 38.7695 20.1267 38.9317 23.6554C39.0617 26.4794 37.5164 29.1241 34.9949 30.3931C32.1281 31.8357 30.3473 34.7022 30.3473 37.8736C30.3473 38.6622 30.9888 39.3037 31.7774 39.3037C32.5764 39.3037 33.2179 38.6621 33.2179 37.8736C33.2179 35.7932 34.3933 33.9094 36.2854 32.9572C39.8169 31.1798 41.9813 27.4767 41.7994 23.5236C41.6887 21.1154 40.6264 18.7878 38.8081 16.9698C36.9898 15.1516 34.6624 14.0893 32.2544 13.9784C29.4846 13.8527 26.8574 14.8327 24.8577 16.7426C23.6389 17.9066 22.7608 19.2932 22.2481 20.8639C22.1082 21.2924 22.1833 21.7498 22.4538 22.119C22.7315 22.4978 23.1576 22.7142 23.6246 22.7142C23.6297 22.7142 23.6339 22.7116 23.64 22.7141C24.2495 22.7081 24.797 22.2968 25.0022 21.6908C25.3679 20.611 26.0036 19.6179 26.8402 18.8188C28.1852 17.5343 29.9279 16.8382 31.7793 16.8382Z" fill="white"/>
<path d="M31.7826 52.5437C29.6128 52.5437 27.8477 50.7785 27.8477 48.6089C27.8477 46.4392 29.6128 44.674 31.7826 44.674C33.9523 44.674 35.7175 46.4392 35.7175 48.6089C35.7175 50.7785 33.9523 52.5437 31.7826 52.5437ZM31.7826 47.1736C30.9911 47.1736 30.3472 47.8174 30.3472 48.6089C30.3472 49.4003 30.9911 50.0442 31.7826 50.0442C32.5741 50.0442 33.2179 49.4003 33.2179 48.6089C33.2179 47.8174 32.5741 47.1736 31.7826 47.1736Z" fill="white"/>
</g>
<defs>
<clipPath id="clip0_146_2967">
<rect width="64" height="64" fill="white"/>
</clipPath>
</defs>
</svg>
