<svg width="32" height="32" viewBox="0 0 32 32" fill="none" xmlns="http://www.w3.org/2000/svg">
<g clip-path="url(#clip0_48_36)">
<path d="M31.4436 22.2784L23.2705 18.6334C22.9119 18.4734 22.492 18.5544 22.2178 18.8362C21.6748 19.3946 20.3931 20.7043 19.6087 21.4761C18.0484 20.3787 16.3811 18.936 14.7481 17.2674C14.7437 17.263 14.7393 17.2586 14.7349 17.2542C13.0945 15.6424 11.707 14.0306 10.6028 12.4541C11.5491 11.4969 13.2156 9.84887 13.2363 9.82832C13.5139 9.55386 13.593 9.13581 13.4346 8.77842L9.81349 0.606455C9.62696 0.185222 9.16261 -0.0383592 8.71778 0.0793022L2.42701 1.74002C0.517825 2.22681 -0.414061 4.22974 0.175539 6.14706C1.99512 12.0654 4.61426 17.1109 9.72755 22.3041C9.72926 22.3058 9.73097 22.3075 9.73268 22.3092L9.76539 22.342C9.7671 22.3437 9.76881 22.3454 9.77052 22.3472C16.5266 29.0257 22.6216 30.9073 25.896 31.9181C27.7906 32.5027 29.8033 31.5925 30.2945 29.6635L31.9683 23.3787C32.0869 22.9325 31.8645 22.466 31.4436 22.2784ZM28.4812 29.1845C28.4803 29.1884 28.4793 29.1923 28.4783 29.1962C28.2574 30.071 27.3194 30.3917 26.448 30.1226C23.1082 29.0915 17.5186 27.3662 11.0899 21.0125L11.0598 20.9822C4.71802 14.5404 2.86036 8.49809 1.96729 5.59398C1.69873 4.71996 2.01954 3.78087 2.89185 3.55998C2.89478 3.55924 2.89771 3.55851 2.90064 3.55753L8.42384 2.09985L11.4583 8.9477C10.6821 9.71727 9.16285 11.2275 8.71534 11.7016C8.41651 12.0181 8.37428 12.4993 8.61354 12.8636C9.85035 14.7466 11.4661 16.673 13.4155 18.5891C15.3555 20.5705 17.3538 22.2564 19.1944 23.4646C19.5496 23.6977 20.0169 23.6625 20.3333 23.379C20.8277 22.9357 22.3357 21.4012 23.104 20.6153L29.9502 23.6688L28.4812 29.1845Z" fill="#669933"/>
<path d="M16.0005 1.91004C23.7888 1.91004 30.1252 8.23074 30.1252 15.9998C30.1252 16.5184 30.5449 16.9391 31.0625 16.9391C31.5803 16.9391 32 16.5184 32 15.9998C32 7.19478 24.8228 0.0313721 16.0005 0.0313721C15.4827 0.0313721 15.063 0.451871 15.063 0.970707C15.063 1.48954 15.4827 1.91004 16.0005 1.91004Z" fill="#669933"/>
<path d="M16.0005 5.66737C21.6865 5.66737 26.3127 10.3024 26.3127 15.9998C26.3127 16.5184 26.7324 16.9391 27.2502 16.9391C27.7678 16.9391 28.1877 16.5184 28.1877 15.9998C28.1877 9.26644 22.7205 3.7887 16.0005 3.7887C15.4827 3.7887 15.063 4.2092 15.063 4.72803C15.063 5.24662 15.4827 5.66737 16.0005 5.66737Z" fill="#669933"/>
<path d="M16.0005 9.42445C19.6189 9.42445 22.5627 12.3741 22.5627 15.9998C22.5627 16.5184 22.9824 16.9391 23.5002 16.9391C24.0181 16.9391 24.4377 16.5184 24.4377 15.9998C24.4377 11.3383 20.6528 7.54578 16.0005 7.54578C15.4827 7.54578 15.063 7.96652 15.063 8.48511C15.063 9.00395 15.4827 9.42445 16.0005 9.42445Z" fill="#669933"/>
</g>
<defs>
<clipPath id="clip0_48_36">
<rect width="32" height="32" fill="white"/>
</clipPath>
</defs>
</svg>
