<svg width="64" height="56" viewBox="0 0 64 56" fill="none" xmlns="http://www.w3.org/2000/svg">
<path d="M58.6666 0H5.33333C2.38928 0.00352653 0.00352653 2.38928 0 5.33333V43.7333C0.00352653 46.6774 2.38928 49.0631 5.33333 49.0667H37.3333V54.4C37.3334 54.8314 37.5933 55.2202 37.9918 55.3853C38.3904 55.5503 38.8491 55.4591 39.1541 55.1541L42.6667 51.6416L46.1792 55.1541C46.4842 55.4591 46.943 55.5503 47.3415 55.3853C47.74 55.2202 47.9999 54.8314 48 54.4V49.0667H58.6666C61.6107 49.0631 63.9965 46.6774 64 43.7333V5.33333C63.9965 2.38928 61.6107 0.00352653 58.6666 0ZM34.464 20.8693C34.2991 20.7933 34.1806 20.6429 34.1451 20.4648C34.1097 20.2868 34.1616 20.1025 34.2848 19.9691C35.2392 18.9317 35.2392 17.336 34.2848 16.2987C34.1612 16.1651 34.1092 15.9804 34.1449 15.802C34.1806 15.6236 34.2996 15.4731 34.4651 15.3973C35.7428 14.8027 36.3527 13.329 35.8688 12.0053C35.8058 11.8349 35.8282 11.6446 35.9291 11.4935C36.03 11.3424 36.1971 11.2488 36.3787 11.2416C37.7873 11.1824 38.9157 10.054 38.9749 8.64533C38.982 8.46352 39.0758 8.29612 39.2272 8.1952C39.3786 8.09427 39.5692 8.07206 39.7397 8.13547C41.0636 8.6165 42.5356 8.00686 43.1317 6.73067C43.2072 6.56546 43.3574 6.44656 43.5355 6.41106C43.7136 6.37557 43.8979 6.4278 44.0309 6.55147C45.0686 7.50605 46.6647 7.50605 47.7024 6.55147C47.8357 6.42788 48.0203 6.37583 48.1986 6.41153C48.3769 6.44722 48.5272 6.56633 48.6026 6.73173C49.1976 8.00854 50.6703 8.61818 51.9936 8.13547C52.1641 8.07206 52.3547 8.09427 52.5061 8.1952C52.6575 8.29612 52.7513 8.46352 52.7584 8.64533C52.8182 10.0559 53.9493 11.1851 55.36 11.2427C55.5415 11.2495 55.7086 11.3429 55.8096 11.4939C55.9105 11.6448 55.9329 11.835 55.8699 12.0053C55.3855 13.3293 55.9961 14.8035 57.2747 15.3973C57.4395 15.4734 57.5581 15.6238 57.5935 15.8018C57.6289 15.9799 57.577 16.1642 57.4538 16.2976C56.4994 17.3349 56.4994 18.9307 57.4538 19.968C57.5774 20.1016 57.6295 20.2863 57.5938 20.4647C57.5581 20.6431 57.439 20.7936 57.2736 20.8693C55.9958 21.4639 55.3859 22.9377 55.8699 24.2613C55.9328 24.4317 55.9104 24.622 55.8095 24.7731C55.7086 24.9242 55.5415 25.0179 55.36 25.0251C53.9473 25.0817 52.8151 26.214 52.7584 27.6267C52.7513 27.8085 52.6575 27.9759 52.5061 28.0768C52.3547 28.1777 52.1641 28.1999 51.9936 28.1365C50.6697 27.655 49.1973 28.2647 48.6016 29.5413C48.5289 29.7081 48.3783 29.828 48.1995 29.8613C48.0209 29.8987 47.8353 29.8465 47.7024 29.7216C46.6645 28.7675 45.0688 28.7675 44.0309 29.7216C43.8979 29.8463 43.7124 29.8985 43.5339 29.8613C43.3548 29.828 43.2038 29.7081 43.1307 29.5413C42.5361 28.2641 41.063 27.6543 39.7397 28.1376C39.5692 28.201 39.3786 28.1788 39.2272 28.0779C39.0758 27.9769 38.982 27.8095 38.9749 27.6277C38.9183 26.2147 37.7863 25.0818 36.3733 25.024C36.1919 25.0172 36.0247 24.9238 35.9237 24.7728C35.8228 24.6218 35.8004 24.4316 35.8635 24.2613C36.3485 22.9388 35.7405 21.4651 34.464 20.8693ZM46.1803 40.8448L45.8667 41.1584V31.1317C46.0094 31.1313 46.147 31.1851 46.2517 31.2821C46.746 31.7455 47.3982 32.0033 48.0757 32.0032C48.2569 32.0028 48.4377 31.985 48.6155 31.9499C49.4642 31.7842 50.18 31.2172 50.5354 30.4288C50.6604 30.1599 50.9708 30.0318 51.2491 30.1344C51.5736 30.2494 51.9173 30.3012 52.2613 30.2869V41.1584L49.8155 38.7125C49.3989 38.2961 48.7237 38.2961 48.3072 38.7125L46.1803 40.8448ZM45.8667 51.8251L43.4208 49.3792C43.0043 48.9628 42.3291 48.9628 41.9125 49.3792L39.4667 51.8251V30.2848C39.8107 30.2991 40.1544 30.2473 40.4789 30.1323C40.7566 30.0291 41.0669 30.1568 41.1915 30.4256C41.5479 31.216 42.2664 31.7837 43.1179 31.9477C43.3205 31.9878 43.5269 32.0053 43.7333 32V43.7333C43.7334 44.1647 43.9933 44.5535 44.3918 44.7186C44.7903 44.8836 45.2491 44.7924 45.5541 44.4875L45.8667 44.1749V51.8251ZM61.8666 43.7333C61.8666 45.5006 60.434 46.9333 58.6666 46.9333H48V42.0416L49.0667 40.9749L52.5792 44.4875C52.8842 44.7924 53.343 44.8836 53.7415 44.7186C54.14 44.5535 54.3999 44.1647 54.4 43.7333V29.1275C54.6977 28.7095 54.8678 28.2141 54.8896 27.7013C54.9026 27.4055 55.1398 27.1687 55.4357 27.1563C56.3005 27.1229 57.0969 26.6772 57.5775 25.9576C58.0582 25.238 58.1649 24.3316 57.8645 23.52C57.7627 23.2424 57.8907 22.933 58.1589 22.8085C58.9457 22.4471 59.5114 21.7304 59.6803 20.8812C59.8492 20.0321 59.6008 19.1534 59.0123 18.5184C58.8118 18.3004 58.8118 17.9652 59.0123 17.7472C59.6008 17.1124 59.8493 16.2339 59.6804 15.3849C59.5114 14.5358 58.9456 13.8193 58.1589 13.4581C57.8899 13.3344 57.7612 13.0246 57.8635 12.7467C58.1638 11.9351 58.0571 11.0287 57.5765 10.3091C57.0958 9.58946 56.2994 9.14375 55.4347 9.1104C55.1387 9.09795 54.9015 8.86121 54.8885 8.56533C54.8562 7.70028 54.411 6.9032 53.6914 6.422C52.9718 5.9408 52.0651 5.83384 51.2533 6.1344C50.9756 6.23925 50.6642 6.11104 50.5408 5.84107C50.1793 5.05432 49.4626 4.48855 48.6135 4.31965C47.7643 4.15074 46.8856 4.39919 46.2507 4.98773C46.033 5.18808 45.6981 5.18808 45.4805 4.98773C44.8457 4.39917 43.9672 4.15071 43.1182 4.31963C42.2692 4.48855 41.5526 5.05435 41.1915 5.84107C41.0676 6.1112 40.7561 6.23972 40.4779 6.13547C39.6661 5.83491 38.7594 5.94186 38.0398 6.42307C37.3202 6.90427 36.875 7.70135 36.8427 8.5664C36.8296 8.86228 36.5924 9.09902 36.2965 9.11147C35.4318 9.14481 34.6354 9.59053 34.1547 10.3101C33.6741 11.0298 33.5673 11.9362 33.8677 12.7477C33.9696 13.0254 33.8416 13.3347 33.5733 13.4592C32.7866 13.8206 32.2208 14.5374 32.0519 15.3865C31.883 16.2357 32.1314 17.1143 32.72 17.7493C32.9205 17.9673 32.9205 18.3026 32.72 18.5205C32.1314 19.1553 31.883 20.0339 32.0519 20.8829C32.2208 21.7319 32.7866 22.4484 33.5733 22.8096C33.8424 22.9333 33.971 23.2431 33.8688 23.5211C33.5684 24.3326 33.6751 25.239 34.1558 25.9586C34.6364 26.6783 35.4328 27.124 36.2976 27.1573C36.5935 27.1698 36.8307 27.4065 36.8437 27.7024C36.8657 28.2148 37.0358 28.7098 37.3333 29.1275V46.9333H5.33333C3.56602 46.9333 2.13333 45.5006 2.13333 43.7333V5.33333C2.13333 3.56602 3.56602 2.13333 5.33333 2.13333H58.6666C60.434 2.13333 61.8666 3.56602 61.8666 5.33333V43.7333Z" fill="white"/>
<path d="M11.7332 38.4C9.96592 38.4 8.53324 36.9673 8.53324 35.2V13.8667C8.53324 12.0993 9.96592 10.6667 11.7332 10.6667H30.9332C31.5223 10.6667 31.9999 10.1891 31.9999 9.59999C31.9999 9.01089 31.5223 8.53333 30.9332 8.53333H11.7332C8.78918 8.53685 6.40343 10.9226 6.3999 13.8667V35.2C6.40343 38.1441 8.78918 40.5298 11.7332 40.5333H31.9999C32.589 40.5333 33.0666 40.0558 33.0666 39.4667C33.0666 38.8776 32.589 38.4 31.9999 38.4H11.7332Z" fill="white"/>
<path d="M12.8001 25.6H27.7334C28.3225 25.6 28.8001 25.1224 28.8001 24.5333C28.8001 23.9442 28.3225 23.4667 27.7334 23.4667H12.8001C12.211 23.4667 11.7334 23.9442 11.7334 24.5333C11.7334 25.1224 12.211 25.6 12.8001 25.6Z" fill="white"/>
<path d="M12.8001 21.3333H27.7334C28.3225 21.3333 28.8001 20.8557 28.8001 20.2666C28.8001 19.6775 28.3225 19.2 27.7334 19.2H12.8001C12.211 19.2 11.7334 19.6775 11.7334 20.2666C11.7334 20.8557 12.211 21.3333 12.8001 21.3333Z" fill="white"/>
<path d="M12.8001 17.0667H27.7334C28.3225 17.0667 28.8001 16.5891 28.8001 16C28.8001 15.4109 28.3225 14.9333 27.7334 14.9333H12.8001C12.211 14.9333 11.7334 15.4109 11.7334 16C11.7334 16.5891 12.211 17.0667 12.8001 17.0667Z" fill="white"/>
<path d="M11.8221 35.6267C11.9918 36.0156 12.3759 36.2669 12.8002 36.2667C12.947 36.2674 13.0924 36.2372 13.2269 36.1782C14.2144 35.8113 15.122 35.2576 15.8999 34.5473C16.1887 34.2591 16.4413 33.9367 16.6519 33.5873C17.0593 34.0452 17.538 34.4342 18.0695 34.7393C18.8109 35.224 19.7336 35.3419 20.573 35.0593C20.8948 34.9343 21.1858 34.7415 21.4263 34.4939C21.909 34.7956 22.4408 35.0104 22.9975 35.1286L23.8039 35.3195C25.4499 35.8017 27.1601 36.0283 28.8749 35.9915C29.255 35.9641 29.5916 35.7359 29.7579 35.393C29.9242 35.0501 29.8949 34.6445 29.6811 34.329C29.4673 34.0135 29.1014 33.8361 28.7213 33.8635C27.225 33.8831 25.7344 33.6745 24.301 33.2449L23.4765 33.0497C22.4813 32.8203 22.2253 32.4193 22.1197 32.1366C21.9338 31.6403 21.4117 31.3557 20.8939 31.4685C20.376 31.5812 20.0195 32.057 20.0567 32.5857C20.0687 32.7769 19.9781 32.9601 19.8189 33.0667C19.5697 33.0984 19.3178 33.0335 19.1149 32.8854C18.2522 32.3483 17.6035 31.5277 17.2802 30.5643C17.0967 30.0683 16.5774 29.7817 16.0599 29.8907C15.5423 29.9998 15.1829 30.4716 15.2151 30.9995C15.2331 31.7626 14.9342 32.499 14.3895 33.0337C13.7972 33.5516 13.1136 33.9546 12.3735 34.2219C12.114 34.335 11.9101 34.5466 11.8067 34.81C11.7032 35.0735 11.7088 35.3673 11.8221 35.6267Z" fill="white"/>
<path d="M45.8668 26.6666C50.5797 26.6666 54.4002 22.8461 54.4002 18.1333C54.4002 13.4205 50.5797 9.59998 45.8668 9.59998C41.154 9.59998 37.3335 13.4205 37.3335 18.1333C37.3388 22.8439 41.1562 26.6613 45.8668 26.6666ZM45.8668 11.7333C49.4015 11.7333 52.2668 14.5987 52.2668 18.1333C52.2668 21.6679 49.4015 24.5333 45.8668 24.5333C42.3322 24.5333 39.4668 21.6679 39.4668 18.1333C39.4704 14.6001 42.3337 11.7368 45.8668 11.7333Z" fill="white"/>
</svg>
