<svg width="93" height="93" viewBox="0 0 93 93" fill="none" xmlns="http://www.w3.org/2000/svg">
<path d="M82.8026 84.2873C68.572 95.9042 24.1376 95.9042 10.1973 84.2873C-4.03336 72.6704 -2.58128 23.0085 10.1973 9.93952C22.9758 -3.12942 70.024 -3.12942 82.8026 9.93952C95.5812 23.0085 97.0332 72.6706 82.8026 84.2873Z" fill="#DA5D5D"/>
<g opacity="0.2">
<path opacity="0.2" d="M46.791 63.958C34.0124 74.1228 19.7818 79.3504 6.42244 79.6407C-3.45197 62.7963 -1.41893 21.847 10.1979 9.9398C20.6531 -0.805727 53.4706 -2.83876 72.3481 3.84089C76.9947 23.0087 67.4109 47.404 46.791 63.958Z" fill="white"/>
</g>
<path d="M39.8202 72.3801C37.7871 72.3801 35.7543 71.5087 34.5926 69.7663L18.3291 48.856C16.0057 45.9518 16.5867 41.886 19.4908 39.5625C22.395 37.2391 26.4609 37.8201 28.7843 40.7242L39.8202 54.9549L64.2156 23.2991C66.539 20.3949 70.6049 19.8139 73.5091 22.1374C76.4132 24.4608 76.9942 28.5266 74.6708 31.4308L45.0478 69.7663C43.5957 71.2184 41.8532 72.3801 39.8202 72.3801Z" fill="white"/>
</svg>
