<svg width="107" height="123" viewBox="0 0 107 123" fill="none" xmlns="http://www.w3.org/2000/svg">
<mask id="path-1-inside-1_701_2384" fill="white">
<path d="M18 114C18 118.971 13.9706 123 9 123C4.02944 123 0 118.971 0 114C0 109.029 4.02944 105 9 105C13.9706 105 18 109.029 18 114Z"/>
</mask>
<path d="M18 114C18 118.971 13.9706 123 9 123C4.02944 123 0 118.971 0 114C0 109.029 4.02944 105 9 105C13.9706 105 18 109.029 18 114Z" fill="white"/>
<path d="M17 114C17 118.418 13.4183 122 9 122V124C14.5228 124 19 119.523 19 114H17ZM9 122C4.58172 122 1 118.418 1 114H-1C-1 119.523 3.47715 124 9 124V122ZM1 114C1 109.582 4.58172 106 9 106V104C3.47715 104 -1 108.477 -1 114H1ZM9 106C13.4183 106 17 109.582 17 114H19C19 108.477 14.5228 104 9 104V106Z" fill="black" mask="url(#path-1-inside-1_701_2384)"/>
<path d="M12 106L63.5 1H107" stroke="black"/>
</svg>
