<svg width="338" height="111" viewBox="0 0 338 111" fill="none" xmlns="http://www.w3.org/2000/svg">
<g clip-path="url(#clip0_130_4853)">
<path fill-rule="evenodd" clip-rule="evenodd" d="M110.359 5.44188C110.904 7.3538 117.592 31.8841 105.794 44.6966C93.5721 57.9708 86.3007 51.5725 85.3587 43.5361C85.3555 43.5021 85.3416 43.4699 85.319 43.4442C85.2964 43.4185 85.2663 43.4005 85.2329 43.3928C83.6991 43.0178 67.1275 38.6765 69.3018 26.5002C71.5819 13.7353 94.8365 7.04542 94.8365 7.04542C94.8365 7.04542 99.726 5.08498 110.202 5.32215C110.238 5.32176 110.273 5.33333 110.301 5.35501C110.33 5.37669 110.35 5.40726 110.359 5.44188Z" fill="#669933"/>
<path fill-rule="evenodd" clip-rule="evenodd" d="M108.397 8.06883C107.086 12.7715 102.837 24.8617 91.428 37.1295C91.4055 37.1534 91.3907 37.1834 91.3854 37.2157C91.38 37.248 91.3844 37.2811 91.398 37.3109C91.4118 37.3413 91.4343 37.3669 91.4627 37.3844C91.4911 37.4019 91.5241 37.4106 91.5574 37.4093C93.7626 37.3291 96.5314 37.6093 99.1858 39.2687C99.2198 39.2896 99.2451 39.3221 99.2573 39.3601C99.2695 39.3981 99.2676 39.4392 99.2521 39.476C99.2366 39.5127 99.2084 39.5428 99.1727 39.5606C99.137 39.5785 99.096 39.583 99.0572 39.5734C97.2445 39.1362 93.2021 38.6025 88.4562 40.8595C88.4287 40.8725 88.4052 40.8925 88.388 40.9176C86.5208 43.7011 84.0354 47.1712 81.6863 50.8073C81.6704 50.8319 81.6484 50.852 81.6224 50.8654C81.5963 50.8789 81.5672 50.8853 81.538 50.884C81.5087 50.8827 81.4802 50.8738 81.4555 50.8581C81.4308 50.8424 81.4106 50.8205 81.3969 50.7946L78.4514 45.2461C78.4514 45.2461 79.5479 44.5659 81.4065 43.0295C81.4301 43.0096 81.4479 42.9836 81.4577 42.9544C81.4676 42.9252 81.4692 42.8938 81.4624 42.8637C81.4556 42.8336 81.4407 42.8059 81.4192 42.7837C81.3977 42.7615 81.3705 42.7457 81.3406 42.7379C73.3621 40.6237 65.7651 35.8566 68.6425 25.6675C73.259 9.32228 97.2659 1.79022 112.791 -0.000165713C112.829 -0.00495643 112.868 0.00359064 112.9 0.0240176C112.933 0.0444445 112.957 0.0754859 112.969 0.111847C118.088 15.0943 119.591 38.9322 108.6 49.2038C95.3101 61.6249 85.2081 49.1743 89.0516 42.6903C89.0701 42.6591 89.0982 42.6348 89.1317 42.6209C89.1651 42.607 89.2022 42.6043 89.2374 42.6131C89.2725 42.622 89.3039 42.642 89.3267 42.6701C89.3495 42.6983 89.3627 42.733 89.3641 42.7692C89.6898 51.1357 96.3102 56.1581 106.651 46.1187C116.519 36.5382 117.824 10.6746 111.302 3.01239C111.284 2.99096 111.262 2.97443 111.236 2.96442C111.21 2.95441 111.182 2.95125 111.154 2.95525C97.4575 4.54474 76.7682 13.6672 72.495 26.9087C69.9515 34.7859 77.6802 41.5674 83.8923 40.3466C83.9263 40.3402 83.9615 40.3444 83.9929 40.3587C84.0244 40.3731 84.0506 40.3968 84.068 40.4267C84.0854 40.4565 84.0931 40.491 84.09 40.5254C84.087 40.5598 84.0733 40.5924 84.0508 40.6187C83.96 40.7221 83.861 40.8396 83.7561 40.9643C85.8863 38.9934 88.5315 36.277 91.4489 32.6853C91.4489 32.6853 91.4516 32.6826 91.4525 32.6812C93.9143 29.8519 93.7758 22.9765 91.8845 18.1296C91.87 18.0921 91.8694 18.0506 91.8829 18.0128C91.8965 17.9749 91.9231 17.9432 91.9581 17.9233C91.9931 17.9034 92.034 17.8967 92.0735 17.9045C92.113 17.9122 92.1485 17.9338 92.1733 17.9654C93.451 19.6066 95.8696 23.4137 94.8799 27.7069C94.8711 27.7445 94.8757 27.784 94.8929 27.8187C94.91 27.8533 94.9387 27.881 94.9739 27.8969C95.0088 27.9135 95.0483 27.9174 95.0857 27.908C95.1231 27.8985 95.1561 27.8763 95.1788 27.8452C99.3575 22.2423 104.638 15.6358 108.08 7.95681C108.098 7.91881 108.129 7.88876 108.168 7.87257C108.207 7.85637 108.25 7.85521 108.289 7.8693C108.329 7.88339 108.362 7.91172 108.381 7.94873C108.401 7.98573 108.406 8.02873 108.396 8.06928L108.397 8.06883Z" fill="#53381D"/>
<path fill-rule="evenodd" clip-rule="evenodd" d="M24.3733 9.52889C27.4941 9.48943 68.0807 11.4499 79.18 35.1226C90.7776 59.8584 79.4071 66.2812 67.2504 63.6804C67.2163 63.6726 67.1806 63.6754 67.1481 63.6884C67.1156 63.7015 67.0879 63.7242 67.0687 63.7534C65.9927 65.4127 51.3129 87.4044 34.5592 78.3037C17.1533 68.847 19.0255 32.4398 19.0255 32.4398C19.0255 32.4398 18.6126 24.4955 24.2034 9.63863C24.2168 9.60502 24.2404 9.5764 24.2708 9.55674C24.3012 9.53708 24.337 9.52734 24.3733 9.52889Z" fill="#669933"/>
<path fill-rule="evenodd" clip-rule="evenodd" d="M26.9233 12.3632C31.9804 16.2011 47.4564 29.3438 58.4813 53.7671C58.4942 53.7979 58.5164 53.8239 58.5448 53.8416C58.5732 53.8593 58.6064 53.8678 58.6398 53.866C58.6731 53.8652 58.7054 53.8544 58.7325 53.835C58.7596 53.8156 58.7801 53.7884 58.7915 53.7571C59.9992 50.492 62.1135 46.552 66.3449 43.7544C66.378 43.7322 66.4181 43.7225 66.4578 43.7272C66.4975 43.732 66.5341 43.7508 66.5611 43.7803C66.5881 43.8096 66.6039 43.8476 66.6056 43.8874C66.6074 43.9272 66.595 43.9664 66.5706 43.998C65.0145 45.9688 61.4495 51.4543 61.8592 59.9078C61.8602 59.9383 61.8698 59.9679 61.8869 59.9931C64.697 64.2428 68.1135 69.7799 71.8462 75.21C71.863 75.2338 71.8732 75.2617 71.8756 75.2907C71.878 75.3198 71.8725 75.3489 71.8598 75.3751C71.848 75.4019 71.829 75.425 71.805 75.4419C71.781 75.4588 71.7528 75.4688 71.7235 75.4708L62.1303 76.3365C62.1303 76.3365 61.8151 74.3597 60.7178 70.7817C60.7086 70.7523 60.6915 70.7261 60.6684 70.7057C60.6453 70.6853 60.6171 70.6717 60.5868 70.6661C60.5565 70.6606 60.5252 70.6635 60.4965 70.6744C60.4677 70.6854 60.4424 70.704 60.4234 70.7282C52.8187 80.6343 41.7026 88.5146 29.1339 78.5283C9.04087 62.5653 12.5836 24.7776 19.1623 2.1864C19.1729 2.14977 19.1957 2.11785 19.2269 2.09592C19.2581 2.07398 19.2959 2.06335 19.334 2.06577C43.1946 3.67748 77.3311 15.5059 85.232 36.7779C94.8611 62.6977 71.1458 69.3564 64.583 59.8852C64.5627 59.8557 64.5523 59.8206 64.5535 59.7848C64.5546 59.7491 64.5672 59.7146 64.5894 59.6865C64.6113 59.6577 64.6421 59.6368 64.6771 59.6272C64.7121 59.6176 64.7493 59.6198 64.7829 59.6335C76.7284 64.255 87.8069 58.0508 79.7979 37.6844C72.2036 18.3684 36.8767 1.45083 22.4249 6.08417C22.3985 6.0927 22.3747 6.10754 22.3555 6.12738C22.3363 6.14722 22.3222 6.17147 22.3145 6.19799C16.5239 26.1381 17.1461 60.2303 33.1113 73.9004C42.6832 82.0977 56.8012 75.1348 58.5271 65.6686C58.5329 65.6331 58.5499 65.6005 58.5757 65.5754C58.6015 65.5504 58.6346 65.5343 58.6703 65.5295C58.7059 65.5247 58.7422 65.5315 58.7736 65.5489C58.8051 65.5662 58.8302 65.5933 58.8451 65.6259C58.9582 65.8636 59.1035 66.152 59.2643 66.4649C57.7623 62.3563 55.523 57.0985 52.221 50.9514C52.221 50.9514 52.221 50.9482 52.221 50.9464C49.6552 45.7507 39.5751 41.8665 31.6247 41.8457C31.5843 41.846 31.5452 41.8315 31.5148 41.8049C31.4844 41.7783 31.4649 41.7415 31.4599 41.7015C31.454 41.6619 31.4626 41.6215 31.4841 41.5877C31.5057 41.5539 31.5386 41.5289 31.577 41.5174C34.3068 40.7011 41.8039 39.078 47.6254 43.5304C47.6562 43.5542 47.6944 43.5665 47.7333 43.5652C47.7723 43.5639 47.8096 43.5491 47.8387 43.5233C47.8679 43.4975 47.8872 43.4624 47.8933 43.424C47.8994 43.3856 47.8918 43.3462 47.872 43.3127C42.2962 33.9096 35.9265 22.15 26.7062 12.6113C26.6777 12.5806 26.6616 12.5404 26.6613 12.4985C26.6609 12.4566 26.6761 12.4161 26.7041 12.3849C26.732 12.3536 26.7706 12.3339 26.8123 12.3296C26.854 12.3252 26.8959 12.3366 26.9296 12.3614L26.9233 12.3632Z" fill="#53381D"/>
<path fill-rule="evenodd" clip-rule="evenodd" d="M117.565 47.8109C117.565 47.8109 133.825 63.8785 125.597 73.7824C120.167 79.6324 111.385 75.3877 111.385 75.3877C111.385 75.3877 104.961 93.3977 76.0096 92.1189C75.6008 85.2557 73.6373 77.272 68.5234 69.0248C70.6972 62.5816 75.0031 54.9429 82.938 46.3561C82.938 46.3561 80.816 44.3194 85.1913 38.9347C89.5666 33.5499 107.113 33.5027 117.565 47.8109Z" fill="#BA7852"/>
<path fill-rule="evenodd" clip-rule="evenodd" d="M117.854 78.5414C120.216 79.1994 125.534 80.0719 128.619 75.8132C132.666 70.2216 128.788 59.6652 128.788 59.6652C128.788 59.6652 124.718 47.3388 105.229 37.9212C105.226 37.92 105.223 37.9191 105.22 37.9184C104.961 37.8105 92.7434 32.7981 84.3788 40.5487C84.3495 40.5765 84.3111 40.5927 84.2708 40.5944C84.2304 40.596 84.1908 40.5831 84.1593 40.5578C84.1278 40.5326 84.1065 40.4969 84.0993 40.4572C84.0922 40.4175 84.0997 40.3765 84.1204 40.3419C85.7474 37.5947 91.6833 30.1225 106.528 33.9667C106.528 33.9667 114.554 35.9421 123.519 44.8533C123.542 44.8771 123.571 44.8934 123.604 44.9C123.636 44.9066 123.67 44.9031 123.701 44.89C125.355 44.2361 127.825 42.6679 130.502 38.9161C130.507 38.9102 130.511 38.9043 130.515 38.8994C130.662 38.742 132.924 36.3689 133.516 39.6703C133.518 39.6861 133.523 39.7014 133.53 39.7156C133.662 39.9846 134.978 42.944 130.683 45.504C128.825 46.6124 127.309 47.0912 126.168 47.2726C126.138 47.2773 126.111 47.2899 126.087 47.3091C126.064 47.3283 126.047 47.3533 126.036 47.3816C126.026 47.4099 126.024 47.4404 126.03 47.4699C126.036 47.4994 126.049 47.5268 126.069 47.5493C127.612 49.2829 129.065 51.0943 130.422 52.9762C130.422 52.9762 138.795 64.129 131.931 77.8108C131.928 77.8158 131.926 77.8199 131.923 77.824C131.77 78.072 127.414 84.8957 117.721 78.8484C117.686 78.8271 117.66 78.7938 117.648 78.7548C117.636 78.7157 117.639 78.6736 117.655 78.6362C117.672 78.5989 117.702 78.5689 117.739 78.5518C117.776 78.5348 117.818 78.5319 117.858 78.5437L117.854 78.5414Z" fill="#53381D"/>
<path fill-rule="evenodd" clip-rule="evenodd" d="M70.2548 71.4355C72.3114 65.2776 75.9414 58.5414 82.1272 51.89C82.1483 51.8671 82.1753 51.8505 82.2052 51.842C82.2352 51.8335 82.2669 51.8335 82.2968 51.842C82.3268 51.8504 82.3538 51.867 82.3749 51.8899C82.3959 51.9128 82.4102 51.9411 82.4161 51.9716C82.8898 54.4659 86.7955 70.3327 109.755 73.0727C109.796 73.0778 109.837 73.068 109.871 73.045C109.904 73.0221 109.929 72.9876 109.939 72.948C109.949 72.9085 109.945 72.8665 109.926 72.8301C109.907 72.7937 109.876 72.7653 109.838 72.7502C104.972 70.8365 87.7507 62.8142 85.779 44.5162C85.779 44.5117 85.779 44.5076 85.779 44.5022C85.7563 44.382 85.3988 42.7118 83.9517 43.9974C83.0243 44.821 72.9987 53.3099 67.456 67.2276C67.4454 67.2528 67.4414 67.2803 67.4443 67.3075C67.4472 67.3347 67.4571 67.3608 67.4728 67.3831C68.3852 68.7509 69.2112 70.1103 69.951 71.4614C69.9664 71.4901 69.9899 71.5136 70.0186 71.5291C70.0473 71.5446 70.0799 71.5513 70.1124 71.5485C70.1449 71.5456 70.1758 71.5333 70.2014 71.5131C70.2269 71.4929 70.246 71.4656 70.2562 71.4346L70.2548 71.4355Z" fill="#53381D"/>
<path fill-rule="evenodd" clip-rule="evenodd" d="M120.857 80.1527C116.579 84.6218 96.9662 98.3767 76.2091 96.9441C76.166 96.9435 76.1243 96.9599 76.0933 96.9898C76.0622 97.0197 76.0443 97.0607 76.0433 97.1038C75.9879 98.3373 75.8871 99.5172 75.7554 100.641C75.7524 100.663 75.754 100.686 75.7603 100.707C75.7665 100.729 75.7772 100.749 75.7917 100.766C75.8047 100.784 75.822 100.799 75.8421 100.81C75.8621 100.82 75.8844 100.826 75.9071 100.826C87.1327 100.638 106.456 96.3115 121.079 80.4003C121.108 80.3695 121.124 80.329 121.124 80.2869C121.124 80.2448 121.108 80.2043 121.079 80.1735C121.024 80.1118 120.917 80.0914 120.857 80.1527Z" fill="#53381D"/>
<path fill-rule="evenodd" clip-rule="evenodd" d="M110.707 80.4041C109.038 80.4948 103.122 80.5773 98.5396 77.6296C98.5058 77.6077 98.4653 77.5986 98.4254 77.6041C98.3855 77.6096 98.349 77.6293 98.3225 77.6596C98.2961 77.6899 98.2814 77.7285 98.2809 77.7686C98.2804 77.8087 98.2942 77.8477 98.3197 77.8786C99.5502 79.3447 102.167 82.0997 104.795 82.5536C104.825 82.5586 104.854 82.5719 104.877 82.5919C104.9 82.612 104.918 82.6381 104.927 82.6674C104.936 82.6967 104.937 82.728 104.93 82.7578C104.923 82.7877 104.908 82.8149 104.886 82.8366C103.857 83.8606 99.259 87.8677 89.1071 89.2721C89.0652 89.2777 89.0268 89.2989 88.9999 89.3316C88.9731 89.3643 88.9596 89.4059 88.9622 89.4481C88.9643 89.4898 88.9821 89.5292 89.0121 89.5583C89.0422 89.5875 89.0821 89.6041 89.1239 89.605C92.8371 89.7234 102.118 89.0531 110.835 80.6912C110.86 80.6675 110.876 80.6369 110.883 80.6033C110.89 80.5698 110.886 80.5351 110.872 80.5038C110.859 80.4725 110.836 80.4461 110.806 80.4283C110.777 80.4105 110.743 80.402 110.709 80.4041H110.707Z" fill="#53381D"/>
<path fill-rule="evenodd" clip-rule="evenodd" d="M91.2952 42.2905C88.7516 42.6397 90.0547 47.4576 92.5642 47.5692C95.0737 47.6807 92.4761 43.5934 91.2952 42.2905Z" fill="#53381D"/>
<path fill-rule="evenodd" clip-rule="evenodd" d="M16.7138 53.7515C16.3809 53.3067 -2.12919 73.8866 8.57998 86.7268C14.5845 92.9655 24.2336 86.579 24.2336 86.579C24.2336 86.579 32.4746 110.458 70.7148 99.7915C70.7148 99.7915 83.4002 76.754 55.425 47.5364C55.425 47.5364 57.751 44.7787 52.9115 38.9473C48.0719 33.1158 28.9496 35.8209 16.7138 53.7515Z" fill="#BA7852"/>
<path fill-rule="evenodd" clip-rule="evenodd" d="M18.9327 91.4339C16.1507 92.9794 9.90089 95.6918 6.58521 91.1573C2.23623 85.2111 7.66894 70.6903 7.66894 70.6903C7.66894 70.6903 11.5973 55.7881 32.3843 42.0386C32.3868 42.0375 32.3891 42.0362 32.3912 42.0346C32.6442 41.8867 45.811 34.2159 54.792 42.254C54.8219 42.2808 54.8604 42.296 54.9006 42.2971C54.9407 42.2982 54.98 42.285 55.0113 42.2599C55.0418 42.2349 55.0626 42.2 55.0699 42.1613C55.0772 42.1226 55.0706 42.0825 55.0513 42.0482C53.4589 39.2306 47.1532 30.885 30.9786 37.6103C30.9786 37.6103 22.4051 41.0568 12.8559 52.7343C12.8352 52.7601 12.8072 52.7791 12.7756 52.789C12.7439 52.7988 12.7101 52.799 12.6783 52.7896C10.9069 52.2608 8.26167 50.7824 5.38339 46.7844C5.37904 46.7778 5.37385 46.7717 5.36795 46.7663C5.20716 46.5994 2.779 44.1569 2.16446 48.0991C2.16174 48.1128 2.15809 48.1263 2.15356 48.1395C2.03138 48.427 0.58611 52.0994 5.21715 54.4929C7.21246 55.5237 8.83715 55.8679 10.0585 55.9155C10.0889 55.9166 10.1185 55.926 10.1439 55.9427C10.1694 55.9593 10.1898 55.9826 10.203 56.01C10.2162 56.0374 10.2216 56.0679 10.2187 56.0981C10.2158 56.1284 10.2047 56.1573 10.1866 56.1817C8.64456 58.2818 7.08347 60.6024 5.5301 63.1678C5.52919 63.1703 5.5278 63.1726 5.52601 63.1746C5.36931 63.4108 -4.65311 78.6087 2.68543 93.4778C2.68578 93.4799 2.68673 93.4818 2.68816 93.4833C2.75084 93.6248 6.91224 102.672 19.1303 91.7079C19.1609 91.6802 19.1804 91.6423 19.185 91.6012C19.1896 91.5602 19.179 91.519 19.1553 91.4852C19.1317 91.45 19.0955 91.425 19.0541 91.4155C19.0128 91.406 18.9694 91.4126 18.9327 91.4339Z" fill="#53381D"/>
<path fill-rule="evenodd" clip-rule="evenodd" d="M16.5327 93.6915C16.8256 94.1822 16.9823 94.4819 18.2823 95.5581C23.5015 99.5742 43.4183 110.938 69.0725 105.898C70.4447 105.629 71.4557 104.596 71.711 103.222C73.0068 96.2265 75.3123 73.8975 57.1152 55.0476C57.0933 55.0253 57.0657 55.0095 57.0354 55.0019C57.0051 54.9943 56.9733 54.9953 56.9435 55.0047C56.9137 55.0141 56.8871 55.0316 56.8667 55.0551C56.8462 55.0787 56.8327 55.1075 56.8277 55.1383C56.3735 57.915 52.3692 77.2501 27.5698 83.7147C27.5305 83.7246 27.4889 83.72 27.4527 83.7017C27.4165 83.6834 27.3881 83.6527 27.3729 83.6152C27.3576 83.5777 27.3564 83.5359 27.3696 83.4976C27.3827 83.4593 27.4093 83.427 27.4444 83.4068C32.4098 80.6404 51.1406 68.8193 53.1886 46.9723C53.1878 46.9681 53.1878 46.9637 53.1886 46.9596C53.2086 46.8376 53.5779 44.8068 55.1417 46.1088C56.7314 47.433 83.1691 68.2392 75.4095 105.781C75.1824 106.873 74.9276 107.489 73.9075 107.943C67.3216 110.873 39.5585 116.537 18.4113 96.7553C18.2714 96.6256 16.3306 94.2452 16.2615 93.931C16.2433 93.8439 16.2016 93.7736 16.2579 93.7078C16.3142 93.6421 16.4873 93.6171 16.5327 93.6915Z" fill="#53381D"/>
<path fill-rule="evenodd" clip-rule="evenodd" d="M26.6161 92.3759C28.264 92.2644 34.7531 91.5687 39.7321 87.3816C39.763 87.3552 39.8024 87.3411 39.843 87.3418C39.8836 87.3426 39.9226 87.3582 39.9524 87.3857C39.9828 87.413 40.0023 87.4504 40.007 87.491C40.0118 87.5316 40.0016 87.5725 39.9783 87.6061C38.6375 89.5461 35.6466 93.4226 32.697 94.1364C32.697 94.1364 37.412 99.4989 50.0975 99.6558C50.1393 99.656 50.1796 99.6719 50.2103 99.7004C50.241 99.7289 50.2597 99.7679 50.2628 99.8096C50.2669 99.8513 50.2552 99.8932 50.23 99.9267C50.2048 99.9603 50.1679 99.9832 50.1265 99.991C46.3839 100.675 36.1371 101.483 26.5144 92.6716C26.4892 92.6495 26.4712 92.6204 26.4627 92.588C26.4541 92.5556 26.4553 92.5215 26.4662 92.4898C26.4771 92.4581 26.4972 92.4304 26.5239 92.4102C26.5505 92.3899 26.5826 92.378 26.6161 92.3759Z" fill="#53381D"/>
<path fill-rule="evenodd" clip-rule="evenodd" d="M43.1201 43.35C46.4921 42.121 50.2865 49.6313 47.4628 51.4761C44.639 53.3209 43.1755 45.939 43.1201 43.35Z" fill="#53381D"/>
<path fill-rule="evenodd" clip-rule="evenodd" d="M65.5992 82.772C68.498 82.4582 70.0241 89.1159 67.4379 90.0211C64.8516 90.9263 65.1382 84.8236 65.5992 82.772Z" fill="#53381D"/>
<path fill-rule="evenodd" clip-rule="evenodd" d="M110.359 5.442C110.794 6.96437 115.12 22.823 110.913 35.69C111.391 35.9224 111.899 36.184 112.438 36.4745C116.685 24.7943 116.203 8.7661 111.302 3.00901C111.284 2.98758 111.261 2.97106 111.235 2.96105C111.21 2.95104 111.181 2.94788 111.154 2.95187C107.106 3.42169 102.447 4.54953 97.78 6.24786C100.269 5.73541 104.369 5.18714 110.2 5.3191C110.236 5.31916 110.271 5.3311 110.3 5.35306C110.328 5.37503 110.35 5.40717 110.359 5.442ZM24.3723 9.52887C26.7133 9.49849 50.1365 10.5946 66.3806 21.1383C52.4915 10.0186 32.443 2.87387 22.4252 6.08505C22.3989 6.09376 22.3752 6.10872 22.3561 6.12863C22.3369 6.14854 22.3229 6.17281 22.3153 6.19933C20.0851 13.877 18.8061 23.6543 18.9878 33.5558C19.005 32.8366 19.0246 32.4398 19.0246 32.4398C19.0246 32.4398 18.6122 24.4955 24.2025 9.63862C24.216 9.60516 24.2395 9.57667 24.2698 9.55703C24.3001 9.53739 24.3362 9.52756 24.3723 9.52887Z" fill="white"/>
<path fill-rule="evenodd" clip-rule="evenodd" d="M117.565 47.8122C117.565 47.8122 133.825 63.8799 125.597 73.7837C120.167 79.6338 111.384 75.3891 111.384 75.3891C111.384 75.3891 110.598 77.5962 108.332 80.4101C109.389 80.4582 110.225 80.4324 110.707 80.4065C110.741 80.404 110.775 80.4123 110.804 80.4304C110.834 80.4485 110.856 80.4754 110.869 80.5072C110.884 80.5385 110.888 80.5734 110.881 80.6071C110.874 80.6408 110.857 80.6715 110.832 80.6949C106.46 84.8893 101.945 87.1486 98.0627 88.3435C92.9706 90.7552 86.0772 92.4467 76.8337 92.1529C76.8365 93.7219 76.7806 95.3296 76.6571 96.9753C96.9249 98.1643 116.006 85.0131 120.649 80.3698C119.632 79.9452 118.653 79.4362 117.721 78.8483C117.687 78.8269 117.662 78.7941 117.65 78.7558C117.638 78.7174 117.641 78.6761 117.657 78.6392C117.672 78.6018 117.701 78.5715 117.738 78.5538C117.774 78.5362 117.816 78.5326 117.855 78.5436C120.217 79.202 125.535 80.0746 128.62 75.8153C132.667 70.2242 128.789 59.6678 128.789 59.6678C128.789 59.6678 125.9 50.9213 113.341 42.5381C113.28 42.6687 113.218 42.7984 113.153 42.9272C114.791 44.3971 116.27 46.0352 117.565 47.8145V47.8122ZM34.0424 97.7734L34.0334 97.7689C34.0361 97.7709 34.0392 97.7724 34.0424 97.7734ZM18.2816 95.559C17.0703 94.5577 16.8518 94.2276 16.5911 93.7904C17.395 93.1936 18.2408 92.5025 19.1278 91.7044C19.1451 91.6898 19.159 91.6716 19.1686 91.6512C19.1782 91.6308 19.1834 91.6086 19.1837 91.586C19.1855 91.5488 19.1748 91.5121 19.1532 91.4817C19.1346 91.4559 19.1091 91.4358 19.0797 91.4236C19.0435 91.4076 19.0026 91.4058 18.9652 91.4187C18.9544 91.4224 18.944 91.427 18.9339 91.4323C16.1519 92.9782 9.90297 95.6906 6.58638 91.1561C4.51931 88.3299 4.66238 83.566 5.38048 79.3453C5.70932 81.9411 6.68949 84.4544 8.58306 86.7255C14.5876 92.9642 24.2367 86.5772 24.2367 86.5772C24.2367 86.5772 25.1328 89.1734 27.7036 92.269C27.2412 92.3243 26.8715 92.3551 26.6167 92.3728C26.5838 92.3749 26.5524 92.3868 26.5262 92.4068C26.5001 92.4268 26.4805 92.4541 26.47 92.4853C26.4632 92.5032 26.4598 92.5223 26.46 92.5415C26.4599 92.5648 26.4648 92.5879 26.4743 92.6093C26.4837 92.6306 26.4976 92.6497 26.515 92.6653C29.0203 94.9618 31.5675 96.6061 34.0334 97.768C34.0314 97.7669 34.0297 97.7653 34.0284 97.7635L34.0424 97.7725C40.9858 102.089 52.4154 104.897 70.7161 99.7919C70.7161 99.7919 71.7321 97.9467 72.5552 94.6385C72.478 98.3616 72.0555 101.344 71.7094 103.221C71.4546 104.595 70.4436 105.629 69.0714 105.897C43.4172 110.938 23.5004 99.5738 18.2812 95.5581L18.2816 95.559Z" fill="white"/>
<path fill-rule="evenodd" clip-rule="evenodd" d="M24.2359 86.5785C24.2359 86.5785 14.5868 92.966 8.58455 86.7268C6.69099 84.4557 5.71082 81.9425 5.38197 79.3467C4.66388 83.5673 4.51899 88.3313 6.58788 91.1574C9.90356 95.6923 16.1534 92.9796 18.9354 91.4336C18.9716 91.4129 19.0142 91.4064 19.0549 91.4153C19.0957 91.4242 19.1316 91.448 19.1558 91.4819C19.18 91.5158 19.1907 91.5575 19.1858 91.5989C19.1809 91.6403 19.1608 91.6783 19.1293 91.7057C18.2423 92.502 17.3965 93.1931 16.5926 93.7918C16.8533 94.228 17.0718 94.5582 18.2831 95.5604C23.5024 99.5761 43.4191 110.941 69.0734 105.9C70.4455 105.632 71.4566 104.598 71.7119 103.224C72.0598 101.346 72.4804 98.3639 72.5571 94.6416C71.7346 97.9485 70.7181 99.7942 70.7181 99.7942C52.406 104.903 40.9737 102.087 34.0303 97.7666C31.5672 96.6012 29.0187 94.9613 26.5142 92.6666C26.4906 92.6442 26.4741 92.6155 26.4664 92.5839C26.4588 92.5523 26.4605 92.5192 26.4713 92.4886C26.4821 92.4579 26.5016 92.431 26.5273 92.4111C26.553 92.3912 26.584 92.3792 26.6164 92.3764C26.8712 92.3587 27.2409 92.3279 27.7033 92.2726C25.1325 89.177 24.2364 86.5808 24.2364 86.5808L24.2359 86.5785Z" fill="white"/>
<path fill-rule="evenodd" clip-rule="evenodd" d="M196.929 16.4983V65.6528H186.831L167.247 37.2909H166.931V65.6528H155.031V16.4983H165.275L184.645 44.8266H185.05V16.4983H196.929ZM234.156 16.4983H246.034V48.2065C246.034 51.8223 245.166 55.0024 243.429 57.7466C241.68 60.4954 239.24 62.6017 236.108 64.0656C232.959 65.5412 229.33 66.2774 225.222 66.2741C222.108 66.2741 219.262 65.8461 216.683 64.9902C214.1 64.1341 211.912 62.9282 210.097 61.3741C208.291 59.8089 206.885 57.9055 205.878 55.6637C204.884 53.4112 204.379 50.922 204.379 48.2069V16.4992H216.279V47.1693C216.279 49.7491 217.103 51.8591 218.75 53.4992C220.408 55.1318 222.567 55.9505 225.225 55.9553C227.864 55.9553 230.02 55.1327 231.677 53.4992C233.335 51.8548 234.163 49.7449 234.159 47.1693V16.4983H234.156ZM251.879 26.1509V16.4974H293.483V26.1509H278.561V65.6501H266.826V26.1509H251.879ZM325.928 31.2431C325.77 29.4636 325.048 28.0886 323.774 27.1091C322.5 26.1296 320.716 25.6443 318.426 25.6443C316.181 25.6443 314.466 26.0724 313.282 26.9173C312.097 27.7621 311.5 28.8886 311.477 30.2731C311.431 31.6699 312.03 32.7846 313.26 33.629C314.49 34.4625 316.302 35.1383 318.697 35.6565L322.927 36.6139C332.922 38.7994 337.947 43.7252 337.999 51.3914C337.965 56.0666 336.224 59.7158 332.776 62.3391C329.335 64.9649 324.551 66.2754 318.426 66.2709C315.301 66.2709 312.503 65.9217 310.011 65.2342C307.529 64.5361 305.386 63.4961 303.58 62.1142C301.787 60.7288 300.387 58.9493 299.418 56.7866C298.436 54.6125 297.932 52.1121 297.906 49.2853H309.288C309.425 51.6059 310.281 53.3849 311.883 54.613C313.473 55.8404 315.606 56.4561 318.28 56.4601C320.637 56.4601 322.495 55.9905 323.853 55.0515C325.207 54.1164 325.897 52.8888 325.928 51.3691C325.918 50.0282 325.285 48.9357 324.056 48.104C322.816 47.2823 320.819 46.5381 318.044 45.8968L312.899 44.7014C308.478 43.6883 305.082 42.0742 302.712 39.859C300.332 37.6288 299.159 34.7115 299.169 31.0953C299.158 28.0992 299.974 25.4374 301.617 23.1098C303.252 20.7897 305.543 18.9866 308.476 17.7254C311.408 16.4643 314.736 15.833 318.449 15.833C324.145 15.833 328.691 17.2411 332.12 20.0673C335.538 22.8835 337.272 26.6083 337.321 31.2418H325.928V31.2431Z" fill="white"/>
<path fill-rule="evenodd" clip-rule="evenodd" d="M161.015 73.0771L165.963 89.255H166.144L171.092 73.0771H177.075L169.612 95.1667H162.494L155.032 73.0771H161.015ZM184.096 95.1672H178.35L185.812 73.0776H192.929L200.394 95.1667H194.647L193.188 90.5298H185.552L184.094 95.1667L184.096 95.1672ZM186.828 86.4756H191.918L189.454 78.6442H189.281L186.829 86.4756H186.828ZM205.367 95.1672V73.0776H210.713V90.8295H219.916V95.1672H205.367ZM224.655 95.1672V73.0776H230.004V90.8295H239.206V95.1672H224.655ZM243.944 95.1672V73.0776H259.372V77.4152H249.293V81.9461H258.577V86.2896H249.291V90.83H259.37V95.1676H243.942L243.944 95.1672ZM263.593 73.0771H269.565L274.243 82.3207H274.436L279.114 73.0771H285.086L276.995 87.7921V95.1672H271.681V87.7921L263.593 73.0771Z" fill="white"/>
<path d="M155.866 105.149V107.621H155.03V101.305H157.363C158.056 101.305 158.598 101.481 158.99 101.834C159.382 102.186 159.579 102.653 159.58 103.236C159.58 103.849 159.389 104.321 159.005 104.653C158.622 104.985 158.072 105.15 157.356 105.149H155.866ZM155.866 104.469H157.364C157.811 104.469 158.153 104.364 158.391 104.155C158.629 103.946 158.748 103.643 158.747 103.245C158.747 102.869 158.628 102.569 158.391 102.342C158.154 102.116 157.827 101.999 157.412 101.99H155.868V104.467L155.866 104.469ZM162.79 103.648C162.659 103.627 162.527 103.617 162.395 103.618C161.867 103.618 161.509 103.842 161.321 104.29V107.622H160.517V102.929H161.299L161.312 103.473C161.577 103.054 161.95 102.844 162.434 102.844C162.555 102.838 162.677 102.859 162.79 102.904V103.651V103.648ZM163.316 105.233C163.31 104.804 163.403 104.379 163.588 103.992C163.754 103.641 164.016 103.346 164.345 103.141C164.678 102.938 165.061 102.834 165.45 102.842C166.091 102.842 166.608 103.063 167.004 103.505C167.399 103.947 167.596 104.536 167.594 105.273V105.329C167.602 105.754 167.512 106.175 167.332 106.56C167.169 106.909 166.908 107.204 166.58 107.408C166.243 107.614 165.853 107.72 165.457 107.712C164.82 107.712 164.304 107.491 163.909 107.048C163.515 106.606 163.317 106.02 163.316 105.291V105.235V105.233ZM164.124 105.327C164.124 105.849 164.245 106.267 164.488 106.582C164.599 106.733 164.746 106.856 164.915 106.938C165.084 107.021 165.271 107.061 165.459 107.056C165.867 107.056 166.191 106.896 166.432 106.576C166.673 106.256 166.793 105.808 166.793 105.233C166.793 104.719 166.671 104.301 166.426 103.98C166.313 103.831 166.167 103.711 165.999 103.627C165.832 103.544 165.647 103.501 165.46 103.5C165.273 103.5 165.088 103.542 164.92 103.624C164.752 103.706 164.605 103.826 164.491 103.974C164.248 104.291 164.127 104.74 164.127 105.327H164.124ZM170.49 107.056C170.763 107.06 171.029 106.967 171.241 106.795C171.343 106.717 171.427 106.619 171.488 106.507C171.549 106.394 171.587 106.271 171.597 106.143H172.358C172.341 106.421 172.244 106.689 172.079 106.914C171.904 107.161 171.67 107.361 171.398 107.496C171.117 107.639 170.805 107.713 170.49 107.712C169.849 107.712 169.34 107.499 168.962 107.073C168.584 106.646 168.395 106.063 168.395 105.321V105.185C168.395 104.729 168.478 104.323 168.648 103.966C168.802 103.626 169.053 103.337 169.37 103.137C169.684 102.94 170.056 102.842 170.485 102.843C171.011 102.843 171.451 102.999 171.799 103.315C172.147 103.63 172.334 104.04 172.358 104.542H171.597C171.582 104.258 171.459 103.99 171.251 103.794C171.045 103.599 170.769 103.494 170.485 103.501C170.076 103.501 169.758 103.648 169.536 103.942C169.314 104.237 169.199 104.661 169.199 105.216V105.369C169.199 105.909 169.31 106.327 169.532 106.618C169.755 106.909 170.078 107.056 170.489 107.056L170.49 107.056ZM175.213 107.71C174.576 107.71 174.057 107.501 173.658 107.084C173.258 106.666 173.058 106.107 173.058 105.406V105.255C173.051 104.825 173.142 104.398 173.326 104.009C173.49 103.658 173.748 103.361 174.073 103.15C174.381 102.946 174.743 102.838 175.112 102.839C175.723 102.839 176.199 103.04 176.538 103.441C176.877 103.844 177.046 104.418 177.046 105.168V105.503H173.862C173.873 105.966 174.009 106.341 174.268 106.625C174.528 106.909 174.859 107.053 175.256 107.053C175.54 107.053 175.781 106.995 175.977 106.88C176.177 106.76 176.353 106.604 176.495 106.419L176.985 106.801C176.592 107.406 176.001 107.708 175.214 107.708L175.213 107.71ZM175.112 103.5C174.959 103.497 174.807 103.528 174.666 103.589C174.525 103.65 174.4 103.74 174.297 103.854C174.076 104.09 173.94 104.42 173.888 104.847H176.243V104.786C176.219 104.378 176.11 104.06 175.912 103.837C175.715 103.613 175.45 103.5 175.113 103.5H175.112ZM180.714 106.379C180.719 106.281 180.698 106.183 180.655 106.094C180.612 106.006 180.548 105.93 180.468 105.872C180.304 105.751 180.019 105.648 179.612 105.562C179.206 105.476 178.883 105.37 178.644 105.249C178.405 105.127 178.229 104.984 178.114 104.815C177.996 104.638 177.936 104.429 177.942 104.217C177.942 103.832 178.105 103.507 178.43 103.241C178.756 102.975 179.172 102.842 179.68 102.842C180.213 102.842 180.645 102.979 180.977 103.253C181.136 103.378 181.264 103.539 181.35 103.722C181.437 103.905 181.48 104.105 181.476 104.307H180.668C180.668 104.088 180.574 103.898 180.387 103.739C180.2 103.58 179.965 103.5 179.682 103.5C179.388 103.5 179.16 103.564 178.995 103.692C178.917 103.749 178.853 103.824 178.81 103.911C178.767 103.997 178.745 104.093 178.747 104.19C178.743 104.277 178.762 104.364 178.803 104.441C178.843 104.519 178.903 104.584 178.977 104.63C179.132 104.728 179.409 104.823 179.809 104.911C180.21 105 180.536 105.108 180.785 105.233C181.035 105.358 181.218 105.505 181.338 105.681C181.463 105.871 181.526 106.094 181.52 106.321C181.525 106.518 181.482 106.713 181.394 106.889C181.306 107.065 181.176 107.217 181.016 107.331C180.68 107.584 180.244 107.71 179.708 107.71C179.364 107.717 179.023 107.648 178.708 107.51C178.434 107.391 178.199 107.198 178.027 106.953C177.867 106.727 177.781 106.456 177.781 106.179H178.585C178.587 106.303 178.618 106.425 178.674 106.536C178.73 106.646 178.811 106.743 178.91 106.819C179.11 106.977 179.377 107.056 179.706 107.056C180.009 107.056 180.253 106.994 180.438 106.87C180.624 106.747 180.716 106.583 180.715 106.379H180.714ZM185.301 106.379C185.306 106.281 185.286 106.183 185.243 106.094C185.2 106.006 185.135 105.93 185.055 105.872C184.892 105.753 184.607 105.649 184.2 105.562C183.792 105.474 183.47 105.37 183.231 105.249C182.993 105.127 182.816 104.984 182.702 104.815C182.584 104.638 182.524 104.429 182.53 104.217C182.53 103.832 182.693 103.507 183.018 103.241C183.343 102.975 183.76 102.842 184.268 102.842C184.8 102.842 185.232 102.979 185.564 103.253C185.723 103.378 185.851 103.539 185.938 103.722C186.024 103.905 186.067 104.105 186.064 104.307H185.255C185.255 104.088 185.162 103.898 184.975 103.739C184.788 103.58 184.553 103.5 184.269 103.5C183.975 103.5 183.747 103.564 183.582 103.692C183.504 103.749 183.441 103.824 183.398 103.911C183.354 103.998 183.333 104.093 183.335 104.19C183.331 104.277 183.35 104.364 183.39 104.441C183.43 104.519 183.491 104.584 183.565 104.63C183.719 104.728 183.997 104.823 184.397 104.911C184.797 105 185.123 105.108 185.373 105.233C185.622 105.358 185.806 105.505 185.926 105.681C186.051 105.871 186.114 106.095 186.108 106.321C186.113 106.518 186.07 106.713 185.982 106.889C185.894 107.065 185.764 107.217 185.604 107.331C185.268 107.584 184.832 107.71 184.295 107.71C183.951 107.717 183.61 107.648 183.296 107.51C183.022 107.39 182.786 107.198 182.614 106.953C182.455 106.726 182.369 106.456 182.369 106.179H183.172C183.175 106.303 183.206 106.425 183.262 106.536C183.318 106.646 183.398 106.743 183.497 106.819C183.697 106.977 183.964 107.056 184.293 107.056C184.597 107.056 184.842 106.993 185.026 106.87C185.209 106.748 185.302 106.583 185.302 106.379H185.301ZM188.027 107.622H187.221V102.929H188.025V107.622H188.027ZM187.157 101.682C187.154 101.561 187.197 101.443 187.278 101.353C187.356 101.262 187.475 101.217 187.631 101.217C187.786 101.217 187.906 101.262 187.988 101.353C188.069 101.443 188.112 101.561 188.11 101.682C188.113 101.802 188.07 101.919 187.988 102.007C187.906 102.095 187.788 102.138 187.631 102.138C187.473 102.138 187.358 102.092 187.278 102.007C187.197 101.918 187.153 101.802 187.157 101.682ZM190.073 102.927L190.1 103.516C190.459 103.065 190.928 102.839 191.508 102.84C192.502 102.84 193.003 103.4 193.012 104.518V107.62H192.208V104.514C192.205 104.174 192.126 103.925 191.975 103.763C191.824 103.602 191.586 103.52 191.265 103.52C191.019 103.515 190.779 103.589 190.578 103.729C190.38 103.868 190.221 104.055 190.116 104.273V107.618H189.311V102.924L190.073 102.927ZM194.032 105.235C194.032 104.502 194.201 103.92 194.54 103.488C194.88 103.056 195.328 102.84 195.887 102.84C196.462 102.84 196.91 103.042 197.229 103.447L197.269 102.927H198.003V107.507C198.003 108.115 197.823 108.593 197.462 108.944C197.101 109.294 196.616 109.469 196.008 109.468C195.665 109.467 195.326 109.393 195.013 109.252C194.69 109.107 194.443 108.908 194.271 108.656L194.688 108.175C195.033 108.6 195.454 108.813 195.952 108.813C196.344 108.813 196.648 108.704 196.867 108.483C197.087 108.262 197.195 107.954 197.195 107.555V107.152C196.873 107.522 196.434 107.707 195.878 107.707C195.328 107.707 194.883 107.486 194.542 107.044C194.201 106.601 194.031 105.998 194.032 105.234V105.235ZM194.84 105.326C194.84 105.856 194.949 106.272 195.166 106.574C195.384 106.876 195.688 107.028 196.078 107.028C196.585 107.028 196.958 106.798 197.195 106.338V104.194C196.948 103.745 196.579 103.521 196.087 103.521C195.695 103.521 195.39 103.674 195.171 103.978C194.952 104.282 194.841 104.731 194.84 105.326V105.326ZM201.249 105.926C201.247 105.627 201.335 105.335 201.502 105.088C201.673 104.834 201.996 104.538 202.473 104.199C202.193 103.857 202.005 103.584 201.908 103.375C201.816 103.18 201.768 102.969 201.766 102.754C201.766 102.274 201.907 101.898 202.191 101.626C202.476 101.353 202.86 101.218 203.347 101.218C203.781 101.218 204.14 101.344 204.425 101.597C204.562 101.715 204.671 101.862 204.745 102.028C204.818 102.193 204.855 102.372 204.851 102.553C204.852 102.802 204.785 103.045 204.656 103.258C204.527 103.474 204.302 103.701 203.981 103.938L203.516 104.28L204.924 105.958C205.124 105.571 205.226 105.141 205.221 104.705H205.948C205.948 105.442 205.77 106.054 205.414 106.539L206.317 107.619H205.353L204.93 107.12C204.711 107.314 204.455 107.463 204.177 107.557C203.894 107.655 203.597 107.706 203.297 107.706C202.68 107.706 202.185 107.543 201.811 107.216C201.437 106.889 201.25 106.458 201.251 105.924L201.249 105.926ZM203.295 107.054C203.721 107.054 204.11 106.892 204.464 106.568L202.92 104.723L202.776 104.828C202.292 105.184 202.049 105.55 202.049 105.926C202.049 106.268 202.161 106.54 202.382 106.746C202.603 106.952 202.907 107.054 203.29 107.054H203.295ZM202.568 102.728C202.568 103.006 202.739 103.352 203.08 103.771L203.593 103.408C203.79 103.272 203.925 103.136 203.996 103.011C204.073 102.871 204.111 102.713 204.106 102.553C204.108 102.461 204.09 102.37 204.052 102.287C204.014 102.203 203.958 102.128 203.888 102.069C203.737 101.938 203.542 101.87 203.343 101.877C203.105 101.877 202.917 101.957 202.778 102.118C202.638 102.278 202.57 102.481 202.57 102.727L202.568 102.728ZM212.852 104.701H210.113V106.94H213.297V107.621H209.278V101.305H213.254V101.99H210.113V104.02H212.854V104.701L212.852 104.701ZM215.785 104.641L216.83 102.927H217.769L216.229 105.247L217.816 107.621H216.885L215.798 105.864L214.713 107.621H213.778L215.364 105.247L213.826 102.927H214.756L215.786 104.641H215.785ZM222.59 105.326C222.59 106.042 222.425 106.616 222.099 107.052C221.772 107.489 221.327 107.709 220.768 107.709C220.198 107.709 219.749 107.527 219.422 107.164V109.427H218.618V102.928H219.352L219.392 103.448C219.719 103.044 220.173 102.841 220.755 102.841C221.32 102.841 221.767 103.053 222.095 103.479C222.424 103.904 222.588 104.495 222.589 105.252V105.326L222.59 105.326ZM221.786 105.235C221.786 104.705 221.673 104.287 221.446 103.981C221.22 103.675 220.91 103.522 220.517 103.521C220.03 103.521 219.665 103.736 219.422 104.168V106.411C219.662 106.839 220.03 107.053 220.525 107.054C220.704 107.059 220.882 107.02 221.043 106.94C221.203 106.86 221.341 106.742 221.445 106.596C221.672 106.291 221.786 105.837 221.786 105.236V105.235ZM223.398 105.231C223.391 104.802 223.485 104.377 223.67 103.99C223.835 103.64 224.098 103.344 224.426 103.139C224.759 102.936 225.142 102.833 225.532 102.84C226.172 102.84 226.69 103.061 227.086 103.503C227.482 103.945 227.678 104.534 227.676 105.271V105.327C227.683 105.752 227.594 106.173 227.414 106.558C227.25 106.907 226.989 107.202 226.662 107.407C226.324 107.612 225.935 107.718 225.539 107.71C224.901 107.71 224.385 107.489 223.991 107.046C223.597 106.604 223.399 106.018 223.397 105.289V105.233L223.398 105.231ZM224.206 105.325C224.206 105.847 224.327 106.265 224.57 106.58C224.811 106.897 225.136 107.054 225.541 107.054C225.946 107.054 226.274 106.894 226.514 106.574C226.753 106.254 226.874 105.807 226.874 105.231C226.874 104.717 226.752 104.299 226.508 103.978C226.396 103.825 226.249 103.701 226.079 103.618C225.909 103.534 225.721 103.493 225.532 103.498C225.346 103.494 225.161 103.535 224.994 103.618C224.827 103.7 224.682 103.822 224.573 103.972C224.329 104.29 224.209 104.738 224.209 105.325H224.206ZM230.957 103.648C230.827 103.626 230.695 103.616 230.563 103.617C230.035 103.617 229.677 103.841 229.489 104.289V107.621H228.685V102.928H229.467L229.48 103.472C229.744 103.053 230.118 102.843 230.601 102.843C230.723 102.837 230.844 102.858 230.957 102.903V103.65V103.648ZM232.787 101.788V102.926H233.664V103.546H232.787V106.457C232.787 106.645 232.826 106.786 232.904 106.88C232.983 106.975 233.115 107.021 233.303 107.021C233.432 107.016 233.56 106.999 233.686 106.969V107.619C233.485 107.676 233.277 107.705 233.069 107.707C232.71 107.707 232.439 107.598 232.256 107.381C232.073 107.164 231.982 106.856 231.983 106.457V103.546H231.126V102.926H231.983V101.79L232.787 101.788ZM238.692 107.052C238.965 107.056 239.231 106.964 239.443 106.792C239.545 106.714 239.629 106.616 239.69 106.503C239.751 106.391 239.789 106.267 239.799 106.14H240.56C240.543 106.418 240.446 106.686 240.282 106.911C240.105 107.158 239.87 107.358 239.598 107.493C239.317 107.636 239.007 107.71 238.692 107.709C238.051 107.709 237.542 107.496 237.164 107.07C236.786 106.643 236.597 106.059 236.597 105.318V105.182C236.597 104.725 236.681 104.32 236.85 103.963C237.005 103.622 237.256 103.334 237.572 103.134C237.886 102.937 238.258 102.839 238.687 102.839C239.213 102.839 239.653 102.996 240.001 103.311C240.349 103.627 240.537 104.037 240.56 104.539H239.8C239.785 104.255 239.662 103.987 239.454 103.791C239.248 103.596 238.972 103.49 238.688 103.498C238.279 103.498 237.961 103.644 237.739 103.939C237.517 104.234 237.402 104.657 237.402 105.213V105.365C237.402 105.905 237.513 106.324 237.735 106.615C237.958 106.906 238.281 107.053 238.692 107.053L238.692 107.052ZM241.251 105.23C241.245 104.801 241.338 104.376 241.524 103.989C241.688 103.638 241.951 103.343 242.28 103.137C242.612 102.935 242.996 102.831 243.385 102.838C244.025 102.838 244.543 103.059 244.939 103.501C245.335 103.944 245.532 104.533 245.53 105.27V105.326C245.537 105.751 245.447 106.172 245.267 106.557C245.104 106.906 244.843 107.201 244.515 107.405C244.178 107.611 243.788 107.716 243.393 107.709C242.755 107.709 242.238 107.487 241.844 107.045C241.45 106.603 241.252 106.017 241.251 105.288V105.232L241.251 105.23ZM242.06 105.324C242.06 105.846 242.181 106.264 242.423 106.578C242.534 106.73 242.681 106.853 242.85 106.935C243.02 107.018 243.207 107.058 243.395 107.052C243.803 107.052 244.127 106.892 244.368 106.573C244.608 106.253 244.729 105.805 244.728 105.23C244.728 104.716 244.606 104.298 244.361 103.977C244.248 103.828 244.102 103.707 243.934 103.624C243.767 103.541 243.582 103.497 243.395 103.497C243.208 103.496 243.023 103.539 242.855 103.621C242.687 103.703 242.54 103.823 242.426 103.971C242.183 104.288 242.063 104.736 242.063 105.324H242.06ZM247.295 102.926L247.317 103.445C247.661 103.041 248.126 102.839 248.711 102.838C249.368 102.838 249.816 103.09 250.053 103.593C250.212 103.367 250.421 103.18 250.664 103.049C250.915 102.91 251.209 102.84 251.552 102.84C252.583 102.84 253.108 103.386 253.126 104.477V107.621H252.322V104.524C252.322 104.188 252.245 103.937 252.091 103.77C251.936 103.603 251.682 103.521 251.318 103.521C251.02 103.521 250.773 103.61 250.575 103.788C250.378 103.965 250.264 104.205 250.232 104.506V107.621H249.424V104.546C249.424 103.864 249.09 103.522 248.421 103.521C247.893 103.521 247.532 103.745 247.338 104.193V107.621H246.534V102.927L247.295 102.926ZM258.309 105.324C258.309 106.04 258.145 106.614 257.819 107.051C257.492 107.487 257.046 107.707 256.488 107.707C255.917 107.707 255.469 107.525 255.141 107.163V109.427H254.337V102.928H255.071L255.111 103.448C255.438 103.044 255.892 102.841 256.474 102.841C257.039 102.841 257.486 103.053 257.815 103.479C258.144 103.904 258.308 104.495 258.309 105.252V105.326L258.309 105.324ZM257.505 105.233C257.505 104.703 257.392 104.285 257.166 103.979C256.94 103.674 256.63 103.52 256.236 103.519C255.75 103.519 255.385 103.735 255.141 104.166V106.409C255.382 106.837 255.75 107.052 256.245 107.052C256.424 107.057 256.601 107.018 256.762 106.938C256.922 106.858 257.06 106.74 257.164 106.594C257.391 106.29 257.505 105.835 257.505 105.234V105.233ZM262.232 107.619C262.187 107.528 262.149 107.362 262.119 107.124C261.746 107.512 261.3 107.706 260.781 107.706C260.317 107.706 259.937 107.576 259.641 107.314C259.497 107.191 259.383 107.038 259.306 106.865C259.229 106.693 259.191 106.505 259.196 106.316C259.196 105.827 259.382 105.448 259.754 105.178C260.126 104.907 260.649 104.771 261.324 104.769H262.106V104.401C262.106 104.121 262.023 103.897 261.854 103.73C261.685 103.563 261.438 103.487 261.111 103.487C260.825 103.487 260.585 103.559 260.39 103.703C260.196 103.848 260.1 104.023 260.1 104.229H259.291C259.291 103.994 259.375 103.768 259.541 103.549C259.719 103.322 259.952 103.143 260.219 103.03C260.515 102.901 260.836 102.836 261.16 102.839C261.701 102.839 262.125 102.975 262.432 103.245C262.738 103.517 262.899 103.887 262.909 104.361V106.525C262.909 106.956 262.964 107.296 263.075 107.553V107.622L262.232 107.619ZM260.898 107.007C261.151 107.007 261.398 106.94 261.615 106.812C261.827 106.697 261.999 106.52 262.106 106.304V105.346H261.477C260.492 105.346 260 105.633 260 106.207C260 106.459 260.083 106.656 260.251 106.797C260.418 106.938 260.635 107.01 260.898 107.01V107.007ZM264.931 102.926L264.958 103.516C265.317 103.064 265.786 102.838 266.366 102.839C267.359 102.839 267.861 103.399 267.87 104.517V107.619H267.066V104.513C267.063 104.174 266.984 103.924 266.833 103.762C266.681 103.601 266.444 103.519 266.122 103.519C265.877 103.515 265.637 103.588 265.436 103.728C265.238 103.867 265.079 104.054 264.974 104.272V107.617H264.171V102.923L264.931 102.926ZM270.619 106.444L271.715 102.926H272.575L270.684 108.344C270.392 109.124 269.927 109.515 269.29 109.515L269.137 109.502L268.838 109.446V108.794L269.056 108.812C269.328 108.812 269.54 108.757 269.692 108.648C269.843 108.538 269.969 108.337 270.067 108.045L270.245 107.568L268.569 102.928H269.446L270.619 106.444Z" fill="white"/>
</g>
<defs>
<clipPath id="clip0_130_4853">
<rect width="338" height="111" fill="white"/>
</clipPath>
</defs>
</svg>
