<svg width="472" height="134" viewBox="0 0 472 134" fill="none" xmlns="http://www.w3.org/2000/svg">
<path d="M102.865 8.27273H110.266L116.544 23.5824H116.834L123.112 8.27273H130.514V33H124.694V17.8111H124.489L118.549 32.843H114.83L108.889 17.7266H108.684V33H102.865V8.27273ZM133.433 13.1264V8.27273H154.332V13.1264H146.835V33H140.943V13.1264H133.433ZM164.556 33V8.27273H181.435V13.1264H170.533V18.1974H180.361V23.0632H170.533V33H164.556ZM207.783 20.6364C207.783 23.357 207.26 25.6631 206.214 27.5547C205.167 29.4463 203.751 30.883 201.964 31.8651C200.185 32.8471 198.189 33.3381 195.975 33.3381C193.754 33.3381 191.753 32.843 189.974 31.853C188.196 30.8629 186.783 29.4261 185.737 27.5426C184.698 25.651 184.179 23.349 184.179 20.6364C184.179 17.9157 184.698 15.6096 185.737 13.718C186.783 11.8265 188.196 10.3897 189.974 9.40767C191.753 8.42566 193.754 7.93466 195.975 7.93466C198.189 7.93466 200.185 8.42566 201.964 9.40767C203.751 10.3897 205.167 11.8265 206.214 13.718C207.26 15.6096 207.783 17.9157 207.783 20.6364ZM201.674 20.6364C201.674 19.0265 201.445 17.6662 200.986 16.5554C200.535 15.4446 199.883 14.6035 199.03 14.032C198.185 13.4605 197.166 13.1747 195.975 13.1747C194.792 13.1747 193.774 13.4605 192.92 14.032C192.067 14.6035 191.411 15.4446 190.952 16.5554C190.502 17.6662 190.276 19.0265 190.276 20.6364C190.276 22.2462 190.502 23.6065 190.952 24.7173C191.411 25.8281 192.067 26.6693 192.92 27.2408C193.774 27.8123 194.792 28.098 195.975 28.098C197.166 28.098 198.185 27.8123 199.03 27.2408C199.883 26.6693 200.535 25.8281 200.986 24.7173C201.445 23.6065 201.674 22.2462 201.674 20.6364ZM234.612 20.6364C234.612 23.357 234.088 25.6631 233.042 27.5547C231.996 29.4463 230.579 30.883 228.792 31.8651C227.013 32.8471 225.017 33.3381 222.803 33.3381C220.582 33.3381 218.581 32.843 216.803 31.853C215.024 30.8629 213.611 29.4261 212.565 27.5426C211.526 25.651 211.007 23.349 211.007 20.6364C211.007 17.9157 211.526 15.6096 212.565 13.718C213.611 11.8265 215.024 10.3897 216.803 9.40767C218.581 8.42566 220.582 7.93466 222.803 7.93466C225.017 7.93466 227.013 8.42566 228.792 9.40767C230.579 10.3897 231.996 11.8265 233.042 13.718C234.088 15.6096 234.612 17.9157 234.612 20.6364ZM228.502 20.6364C228.502 19.0265 228.273 17.6662 227.814 16.5554C227.363 15.4446 226.711 14.6035 225.858 14.032C225.013 13.4605 223.995 13.1747 222.803 13.1747C221.62 13.1747 220.602 13.4605 219.749 14.032C218.895 14.6035 218.239 15.4446 217.781 16.5554C217.33 17.6662 217.104 19.0265 217.104 20.6364C217.104 22.2462 217.33 23.6065 217.781 24.7173C218.239 25.8281 218.895 26.6693 219.749 27.2408C220.602 27.8123 221.62 28.098 222.803 28.098C223.995 28.098 225.013 27.8123 225.858 27.2408C226.711 26.6693 227.363 25.8281 227.814 24.7173C228.273 23.6065 228.502 22.2462 228.502 20.6364ZM247.241 33H238.101V8.27273H247.229C249.748 8.27273 251.917 8.76776 253.737 9.75781C255.564 10.7398 256.972 12.1565 257.962 14.0078C258.952 15.8511 259.447 18.0566 259.447 20.6243C259.447 23.2 258.952 25.4136 257.962 27.2649C256.98 29.1162 255.576 30.5369 253.749 31.527C251.921 32.509 249.752 33 247.241 33ZM244.077 27.9048H247.011C248.396 27.9048 249.567 27.6714 250.525 27.2045C251.491 26.7296 252.219 25.9609 252.71 24.8984C253.209 23.8279 253.459 22.4032 253.459 20.6243C253.459 18.8454 253.209 17.4287 252.71 16.3743C252.211 15.3118 251.475 14.5471 250.501 14.0803C249.535 13.6053 248.344 13.3679 246.927 13.3679H244.077V27.9048ZM276.303 15.6861C276.222 14.8007 275.864 14.1125 275.228 13.6214C274.6 13.1224 273.703 12.8729 272.536 12.8729C271.763 12.8729 271.119 12.9735 270.604 13.1747C270.089 13.3759 269.702 13.6536 269.445 14.0078C269.187 14.3539 269.054 14.7524 269.046 15.2031C269.03 15.5734 269.103 15.8994 269.264 16.1811C269.433 16.4628 269.674 16.7124 269.988 16.9297C270.31 17.139 270.696 17.3241 271.147 17.4851C271.598 17.6461 272.105 17.7869 272.668 17.9077L274.793 18.3906C276.017 18.6562 277.095 19.0104 278.029 19.4531C278.971 19.8958 279.76 20.4231 280.396 21.0348C281.04 21.6465 281.527 22.3509 281.857 23.1477C282.187 23.9446 282.356 24.8381 282.364 25.8281C282.356 27.3897 281.961 28.7299 281.18 29.8487C280.4 30.9676 279.277 31.8248 277.812 32.4205C276.355 33.0161 274.596 33.3139 272.536 33.3139C270.467 33.3139 268.664 33.004 267.126 32.3842C265.589 31.7644 264.394 30.8227 263.541 29.5589C262.687 28.2952 262.249 26.6974 262.224 24.7656H267.947C267.996 25.5625 268.209 26.2266 268.587 26.7578C268.966 27.2891 269.485 27.6915 270.145 27.9652C270.813 28.2389 271.586 28.3757 272.463 28.3757C273.268 28.3757 273.952 28.267 274.516 28.0497C275.087 27.8324 275.526 27.5305 275.832 27.1442C276.138 26.7578 276.295 26.3151 276.303 25.8161C276.295 25.3492 276.15 24.9508 275.868 24.6207C275.586 24.2827 275.152 23.9929 274.564 23.7514C273.984 23.5019 273.244 23.2725 272.342 23.0632L269.759 22.4595C267.617 21.9685 265.931 21.1757 264.7 20.081C263.468 18.9782 262.856 17.4891 262.864 15.6136C262.856 14.0843 263.267 12.7441 264.096 11.593C264.925 10.442 266.072 9.54451 267.537 8.90057C269.002 8.25663 270.672 7.93466 272.548 7.93466C274.463 7.93466 276.126 8.26065 277.534 8.91264C278.951 9.55658 280.05 10.4621 280.83 11.6293C281.611 12.7964 282.01 14.1487 282.026 15.6861H276.303ZM284.573 13.1264V8.27273H305.473V13.1264H297.975V33H292.083V13.1264H284.573ZM323.351 8.27273H329.316V24.2223C329.316 26.0656 328.877 27.6714 328 29.0398C327.122 30.4001 325.899 31.4545 324.329 32.2031C322.76 32.9437 320.937 33.3139 318.86 33.3139C316.759 33.3139 314.924 32.9437 313.354 32.2031C311.785 31.4545 310.565 30.4001 309.696 29.0398C308.827 27.6714 308.392 26.0656 308.392 24.2223V8.27273H314.368V23.7031C314.368 24.5563 314.554 25.317 314.924 25.9851C315.302 26.6532 315.829 27.1764 316.506 27.5547C317.182 27.933 317.966 28.1222 318.86 28.1222C319.753 28.1222 320.534 27.933 321.202 27.5547C321.878 27.1764 322.406 26.6532 322.784 25.9851C323.162 25.317 323.351 24.5563 323.351 23.7031V8.27273ZM333.062 33V8.27273H349.941V13.1264H339.038V18.1974H348.867V23.0632H339.038V33H333.062ZM352.951 33V8.27273H369.83V13.1264H358.927V18.1974H368.755V23.0632H358.927V33H352.951ZM158.451 54.1264V49.2727H179.351V54.1264H171.853V74H165.961V54.1264H158.451ZM182.27 74V49.2727H192.484C194.336 49.2727 195.933 49.6068 197.278 50.2749C198.63 50.9349 199.672 51.8847 200.405 53.1243C201.137 54.3558 201.504 55.8168 201.504 57.5071C201.504 59.2216 201.129 60.6785 200.381 61.8778C199.632 63.0691 198.57 63.9787 197.193 64.6065C195.817 65.2263 194.187 65.5362 192.303 65.5362H185.844V60.8274H191.192C192.094 60.8274 192.847 60.7107 193.45 60.4773C194.062 60.2358 194.525 59.8736 194.839 59.3906C195.153 58.8996 195.31 58.2718 195.31 57.5071C195.31 56.7424 195.153 56.1106 194.839 55.6115C194.525 55.1044 194.062 54.7261 193.45 54.4766C192.838 54.219 192.086 54.0902 191.192 54.0902H188.246V74H182.27ZM196.191 62.6989L202.349 74H195.829L189.792 62.6989H196.191ZM210.13 74H203.707L212.05 49.2727H220.007L228.35 74H221.926L216.119 55.5028H215.926L210.13 74ZM209.273 64.2685H222.699V68.8082H209.273V64.2685ZM240.152 74H231.012V49.2727H240.14C242.659 49.2727 244.829 49.7678 246.648 50.7578C248.475 51.7398 249.883 53.1565 250.874 55.0078C251.864 56.8511 252.359 59.0566 252.359 61.6243C252.359 64.2 251.864 66.4136 250.874 68.2649C249.892 70.1162 248.487 71.5369 246.66 72.527C244.833 73.509 242.663 74 240.152 74ZM236.989 68.9048H239.923C241.307 68.9048 242.478 68.6714 243.436 68.2045C244.402 67.7296 245.13 66.9609 245.621 65.8984C246.12 64.8279 246.37 63.4032 246.37 61.6243C246.37 59.8454 246.12 58.4287 245.621 57.3743C245.122 56.3118 244.386 55.5471 243.412 55.0803C242.446 54.6053 241.255 54.3679 239.838 54.3679H236.989V68.9048ZM261.825 49.2727V74H255.848V49.2727H261.825ZM286.621 49.2727V74H281.55L271.71 59.7287H271.553V74H265.576V49.2727H270.72L280.451 63.5199H280.657V49.2727H286.621ZM306.606 57.3501C306.47 56.843 306.268 56.3963 306.003 56.0099C305.737 55.6155 305.411 55.2815 305.025 55.0078C304.638 54.7341 304.196 54.5289 303.697 54.392C303.198 54.2472 302.65 54.1747 302.055 54.1747C300.855 54.1747 299.817 54.4645 298.94 55.044C298.07 55.6236 297.398 56.4687 296.923 57.5795C296.448 58.6823 296.211 60.0225 296.211 61.6001C296.211 63.1858 296.44 64.5381 296.899 65.657C297.358 66.7758 298.022 67.629 298.891 68.2166C299.761 68.8042 300.815 69.098 302.055 69.098C303.149 69.098 304.075 68.9209 304.832 68.5668C305.596 68.2045 306.176 67.6934 306.57 67.0334C306.965 66.3733 307.162 65.5966 307.162 64.7031L308.273 64.8359H302.26V60.4773H312.921V63.7493C312.921 65.9628 312.45 67.8584 311.508 69.4361C310.575 71.0137 309.287 72.2251 307.645 73.0703C306.011 73.9155 304.131 74.3381 302.006 74.3381C299.648 74.3381 297.575 73.8269 295.788 72.8047C294.001 71.7824 292.609 70.3255 291.611 68.4339C290.613 66.5343 290.114 64.2805 290.114 61.6726C290.114 59.6442 290.415 57.8452 291.019 56.2756C291.623 54.6979 292.464 53.3617 293.543 52.267C294.629 51.1723 295.885 50.3433 297.31 49.7798C298.742 49.2164 300.284 48.9347 301.934 48.9347C303.367 48.9347 304.699 49.1399 305.93 49.5504C307.17 49.9609 308.265 50.5405 309.214 51.2891C310.172 52.0376 310.949 52.9271 311.545 53.9574C312.14 54.9877 312.511 56.1186 312.655 57.3501H306.606Z" fill="white"/>
<rect x="187.48" y="98" width="97" height="3" fill="white"/>
<path d="M119.37 118.232V129.352H117.546V124.488H112.314V129.352H110.49V118.232H112.314V123H117.546V118.232H119.37Z" fill="white"/>
<path d="M125.595 129.496C124.763 129.496 124.011 129.309 123.339 128.936C122.667 128.552 122.139 128.019 121.755 127.336C121.371 126.643 121.179 125.843 121.179 124.936C121.179 124.04 121.376 123.245 121.771 122.552C122.165 121.859 122.704 121.325 123.387 120.952C124.069 120.579 124.832 120.392 125.675 120.392C126.517 120.392 127.28 120.579 127.963 120.952C128.645 121.325 129.184 121.859 129.579 122.552C129.973 123.245 130.171 124.04 130.171 124.936C130.171 125.832 129.968 126.627 129.563 127.32C129.157 128.013 128.603 128.552 127.899 128.936C127.205 129.309 126.437 129.496 125.595 129.496ZM125.595 127.912C126.064 127.912 126.501 127.8 126.907 127.576C127.323 127.352 127.659 127.016 127.915 126.568C128.171 126.12 128.299 125.576 128.299 124.936C128.299 124.296 128.176 123.757 127.931 123.32C127.685 122.872 127.36 122.536 126.955 122.312C126.549 122.088 126.112 121.976 125.643 121.976C125.173 121.976 124.736 122.088 124.331 122.312C123.936 122.536 123.621 122.872 123.387 123.32C123.152 123.757 123.035 124.296 123.035 124.936C123.035 125.885 123.275 126.621 123.755 127.144C124.245 127.656 124.859 127.912 125.595 127.912Z" fill="white"/>
<path d="M136.422 120.392C137.115 120.392 137.734 120.536 138.278 120.824C138.833 121.112 139.265 121.539 139.574 122.104C139.883 122.669 140.038 123.352 140.038 124.152V129.352H138.23V124.424C138.23 123.635 138.033 123.032 137.638 122.616C137.243 122.189 136.705 121.976 136.022 121.976C135.339 121.976 134.795 122.189 134.39 122.616C133.995 123.032 133.798 123.635 133.798 124.424V129.352H131.974V120.536H133.798V121.544C134.097 121.181 134.475 120.899 134.934 120.696C135.403 120.493 135.899 120.392 136.422 120.392Z" fill="white"/>
<path d="M150.445 124.728C150.445 125.059 150.423 125.357 150.381 125.624H143.645C143.698 126.328 143.959 126.893 144.429 127.32C144.898 127.747 145.474 127.96 146.157 127.96C147.138 127.96 147.831 127.549 148.237 126.728H150.205C149.938 127.539 149.453 128.205 148.749 128.728C148.055 129.24 147.191 129.496 146.157 129.496C145.314 129.496 144.557 129.309 143.885 128.936C143.223 128.552 142.701 128.019 142.317 127.336C141.943 126.643 141.757 125.843 141.757 124.936C141.757 124.029 141.938 123.235 142.301 122.552C142.674 121.859 143.191 121.325 143.853 120.952C144.525 120.579 145.293 120.392 146.157 120.392C146.989 120.392 147.73 120.573 148.381 120.936C149.031 121.299 149.538 121.811 149.901 122.472C150.263 123.123 150.445 123.875 150.445 124.728ZM148.541 124.152C148.53 123.48 148.29 122.941 147.821 122.536C147.351 122.131 146.77 121.928 146.077 121.928C145.447 121.928 144.909 122.131 144.461 122.536C144.013 122.931 143.746 123.469 143.661 124.152H148.541Z" fill="white"/>
<path d="M155.44 129.496C154.746 129.496 154.122 129.373 153.568 129.128C153.024 128.872 152.592 128.531 152.272 128.104C151.952 127.667 151.781 127.181 151.76 126.648H153.648C153.68 127.021 153.856 127.336 154.176 127.592C154.506 127.837 154.917 127.96 155.408 127.96C155.92 127.96 156.314 127.864 156.592 127.672C156.88 127.469 157.024 127.213 157.024 126.904C157.024 126.573 156.864 126.328 156.544 126.168C156.234 126.008 155.738 125.832 155.056 125.64C154.394 125.459 153.856 125.283 153.44 125.112C153.024 124.941 152.661 124.68 152.352 124.328C152.053 123.976 151.904 123.512 151.904 122.936C151.904 122.467 152.042 122.04 152.32 121.656C152.597 121.261 152.992 120.952 153.504 120.728C154.026 120.504 154.624 120.392 155.296 120.392C156.298 120.392 157.104 120.648 157.712 121.16C158.33 121.661 158.661 122.349 158.704 123.224H156.88C156.848 122.829 156.688 122.515 156.4 122.28C156.112 122.045 155.722 121.928 155.232 121.928C154.752 121.928 154.384 122.019 154.128 122.2C153.872 122.381 153.744 122.621 153.744 122.92C153.744 123.155 153.829 123.352 154 123.512C154.17 123.672 154.378 123.8 154.624 123.896C154.869 123.981 155.232 124.093 155.712 124.232C156.352 124.403 156.874 124.579 157.28 124.76C157.696 124.931 158.053 125.187 158.352 125.528C158.65 125.869 158.805 126.323 158.816 126.888C158.816 127.389 158.677 127.837 158.4 128.232C158.122 128.627 157.728 128.936 157.216 129.16C156.714 129.384 156.122 129.496 155.44 129.496Z" fill="white"/>
<path d="M162.914 122.024V126.904C162.914 127.235 162.989 127.475 163.138 127.624C163.298 127.763 163.565 127.832 163.938 127.832H165.058V129.352H163.618C162.797 129.352 162.168 129.16 161.73 128.776C161.293 128.392 161.074 127.768 161.074 126.904V122.024H160.034V120.536H161.074V118.344H162.914V120.536H165.058V122.024H162.914Z" fill="white"/>
<path d="M174.676 120.536L169.268 133.496H167.38L169.172 129.208L165.7 120.536H167.732L170.212 127.256L172.788 120.536H174.676Z" fill="white"/>
<path d="M178.052 127.16L176.116 131.576H174.932L176.068 127.16H178.052Z" fill="white"/>
<path d="M187.466 129.464C186.719 129.464 186.047 129.336 185.45 129.08C184.853 128.813 184.383 128.44 184.042 127.96C183.701 127.48 183.53 126.92 183.53 126.28H185.482C185.525 126.76 185.711 127.155 186.042 127.464C186.383 127.773 186.858 127.928 187.466 127.928C188.095 127.928 188.586 127.779 188.938 127.48C189.29 127.171 189.466 126.776 189.466 126.296C189.466 125.923 189.354 125.619 189.13 125.384C188.917 125.149 188.645 124.968 188.314 124.84C187.994 124.712 187.546 124.573 186.97 124.424C186.245 124.232 185.653 124.04 185.194 123.848C184.746 123.645 184.362 123.336 184.042 122.92C183.722 122.504 183.562 121.949 183.562 121.256C183.562 120.616 183.722 120.056 184.042 119.576C184.362 119.096 184.81 118.728 185.386 118.472C185.962 118.216 186.629 118.088 187.386 118.088C188.463 118.088 189.343 118.36 190.026 118.904C190.719 119.437 191.103 120.173 191.178 121.112H189.162C189.13 120.707 188.938 120.36 188.586 120.072C188.234 119.784 187.77 119.64 187.194 119.64C186.671 119.64 186.245 119.773 185.914 120.04C185.583 120.307 185.418 120.691 185.418 121.192C185.418 121.533 185.519 121.816 185.722 122.04C185.935 122.253 186.202 122.424 186.522 122.552C186.842 122.68 187.279 122.819 187.834 122.968C188.57 123.171 189.167 123.373 189.626 123.576C190.095 123.779 190.49 124.093 190.81 124.52C191.141 124.936 191.306 125.496 191.306 126.2C191.306 126.765 191.151 127.299 190.842 127.8C190.543 128.301 190.101 128.707 189.514 129.016C188.938 129.315 188.255 129.464 187.466 129.464Z" fill="white"/>
<path d="M194.386 119.368C194.056 119.368 193.778 119.256 193.554 119.032C193.33 118.808 193.218 118.531 193.218 118.2C193.218 117.869 193.33 117.592 193.554 117.368C193.778 117.144 194.056 117.032 194.386 117.032C194.706 117.032 194.978 117.144 195.202 117.368C195.426 117.592 195.538 117.869 195.538 118.2C195.538 118.531 195.426 118.808 195.202 119.032C194.978 119.256 194.706 119.368 194.386 119.368ZM195.282 120.536V129.352H193.458V120.536H195.282Z" fill="white"/>
<path d="M202.125 120.392C202.818 120.392 203.437 120.536 203.981 120.824C204.536 121.112 204.968 121.539 205.277 122.104C205.586 122.669 205.741 123.352 205.741 124.152V129.352H203.933V124.424C203.933 123.635 203.736 123.032 203.341 122.616C202.946 122.189 202.408 121.976 201.725 121.976C201.042 121.976 200.498 122.189 200.093 122.616C199.698 123.032 199.501 123.635 199.501 124.424V129.352H197.677V120.536H199.501V121.544C199.8 121.181 200.178 120.899 200.637 120.696C201.106 120.493 201.602 120.392 202.125 120.392Z" fill="white"/>
<path d="M207.46 124.936C207.46 124.029 207.641 123.235 208.004 122.552C208.377 121.859 208.889 121.325 209.54 120.952C210.19 120.579 210.937 120.392 211.78 120.392C212.846 120.392 213.726 120.648 214.42 121.16C215.124 121.661 215.598 122.381 215.844 123.32H213.876C213.716 122.883 213.46 122.541 213.108 122.296C212.756 122.051 212.313 121.928 211.78 121.928C211.033 121.928 210.436 122.195 209.988 122.728C209.55 123.251 209.332 123.987 209.332 124.936C209.332 125.885 209.55 126.627 209.988 127.16C210.436 127.693 211.033 127.96 211.78 127.96C212.836 127.96 213.534 127.496 213.876 126.568H215.844C215.588 127.464 215.108 128.179 214.404 128.712C213.7 129.235 212.825 129.496 211.78 129.496C210.937 129.496 210.19 129.309 209.54 128.936C208.889 128.552 208.377 128.019 208.004 127.336C207.641 126.643 207.46 125.843 207.46 124.936Z" fill="white"/>
<path d="M225.741 124.728C225.741 125.059 225.72 125.357 225.677 125.624H218.941C218.995 126.328 219.256 126.893 219.725 127.32C220.195 127.747 220.771 127.96 221.453 127.96C222.435 127.96 223.128 127.549 223.533 126.728H225.501C225.235 127.539 224.749 128.205 224.045 128.728C223.352 129.24 222.488 129.496 221.453 129.496C220.611 129.496 219.853 129.309 219.181 128.936C218.52 128.552 217.997 128.019 217.613 127.336C217.24 126.643 217.053 125.843 217.053 124.936C217.053 124.029 217.235 123.235 217.597 122.552C217.971 121.859 218.488 121.325 219.149 120.952C219.821 120.579 220.589 120.392 221.453 120.392C222.285 120.392 223.027 120.573 223.677 120.936C224.328 121.299 224.835 121.811 225.197 122.472C225.56 123.123 225.741 123.875 225.741 124.728ZM223.837 124.152C223.827 123.48 223.587 122.941 223.117 122.536C222.648 122.131 222.067 121.928 221.373 121.928C220.744 121.928 220.205 122.131 219.757 122.536C219.309 122.931 219.043 123.469 218.957 124.152H223.837Z" fill="white"/>
<path d="M229.36 121.816C229.627 121.368 229.979 121.021 230.416 120.776C230.864 120.52 231.392 120.392 232 120.392V122.28H231.536C230.822 122.28 230.278 122.461 229.904 122.824C229.542 123.187 229.36 123.816 229.36 124.712V129.352H227.536V120.536H229.36V121.816Z" fill="white"/>
<path d="M234.605 119.368C234.274 119.368 233.997 119.256 233.773 119.032C233.549 118.808 233.437 118.531 233.437 118.2C233.437 117.869 233.549 117.592 233.773 117.368C233.997 117.144 234.274 117.032 234.605 117.032C234.925 117.032 235.197 117.144 235.421 117.368C235.645 117.592 235.757 117.869 235.757 118.2C235.757 118.531 235.645 118.808 235.421 119.032C235.197 119.256 234.925 119.368 234.605 119.368ZM235.501 120.536V129.352H233.677V120.536H235.501Z" fill="white"/>
<path d="M240.024 122.024V126.904C240.024 127.235 240.098 127.475 240.248 127.624C240.408 127.763 240.674 127.832 241.048 127.832H242.168V129.352H240.728C239.906 129.352 239.277 129.16 238.84 128.776C238.402 128.392 238.184 127.768 238.184 126.904V122.024H237.144V120.536H238.184V118.344H240.024V120.536H242.168V122.024H240.024Z" fill="white"/>
<path d="M251.785 120.536L246.377 133.496H244.489L246.281 129.208L242.809 120.536H244.841L247.321 127.256L249.897 120.536H251.785Z" fill="white"/>
<path d="M255.161 127.16L253.225 131.576H252.041L253.177 127.16H255.161Z" fill="white"/>
<path d="M268.687 121.544C268.687 122.109 268.554 122.643 268.287 123.144C268.021 123.645 267.594 124.056 267.007 124.376C266.421 124.685 265.669 124.84 264.751 124.84H262.735V129.352H260.911V118.232H264.751C265.605 118.232 266.325 118.381 266.911 118.68C267.509 118.968 267.951 119.363 268.239 119.864C268.538 120.365 268.687 120.925 268.687 121.544ZM264.751 123.352C265.445 123.352 265.962 123.197 266.303 122.888C266.645 122.568 266.815 122.12 266.815 121.544C266.815 120.328 266.127 119.72 264.751 119.72H262.735V123.352H264.751Z" fill="white"/>
<path d="M272.251 121.816C272.518 121.368 272.87 121.021 273.307 120.776C273.755 120.52 274.283 120.392 274.891 120.392V122.28H274.427C273.712 122.28 273.168 122.461 272.795 122.824C272.432 123.187 272.251 123.816 272.251 124.712V129.352H270.427V120.536H272.251V121.816Z" fill="white"/>
<path d="M280.392 129.496C279.56 129.496 278.808 129.309 278.136 128.936C277.464 128.552 276.936 128.019 276.552 127.336C276.168 126.643 275.976 125.843 275.976 124.936C275.976 124.04 276.173 123.245 276.568 122.552C276.962 121.859 277.501 121.325 278.184 120.952C278.866 120.579 279.629 120.392 280.472 120.392C281.314 120.392 282.077 120.579 282.76 120.952C283.442 121.325 283.981 121.859 284.376 122.552C284.77 123.245 284.968 124.04 284.968 124.936C284.968 125.832 284.765 126.627 284.36 127.32C283.954 128.013 283.4 128.552 282.696 128.936C282.002 129.309 281.234 129.496 280.392 129.496ZM280.392 127.912C280.861 127.912 281.298 127.8 281.704 127.576C282.12 127.352 282.456 127.016 282.712 126.568C282.968 126.12 283.096 125.576 283.096 124.936C283.096 124.296 282.973 123.757 282.728 123.32C282.482 122.872 282.157 122.536 281.752 122.312C281.346 122.088 280.909 121.976 280.44 121.976C279.97 121.976 279.533 122.088 279.128 122.312C278.733 122.536 278.418 122.872 278.184 123.32C277.949 123.757 277.832 124.296 277.832 124.936C277.832 125.885 278.072 126.621 278.552 127.144C279.042 127.656 279.656 127.912 280.392 127.912Z" fill="white"/>
<path d="M290.467 122.024H288.835V129.352H286.995V122.024H285.955V120.536H286.995V119.912C286.995 118.899 287.261 118.163 287.795 117.704C288.339 117.235 289.187 117 290.339 117V118.52C289.784 118.52 289.395 118.627 289.171 118.84C288.947 119.043 288.835 119.4 288.835 119.912V120.536H290.467V122.024Z" fill="white"/>
<path d="M293.011 119.368C292.681 119.368 292.403 119.256 292.179 119.032C291.955 118.808 291.843 118.531 291.843 118.2C291.843 117.869 291.955 117.592 292.179 117.368C292.403 117.144 292.681 117.032 293.011 117.032C293.331 117.032 293.603 117.144 293.827 117.368C294.051 117.592 294.163 117.869 294.163 118.2C294.163 118.531 294.051 118.808 293.827 119.032C293.603 119.256 293.331 119.368 293.011 119.368ZM293.907 120.536V129.352H292.083V120.536H293.907Z" fill="white"/>
<path d="M298.43 122.024V126.904C298.43 127.235 298.505 127.475 298.654 127.624C298.814 127.763 299.081 127.832 299.454 127.832H300.574V129.352H299.134C298.313 129.352 297.683 129.16 297.246 128.776C296.809 128.392 296.59 127.768 296.59 126.904V122.024H295.55V120.536H296.59V118.344H298.43V120.536H300.574V122.024H298.43Z" fill="white"/>
<path d="M301.647 124.904C301.647 124.019 301.829 123.235 302.191 122.552C302.565 121.869 303.066 121.341 303.695 120.968C304.335 120.584 305.039 120.392 305.807 120.392C306.501 120.392 307.103 120.531 307.615 120.808C308.138 121.075 308.554 121.411 308.863 121.816V120.536H310.703V129.352H308.863V128.04C308.554 128.456 308.133 128.803 307.599 129.08C307.066 129.357 306.458 129.496 305.775 129.496C305.018 129.496 304.325 129.304 303.695 128.92C303.066 128.525 302.565 127.981 302.191 127.288C301.829 126.584 301.647 125.789 301.647 124.904ZM308.863 124.936C308.863 124.328 308.735 123.8 308.479 123.352C308.234 122.904 307.909 122.563 307.503 122.328C307.098 122.093 306.661 121.976 306.191 121.976C305.722 121.976 305.284 122.093 304.879 122.328C304.474 122.552 304.143 122.888 303.887 123.336C303.642 123.773 303.519 124.296 303.519 124.904C303.519 125.512 303.642 126.045 303.887 126.504C304.143 126.963 304.474 127.315 304.879 127.56C305.295 127.795 305.733 127.912 306.191 127.912C306.661 127.912 307.098 127.795 307.503 127.56C307.909 127.325 308.234 126.984 308.479 126.536C308.735 126.077 308.863 125.544 308.863 124.936Z" fill="white"/>
<path d="M314.923 121.848C315.232 121.421 315.654 121.075 316.187 120.808C316.731 120.531 317.334 120.392 317.995 120.392C318.774 120.392 319.478 120.579 320.107 120.952C320.736 121.325 321.232 121.859 321.595 122.552C321.958 123.235 322.139 124.019 322.139 124.904C322.139 125.789 321.958 126.584 321.595 127.288C321.232 127.981 320.731 128.525 320.091 128.92C319.462 129.304 318.763 129.496 317.995 129.496C317.312 129.496 316.704 129.363 316.171 129.096C315.648 128.829 315.232 128.488 314.923 128.072V129.352H313.099V117.512H314.923V121.848ZM320.283 124.904C320.283 124.296 320.155 123.773 319.899 123.336C319.654 122.888 319.323 122.552 318.907 122.328C318.502 122.093 318.064 121.976 317.595 121.976C317.136 121.976 316.699 122.093 316.283 122.328C315.878 122.563 315.547 122.904 315.291 123.352C315.046 123.8 314.923 124.328 314.923 124.936C314.923 125.544 315.046 126.077 315.291 126.536C315.547 126.984 315.878 127.325 316.283 127.56C316.699 127.795 317.136 127.912 317.595 127.912C318.064 127.912 318.502 127.795 318.907 127.56C319.323 127.315 319.654 126.963 319.899 126.504C320.155 126.045 320.283 125.512 320.283 124.904Z" fill="white"/>
<path d="M324.871 119.368C324.54 119.368 324.263 119.256 324.039 119.032C323.815 118.808 323.703 118.531 323.703 118.2C323.703 117.869 323.815 117.592 324.039 117.368C324.263 117.144 324.54 117.032 324.871 117.032C325.191 117.032 325.463 117.144 325.687 117.368C325.911 117.592 326.023 117.869 326.023 118.2C326.023 118.531 325.911 118.808 325.687 119.032C325.463 119.256 325.191 119.368 324.871 119.368ZM325.767 120.536V129.352H323.943V120.536H325.767Z" fill="white"/>
<path d="M329.985 117.512V129.352H328.161V117.512H329.985Z" fill="white"/>
<path d="M333.308 119.368C332.977 119.368 332.7 119.256 332.476 119.032C332.252 118.808 332.14 118.531 332.14 118.2C332.14 117.869 332.252 117.592 332.476 117.368C332.7 117.144 332.977 117.032 333.308 117.032C333.628 117.032 333.9 117.144 334.124 117.368C334.348 117.592 334.46 117.869 334.46 118.2C334.46 118.531 334.348 118.808 334.124 119.032C333.9 119.256 333.628 119.368 333.308 119.368ZM334.204 120.536V129.352H332.38V120.536H334.204Z" fill="white"/>
<path d="M338.727 122.024V126.904C338.727 127.235 338.802 127.475 338.951 127.624C339.111 127.763 339.378 127.832 339.751 127.832H340.871V129.352H339.431C338.61 129.352 337.98 129.16 337.543 128.776C337.106 128.392 336.887 127.768 336.887 126.904V122.024H335.847V120.536H336.887V118.344H338.727V120.536H340.871V122.024H338.727Z" fill="white"/>
<path d="M350.488 120.536L345.08 133.496H343.192L344.984 129.208L341.512 120.536H343.544L346.024 127.256L348.6 120.536H350.488Z" fill="white"/>
<path d="M352.601 129.464C352.27 129.464 351.993 129.352 351.769 129.128C351.545 128.904 351.433 128.627 351.433 128.296C351.433 127.965 351.545 127.688 351.769 127.464C351.993 127.24 352.27 127.128 352.601 127.128C352.921 127.128 353.193 127.24 353.417 127.464C353.641 127.688 353.753 127.965 353.753 128.296C353.753 128.627 353.641 128.904 353.417 129.128C353.193 129.352 352.921 129.464 352.601 129.464Z" fill="white"/>
<path d="M356.46 129.464C356.129 129.464 355.852 129.352 355.628 129.128C355.404 128.904 355.292 128.627 355.292 128.296C355.292 127.965 355.404 127.688 355.628 127.464C355.852 127.24 356.129 127.128 356.46 127.128C356.78 127.128 357.052 127.24 357.276 127.464C357.5 127.688 357.612 127.965 357.612 128.296C357.612 128.627 357.5 128.904 357.276 129.128C357.052 129.352 356.78 129.464 356.46 129.464Z" fill="white"/>
<path d="M360.319 129.464C359.989 129.464 359.711 129.352 359.487 129.128C359.263 128.904 359.151 128.627 359.151 128.296C359.151 127.965 359.263 127.688 359.487 127.464C359.711 127.24 359.989 127.128 360.319 127.128C360.639 127.128 360.911 127.24 361.135 127.464C361.359 127.688 361.471 127.965 361.471 128.296C361.471 128.627 361.359 128.904 361.135 129.128C360.911 129.352 360.639 129.464 360.319 129.464Z" fill="white"/>
</svg>
