<svg width="24" height="24" viewBox="0 0 24 24" fill="none" xmlns="http://www.w3.org/2000/svg">
<path fill-rule="evenodd" clip-rule="evenodd" d="M24 12C24 18.6274 18.6274 24 12 24C5.37258 24 0 18.6274 0 12C0 5.37258 5.37258 0 12 0C18.6274 0 24 5.37258 24 12ZM12.4301 8.85881C11.2629 9.34428 8.9302 10.3491 5.43195 11.8732C4.86389 12.0991 4.56632 12.3201 4.53923 12.5362C4.49345 12.9014 4.95077 13.0452 5.57353 13.241C5.65825 13.2676 5.74602 13.2952 5.836 13.3245C6.4487 13.5237 7.27289 13.7567 7.70135 13.7659C8.09 13.7743 8.52379 13.6141 9.0027 13.2852C12.2712 11.0789 13.9584 9.96369 14.0644 9.93965C14.1391 9.92269 14.2427 9.90136 14.3128 9.96372C14.383 10.0261 14.3761 10.1442 14.3687 10.1759C14.3234 10.369 12.5282 12.038 11.5992 12.9017C11.3096 13.1709 11.1041 13.3619 11.0621 13.4055C10.9681 13.5032 10.8722 13.5957 10.78 13.6845C10.2108 14.2332 9.78397 14.6447 10.8037 15.3167C11.2937 15.6396 11.6858 15.9066 12.077 16.173C12.5042 16.464 12.9303 16.7541 13.4817 17.1155C13.6221 17.2076 13.7563 17.3033 13.8869 17.3964C14.3841 17.7509 14.8308 18.0693 15.3826 18.0185C15.7033 17.989 16.0345 17.6875 16.2027 16.7882C16.6003 14.663 17.3817 10.0583 17.5623 8.16085C17.5781 7.99461 17.5582 7.78185 17.5422 7.68845C17.5262 7.59506 17.4928 7.46199 17.3714 7.36348C17.2277 7.24681 17.0057 7.22221 16.9064 7.22396C16.4551 7.23191 15.7626 7.47269 12.4301 8.85881Z" fill="white"/>
</svg>
