<svg width="151" height="126" viewBox="0 0 151 126" fill="none" xmlns="http://www.w3.org/2000/svg">
<g filter="url(#filter0_d_1001_2474)">
<path fill-rule="evenodd" clip-rule="evenodd" d="M120.561 5.78637C121.136 7.81887 128.199 33.8961 115.739 47.5167C102.83 61.6279 95.1497 54.8261 94.1547 46.283C94.1513 46.2468 94.1366 46.2126 94.1127 46.1852C94.0889 46.1579 94.0571 46.1388 94.0218 46.1306C92.4017 45.732 74.8986 41.1169 77.1951 28.1728C79.6034 14.6029 104.165 7.49105 104.165 7.49105C104.165 7.49105 109.33 5.40697 120.394 5.6591C120.432 5.65869 120.469 5.67098 120.499 5.69403C120.529 5.71708 120.551 5.74958 120.561 5.78637Z" fill="#669933"/>
<path fill-rule="evenodd" clip-rule="evenodd" d="M118.489 8.57923C117.104 13.5785 112.616 26.4311 100.566 39.4726C100.542 39.498 100.526 39.5298 100.521 39.5642C100.515 39.5985 100.52 39.6338 100.534 39.6654C100.548 39.6977 100.572 39.7249 100.602 39.7435C100.632 39.7621 100.667 39.7714 100.702 39.77C103.031 39.6847 105.956 39.9826 108.759 41.7466C108.795 41.7689 108.822 41.8034 108.835 41.8438C108.848 41.8842 108.846 41.9279 108.83 41.967C108.813 42.0061 108.783 42.038 108.746 42.057C108.708 42.076 108.665 42.0808 108.624 42.0706C106.709 41.6058 102.439 41.0384 97.4267 43.4378C97.3977 43.4516 97.3729 43.4729 97.3547 43.4995C95.3825 46.4586 92.7574 50.1475 90.2762 54.0129C90.2595 54.0391 90.2362 54.0604 90.2087 54.0747C90.1812 54.089 90.1505 54.0958 90.1196 54.0944C90.0887 54.0931 90.0586 54.0836 90.0325 54.0669C90.0064 54.0502 89.985 54.027 89.9706 53.9994L86.8596 48.1011C86.8596 48.1011 88.0176 47.3779 89.9807 45.7446C90.0057 45.7235 90.0244 45.6959 90.0349 45.6648C90.0453 45.6337 90.047 45.6003 90.0398 45.5683C90.0327 45.5363 90.0168 45.5069 89.9942 45.4833C89.9715 45.4598 89.9427 45.4429 89.9112 45.4346C81.4841 43.1871 73.4601 38.1194 76.4992 27.2877C81.3752 9.91173 106.732 1.90468 123.129 0.00138106C123.17 -0.00371177 123.21 0.0053743 123.245 0.0270894C123.279 0.0488045 123.305 0.0818035 123.317 0.120458C128.725 16.0478 130.312 41.3889 118.702 52.3083C104.666 65.5127 93.9961 52.2769 98.0556 45.384C98.0751 45.3509 98.1048 45.325 98.1402 45.3102C98.1755 45.2955 98.2147 45.2926 98.2518 45.302C98.2889 45.3114 98.322 45.3327 98.3462 45.3626C98.3703 45.3925 98.3841 45.4294 98.3857 45.4679C98.7296 54.362 105.722 59.7011 116.644 49.0286C127.067 38.8439 128.445 11.3493 121.557 3.20391C121.538 3.18113 121.514 3.16356 121.487 3.15292C121.459 3.14228 121.43 3.13892 121.401 3.14317C106.934 4.8329 85.0817 14.5306 80.5683 28.6072C77.8818 36.9811 86.045 44.1903 92.6063 42.8925C92.6422 42.8857 92.6793 42.8902 92.7126 42.9054C92.7458 42.9207 92.7735 42.9459 92.7919 42.9776C92.8102 43.0094 92.8184 43.046 92.8151 43.0826C92.8119 43.1192 92.7974 43.1538 92.7737 43.1818C92.6778 43.2917 92.5732 43.4166 92.4624 43.5492C94.7123 41.454 97.5063 38.5663 100.588 34.7481C100.588 34.7481 100.591 34.7452 100.591 34.7438C103.192 31.736 103.045 24.427 101.048 19.2744C101.032 19.2346 101.032 19.1905 101.046 19.1503C101.06 19.11 101.089 19.0763 101.125 19.0551C101.162 19.034 101.206 19.0269 101.247 19.0351C101.289 19.0433 101.327 19.0663 101.353 19.0999C102.702 20.8446 105.257 24.8917 104.212 29.4557C104.202 29.4957 104.207 29.5377 104.225 29.5746C104.243 29.6114 104.274 29.6408 104.311 29.6577C104.348 29.6753 104.389 29.6795 104.429 29.6695C104.468 29.6594 104.503 29.6358 104.527 29.6027C108.941 23.6465 114.519 16.6234 118.154 8.46015C118.173 8.41975 118.206 8.3878 118.247 8.37059C118.287 8.35338 118.333 8.35214 118.375 8.36712C118.417 8.3821 118.451 8.41222 118.472 8.45156C118.493 8.49089 118.498 8.5366 118.487 8.57971L118.489 8.57923Z" fill="#53381D"/>
<path fill-rule="evenodd" clip-rule="evenodd" d="M29.7406 10.1312C33.0369 10.0893 75.905 12.1734 87.6283 37.339C99.8778 63.6346 87.8681 70.4625 75.028 67.6977C74.992 67.6894 74.9543 67.6923 74.92 67.7062C74.8856 67.7201 74.8564 67.7442 74.8361 67.7753C73.6997 69.5393 58.1946 92.9178 40.4992 83.2432C22.1148 73.1902 24.0923 34.4869 24.0923 34.4869C24.0923 34.4869 23.6562 26.0417 29.5612 10.2479C29.5754 10.2121 29.6003 10.1817 29.6324 10.1608C29.6646 10.1399 29.7024 10.1296 29.7406 10.1312Z" fill="#669933"/>
<path fill-rule="evenodd" clip-rule="evenodd" d="M32.4351 13.1447C37.7765 17.2247 54.1225 31.1961 65.7671 57.1597C65.7808 57.1924 65.8042 57.2201 65.8342 57.2389C65.8642 57.2577 65.8992 57.2667 65.9345 57.2648C65.9697 57.2639 66.0038 57.2525 66.0324 57.2318C66.061 57.2112 66.0827 57.1823 66.0947 57.149C67.3703 53.678 69.6035 49.4896 74.0727 46.5156C74.1077 46.4919 74.15 46.4816 74.192 46.4866C74.2339 46.4917 74.2726 46.5117 74.3011 46.543C74.3296 46.5742 74.3463 46.6146 74.3481 46.6569C74.35 46.6992 74.3369 46.7409 74.3111 46.7744C72.6676 48.8696 68.9021 54.701 69.3349 63.6877C69.3359 63.72 69.346 63.7515 69.3641 63.7783C72.3322 68.296 75.9408 74.1823 79.8833 79.9549C79.9011 79.9801 79.9118 80.0098 79.9143 80.0406C79.9168 80.0715 79.9111 80.1025 79.8976 80.1303C79.8851 80.1589 79.8651 80.1834 79.8398 80.2013C79.8144 80.2192 79.7846 80.2299 79.7537 80.2321L69.6213 81.1524C69.6213 81.1524 69.2883 79.0509 68.1293 75.2472C68.1195 75.216 68.1015 75.1881 68.0771 75.1665C68.0528 75.1448 68.0229 75.1303 67.9909 75.1244C67.9589 75.1185 67.9259 75.1216 67.8955 75.1332C67.8651 75.1448 67.8384 75.1646 67.8184 75.1903C59.7862 85.7211 48.0452 94.0984 34.77 83.4823C13.5475 66.5127 17.2894 26.342 24.2379 2.32611C24.2491 2.28717 24.2731 2.25324 24.3061 2.22992C24.3391 2.2066 24.379 2.19529 24.4192 2.19787C49.6211 3.91122 85.6765 16.4856 94.0215 39.0991C104.192 66.6535 79.1435 73.732 72.2118 63.6635C72.1903 63.6322 72.1794 63.5949 72.1806 63.5569C72.1818 63.5189 72.1951 63.4822 72.2185 63.4524C72.2417 63.4217 72.2742 63.3995 72.3112 63.3893C72.3481 63.3791 72.3874 63.3815 72.4229 63.396C85.0399 68.309 96.7411 61.7135 88.282 40.0628C80.2608 19.5286 42.948 1.54415 27.6838 6.46968C27.656 6.47875 27.6309 6.49453 27.6106 6.51562C27.5902 6.53671 27.5754 6.56248 27.5672 6.59068C21.4511 27.7882 22.1083 64.0304 38.971 78.5626C49.0809 87.2769 63.9925 79.8748 65.8155 69.8117C65.8216 69.774 65.8396 69.7393 65.8668 69.7126C65.894 69.686 65.929 69.6689 65.9667 69.6638C66.0043 69.6587 66.0426 69.666 66.0759 69.6844C66.1091 69.7029 66.1356 69.7316 66.1513 69.7663C66.2708 70.019 66.4243 70.3256 66.5941 70.6582C65.0076 66.2905 62.6425 60.7011 59.1549 54.1663C59.1549 54.1663 59.1549 54.163 59.1549 54.161C56.4449 48.6377 45.7981 44.5086 37.4008 44.4864C37.3582 44.4868 37.3168 44.4713 37.2847 44.4431C37.2526 44.4148 37.232 44.3757 37.2267 44.3331C37.2205 44.291 37.2296 44.2481 37.2523 44.2121C37.2751 44.1762 37.3099 44.1497 37.3505 44.1374C40.2337 43.2696 48.1522 41.5442 54.3009 46.2774C54.3335 46.3027 54.3738 46.3157 54.415 46.3143C54.4561 46.313 54.4955 46.2972 54.5263 46.2698C54.5571 46.2424 54.5775 46.2051 54.5839 46.1643C54.5903 46.1234 54.5824 46.0816 54.5614 46.046C48.6722 36.0498 41.9444 23.5487 32.2058 13.4084C32.1757 13.3758 32.1588 13.333 32.1584 13.2885C32.1579 13.244 32.1741 13.2009 32.2036 13.1677C32.2331 13.1345 32.2738 13.1136 32.3179 13.1089C32.362 13.1043 32.4061 13.1164 32.4418 13.1428L32.4351 13.1447Z" fill="#53381D"/>
<path fill-rule="evenodd" clip-rule="evenodd" d="M128.171 50.828C128.171 50.828 145.346 67.909 136.655 78.4374C130.92 84.6563 121.644 80.144 121.644 80.144C121.644 80.144 114.859 99.2897 84.28 97.9302C83.8483 90.6343 81.7744 82.1471 76.373 73.3798C78.6691 66.5302 83.2169 58.4099 91.5979 49.2815C91.5979 49.2815 89.3566 47.1164 93.9778 41.3921C98.5991 35.6677 117.132 35.6176 128.171 50.828Z" fill="#BA7852"/>
<path fill-rule="evenodd" clip-rule="evenodd" d="M128.477 83.4956C130.971 84.1951 136.589 85.1226 139.846 80.5953C144.122 74.6511 140.025 63.429 140.025 63.429C140.025 63.429 135.726 50.3253 115.142 40.3137C115.139 40.3125 115.136 40.3115 115.133 40.3108C114.859 40.196 101.955 34.8675 93.1198 43.1069C93.0888 43.1364 93.0483 43.1537 93.0057 43.1554C92.963 43.1572 92.9212 43.1434 92.8879 43.1166C92.8546 43.0898 92.8321 43.0518 92.8246 43.0096C92.817 42.9674 92.8249 42.9239 92.8468 42.8871C94.5652 39.9666 100.835 32.0231 116.515 36.1098C116.515 36.1098 124.991 38.2098 134.46 47.6829C134.484 47.7083 134.516 47.7256 134.55 47.7326C134.584 47.7396 134.62 47.7359 134.652 47.722C136.4 47.0268 139.008 45.3597 141.835 41.3714C141.841 41.3651 141.845 41.3588 141.849 41.3535C142.004 41.1863 144.394 38.6635 145.019 42.1731C145.021 42.1899 145.026 42.2062 145.034 42.2213C145.173 42.5072 146.563 45.6533 142.027 48.3747C140.065 49.5529 138.463 50.062 137.258 50.2549C137.227 50.2599 137.197 50.2732 137.173 50.2936C137.148 50.314 137.13 50.3406 137.119 50.3707C137.108 50.4008 137.106 50.4332 137.112 50.4646C137.118 50.496 137.133 50.5251 137.154 50.549C138.783 52.392 140.317 54.3175 141.751 56.3181C141.751 56.3181 150.595 68.1742 143.345 82.7189C143.342 82.7242 143.339 82.7286 143.337 82.7329C143.175 82.9966 138.574 90.2506 128.337 83.8219C128.3 83.7993 128.272 83.7639 128.259 83.7224C128.247 83.6809 128.249 83.6361 128.267 83.5964C128.284 83.5567 128.316 83.5248 128.355 83.5067C128.395 83.4885 128.439 83.4855 128.481 83.498L128.477 83.4956Z" fill="#53381D"/>
<path fill-rule="evenodd" clip-rule="evenodd" d="M78.2024 75.9417C80.3746 69.3954 84.2087 62.2344 90.7422 55.1636C90.7644 55.1393 90.7929 55.1216 90.8246 55.1126C90.8562 55.1035 90.8897 55.1035 90.9213 55.1125C90.953 55.1215 90.9815 55.1392 91.0038 55.1635C91.026 55.1879 91.0411 55.2179 91.0473 55.2504C91.5477 57.9019 95.6729 74.7693 119.923 77.6821C119.966 77.6876 120.009 77.6771 120.045 77.6527C120.081 77.6283 120.106 77.5917 120.117 77.5496C120.128 77.5075 120.123 77.463 120.104 77.4243C120.084 77.3855 120.051 77.3553 120.011 77.3393C114.871 75.3049 96.6818 66.7767 94.5993 47.3248C94.5993 47.32 94.5993 47.3157 94.5993 47.3099C94.5753 47.1821 94.1977 45.4066 92.6693 46.7733C91.6897 47.6488 81.1005 56.673 75.2463 71.4684C75.2351 71.4952 75.2308 71.5245 75.2339 71.5534C75.237 71.5823 75.2474 71.61 75.264 71.6338C76.2277 73.0878 77.1001 74.5329 77.8815 75.9692C77.8978 75.9997 77.9226 76.0248 77.9529 76.0412C77.9832 76.0577 78.0177 76.0648 78.052 76.0618C78.0863 76.0588 78.119 76.0457 78.146 76.0242C78.173 76.0027 78.1931 75.9737 78.2039 75.9408L78.2024 75.9417Z" fill="#53381D"/>
<path fill-rule="evenodd" clip-rule="evenodd" d="M131.649 85.2087C127.13 89.9597 106.415 104.582 84.491 103.059C84.4455 103.058 84.4015 103.076 84.3687 103.108C84.3359 103.139 84.3169 103.183 84.3159 103.229C84.2574 104.54 84.1509 105.794 84.0118 106.989C84.0086 107.013 84.0104 107.037 84.017 107.059C84.0236 107.082 84.0349 107.103 84.0502 107.122C84.064 107.141 84.0822 107.157 84.1034 107.169C84.1245 107.18 84.1481 107.186 84.172 107.186C96.0287 106.986 116.438 102.387 131.883 85.4719C131.913 85.4392 131.93 85.3961 131.93 85.3514C131.93 85.3067 131.913 85.2636 131.883 85.2309C131.825 85.1653 131.712 85.1436 131.649 85.2087Z" fill="#53381D"/>
<path fill-rule="evenodd" clip-rule="evenodd" d="M120.928 85.476C119.166 85.5724 112.916 85.6602 108.076 82.5266C108.041 82.5033 107.998 82.4936 107.956 82.4995C107.914 82.5053 107.875 82.5262 107.847 82.5584C107.819 82.5906 107.804 82.6317 107.803 82.6743C107.803 82.7169 107.817 82.7584 107.844 82.7913C109.144 84.3499 111.908 87.2786 114.683 87.7611C114.715 87.7664 114.746 87.7805 114.77 87.8019C114.795 87.8232 114.813 87.8509 114.823 87.8821C114.833 87.9132 114.834 87.9464 114.826 87.9782C114.819 88.0099 114.802 88.0389 114.779 88.062C113.693 89.1505 108.836 93.4103 98.1138 94.9033C98.0695 94.9092 98.029 94.9318 98.0006 94.9665C97.9722 95.0012 97.958 95.0455 97.9608 95.0904C97.963 95.1347 97.9818 95.1766 98.0135 95.2076C98.0452 95.2385 98.0874 95.2562 98.1316 95.2572C102.053 95.383 111.856 94.6705 121.063 85.7812C121.089 85.7561 121.107 85.7235 121.114 85.6878C121.121 85.6522 121.117 85.6153 121.103 85.582C121.088 85.5487 121.064 85.5207 121.033 85.5017C121.002 85.4828 120.966 85.4738 120.93 85.476H120.928Z" fill="#53381D"/>
<path fill-rule="evenodd" clip-rule="evenodd" d="M100.425 44.9587C97.7388 45.3299 99.1152 50.4517 101.766 50.5703C104.416 50.6889 101.673 46.3438 100.425 44.9587Z" fill="#53381D"/>
<path fill-rule="evenodd" clip-rule="evenodd" d="M21.6518 57.1426C21.3001 56.6697 1.74951 78.5475 13.0607 92.1974C19.4028 98.8296 29.5942 92.0403 29.5942 92.0403C29.5942 92.0403 38.2985 117.425 78.6883 106.086C78.6883 106.086 92.0868 81.5957 62.539 50.5356C62.539 50.5356 64.9957 47.604 59.8842 41.4047C54.7726 35.2055 34.5753 38.0812 21.6518 57.1426Z" fill="#BA7852"/>
<path fill-rule="evenodd" clip-rule="evenodd" d="M23.9949 97.2017C21.0565 98.8446 14.4554 101.728 10.9533 96.9076C6.35987 90.5864 12.098 75.1499 12.098 75.1499C12.098 75.1499 16.2472 59.3079 38.2027 44.6913C38.2053 44.6902 38.2077 44.6887 38.2099 44.687C38.4771 44.5298 52.3841 36.3753 61.8699 44.9203C61.9016 44.9488 61.9422 44.965 61.9846 44.9661C62.0271 44.9673 62.0685 44.9533 62.1016 44.9266C62.1339 44.9 62.1557 44.8629 62.1635 44.8218C62.1712 44.7806 62.1642 44.738 62.1438 44.7015C60.4619 41.7062 53.8017 32.8343 36.7179 39.9837C36.7179 39.9837 27.6625 43.6476 17.5765 56.0615C17.5546 56.0889 17.5251 56.1091 17.4917 56.1196C17.4583 56.1301 17.4225 56.1303 17.389 56.1203C15.518 55.5582 12.724 53.9865 9.68395 49.7364C9.67935 49.7293 9.67387 49.7229 9.66764 49.7171C9.49781 49.5397 6.93315 46.9432 6.28407 51.134C6.28119 51.1486 6.27734 51.1629 6.27256 51.1769C6.14351 51.4826 4.61699 55.3865 9.50836 57.931C11.6158 59.0268 13.3318 59.3927 14.6219 59.4433C14.654 59.4445 14.6852 59.4545 14.7121 59.4722C14.739 59.4899 14.7606 59.5147 14.7745 59.5438C14.7884 59.5729 14.7941 59.6053 14.7911 59.6375C14.788 59.6697 14.7763 59.7004 14.7571 59.7263C13.1284 61.9589 11.4796 64.4257 9.8389 67.1529C9.83794 67.1556 9.83647 67.158 9.83458 67.1602C9.66908 67.4113 -0.916741 83.5676 6.83433 99.3744C6.83469 99.3766 6.83569 99.3786 6.8372 99.3802C6.90341 99.5306 11.2987 109.149 24.2036 97.4928C24.236 97.4634 24.2565 97.4231 24.2614 97.3795C24.2662 97.3359 24.2551 97.292 24.23 97.2561C24.205 97.2187 24.1669 97.1922 24.1232 97.1821C24.0795 97.172 24.0336 97.179 23.9949 97.2017Z" fill="#53381D"/>
<path fill-rule="evenodd" clip-rule="evenodd" d="M21.4599 99.6014C21.7693 100.123 21.9348 100.442 23.3078 101.586C28.8204 105.855 49.8568 117.936 76.9531 112.577C78.4024 112.292 79.4703 111.193 79.7399 109.733C81.1086 102.296 83.5437 78.5591 64.3237 58.5205C64.3006 58.4968 64.2714 58.48 64.2394 58.4719C64.2074 58.4639 64.1738 58.4649 64.1423 58.4749C64.1109 58.4849 64.0828 58.5035 64.0612 58.5285C64.0396 58.5536 64.0253 58.5842 64.02 58.6169C63.5402 61.5688 59.3109 82.1232 33.1174 88.9954C33.0759 89.006 33.032 89.0011 32.9937 88.9817C32.9555 88.9622 32.9256 88.9296 32.9094 88.8897C32.8933 88.8498 32.8921 88.8054 32.9059 88.7647C32.9198 88.7239 32.9479 88.6896 32.985 88.6681C38.2295 85.7273 58.0132 73.1607 60.1763 49.9359C60.1755 49.9314 60.1755 49.9269 60.1763 49.9224C60.1975 49.7927 60.5875 47.6339 62.2392 49.018C63.9183 50.4257 91.8422 72.5441 83.6464 112.453C83.4065 113.614 83.1374 114.269 82.0599 114.752C75.1038 117.867 45.78 123.888 23.4441 102.858C23.2963 102.721 21.2464 100.19 21.1735 99.856C21.1543 99.7634 21.1101 99.6887 21.1696 99.6188C21.2291 99.5489 21.4119 99.5224 21.4599 99.6014Z" fill="#53381D"/>
<path fill-rule="evenodd" clip-rule="evenodd" d="M32.1104 98.2034C33.8509 98.0848 40.7048 97.3453 45.9637 92.8941C45.9963 92.8661 46.038 92.851 46.0809 92.8518C46.1237 92.8526 46.1648 92.8692 46.1964 92.8985C46.2285 92.9275 46.249 92.9673 46.2541 93.0104C46.2591 93.0536 46.2483 93.0971 46.2237 93.1328C44.8075 95.1951 41.6485 99.3161 38.5331 100.075C38.5331 100.075 43.5132 105.776 56.9117 105.942C56.956 105.943 56.9985 105.959 57.0309 105.99C57.0633 106.02 57.0831 106.062 57.0863 106.106C57.0907 106.15 57.0783 106.195 57.0517 106.23C57.0251 106.266 56.9861 106.29 56.9424 106.299C52.9894 107.026 42.1666 107.885 32.0029 98.5177C31.9764 98.4942 31.9574 98.4633 31.9483 98.4289C31.9393 98.3944 31.9406 98.3581 31.9521 98.3245C31.9636 98.2908 31.9848 98.2613 32.013 98.2398C32.0411 98.2182 32.0751 98.2056 32.1104 98.2034Z" fill="#53381D"/>
<path fill-rule="evenodd" clip-rule="evenodd" d="M49.5415 46.0848C53.1031 44.7783 57.1108 52.7623 54.1283 54.7234C51.1457 56.6846 49.6 48.8371 49.5415 46.0848Z" fill="#53381D"/>
<path fill-rule="evenodd" clip-rule="evenodd" d="M73.2848 87.9926C76.3465 87.659 77.9584 94.7366 75.2268 95.6989C72.4952 96.6611 72.7979 90.1736 73.2848 87.9926Z" fill="#53381D"/>
<path fill-rule="evenodd" clip-rule="evenodd" d="M120.561 5.78664C121.02 7.40502 125.59 24.2638 121.146 37.9421C121.651 38.1893 122.188 38.4673 122.757 38.7761C127.243 26.3594 126.734 9.32037 121.557 3.20022C121.539 3.17744 121.514 3.15988 121.487 3.14924C121.46 3.1386 121.43 3.13523 121.401 3.13948C117.125 3.63892 112.204 4.83789 107.275 6.64332C109.904 6.09855 114.235 5.51571 120.393 5.65599C120.431 5.65606 120.468 5.66874 120.498 5.6921C120.529 5.71545 120.55 5.74817 120.56 5.7852L120.561 5.78664ZM29.7409 10.1312C32.2135 10.0989 56.9533 11.2642 74.1105 22.4728C59.4408 10.6519 38.2653 3.05656 27.6843 6.47025C27.6566 6.47951 27.6315 6.49541 27.6113 6.51657C27.5911 6.53774 27.5763 6.56354 27.5682 6.59173C25.2127 14.7535 23.8618 25.1474 24.0537 35.6734C24.0719 34.9088 24.0925 34.487 24.0925 34.487C24.0925 34.487 23.6569 26.0417 29.5615 10.2479C29.5758 10.2123 29.6006 10.1821 29.6326 10.1612C29.6647 10.1403 29.7023 10.1299 29.7404 10.1312H29.7409Z" fill="white"/>
<path fill-rule="evenodd" clip-rule="evenodd" d="M128.171 50.8284C128.171 50.8284 145.346 67.9094 136.656 78.4377C130.92 84.6567 121.644 80.1443 121.644 80.1443C121.644 80.1443 120.813 82.4907 118.419 85.482C119.536 85.5331 120.419 85.5057 120.928 85.4782C120.964 85.4755 121 85.4844 121.031 85.5036C121.062 85.5229 121.086 85.5514 121.1 85.5852C121.115 85.6185 121.119 85.6556 121.112 85.6914C121.105 85.7272 121.086 85.7599 121.06 85.7848C116.442 90.2437 111.673 92.6454 107.573 93.9157C102.195 96.4795 94.9139 98.2777 85.1508 97.9653C85.1537 99.6333 85.0947 101.342 84.9642 103.092C106.371 104.356 126.525 90.3753 131.429 85.4391C130.355 84.9878 129.321 84.4468 128.337 83.8217C128.301 83.799 128.274 83.7641 128.262 83.7233C128.249 83.6826 128.252 83.6387 128.268 83.5995C128.285 83.5597 128.315 83.5274 128.354 83.5087C128.393 83.4899 128.437 83.4861 128.478 83.4978C130.973 84.1978 136.59 85.1253 139.848 80.5975C144.123 74.6538 140.026 63.4317 140.026 63.4317C140.026 63.4317 136.975 54.1336 123.71 45.2217C123.646 45.3605 123.58 45.4984 123.512 45.6353C125.242 47.198 126.804 48.9394 128.171 50.8308V50.8284ZM39.9541 103.94L39.9445 103.936C39.9474 103.938 39.9507 103.939 39.9541 103.94ZM23.3073 101.586C22.0279 100.522 21.7971 100.171 21.5218 99.7061C22.3709 99.0717 23.2641 98.337 24.2011 97.4885C24.2193 97.473 24.234 97.4538 24.2442 97.432C24.2543 97.4103 24.2598 97.3867 24.2601 97.3627C24.262 97.3232 24.2507 97.2841 24.2279 97.2518C24.2082 97.2244 24.1813 97.203 24.1502 97.1901C24.112 97.173 24.0688 97.1711 24.0293 97.1848C24.018 97.1888 24.0069 97.1936 23.9962 97.1993C21.0578 98.8427 14.4577 101.726 10.9546 96.9057C8.77138 93.9013 8.9225 88.8369 9.68096 84.3501C10.0283 87.1096 11.0635 89.7813 13.0636 92.1956C19.4056 98.8278 29.5971 92.038 29.5971 92.038C29.5971 92.038 30.5436 94.798 33.2589 98.0887C32.7706 98.1475 32.3801 98.1803 32.1109 98.1991C32.0762 98.2014 32.043 98.214 32.0154 98.2352C31.9878 98.2565 31.9671 98.2856 31.956 98.3187C31.9488 98.3378 31.9452 98.358 31.9454 98.3785C31.9453 98.4033 31.9505 98.4278 31.9605 98.4505C31.9705 98.4732 31.9851 98.4935 32.0035 98.5101C34.6497 100.951 37.34 102.699 39.9445 103.935C39.9424 103.933 39.9406 103.932 39.9392 103.93L39.9541 103.939C47.2878 108.528 59.3598 111.513 78.6893 106.086C78.6893 106.086 79.7624 104.125 80.6317 100.608C80.5502 104.566 80.104 107.736 79.7384 109.732C79.4693 111.192 78.4014 112.291 76.9521 112.576C49.8558 117.935 28.8195 105.854 23.3068 101.585L23.3073 101.586Z" fill="white"/>
<path fill-rule="evenodd" clip-rule="evenodd" d="M29.5963 92.0399C29.5963 92.0399 19.4048 98.8302 13.0651 92.1976C11.0651 89.7833 10.0298 87.1115 9.68248 84.3521C8.92402 88.8389 8.77099 93.9032 10.9562 96.9076C14.4582 101.729 21.0594 98.8447 23.9978 97.2012C24.036 97.1792 24.081 97.1723 24.124 97.1818C24.1671 97.1912 24.2051 97.2165 24.2306 97.2526C24.2562 97.2886 24.2674 97.333 24.2623 97.3769C24.2571 97.4209 24.2358 97.4614 24.2026 97.4905C23.2657 98.337 22.3724 99.0717 21.5233 99.7081C21.7987 100.172 22.0294 100.523 23.3089 101.588C28.8215 105.857 49.8578 117.938 76.9542 112.58C78.4035 112.295 79.4714 111.196 79.741 109.736C80.1084 107.739 80.5527 104.569 80.6338 100.612C79.765 104.127 78.6913 106.089 78.6913 106.089C59.3499 111.52 47.2749 108.526 39.9412 103.934C37.3396 102.695 34.6479 100.951 32.0026 98.512C31.9777 98.4882 31.9602 98.4576 31.9522 98.4241C31.9441 98.3905 31.9459 98.3553 31.9573 98.3227C31.9687 98.2901 31.9893 98.2615 32.0164 98.2404C32.0436 98.2192 32.0763 98.2064 32.1105 98.2035C32.3797 98.1847 32.7702 98.1519 33.2586 98.0931C30.5433 94.8023 29.5967 92.0424 29.5967 92.0424L29.5963 92.0399Z" fill="white"/>
</g>
<defs>
<filter id="filter0_d_1001_2474" x="0" y="0" width="150.2" height="126.001" filterUnits="userSpaceOnUse" color-interpolation-filters="sRGB">
<feFlood flood-opacity="0" result="BackgroundImageFix"/>
<feColorMatrix in="SourceAlpha" type="matrix" values="0 0 0 0 0 0 0 0 0 0 0 0 0 0 0 0 0 0 127 0" result="hardAlpha"/>
<feOffset dy="4"/>
<feGaussianBlur stdDeviation="2"/>
<feComposite in2="hardAlpha" operator="out"/>
<feColorMatrix type="matrix" values="0 0 0 0 0 0 0 0 0 0 0 0 0 0 0 0 0 0 0.25 0"/>
<feBlend mode="normal" in2="BackgroundImageFix" result="effect1_dropShadow_1001_2474"/>
<feBlend mode="normal" in="SourceGraphic" in2="effect1_dropShadow_1001_2474" result="shape"/>
</filter>
</defs>
</svg>
