<svg width="175" height="58" viewBox="0 0 175 58" fill="none" xmlns="http://www.w3.org/2000/svg">
<g clip-path="url(#clip0_48_13)">
<path fill-rule="evenodd" clip-rule="evenodd" d="M57.1386 2.84347C57.4208 3.84249 60.8831 16.6601 54.7749 23.355C48.4469 30.291 44.6822 26.9478 44.1944 22.7486C44.1928 22.7308 44.1856 22.714 44.1739 22.7005C44.1622 22.6871 44.1466 22.6777 44.1293 22.6737C43.3352 22.4777 34.7552 20.2093 35.8809 13.8469C37.0615 7.17699 49.1016 3.68136 49.1016 3.68136C49.1016 3.68136 51.6331 2.65698 57.057 2.78091C57.0755 2.78071 57.0936 2.78675 57.1084 2.79808C57.1232 2.80941 57.1338 2.82538 57.1386 2.84347Z" fill="#669933"/>
<path fill-rule="evenodd" clip-rule="evenodd" d="M56.123 4.21618C55.4441 6.67345 53.2441 12.9908 47.337 19.4011C47.3254 19.4135 47.3177 19.4292 47.315 19.4461C47.3122 19.4629 47.3145 19.4803 47.3215 19.4958C47.3286 19.5117 47.3403 19.5251 47.355 19.5342C47.3697 19.5434 47.3868 19.5479 47.4041 19.5473C48.5458 19.5053 49.9793 19.6518 51.3536 20.5188C51.3712 20.5298 51.3844 20.5467 51.3907 20.5666C51.397 20.5864 51.396 20.6079 51.388 20.6271C51.38 20.6463 51.3654 20.662 51.3469 20.6714C51.3284 20.6807 51.3072 20.6831 51.2871 20.678C50.3485 20.4496 48.2556 20.1707 45.7984 21.35C45.7841 21.3568 45.772 21.3673 45.7631 21.3804C44.7963 22.8348 43.5095 24.6481 42.2932 26.548C42.285 26.5609 42.2736 26.5713 42.2601 26.5784C42.2467 26.5854 42.2316 26.5887 42.2164 26.5881C42.2013 26.5874 42.1866 26.5827 42.1738 26.5745C42.161 26.5663 42.1505 26.5549 42.1434 26.5414L40.6184 23.6422C40.6184 23.6422 41.1861 23.2867 42.1484 22.4839C42.1606 22.4735 42.1698 22.46 42.1749 22.4447C42.18 22.4294 42.1809 22.413 42.1774 22.3973C42.1738 22.3815 42.1661 22.3671 42.155 22.3555C42.1438 22.3439 42.1298 22.3356 42.1143 22.3315C37.9834 21.2268 34.05 18.7359 35.5398 13.4119C37.93 4.87113 50.3596 0.935465 58.3977 -5.35967e-05C58.4174 -0.00255685 58.4374 0.00190918 58.4542 0.0125827C58.471 0.0232562 58.4836 0.0394761 58.4899 0.0584755C61.1404 7.88716 61.9186 20.343 56.2276 25.7101C49.347 32.2004 44.1167 25.6947 46.1067 22.3067C46.1162 22.2904 46.1308 22.2777 46.1481 22.2704C46.1654 22.2631 46.1846 22.2617 46.2028 22.2664C46.221 22.271 46.2373 22.2814 46.2491 22.2961C46.2609 22.3108 46.2677 22.329 46.2684 22.3479C46.4371 26.7196 49.8648 29.3439 55.2185 24.0981C60.3277 19.0921 61.0036 5.57775 57.6269 1.57407C57.6178 1.56287 57.6059 1.55424 57.5925 1.54901C57.5792 1.54378 57.5646 1.54212 57.5504 1.54422C50.4588 2.37476 39.7469 7.14145 37.5345 14.0604C36.2175 18.1764 40.2191 21.7199 43.4354 21.082C43.453 21.0787 43.4712 21.0809 43.4875 21.0884C43.5038 21.0959 43.5174 21.1083 43.5264 21.1239C43.5354 21.1395 43.5394 21.1575 43.5378 21.1755C43.5362 21.1934 43.5291 21.2105 43.5175 21.2242C43.4705 21.2782 43.4192 21.3396 43.3649 21.4048C44.4678 20.375 45.8374 18.9556 47.3478 17.0788C47.3478 17.0788 47.3493 17.0774 47.3497 17.0767C48.6243 15.5983 48.5526 12.0058 47.5734 9.47314C47.5659 9.45355 47.5656 9.43189 47.5726 9.41212C47.5796 9.39234 47.5934 9.37574 47.6115 9.36536C47.6296 9.35497 47.6508 9.35148 47.6713 9.35551C47.6917 9.35955 47.7101 9.37085 47.7229 9.38736C48.3845 10.2449 49.6367 12.2342 49.1243 14.4775C49.1197 14.4972 49.1221 14.5178 49.131 14.5359C49.1398 14.554 49.1547 14.5685 49.173 14.5768C49.191 14.5855 49.2115 14.5875 49.2308 14.5826C49.2502 14.5776 49.2672 14.566 49.279 14.5498C51.4425 11.6221 54.1768 8.17009 55.9588 4.15765C55.968 4.13779 55.9841 4.12209 56.0042 4.11363C56.0242 4.10516 56.0466 4.10456 56.0671 4.11192C56.0875 4.11928 56.1045 4.13409 56.1147 4.15342C56.1249 4.17276 56.1275 4.19523 56.122 4.21641L56.123 4.21618Z" fill="#53381D"/>
<path fill-rule="evenodd" clip-rule="evenodd" d="M12.6195 4.97906C14.2353 4.95844 35.2491 5.98282 40.9958 18.3524C47.0005 31.2773 41.1134 34.6334 34.8192 33.2744C34.8015 33.2703 34.7831 33.2718 34.7662 33.2786C34.7494 33.2855 34.7351 33.2973 34.7252 33.3126C34.168 34.1796 26.5676 45.6708 17.8933 40.9155C8.88135 35.9741 9.85069 16.9505 9.85069 16.9505C9.85069 16.9505 9.63693 12.7994 12.5316 5.0364C12.5385 5.01884 12.5507 5.00388 12.5665 4.99361C12.5822 4.98334 12.6008 4.97825 12.6195 4.97906Z" fill="#669933"/>
<path fill-rule="evenodd" clip-rule="evenodd" d="M13.9392 6.4603C16.5575 8.46569 24.5702 15.333 30.2784 28.0948C30.2851 28.1108 30.2966 28.1245 30.3113 28.1337C30.326 28.1429 30.3431 28.1474 30.3604 28.1464C30.3777 28.146 30.3944 28.1404 30.4084 28.1302C30.4225 28.1201 30.4331 28.1059 30.439 28.0895C31.0643 26.3834 32.159 24.3247 34.3497 22.8629C34.3669 22.8513 34.3877 22.8462 34.4082 22.8487C34.4288 22.8512 34.4477 22.861 34.4617 22.8764C34.4757 22.8918 34.4838 22.9116 34.4848 22.9324C34.4857 22.9532 34.4792 22.9737 34.4666 22.9902C33.661 24.02 31.8152 26.8863 32.0273 31.3034C32.0278 31.3194 32.0328 31.3348 32.0416 31.348C33.4966 33.5685 35.2655 36.4618 37.1981 39.2992C37.2068 39.3116 37.212 39.3262 37.2133 39.3413C37.2145 39.3565 37.2117 39.3717 37.2051 39.3854C37.199 39.3994 37.1892 39.4115 37.1767 39.4203C37.1643 39.4291 37.1497 39.4344 37.1346 39.4354L32.1677 39.8878C32.1677 39.8878 32.0045 38.8549 31.4363 36.9853C31.4315 36.9699 31.4227 36.9562 31.4107 36.9456C31.3988 36.9349 31.3842 36.9278 31.3685 36.9249C31.3528 36.922 31.3366 36.9235 31.3217 36.9292C31.3068 36.9349 31.2937 36.9446 31.2839 36.9573C27.3466 42.1335 21.5912 46.2511 15.0837 41.033C4.68052 32.692 6.5148 12.9471 9.92091 1.14268C9.92639 1.12354 9.93819 1.10686 9.95435 1.0954C9.97052 1.08394 9.99008 1.07838 10.0098 1.07964C22.3637 1.9218 40.0379 8.10243 44.1286 19.2175C49.114 32.7612 36.8354 36.2405 33.4375 31.2916C33.427 31.2762 33.4217 31.2578 33.4222 31.2391C33.4228 31.2205 33.4294 31.2025 33.4408 31.1878C33.4522 31.1727 33.4682 31.1618 33.4863 31.1568C33.5044 31.1518 33.5236 31.1529 33.541 31.1601C39.7258 33.5749 45.4617 30.3331 41.3151 19.6912C37.3831 9.59812 19.0925 0.758327 11.6101 3.17935C11.5965 3.18381 11.5841 3.19156 11.5742 3.20193C11.5642 3.2123 11.5569 3.22496 11.553 3.23883C8.55485 13.658 8.87702 31.4719 17.143 38.6148C22.0989 42.8981 29.4085 39.2598 30.3021 34.3135C30.3051 34.295 30.3139 34.278 30.3272 34.2649C30.3406 34.2518 30.3578 34.2434 30.3762 34.2409C30.3947 34.2384 30.4134 34.2419 30.4297 34.251C30.446 34.2601 30.459 34.2742 30.4667 34.2913C30.5253 34.4154 30.6005 34.5661 30.6838 34.7296C29.9061 32.5828 28.7467 29.8355 27.0371 26.6235C27.0371 26.6235 27.0371 26.6218 27.0371 26.6209C25.7086 23.906 20.4897 21.8764 16.3733 21.8655C16.3524 21.8657 16.3322 21.8581 16.3164 21.8442C16.3007 21.8303 16.2906 21.8111 16.288 21.7902C16.285 21.7695 16.2894 21.7484 16.3006 21.7307C16.3117 21.7131 16.3288 21.7 16.3486 21.694C17.762 21.2675 21.6436 20.4194 24.6577 22.7459C24.6737 22.7583 24.6934 22.7647 24.7136 22.764C24.7338 22.7633 24.7531 22.7556 24.7682 22.7421C24.7833 22.7287 24.7933 22.7103 24.7964 22.6902C24.7996 22.6702 24.7957 22.6496 24.7854 22.6321C21.8985 17.7187 18.6006 11.5741 13.8268 6.58992C13.812 6.57387 13.8037 6.55285 13.8035 6.53097C13.8033 6.50909 13.8112 6.48792 13.8257 6.4716C13.8401 6.45528 13.8601 6.44498 13.8817 6.44272C13.9033 6.44045 13.925 6.44638 13.9425 6.45935L13.9392 6.4603Z" fill="#53381D"/>
<path fill-rule="evenodd" clip-rule="evenodd" d="M60.8698 24.9825C60.8698 24.9825 69.2887 33.3782 65.0285 38.5532C62.2171 41.61 57.67 39.392 57.67 39.392C57.67 39.392 54.3441 48.8027 39.3545 48.1344C39.1428 44.5483 38.1262 40.3766 35.4785 36.0672C36.604 32.7005 38.8334 28.7092 42.9417 24.2223C42.9417 24.2223 41.843 23.1581 44.1083 20.3445C46.3736 17.5308 55.4583 17.5062 60.8698 24.9825Z" fill="#BA7852"/>
<path fill-rule="evenodd" clip-rule="evenodd" d="M61.0189 41.0395C62.2418 41.3833 64.9953 41.8392 66.5923 39.614C68.6881 36.6922 66.68 31.1763 66.68 31.1763C66.68 31.1763 64.5727 24.7355 54.4823 19.8145C54.4809 19.8139 54.4794 19.8134 54.4778 19.8131C54.3438 19.7567 48.0179 17.1376 43.6871 21.1875C43.6719 21.202 43.6521 21.2104 43.6312 21.2113C43.6103 21.2122 43.5898 21.2054 43.5734 21.1922C43.5571 21.179 43.5461 21.1604 43.5424 21.1396C43.5387 21.1189 43.5426 21.0975 43.5533 21.0794C44.3957 19.6439 47.469 15.7395 55.1551 17.7482C55.1551 17.7482 59.3105 18.7804 63.9519 23.4367C63.9638 23.4492 63.9791 23.4577 63.996 23.4611C64.0128 23.4645 64.0302 23.4627 64.046 23.4559C64.9027 23.1142 66.1813 22.2948 67.5673 20.3344C67.5699 20.3313 67.572 20.3282 67.5741 20.3256C67.6501 20.2434 68.8217 19.0034 69.1279 20.7285C69.129 20.7367 69.1314 20.7447 69.1351 20.7522C69.2033 20.8927 69.8849 22.4391 67.6614 23.7767C66.6993 24.3558 65.9141 24.6061 65.3236 24.7009C65.3082 24.7033 65.2938 24.7099 65.2818 24.7199C65.2698 24.7299 65.2607 24.743 65.2554 24.7578C65.2502 24.7726 65.249 24.7885 65.252 24.8039C65.2549 24.8194 65.262 24.8337 65.2723 24.8454C66.071 25.7513 66.8232 26.6978 67.5259 27.6811C67.5259 27.6811 71.8614 33.5087 68.3071 40.6578C68.306 40.6604 68.3046 40.6625 68.3034 40.6646C68.2239 40.7942 65.9684 44.3598 60.9503 41.1999C60.9322 41.1888 60.9187 41.1714 60.9124 41.151C60.9061 41.1306 60.9074 41.1086 60.916 41.089C60.9247 41.0695 60.9401 41.0539 60.9594 41.045C60.9787 41.0361 61.0005 41.0345 61.0208 41.0407L61.0189 41.0395Z" fill="#53381D"/>
<path fill-rule="evenodd" clip-rule="evenodd" d="M36.3746 37.3266C37.4394 34.1089 39.3188 30.5891 42.5215 27.1136C42.5324 27.1017 42.5464 27.093 42.5619 27.0886C42.5774 27.0841 42.5938 27.0841 42.6094 27.0885C42.6249 27.093 42.6389 27.1016 42.6498 27.1136C42.6607 27.1256 42.668 27.1403 42.6711 27.1563C42.9164 28.4596 44.9385 36.7503 56.8258 38.182C56.8469 38.1847 56.8681 38.1796 56.8857 38.1676C56.9032 38.1556 56.9158 38.1376 56.9211 38.1169C56.9264 38.0963 56.924 38.0743 56.9144 38.0553C56.9048 38.0363 56.8886 38.0214 56.8689 38.0136C54.3496 37.0136 45.4331 32.8218 44.4123 23.2607C44.4123 23.2583 44.4123 23.2562 44.4123 23.2533C44.4005 23.1905 44.2154 22.3178 43.4662 22.9896C42.986 23.4199 37.7952 27.8556 34.9255 35.1279C34.92 35.1411 34.9179 35.1554 34.9194 35.1696C34.921 35.1839 34.926 35.1975 34.9342 35.2091C35.4066 35.9238 35.8343 36.6341 36.2173 37.3401C36.2252 37.3551 36.2374 37.3674 36.2523 37.3755C36.2671 37.3836 36.284 37.3871 36.3008 37.3856C36.3177 37.3841 36.3337 37.3777 36.3469 37.3671C36.3601 37.3566 36.37 37.3423 36.3753 37.3261L36.3746 37.3266Z" fill="#53381D"/>
<path fill-rule="evenodd" clip-rule="evenodd" d="M62.574 41.8815C60.359 44.2167 50.2044 51.404 39.4574 50.6554C39.435 50.6551 39.4135 50.6637 39.3974 50.6793C39.3813 50.6949 39.372 50.7163 39.3715 50.7388C39.3428 51.3833 39.2906 51.9999 39.2224 52.5871C39.2209 52.5987 39.2217 52.6105 39.225 52.6217C39.2282 52.6329 39.2338 52.6433 39.2412 52.6523C39.248 52.6619 39.2569 52.6699 39.2673 52.6754C39.2777 52.6809 39.2892 52.6839 39.301 52.684C45.1131 52.5857 55.1179 50.3248 62.6887 42.0109C62.7036 41.9948 62.7119 41.9736 62.7119 41.9516C62.7119 41.9296 62.7036 41.9085 62.6887 41.8924C62.6603 41.8602 62.6048 41.8495 62.574 41.8815Z" fill="#53381D"/>
<path fill-rule="evenodd" clip-rule="evenodd" d="M57.319 42.0129C56.4552 42.0603 53.3917 42.1035 51.0194 40.5632C51.0019 40.5518 50.9809 40.547 50.9603 40.5499C50.9396 40.5528 50.9207 40.5631 50.907 40.5789C50.8934 40.5947 50.8857 40.6149 50.8855 40.6358C50.8852 40.6568 50.8923 40.6772 50.9056 40.6933C51.5426 41.4594 52.8974 42.8989 54.2581 43.1361C54.2738 43.1387 54.2885 43.1457 54.3006 43.1561C54.3127 43.1666 54.3216 43.1803 54.3265 43.1956C54.3313 43.2109 54.3319 43.2272 54.3281 43.2428C54.3244 43.2584 54.3164 43.2727 54.3051 43.284C53.7727 43.8191 51.3919 45.9128 46.1357 46.6467C46.114 46.6496 46.0942 46.6607 46.0802 46.6778C46.0663 46.6948 46.0593 46.7166 46.0607 46.7386C46.0618 46.7604 46.071 46.781 46.0866 46.7962C46.1021 46.8115 46.1228 46.8202 46.1444 46.8206C48.0669 46.8825 52.8723 46.5322 57.3853 42.1629C57.3981 42.1506 57.4068 42.1346 57.4103 42.1171C57.4137 42.0995 57.4118 42.0814 57.4047 42.065C57.3976 42.0487 57.3857 42.0349 57.3706 42.0256C57.3554 42.0163 57.3378 42.0119 57.3202 42.0129H57.319Z" fill="#53381D"/>
<path fill-rule="evenodd" clip-rule="evenodd" d="M47.2682 22.0977C45.9513 22.2801 46.626 24.7976 47.9253 24.8559C49.2246 24.9142 47.8797 22.7784 47.2682 22.0977Z" fill="#53381D"/>
<path fill-rule="evenodd" clip-rule="evenodd" d="M8.65369 28.0864C8.48132 27.8539 -1.10231 38.6074 4.44238 45.3167C7.55125 48.5766 12.5471 45.2395 12.5471 45.2395C12.5471 45.2395 16.8139 57.7168 36.6128 52.1433C36.6128 52.1433 43.1807 40.1057 28.6965 24.8388C28.6965 24.8388 29.9007 23.3979 27.3951 20.3508C24.8894 17.3037 14.9888 18.7172 8.65369 28.0864Z" fill="#BA7852"/>
<path fill-rule="evenodd" clip-rule="evenodd" d="M9.8024 47.7764C8.36202 48.5839 5.12616 50.0012 3.40947 47.6318C1.15777 44.5248 3.97057 36.9373 3.97057 36.9373C3.97057 36.9373 6.0045 29.1506 16.767 21.9662C16.7683 21.9656 16.7694 21.9649 16.7705 21.9641C16.9015 21.8868 23.7187 17.8787 28.3686 22.0788C28.3841 22.0927 28.404 22.1007 28.4248 22.1013C28.4456 22.1018 28.4659 22.095 28.4822 22.0818C28.498 22.0688 28.5087 22.0505 28.5125 22.0303C28.5163 22.0101 28.5129 21.9891 28.5029 21.9712C27.6784 20.499 24.4136 16.1382 16.0392 19.6523C16.0392 19.6523 11.6002 21.4532 6.65614 27.5549C6.6454 27.5684 6.63092 27.5783 6.61454 27.5835C6.59816 27.5886 6.58063 27.5888 6.56419 27.5838C5.64705 27.3075 4.27746 26.535 2.78723 24.446C2.78497 24.4425 2.78228 24.4393 2.77923 24.4365C2.69598 24.3493 1.4388 23.0731 1.12062 25.1329C1.11921 25.1401 1.11732 25.1471 1.11497 25.154C1.05172 25.3043 0.303425 27.2232 2.70116 28.4738C3.73423 29.0125 4.57541 29.1923 5.20777 29.2172C5.22352 29.2178 5.23881 29.2227 5.252 29.2314C5.26518 29.2401 5.27576 29.2523 5.28258 29.2666C5.28941 29.2809 5.29223 29.2968 5.29073 29.3126C5.28923 29.3284 5.28347 29.3435 5.27408 29.3563C4.4757 30.4536 3.66744 31.6662 2.86318 33.0067C2.86271 33.008 2.86199 33.0092 2.86107 33.0102C2.77993 33.1337 -2.40919 41.0749 1.39035 48.8443C1.39053 48.8454 1.39102 48.8464 1.39176 48.8472C1.42422 48.9211 3.57879 53.6487 9.90469 47.9195C9.92056 47.905 9.93064 47.8852 9.93302 47.8638C9.9354 47.8424 9.92993 47.8208 9.91763 47.8031C9.90541 47.7847 9.88669 47.7717 9.86528 47.7667C9.84387 47.7618 9.82138 47.7652 9.8024 47.7764Z" fill="#53381D"/>
<path fill-rule="evenodd" clip-rule="evenodd" d="M8.55932 48.9559C8.711 49.2123 8.79213 49.3689 9.46517 49.9312C12.1674 52.0297 22.4794 57.9677 35.7619 55.3339C36.4723 55.1936 36.9958 54.6536 37.128 53.9359C37.7989 50.2805 38.9926 38.6131 29.571 28.7636C29.5597 28.7519 29.5454 28.7437 29.5297 28.7397C29.514 28.7358 29.4975 28.7363 29.4821 28.7412C29.4667 28.7461 29.4529 28.7552 29.4423 28.7675C29.4317 28.7799 29.4247 28.7949 29.4221 28.811C29.187 30.2619 27.1137 40.3649 14.2738 43.7428C14.2534 43.748 14.2319 43.7456 14.2132 43.736C14.1944 43.7265 14.1797 43.7104 14.1718 43.6908C14.1639 43.6712 14.1633 43.6494 14.1701 43.6294C14.1769 43.6093 14.1907 43.5925 14.2089 43.5819C16.7797 42.1364 26.4776 35.9596 27.538 24.544C27.5376 24.5418 27.5376 24.5396 27.538 24.5374C27.5483 24.4737 27.7395 23.4125 28.5492 24.0929C29.3723 24.7848 43.0604 35.6565 39.0429 55.2728C38.9253 55.8434 38.7934 56.1654 38.2652 56.4028C34.8553 57.9338 20.4809 60.8932 9.53195 50.5568C9.45952 50.489 8.45467 49.2452 8.41892 49.081C8.40952 49.0355 8.38788 48.9988 8.41704 48.9644C8.4462 48.9301 8.5358 48.917 8.55932 48.9559Z" fill="#53381D"/>
<path fill-rule="evenodd" clip-rule="evenodd" d="M13.7806 48.2688C14.6338 48.2105 17.9936 47.847 20.5714 45.6591C20.5874 45.6453 20.6078 45.6379 20.6289 45.6383C20.6499 45.6387 20.67 45.6469 20.6855 45.6612C20.7013 45.6755 20.7113 45.6951 20.7138 45.7163C20.7162 45.7375 20.711 45.7589 20.6989 45.7764C20.0047 46.7901 18.4561 48.8157 16.929 49.1886C16.929 49.1886 19.3702 51.9907 25.9381 52.0727C25.9598 52.0727 25.9807 52.081 25.9965 52.0959C26.0124 52.1108 26.0221 52.1312 26.0237 52.153C26.0259 52.1748 26.0198 52.1967 26.0067 52.2142C25.9937 52.2318 25.9746 52.2437 25.9532 52.2478C24.0154 52.6051 18.7101 53.0274 13.7279 48.4232C13.7149 48.4117 13.7056 48.3965 13.7012 48.3796C13.6967 48.3627 13.6974 48.3448 13.703 48.3283C13.7086 48.3117 13.719 48.2972 13.7328 48.2866C13.7467 48.276 13.7633 48.2698 13.7806 48.2688Z" fill="#53381D"/>
<path fill-rule="evenodd" clip-rule="evenodd" d="M22.3252 22.6512C24.0711 22.009 26.0356 25.9333 24.5736 26.8973C23.1116 27.8612 22.3539 24.004 22.3252 22.6512Z" fill="#53381D"/>
<path fill-rule="evenodd" clip-rule="evenodd" d="M33.9642 43.2499C35.465 43.0859 36.2552 46.5647 34.9161 47.0377C33.5771 47.5107 33.7255 44.3219 33.9642 43.2499Z" fill="#53381D"/>
<path fill-rule="evenodd" clip-rule="evenodd" d="M57.1387 2.84353C57.3638 3.639 59.6037 11.9255 57.4254 18.6488C57.673 18.7702 57.9361 18.9069 58.2148 19.0587C60.4139 12.9556 60.1646 4.58045 57.6269 1.57224C57.6178 1.56104 57.6059 1.55241 57.5925 1.54718C57.5791 1.54195 57.5645 1.54029 57.5503 1.54238C55.4543 1.78787 53.0422 2.37719 50.6259 3.26461C51.9148 2.99684 54.0374 2.71036 57.0562 2.77931C57.0749 2.77934 57.0931 2.78558 57.1079 2.79706C57.1227 2.80854 57.1334 2.82462 57.1383 2.84282L57.1387 2.84353ZM12.619 4.97901C13.831 4.96314 25.9584 5.53587 34.3688 11.0452C27.1777 5.23493 16.7976 1.50162 11.6108 3.17954C11.5972 3.18409 11.585 3.1919 11.575 3.20231C11.5651 3.21271 11.5579 3.22539 11.5539 3.23925C10.3993 7.25099 9.73704 12.3598 9.8311 17.5336C9.84004 17.1578 9.85015 16.9505 9.85015 16.9505C9.85015 16.9505 9.63662 12.7994 12.531 5.03636C12.538 5.01887 12.5502 5.00399 12.5659 4.99372C12.5816 4.98346 12.6 4.97833 12.6187 4.97901H12.619Z" fill="white"/>
<path fill-rule="evenodd" clip-rule="evenodd" d="M60.8698 24.9827C60.8698 24.9827 69.2886 33.3784 65.0286 38.5533C62.2173 41.6101 57.6699 39.3922 57.6699 39.3922C57.6699 39.3922 57.2626 40.5455 56.0894 42.0158C56.6366 42.0409 57.0695 42.0274 57.319 42.0139C57.3368 42.0126 57.3545 42.017 57.3696 42.0264C57.3847 42.0359 57.3965 42.0499 57.4032 42.0665C57.4106 42.0829 57.4126 42.1011 57.4091 42.1187C57.4056 42.1363 57.3967 42.1524 57.3837 42.1646C55.12 44.3563 52.7825 45.5368 50.7725 46.1612C48.1361 47.4213 44.567 48.3052 39.7812 48.1516C39.7826 48.9715 39.7537 49.8115 39.6897 50.6715C50.1834 51.2928 60.0629 44.4209 62.4665 41.9947C61.9402 41.7729 61.4332 41.5069 60.9509 41.1997C60.9333 41.1885 60.9202 41.1714 60.914 41.1514C60.9079 41.1313 60.909 41.1097 60.9173 41.0905C60.9254 41.0709 60.9403 41.0551 60.9592 41.0458C60.9782 41.0366 60.9998 41.0347 61.02 41.0405C62.2429 41.3845 64.9964 41.8405 66.5934 39.6149C68.689 36.6934 66.6809 31.1775 66.6809 31.1775C66.6809 31.1775 65.1853 26.6072 58.683 22.2268C58.6512 22.2951 58.619 22.3628 58.5856 22.4301C59.4339 23.1982 60.1995 24.0542 60.8698 24.9838V24.9827ZM17.626 51.0885L17.6213 51.0861C17.6227 51.0872 17.6243 51.088 17.626 51.0885ZM9.46577 49.9314C8.83859 49.4082 8.72548 49.2357 8.59049 49.0073C9.00673 48.6955 9.44461 48.3343 9.90388 47.9173C9.91281 47.9097 9.92002 47.9002 9.92501 47.8895C9.93 47.8789 9.93266 47.8672 9.93281 47.8554C9.93374 47.836 9.92819 47.8168 9.91705 47.8009C9.90739 47.7875 9.8942 47.777 9.87896 47.7706C9.86024 47.7622 9.83906 47.7613 9.81969 47.768C9.81412 47.77 9.8087 47.7723 9.80347 47.7751C8.36309 48.5829 5.12771 50.0002 3.41054 47.6308C2.34031 46.1541 2.41439 43.6648 2.78618 41.4594C2.95644 42.8158 3.46392 44.129 4.44432 45.3157C7.55319 48.5756 12.549 45.2382 12.549 45.2382C12.549 45.2382 13.013 46.5948 14.344 48.2123C14.1046 48.2412 13.9132 48.2573 13.7813 48.2666C13.7643 48.2677 13.7479 48.2739 13.7344 48.2843C13.7209 48.2948 13.7108 48.3091 13.7053 48.3253C13.7018 48.3347 13.7 48.3447 13.7001 48.3547C13.7001 48.3669 13.7026 48.379 13.7075 48.3901C13.7124 48.4013 13.7196 48.4112 13.7286 48.4194C15.0258 49.6194 16.3446 50.4786 17.6213 51.0857C17.6202 51.0851 17.6194 51.0843 17.6187 51.0833L17.626 51.088C21.2209 53.3437 27.1386 54.8107 36.6138 52.1432C36.6138 52.1432 37.1399 51.179 37.566 49.4504C37.526 51.3959 37.3073 52.9541 37.1281 53.9351C36.9962 54.6531 36.4727 55.1931 35.7623 55.3332C22.4797 57.9675 12.1678 52.0292 9.46554 49.931L9.46577 49.9314Z" fill="white"/>
<path fill-rule="evenodd" clip-rule="evenodd" d="M12.5481 45.2392C12.5481 45.2392 7.55228 48.5768 4.44459 45.3167C3.46419 44.13 2.95671 42.8168 2.78645 41.4604C2.41466 43.6658 2.33964 46.1551 3.41081 47.6318C5.12751 50.0014 8.36336 48.5839 9.80374 47.7761C9.82248 47.7653 9.84455 47.7619 9.86564 47.7666C9.88674 47.7712 9.90536 47.7836 9.91789 47.8014C9.93041 47.8191 9.93594 47.8409 9.9334 47.8625C9.93087 47.8841 9.92044 47.904 9.90416 47.9183C9.44488 48.3344 9.00701 48.6955 8.59077 49.0083C8.72575 49.2363 8.83886 49.4088 9.46605 49.9325C12.1683 52.0308 22.4803 57.969 35.7628 55.3352C36.4732 55.1949 36.9967 54.6548 37.1288 53.9371C37.309 52.9558 37.5267 51.3974 37.5665 49.4524C37.1406 51.1803 36.6143 52.1447 36.6143 52.1447C27.1332 54.8141 21.2141 53.3428 17.6192 51.0853C16.3439 50.4763 15.0244 49.6194 13.7277 48.4204C13.7155 48.4087 13.7069 48.3937 13.703 48.3772C13.699 48.3607 13.6999 48.3434 13.7055 48.3274C13.7111 48.3114 13.7211 48.2973 13.7345 48.2869C13.7478 48.2765 13.7638 48.2702 13.7806 48.2688C13.9125 48.2595 14.1039 48.2434 14.3433 48.2145C13.0123 46.597 12.5483 45.2404 12.5483 45.2404L12.5481 45.2392Z" fill="white"/>
<path fill-rule="evenodd" clip-rule="evenodd" d="M101.96 8.62057V34.3049H96.7321L86.5921 19.4852H86.4289V34.3049H80.2676V8.62057H85.5712L95.6 23.4228H95.81V8.62057H101.96ZM121.235 8.62057H127.385V25.1888C127.385 27.0782 126.935 28.7398 126.035 30.1737C125.13 31.61 123.867 32.7106 122.245 33.4756C120.615 34.2466 118.736 34.6313 116.609 34.6295C114.997 34.6295 113.523 34.4059 112.188 33.9587C110.851 33.5113 109.718 32.8813 108.778 32.0692C107.843 31.2514 107.115 30.2568 106.593 29.0854C106.079 27.9084 105.817 26.6077 105.817 25.1891V8.62104H111.979V24.6469C111.979 25.9949 112.405 27.0974 113.258 27.9544C114.117 28.8074 115.234 29.2352 116.611 29.2378C117.977 29.2378 119.093 28.8079 119.951 27.9544C120.81 27.0952 121.238 25.9927 121.236 24.6469V8.62057H121.235ZM130.41 13.6643V8.6201H151.951V13.6643H144.225V34.3035H138.149V13.6643H130.41ZM168.749 16.3251C168.668 15.3953 168.294 14.6768 167.634 14.165C166.975 13.6531 166.051 13.3996 164.866 13.3996C163.703 13.3996 162.815 13.6233 162.202 14.0647C161.589 14.5062 161.279 15.0948 161.267 15.8182C161.244 16.5481 161.554 17.1305 162.191 17.5717C162.827 18.0073 163.766 18.3604 165.006 18.6312L167.196 19.1314C172.371 20.2734 174.972 22.8473 174.999 26.853C174.982 29.2959 174.08 31.2027 172.295 32.5734C170.513 33.9454 168.037 34.6303 164.865 34.6279C163.248 34.6279 161.799 34.4454 160.508 34.0862C159.224 33.7214 158.114 33.178 157.179 32.4559C156.251 31.732 155.526 30.8022 155.024 29.6721C154.515 28.5361 154.254 27.2296 154.241 25.7526H160.134C160.205 26.9651 160.648 27.8947 161.478 28.5364C162.301 29.1777 163.405 29.4994 164.79 29.5015C166.01 29.5015 166.972 29.2562 167.675 28.7655C168.376 28.2769 168.733 27.6354 168.75 26.8414C168.744 26.1407 168.417 25.5699 167.781 25.1353C167.138 24.7059 166.104 24.317 164.667 23.982L162.004 23.3574C159.715 22.828 157.957 21.9846 156.729 20.8271C155.497 19.6617 154.89 18.1374 154.895 16.2478C154.889 14.6823 155.312 13.2914 156.163 12.0752C157.009 10.8629 158.195 9.92077 159.714 9.26178C161.232 8.6028 162.955 8.27295 164.877 8.27295C167.826 8.27295 170.18 9.00871 171.956 10.4854C173.725 11.957 174.623 13.9033 174.648 16.3244H168.749V16.3251Z" fill="white"/>
<path fill-rule="evenodd" clip-rule="evenodd" d="M83.3649 38.1844L85.9268 46.6378H86.0209L88.5825 38.1844H91.6803L87.8163 49.7268H84.1308L80.2676 38.1844H83.3649ZM95.3152 49.727H92.3402L96.2039 38.1847H99.8889L103.754 49.7268H100.778L100.023 47.3039H96.0694L95.3143 49.7268L95.3152 49.727ZM96.7297 45.1854H99.3652L98.0897 41.0934H98.0001L96.7302 45.1854H96.7297ZM106.328 49.727V38.1847H109.097V47.4605H113.861V49.727H106.328ZM116.315 49.727V38.1847H119.084V47.4605H123.849V49.727H116.315ZM126.302 49.727V38.1847H134.29V40.4512H129.071V42.8187H133.878V45.0883H129.07V47.4607H134.289V49.7272H126.301L126.302 49.727ZM136.475 38.1844H139.567L141.989 43.0144H142.089L144.511 38.1844H147.603L143.414 45.8733V49.727H140.663V45.8733L136.475 38.1844Z" fill="white"/>
<path d="M80.7 54.943V56.2349H80.2676V52.9345H81.4754C81.8341 52.9345 82.1149 53.0265 82.3177 53.2106C82.5206 53.3946 82.6225 53.6388 82.6234 53.9433C82.6234 54.2636 82.5242 54.5105 82.3257 54.6838C82.1273 54.8571 81.8426 54.9435 81.4719 54.943H80.7ZM80.7 54.5875H81.4761C81.7072 54.5875 81.8843 54.5329 82.0076 54.4236C82.1308 54.3143 82.1922 54.1558 82.1919 53.9482C82.1919 53.7519 82.1305 53.5946 82.0076 53.4764C81.8846 53.3583 81.7157 53.2969 81.5008 53.2923H80.7012V54.5868L80.7 54.5875ZM84.2851 54.1589C84.2176 54.1477 84.1492 54.1423 84.0808 54.1428C83.8075 54.1428 83.6222 54.2598 83.5248 54.4939V56.2354H83.1086V53.7828H83.5133L83.5201 54.0672C83.657 53.8482 83.8505 53.7387 84.1007 53.7385C84.1637 53.7354 84.2267 53.7461 84.2851 53.77V54.1601V54.1589ZM84.5574 54.9868C84.5542 54.7626 84.6025 54.5406 84.6985 54.3383C84.7841 54.1552 84.9201 54.0008 85.0903 53.8935C85.2625 53.7878 85.4609 53.7336 85.6625 53.7373C85.9941 53.7373 86.2622 53.8528 86.467 54.0838C86.6717 54.3147 86.7736 54.6228 86.7727 55.0079V55.0371C86.7764 55.259 86.73 55.4789 86.637 55.6802C86.5523 55.8627 86.4171 56.0167 86.2476 56.1235C86.0727 56.2311 85.871 56.2861 85.6662 56.2821C85.3361 56.2821 85.0689 56.1665 84.8648 55.9354C84.6607 55.7043 84.5582 55.3982 84.5574 55.0172V54.9878V54.9868ZM84.976 55.0361C84.976 55.3086 85.0387 55.5271 85.1642 55.6915C85.2218 55.7708 85.2978 55.8347 85.3854 55.8778C85.473 55.921 85.5697 55.942 85.6672 55.9392C85.8784 55.9392 86.0463 55.8556 86.1709 55.6885C86.2955 55.5213 86.3578 55.2875 86.3576 54.9868C86.3576 54.7183 86.2944 54.5 86.1678 54.3321C86.1091 54.2544 86.0335 54.1914 85.9467 54.1479C85.86 54.1045 85.7645 54.0817 85.6676 54.0814C85.5707 54.0811 85.475 54.1033 85.388 54.1462C85.301 54.1892 85.225 54.2517 85.1658 54.329C85.04 54.4949 84.9777 54.729 84.9777 55.0361H84.976ZM88.2716 55.9392C88.4132 55.9413 88.551 55.8931 88.6608 55.8032C88.7134 55.7624 88.7569 55.711 88.7886 55.6524C88.8204 55.5937 88.8396 55.529 88.8452 55.4624H89.2391C89.2301 55.6078 89.18 55.7476 89.0947 55.8652C89.0039 55.9944 88.8827 56.0989 88.7419 56.1693C88.5963 56.2441 88.4351 56.2829 88.2716 56.2823C87.9399 56.2823 87.6763 56.1709 87.4808 55.9482C87.2853 55.7254 87.1874 55.4203 87.1873 55.0328V54.9617C87.1873 54.7233 87.2303 54.5115 87.318 54.325C87.3981 54.1469 87.5281 53.9963 87.6919 53.8916C87.8547 53.7888 88.0471 53.7375 88.2693 53.7378C88.5418 53.7378 88.7692 53.8198 88.9496 53.9845C89.13 54.1492 89.2266 54.3636 89.2391 54.6259H88.8449C88.8375 54.4773 88.7734 54.3373 88.666 54.2352C88.559 54.1332 88.4163 54.078 88.269 54.0819C88.0574 54.0819 87.8928 54.1584 87.7778 54.3124C87.6628 54.4665 87.6033 54.6878 87.6033 54.9781V55.0577C87.6033 55.3399 87.6609 55.5584 87.7761 55.7105C87.8914 55.8626 88.0583 55.9396 88.2714 55.9396L88.2716 55.9392ZM90.7173 56.2811C90.3872 56.2811 90.1187 56.172 89.9119 55.9539C89.7051 55.7357 89.6017 55.4435 89.6017 55.0771V54.9984C89.5978 54.7735 89.6451 54.5507 89.74 54.347C89.8249 54.1641 89.9589 54.0087 90.1268 53.8985C90.2864 53.7919 90.4737 53.7353 90.6651 53.7359C90.9815 53.7359 91.2275 53.8408 91.4031 54.0506C91.5787 54.2613 91.6664 54.5612 91.6664 54.9527V55.1278H90.0179C90.0233 55.3698 90.0939 55.5657 90.2282 55.7141C90.3625 55.8624 90.5339 55.9377 90.7397 55.9377C90.8864 55.9377 91.0115 55.9077 91.1129 55.8472C91.2164 55.7848 91.3073 55.7032 91.3807 55.6067L91.6349 55.8062C91.4311 56.1222 91.1254 56.2802 90.7178 56.2802L90.7173 56.2811ZM90.6651 54.0814C90.5857 54.08 90.5069 54.0957 90.4341 54.1277C90.3612 54.1596 90.2961 54.2069 90.243 54.2665C90.1285 54.3894 90.058 54.5622 90.0313 54.7849H91.2504V54.7532C91.2382 54.5399 91.1815 54.374 91.0792 54.2572C90.9769 54.1404 90.8398 54.0814 90.6653 54.0814H90.6651ZM93.5654 55.5856C93.5677 55.5343 93.5573 55.4832 93.535 55.437C93.5128 55.3907 93.4794 55.3508 93.4379 55.3209C93.3533 55.2578 93.2056 55.2036 92.9949 55.1586C92.7844 55.1136 92.6172 55.0586 92.4935 54.9951C92.3698 54.9316 92.2786 54.8567 92.2193 54.7686C92.1582 54.6761 92.127 54.5668 92.1302 54.4558C92.1302 54.2549 92.2144 54.085 92.383 53.9461C92.5515 53.8072 92.7672 53.7377 93.0302 53.7373C93.3058 53.7373 93.5295 53.809 93.7013 53.9523C93.7837 54.0177 93.8499 54.1016 93.8948 54.1971C93.9397 54.2927 93.962 54.3975 93.96 54.5032H93.5414C93.5414 54.3885 93.493 54.2895 93.3963 54.206C93.2994 54.1233 93.1774 54.0814 93.0309 54.0814C92.8787 54.0814 92.7607 54.1148 92.6755 54.1814C92.6349 54.2113 92.602 54.2505 92.5797 54.2959C92.5573 54.3413 92.5462 54.3914 92.5471 54.4421C92.545 54.4876 92.5549 54.5328 92.5758 54.5732C92.5967 54.6136 92.6279 54.6476 92.6661 54.6719C92.7461 54.7229 92.8895 54.7724 93.0969 54.8188C93.3044 54.8653 93.4732 54.9217 93.6023 54.9868C93.7314 55.052 93.8264 55.129 93.8885 55.2212C93.9531 55.3203 93.9859 55.437 93.9826 55.5555C93.9853 55.6583 93.963 55.7601 93.9175 55.8521C93.8719 55.9441 93.8047 56.0234 93.7215 56.083C93.548 56.2152 93.3222 56.2813 93.0443 56.2811C92.8663 56.2846 92.6898 56.2489 92.5269 56.1766C92.385 56.1142 92.263 56.0136 92.1742 55.8859C92.0915 55.7673 92.047 55.626 92.0467 55.4811H92.4629C92.4643 55.546 92.4802 55.6097 92.5093 55.6676C92.5384 55.7254 92.58 55.776 92.6311 55.8155C92.7348 55.8982 92.8731 55.9392 93.0433 55.9392C93.2001 55.9392 93.3265 55.9069 93.4226 55.8425C93.5187 55.778 93.5664 55.6924 93.5656 55.5856H93.5654ZM95.9405 55.5856C95.9429 55.5343 95.9325 55.4832 95.9102 55.437C95.8879 55.3907 95.8546 55.3508 95.8131 55.3209C95.7284 55.2584 95.5812 55.2044 95.37 55.1586C95.1589 55.1129 94.9921 55.0586 94.8687 54.9951C94.7452 54.9316 94.6537 54.8567 94.5945 54.7686C94.5334 54.6761 94.5024 54.5668 94.5056 54.4558C94.5056 54.2549 94.5898 54.085 94.7581 53.9461C94.9265 53.8072 95.1422 53.7377 95.4053 53.7373C95.6809 53.7373 95.9046 53.809 96.0765 53.9523C96.1589 54.0177 96.2251 54.1016 96.27 54.1971C96.3148 54.2927 96.3371 54.3975 96.3351 54.5032H95.9166C95.9166 54.3885 95.8683 54.2895 95.7717 54.206C95.6748 54.1233 95.5528 54.0814 95.406 54.0814C95.2539 54.0814 95.1358 54.1148 95.0504 54.1814C95.0099 54.2113 94.9771 54.2506 94.9548 54.296C94.9325 54.3413 94.9213 54.3914 94.9223 54.4421C94.9201 54.4876 94.93 54.5328 94.9509 54.5732C94.9718 54.6136 95.003 54.6476 95.0413 54.6719C95.1212 54.7229 95.2649 54.7724 95.4721 54.8188C95.6793 54.8653 95.8484 54.9217 95.9775 54.9868C96.1066 55.052 96.2016 55.129 96.2639 55.2212C96.3284 55.3203 96.3612 55.437 96.358 55.5555C96.3607 55.6583 96.3383 55.7601 96.2928 55.8521C96.2472 55.9441 96.18 56.0234 96.0969 56.083C95.9231 56.2152 95.6972 56.2813 95.4194 56.2811C95.2415 56.2846 95.0649 56.2489 94.9021 56.1766C94.7602 56.1142 94.6382 56.0136 94.5493 55.8859C94.4668 55.7672 94.4224 55.626 94.4221 55.4811H94.8381C94.8396 55.546 94.8554 55.6097 94.8845 55.6675C94.9136 55.7254 94.9552 55.7759 95.0062 55.8155C95.1099 55.8982 95.2482 55.9392 95.4185 55.9392C95.576 55.9392 95.7028 55.9067 95.7978 55.8425C95.8928 55.7783 95.9408 55.6925 95.9408 55.5856H95.9405ZM97.3515 56.2354H96.9346V53.7828H97.3508V56.2354H97.3515ZM96.9014 53.1312C96.8998 53.068 96.9221 53.0066 96.9637 52.9594C97.0044 52.912 97.0658 52.8883 97.1465 52.8883C97.2271 52.8883 97.2892 52.912 97.3315 52.9594C97.3734 53.0066 97.3959 53.0679 97.3946 53.1312C97.3963 53.194 97.3737 53.255 97.3315 53.3013C97.2892 53.3471 97.2281 53.3696 97.1465 53.3696C97.0649 53.3696 97.0054 53.3459 96.9637 53.3013C96.9218 53.255 96.8994 53.1939 96.9014 53.1312ZM98.4112 53.7819L98.4248 54.0899C98.6109 53.8539 98.8539 53.7362 99.1538 53.7366C99.6684 53.7366 99.9279 54.0289 99.9324 54.6134V56.2342H99.5164V54.6112C99.5148 54.4338 99.4741 54.3032 99.3958 54.2188C99.3175 54.1345 99.1945 54.0918 99.028 54.0918C98.901 54.0894 98.7765 54.1276 98.6724 54.2011C98.5699 54.2736 98.4876 54.3715 98.4335 54.4854V56.233H98.0163V53.7805L98.4112 53.7819ZM100.461 54.988C100.461 54.6051 100.548 54.3007 100.724 54.075C100.9 53.8493 101.132 53.7364 101.421 53.7364C101.719 53.7364 101.951 53.8421 102.116 54.0534L102.137 53.7819H102.517V56.1752C102.517 56.4925 102.423 56.7428 102.237 56.9259C102.05 57.109 101.799 57.2003 101.484 57.1998C101.306 57.1991 101.131 57.1606 100.969 57.0868C100.802 57.0109 100.674 56.9072 100.584 56.7756L100.801 56.5242C100.979 56.7463 101.197 56.8575 101.455 56.8576C101.658 56.8576 101.815 56.8005 101.929 56.6851C102.042 56.5697 102.099 56.4088 102.099 56.2001V55.9896C101.932 56.183 101.704 56.2797 101.417 56.2797C101.132 56.2797 100.901 56.1641 100.725 55.933C100.548 55.7019 100.46 55.3867 100.461 54.9875V54.988ZM100.879 55.0354C100.879 55.3125 100.935 55.5299 101.048 55.6878C101.161 55.8456 101.318 55.9246 101.52 55.9247C101.783 55.9247 101.975 55.8046 102.099 55.5643V54.4437C101.971 54.2096 101.78 54.0925 101.525 54.0925C101.322 54.0925 101.164 54.172 101.05 54.3309C100.937 54.4898 100.88 54.7248 100.879 55.0356V55.0354ZM104.197 55.3489C104.196 55.193 104.242 55.0404 104.328 54.911C104.417 54.7785 104.584 54.6237 104.831 54.4468C104.686 54.2679 104.589 54.125 104.539 54.0158C104.491 53.9144 104.466 53.8038 104.465 53.6916C104.465 53.4409 104.538 53.2445 104.685 53.102C104.833 52.9596 105.031 52.8888 105.284 52.8888C105.508 52.8888 105.694 52.9548 105.842 53.0869C105.913 53.1487 105.969 53.2256 106.007 53.3119C106.045 53.3983 106.064 53.4921 106.062 53.5866C106.063 53.7164 106.028 53.8438 105.962 53.9549C105.895 54.068 105.778 54.1865 105.612 54.3103L105.371 54.4887L106.1 55.3655C106.204 55.1633 106.257 54.9386 106.254 54.711H106.63C106.63 55.0963 106.538 55.4158 106.354 55.6695L106.821 56.2335H106.322L106.103 55.9728C105.99 56.0745 105.857 56.1522 105.713 56.2012C105.567 56.2526 105.413 56.279 105.258 56.2792C104.938 56.2792 104.682 56.1938 104.488 56.0231C104.295 55.8523 104.198 55.6272 104.198 55.3477L104.197 55.3489ZM105.257 55.9385C105.477 55.9385 105.679 55.8539 105.862 55.6847L105.062 54.7205L104.988 54.7755C104.737 54.9612 104.612 55.1524 104.612 55.3489C104.612 55.5276 104.669 55.67 104.784 55.7776C104.898 55.8851 105.056 55.9385 105.254 55.9385H105.257ZM104.88 53.6779C104.88 53.8231 104.969 54.0042 105.145 54.2229L105.411 54.0333C105.513 53.9622 105.583 53.8911 105.62 53.8257C105.66 53.7525 105.679 53.67 105.677 53.5866C105.678 53.5386 105.668 53.491 105.649 53.4473C105.629 53.4035 105.6 53.3647 105.564 53.3336C105.486 53.2653 105.385 53.2294 105.281 53.2331C105.158 53.2331 105.061 53.2751 104.989 53.3591C104.917 53.4428 104.881 53.5487 104.881 53.6774L104.88 53.6779ZM110.205 54.7091H108.787V55.879H110.435V56.2344H108.354V52.9345H110.413V53.2923H108.787V54.3532H110.206V54.7086L110.205 54.7091ZM111.724 54.6774L112.264 53.7821H112.751L111.953 54.9944L112.775 56.2347H112.293L111.73 55.3164L111.168 56.2347H110.684L111.505 54.9944L110.709 53.7821H111.191L111.724 54.6774H111.724ZM115.247 55.0354C115.247 55.4093 115.161 55.7093 114.992 55.9375C114.823 56.1657 114.593 56.2804 114.304 56.2804C114.008 56.2804 113.776 56.1856 113.607 55.996V57.1785H113.19V53.7824H113.57L113.591 54.0539C113.76 53.8429 113.995 53.7372 114.296 53.7369C114.589 53.7369 114.82 53.848 114.99 54.0703C115.161 54.2925 115.246 54.6014 115.246 54.997V55.0356L115.247 55.0354ZM114.83 54.988C114.83 54.7111 114.772 54.4927 114.655 54.3328C114.538 54.1729 114.377 54.0927 114.173 54.0921C113.921 54.0921 113.732 54.2049 113.607 54.4304V55.6024C113.731 55.8261 113.921 55.9381 114.178 55.9382C114.27 55.941 114.362 55.9206 114.445 55.8789C114.529 55.8372 114.6 55.7754 114.654 55.6991C114.771 55.5399 114.83 55.3022 114.83 54.9883V54.988ZM115.665 54.9859C115.662 54.7616 115.71 54.5396 115.806 54.3373C115.891 54.1542 116.027 53.9998 116.198 53.8925C116.37 53.7868 116.568 53.7326 116.77 53.7364C117.101 53.7364 117.37 53.8519 117.574 54.0828C117.779 54.3138 117.881 54.6218 117.88 55.007V55.0361C117.884 55.2581 117.837 55.478 117.744 55.6792C117.66 55.8617 117.524 56.0157 117.355 56.1226C117.18 56.2301 116.979 56.2851 116.774 56.2811C116.443 56.2811 116.176 56.1655 115.972 55.9344C115.768 55.7033 115.666 55.3972 115.665 55.0162V54.9868L115.665 54.9859ZM116.083 55.0352C116.083 55.3077 116.146 55.5261 116.272 55.6906C116.397 55.8565 116.565 55.9382 116.775 55.9382C116.984 55.9382 117.154 55.8546 117.278 55.6875C117.402 55.5205 117.465 55.2868 117.465 54.9859C117.465 54.7173 117.402 54.4991 117.275 54.3312C117.217 54.2512 117.141 54.1865 117.053 54.1429C116.965 54.0992 116.868 54.0778 116.77 54.0805C116.673 54.0783 116.578 54.0996 116.491 54.1427C116.405 54.1859 116.33 54.2495 116.273 54.3281C116.147 54.4939 116.085 54.7281 116.085 55.0352H116.083ZM119.579 54.1584C119.511 54.1472 119.443 54.1418 119.375 54.1423C119.101 54.1423 118.916 54.2594 118.819 54.4935V56.2349H118.402V53.7824H118.807L118.814 54.0667C118.951 53.8478 119.144 53.7382 119.395 53.738C119.458 53.7349 119.52 53.7457 119.579 53.7696V54.1596V54.1584ZM120.526 53.1869V53.7812H120.98V54.1053H120.526V55.6264C120.526 55.7247 120.546 55.7982 120.587 55.8477C120.628 55.8972 120.696 55.9212 120.794 55.9212C120.86 55.9187 120.927 55.9096 120.992 55.8941V56.2337C120.888 56.2633 120.78 56.2787 120.672 56.2794C120.486 56.2794 120.346 56.2227 120.251 56.1093C120.157 55.9959 120.11 55.8349 120.11 55.6264V54.1053H119.666V53.7812H120.11V53.1881L120.526 53.1869ZM123.583 55.9375C123.725 55.9396 123.863 55.8915 123.973 55.8015C124.025 55.7607 124.069 55.7094 124.1 55.6507C124.132 55.592 124.151 55.5273 124.157 55.4607H124.551C124.542 55.6061 124.492 55.7459 124.407 55.8636C124.315 55.9929 124.194 56.0973 124.052 56.1676C123.907 56.2423 123.746 56.2811 123.583 56.2806C123.252 56.2806 122.988 56.1693 122.792 55.9465C122.597 55.7238 122.499 55.4186 122.499 55.0311V54.96C122.499 54.7217 122.542 54.5098 122.63 54.3233C122.71 54.1453 122.84 53.9947 123.004 53.8899C123.166 53.7871 123.359 53.7358 123.581 53.7362C123.854 53.7362 124.081 53.8181 124.261 53.9828C124.442 54.1475 124.539 54.362 124.551 54.6243H124.157C124.15 54.4757 124.086 54.3357 123.978 54.2335C123.871 54.1315 123.728 54.0764 123.581 54.0802C123.37 54.0802 123.205 54.1568 123.09 54.3108C122.975 54.4648 122.915 54.6861 122.915 54.9764V55.056C122.915 55.3382 122.973 55.5567 123.088 55.7088C123.204 55.861 123.371 55.938 123.584 55.938L123.583 55.9375ZM124.908 54.9852C124.905 54.7609 124.953 54.5389 125.05 54.3366C125.135 54.1535 125.271 53.9991 125.441 53.8918C125.613 53.7861 125.812 53.7319 126.013 53.7357C126.345 53.7357 126.613 53.8512 126.818 54.0821C127.023 54.3131 127.125 54.6211 127.124 55.0063V55.0354C127.127 55.2574 127.081 55.4773 126.988 55.6785C126.903 55.861 126.768 56.015 126.599 56.1219C126.424 56.2294 126.222 56.2844 126.017 56.2804C125.687 56.2804 125.42 56.1648 125.216 55.9337C125.011 55.7026 124.909 55.3965 124.908 55.0155V54.9861L124.908 54.9852ZM125.327 55.0345C125.327 55.307 125.39 55.5254 125.515 55.6899C125.573 55.7691 125.649 55.8331 125.737 55.8762C125.824 55.9194 125.921 55.9404 126.018 55.9375C126.23 55.9375 126.398 55.8539 126.522 55.6868C126.647 55.5197 126.709 55.2858 126.709 54.9852C126.709 54.7166 126.645 54.4984 126.519 54.3304C126.46 54.2528 126.385 54.1898 126.298 54.1463C126.211 54.1028 126.116 54.08 126.019 54.0797C125.922 54.0794 125.826 54.1016 125.739 54.1446C125.652 54.1875 125.576 54.25 125.517 54.3274C125.391 54.4932 125.329 54.7274 125.329 55.0345H125.327ZM128.038 53.7812L128.049 54.0527C128.227 53.8417 128.468 53.736 128.771 53.7357C129.111 53.7357 129.343 53.8671 129.466 54.13C129.548 54.0116 129.656 53.9142 129.782 53.8456C129.912 53.7729 130.064 53.7366 130.242 53.7366C130.776 53.7366 131.047 54.0216 131.057 54.5916V56.2347H130.641V54.6162C130.641 54.4406 130.601 54.3098 130.521 54.2224C130.441 54.135 130.309 54.0923 130.121 54.0923C129.967 54.0923 129.838 54.1387 129.736 54.2316C129.634 54.3245 129.575 54.4499 129.558 54.6067V56.2347H129.14V54.6278C129.14 54.2713 128.967 54.0928 128.621 54.0923C128.347 54.0923 128.16 54.2094 128.06 54.4435V56.2347H127.644V53.7821L128.038 53.7812ZM133.74 55.0345C133.74 55.4084 133.655 55.7084 133.486 55.9366C133.317 56.1648 133.087 56.2794 132.798 56.2794C132.502 56.2794 132.27 56.1847 132.1 55.9951V57.1785H131.684V53.7824H132.064L132.085 54.0539C132.254 53.8429 132.489 53.7372 132.79 53.7369C133.083 53.7369 133.314 53.848 133.484 54.0703C133.655 54.2925 133.74 54.6014 133.74 54.997V55.0356L133.74 55.0345ZM133.324 54.9871C133.324 54.7101 133.266 54.4917 133.148 54.3319C133.031 54.172 132.871 54.0917 132.667 54.0911C132.415 54.0911 132.226 54.2039 132.1 54.4295V55.6015C132.225 55.8252 132.415 55.9371 132.671 55.9373C132.764 55.94 132.856 55.9196 132.939 55.8779C133.022 55.8362 133.094 55.7745 133.147 55.6982C133.265 55.5389 133.324 55.3013 133.324 54.9873V54.9871ZM135.771 56.2335C135.748 56.1861 135.728 56.0991 135.713 55.9752C135.52 56.1777 135.289 56.2791 135.02 56.2792C134.78 56.2792 134.583 56.2109 134.43 56.0742C134.356 56.0101 134.296 55.93 134.256 55.8398C134.216 55.7496 134.197 55.6516 134.2 55.5529C134.2 55.2975 134.296 55.0991 134.488 54.9579C134.681 54.8167 134.952 54.7456 135.302 54.7447H135.706V54.552C135.706 54.4058 135.663 54.289 135.576 54.2015C135.488 54.1141 135.36 54.0743 135.191 54.0743C135.043 54.0743 134.918 54.112 134.818 54.1873C134.717 54.2632 134.667 54.3544 134.667 54.4622H134.249C134.249 54.3396 134.292 54.2211 134.378 54.1068C134.47 53.9881 134.591 53.8949 134.729 53.8359C134.883 53.7682 135.049 53.7342 135.216 53.7362C135.497 53.7362 135.716 53.8068 135.875 53.948C136.034 54.0902 136.117 54.2838 136.122 54.5314V55.6619C136.122 55.8873 136.15 56.0648 136.208 56.1989V56.2351L135.771 56.2335ZM135.081 55.9141C135.212 55.914 135.34 55.8787 135.452 55.8119C135.562 55.7519 135.651 55.6592 135.706 55.5465V55.0458H135.381C134.871 55.0458 134.616 55.1959 134.616 55.4961C134.616 55.6276 134.659 55.7306 134.746 55.8041C134.832 55.8776 134.944 55.9155 135.081 55.9155V55.9141ZM137.169 53.7814L137.183 54.0895C137.369 53.8534 137.612 53.7357 137.912 53.7362C138.426 53.7362 138.686 54.0284 138.69 54.6129V56.2337H138.274V54.6108C138.273 54.4333 138.232 54.3027 138.153 54.2184C138.075 54.134 137.952 54.0914 137.786 54.0914C137.659 54.0889 137.534 54.1272 137.43 54.2006C137.328 54.2731 137.245 54.371 137.191 54.4849V56.2325H136.775V53.78L137.169 53.7814ZM140.114 55.6197L140.681 53.7814H141.127L140.148 56.6126C139.996 57.0202 139.755 57.2241 139.426 57.2244L139.347 57.2173L139.192 57.1882V56.8477L139.305 56.8569C139.446 56.8569 139.555 56.8283 139.634 56.7711C139.712 56.7138 139.777 56.6086 139.828 56.4562L139.92 56.2069L139.052 53.7824H139.506L140.114 55.6197Z" fill="white"/>
</g>
<defs>
<clipPath id="clip0_48_13">
<rect width="175" height="58" fill="white"/>
</clipPath>
</defs>
</svg>
