<svg width="175" height="58" viewBox="0 0 175 58" fill="none" xmlns="http://www.w3.org/2000/svg">
<g clip-path="url(#clip0_212_2312)">
<path fill-rule="evenodd" clip-rule="evenodd" d="M57.1386 2.84347C57.4208 3.84249 60.8831 16.6601 54.7749 23.355C48.4469 30.291 44.6822 26.9477 44.1944 22.7486C44.1928 22.7308 44.1856 22.714 44.1739 22.7005C44.1622 22.6871 44.1466 22.6777 44.1293 22.6737C43.3352 22.4777 34.7552 20.2093 35.8809 13.8469C37.0615 7.17699 49.1016 3.68136 49.1016 3.68136C49.1016 3.68136 51.6331 2.65698 57.057 2.78091C57.0755 2.78071 57.0936 2.78675 57.1084 2.79808C57.1232 2.80941 57.1338 2.82538 57.1386 2.84347V2.84347Z" fill="#669933"/>
<path fill-rule="evenodd" clip-rule="evenodd" d="M56.123 4.21642C55.4441 6.6737 53.2441 12.9911 47.337 19.4013C47.3254 19.4138 47.3177 19.4294 47.315 19.4463C47.3122 19.4632 47.3145 19.4805 47.3215 19.4961C47.3286 19.5119 47.3403 19.5253 47.355 19.5345C47.3697 19.5436 47.3868 19.5482 47.4041 19.5475C48.5458 19.5056 49.9793 19.652 51.3536 20.519C51.3712 20.53 51.3844 20.5469 51.3907 20.5668C51.397 20.5867 51.396 20.6081 51.388 20.6274C51.38 20.6466 51.3654 20.6623 51.3469 20.6716C51.3284 20.6809 51.3072 20.6833 51.2871 20.6783C50.3485 20.4498 48.2556 20.1709 45.7984 21.3503C45.7841 21.3571 45.772 21.3676 45.7631 21.3806C44.7963 22.8351 43.5095 24.6483 42.2932 26.5482C42.285 26.5611 42.2736 26.5716 42.2601 26.5786C42.2467 26.5856 42.2316 26.589 42.2164 26.5883C42.2013 26.5876 42.1866 26.583 42.1738 26.5748C42.161 26.5666 42.1505 26.5551 42.1434 26.5416L40.6184 23.6424C40.6184 23.6424 41.1861 23.287 42.1484 22.4841C42.1606 22.4738 42.1698 22.4602 42.1749 22.4449C42.18 22.4296 42.1809 22.4132 42.1774 22.3975C42.1738 22.3818 42.1661 22.3673 42.155 22.3557C42.1438 22.3441 42.1298 22.3359 42.1143 22.3318C37.9834 21.2271 34.05 18.7361 35.5398 13.4121C37.93 4.87138 50.3596 0.935709 58.3977 0.000190544C58.4174 -0.00231271 58.4374 0.00215332 58.4542 0.0128269C58.471 0.0235004 58.4836 0.0397202 58.4899 0.0587197C61.1404 7.88741 61.9186 20.3432 56.2276 25.7104C49.347 32.2007 44.1167 25.695 46.1067 22.3069C46.1162 22.2906 46.1308 22.2779 46.1481 22.2706C46.1654 22.2634 46.1846 22.262 46.2028 22.2666C46.221 22.2712 46.2373 22.2817 46.2491 22.2964C46.2609 22.3111 46.2677 22.3292 46.2684 22.3481C46.4371 26.7198 49.8648 29.3441 55.2185 24.0983C60.3277 19.0923 61.0036 5.57799 57.6269 1.57432C57.6178 1.56312 57.6059 1.55448 57.5925 1.54925C57.5792 1.54402 57.5646 1.54237 57.5504 1.54446C50.4588 2.375 39.7469 7.14169 37.5345 14.0607C36.2175 18.1767 40.2191 21.7202 43.4354 21.0823C43.453 21.0789 43.4712 21.0811 43.4875 21.0886C43.5038 21.0961 43.5174 21.1085 43.5264 21.1241C43.5354 21.1397 43.5394 21.1577 43.5378 21.1757C43.5362 21.1937 43.5291 21.2107 43.5175 21.2245C43.4705 21.2785 43.4192 21.3399 43.3649 21.405C44.4678 20.3752 45.8374 18.9558 47.3478 17.0791C47.3478 17.0791 47.3493 17.0777 47.3497 17.077C48.6243 15.5986 48.5526 12.006 47.5734 9.47338C47.5659 9.45379 47.5656 9.43214 47.5726 9.41236C47.5796 9.39258 47.5934 9.37599 47.6115 9.3656C47.6296 9.35521 47.6508 9.35172 47.6713 9.35576C47.6917 9.3598 47.7101 9.37109 47.7229 9.3876C48.3845 10.2452 49.6367 12.2344 49.1243 14.4777C49.1197 14.4974 49.1221 14.5181 49.131 14.5362C49.1398 14.5543 49.1547 14.5687 49.173 14.577C49.191 14.5857 49.2115 14.5878 49.2308 14.5828C49.2502 14.5779 49.2672 14.5663 49.279 14.55C51.4425 11.6224 54.1768 8.17034 55.9588 4.15789C55.968 4.13803 55.9841 4.12233 56.0042 4.11387C56.0242 4.10541 56.0466 4.1048 56.0671 4.11216C56.0875 4.11953 56.1045 4.13433 56.1147 4.15367C56.1249 4.173 56.1275 4.19547 56.122 4.21666L56.123 4.21642Z" fill="#53381D"/>
<path fill-rule="evenodd" clip-rule="evenodd" d="M12.619 4.97881C14.2348 4.9582 35.2486 5.98257 40.9953 18.3521C47 31.2771 41.1129 34.6332 34.8187 33.2742C34.8011 33.2701 34.7826 33.2716 34.7657 33.2784C34.7489 33.2852 34.7346 33.2971 34.7247 33.3124C34.1676 34.1794 26.5671 45.6705 17.8928 40.9152C8.88086 35.9739 9.85021 16.9503 9.85021 16.9503C9.85021 16.9503 9.63644 12.7992 12.5311 5.03616C12.538 5.01859 12.5502 5.00364 12.566 4.99336C12.5817 4.98309 12.6003 4.97801 12.619 4.97881V4.97881Z" fill="#669933"/>
<path fill-rule="evenodd" clip-rule="evenodd" d="M13.9396 6.46042C16.558 8.46581 24.5707 15.3332 30.2788 28.0949C30.2856 28.111 30.2971 28.1246 30.3118 28.1338C30.3264 28.1431 30.3436 28.1475 30.3609 28.1465C30.3782 28.1461 30.3949 28.1405 30.4089 28.1304C30.4229 28.1202 30.4336 28.106 30.4395 28.0897C31.0648 26.3836 32.1594 24.3248 34.3502 22.863C34.3674 22.8514 34.3881 22.8463 34.4087 22.8488C34.4292 22.8513 34.4482 22.8611 34.4622 22.8765C34.4762 22.8919 34.4843 22.9117 34.4852 22.9325C34.4861 22.9533 34.4797 22.9738 34.4671 22.9903C33.6614 24.0201 31.8156 26.8864 32.0278 31.3036C32.0283 31.3195 32.0332 31.3349 32.0421 31.3481C33.4971 33.5687 35.266 36.4619 37.1985 39.2993C37.2073 39.3117 37.2125 39.3263 37.2138 39.3415C37.215 39.3566 37.2122 39.3719 37.2056 39.3856C37.1995 39.3996 37.1897 39.4116 37.1772 39.4204C37.1648 39.4293 37.1502 39.4345 37.135 39.4356L32.1682 39.8879C32.1682 39.8879 32.0049 38.855 31.4368 36.9854C31.432 36.97 31.4232 36.9563 31.4112 36.9457C31.3993 36.935 31.3847 36.9279 31.369 36.925C31.3533 36.9221 31.3371 36.9236 31.3222 36.9293C31.3073 36.9351 31.2942 36.9448 31.2844 36.9574C27.3471 42.1336 21.5916 46.2512 15.0842 41.0331C4.68101 32.6921 6.51529 12.9472 9.9214 1.1428C9.92688 1.12366 9.93868 1.10698 9.95484 1.09552C9.971 1.08406 9.99057 1.0785 10.0103 1.07977C22.3642 1.92192 40.0384 8.10255 44.1291 19.2176C49.1145 32.7613 36.8359 36.2406 33.438 31.2917C33.4275 31.2763 33.4221 31.2579 33.4227 31.2393C33.4233 31.2206 33.4298 31.2026 33.4413 31.1879C33.4527 31.1728 33.4686 31.1619 33.4868 31.1569C33.5049 31.1519 33.5241 31.1531 33.5415 31.1602C39.7263 33.5751 45.4622 30.3332 41.3156 19.6913C37.3836 9.59825 19.093 0.758449 11.6106 3.17947C11.597 3.18393 11.5846 3.19168 11.5747 3.20205C11.5647 3.21242 11.5574 3.22509 11.5534 3.23895C8.55533 13.6581 8.87751 31.472 17.1435 38.615C22.0994 42.8982 29.409 39.26 30.3026 34.3137C30.3056 34.2951 30.3144 34.2781 30.3277 34.265C30.3411 34.2519 30.3582 34.2435 30.3767 34.241C30.3952 34.2385 30.4139 34.242 30.4302 34.2511C30.4465 34.2602 30.4595 34.2743 30.4672 34.2914C30.5258 34.4156 30.601 34.5663 30.6843 34.7298C29.9066 32.5829 28.7472 29.8356 27.0376 26.6236C27.0376 26.6236 27.0376 26.6219 27.0376 26.621C25.7091 23.9061 20.4901 21.8766 16.3738 21.8657C16.3529 21.8658 16.3327 21.8582 16.3169 21.8444C16.3012 21.8305 16.2911 21.8112 16.2885 21.7903C16.2854 21.7696 16.2899 21.7485 16.301 21.7308C16.3122 21.7132 16.3293 21.7001 16.3491 21.6941C17.7625 21.2676 21.6441 20.4195 24.6582 22.746C24.6742 22.7584 24.6939 22.7648 24.7141 22.7641C24.7343 22.7635 24.7535 22.7557 24.7687 22.7423C24.7838 22.7288 24.7938 22.7104 24.7969 22.6904C24.8 22.6703 24.7962 22.6497 24.7859 22.6322C21.899 17.7189 18.6011 11.5743 13.8272 6.59004C13.8125 6.57399 13.8042 6.55297 13.804 6.53109C13.8038 6.50921 13.8117 6.48805 13.8262 6.47172C13.8406 6.4554 13.8606 6.4451 13.8822 6.44284C13.9038 6.44057 13.9255 6.4465 13.9429 6.45947L13.9396 6.46042Z" fill="#53381D"/>
<path fill-rule="evenodd" clip-rule="evenodd" d="M60.8694 24.9824C60.8694 24.9824 69.2882 33.3781 65.028 38.5531C62.2166 41.6099 57.6695 39.3919 57.6695 39.3919C57.6695 39.3919 54.3436 48.8025 39.354 48.1343C39.1423 44.5482 38.1257 40.3765 35.478 36.0671C36.6035 32.7004 38.8329 28.709 42.9412 24.2222C42.9412 24.2222 41.8425 23.158 44.1078 20.3444C46.3732 17.5307 55.4578 17.5061 60.8694 24.9824Z" fill="#BA7852"/>
<path fill-rule="evenodd" clip-rule="evenodd" d="M61.0189 41.0396C62.2418 41.3835 64.9953 41.8394 66.5923 39.6141C68.6881 36.6924 66.68 31.1764 66.68 31.1764C66.68 31.1764 64.5727 24.7356 54.4823 19.8146C54.4809 19.814 54.4794 19.8136 54.4778 19.8132C54.3438 19.7568 48.0179 17.1377 43.6871 21.1876C43.6719 21.2021 43.6521 21.2106 43.6312 21.2114C43.6103 21.2123 43.5898 21.2055 43.5734 21.1924C43.5571 21.1792 43.5461 21.1605 43.5424 21.1397C43.5387 21.119 43.5426 21.0976 43.5533 21.0795C44.3957 19.644 47.469 15.7396 55.1551 17.7483C55.1551 17.7483 59.3105 18.7805 63.9519 23.4368C63.9638 23.4493 63.9791 23.4578 63.996 23.4612C64.0128 23.4647 64.0302 23.4628 64.046 23.456C64.9027 23.1143 66.1813 22.2949 67.5673 20.3345C67.5699 20.3314 67.572 20.3284 67.5741 20.3258C67.6501 20.2435 68.8217 19.0035 69.1279 20.7286C69.129 20.7368 69.1314 20.7448 69.1351 20.7523C69.2033 20.8928 69.8849 22.4392 67.6614 23.7768C66.6993 24.356 65.9141 24.6062 65.3236 24.701C65.3082 24.7034 65.2938 24.71 65.2818 24.72C65.2698 24.7301 65.2607 24.7431 65.2554 24.7579C65.2502 24.7727 65.249 24.7887 65.252 24.8041C65.2549 24.8195 65.262 24.8338 65.2723 24.8455C66.071 25.7514 66.8232 26.6979 67.5259 27.6812C67.5259 27.6812 71.8614 33.5088 68.3071 40.6579C68.306 40.6605 68.3046 40.6626 68.3034 40.6648C68.2239 40.7944 65.9684 44.3599 60.9503 41.2C60.9322 41.1889 60.9187 41.1715 60.9124 41.1511C60.9061 41.1307 60.9074 41.1087 60.916 41.0892C60.9247 41.0697 60.9401 41.054 60.9594 41.0451C60.9787 41.0362 61.0005 41.0347 61.0208 41.0408L61.0189 41.0396Z" fill="#53381D"/>
<path fill-rule="evenodd" clip-rule="evenodd" d="M36.3746 37.3266C37.4394 34.1089 39.3188 30.5891 42.5215 27.1136C42.5324 27.1017 42.5464 27.093 42.5619 27.0886C42.5774 27.0841 42.5938 27.0841 42.6094 27.0885C42.6249 27.093 42.6389 27.1016 42.6498 27.1136C42.6607 27.1256 42.668 27.1403 42.6711 27.1563C42.9164 28.4596 44.9385 36.7503 56.8258 38.182C56.8469 38.1847 56.8681 38.1796 56.8857 38.1676C56.9032 38.1556 56.9158 38.1376 56.9211 38.1169C56.9264 38.0963 56.924 38.0743 56.9144 38.0553C56.9048 38.0363 56.8886 38.0214 56.8689 38.0136C54.3496 37.0136 45.4331 32.8218 44.4123 23.2607C44.4123 23.2583 44.4123 23.2562 44.4123 23.2533C44.4005 23.1905 44.2154 22.3178 43.4662 22.9896C42.986 23.4199 37.7952 27.8556 34.9255 35.1279C34.92 35.1411 34.9179 35.1554 34.9194 35.1696C34.921 35.1839 34.926 35.1975 34.9342 35.2091C35.4066 35.9238 35.8343 36.6341 36.2173 37.3401C36.2252 37.3551 36.2374 37.3674 36.2523 37.3755C36.2671 37.3836 36.284 37.3871 36.3008 37.3856C36.3177 37.3841 36.3337 37.3777 36.3469 37.3671C36.3601 37.3566 36.37 37.3423 36.3753 37.3261L36.3746 37.3266Z" fill="#53381D"/>
<path fill-rule="evenodd" clip-rule="evenodd" d="M62.574 41.8816C60.359 44.2168 50.2044 51.4041 39.4574 50.6555C39.435 50.6552 39.4135 50.6638 39.3974 50.6794C39.3813 50.695 39.372 50.7164 39.3715 50.7389C39.3428 51.3835 39.2906 52 39.2224 52.5872C39.2209 52.5988 39.2217 52.6106 39.225 52.6218C39.2282 52.633 39.2338 52.6435 39.2412 52.6524C39.248 52.6621 39.2569 52.67 39.2673 52.6755C39.2777 52.681 39.2892 52.684 39.301 52.6841C45.1131 52.5858 55.1179 50.325 62.6887 42.011C62.7036 41.9949 62.7119 41.9737 62.7119 41.9517C62.7119 41.9298 62.7036 41.9086 62.6887 41.8925C62.6603 41.8603 62.6048 41.8496 62.574 41.8816Z" fill="#53381D"/>
<path fill-rule="evenodd" clip-rule="evenodd" d="M57.3185 42.0127C56.4547 42.0601 53.3912 42.1032 51.0189 40.563C51.0014 40.5515 50.9805 40.5468 50.9598 40.5496C50.9392 40.5525 50.9202 40.5628 50.9065 40.5786C50.8929 40.5945 50.8853 40.6146 50.885 40.6356C50.8847 40.6565 50.8919 40.6769 50.9051 40.6931C51.5421 41.4592 52.8969 42.8987 54.2576 43.1359C54.2733 43.1385 54.288 43.1454 54.3001 43.1559C54.3122 43.1664 54.3211 43.18 54.326 43.1953C54.3309 43.2106 54.3314 43.227 54.3277 43.2426C54.3239 43.2582 54.3159 43.2724 54.3046 43.2838C53.7722 43.8188 51.3914 45.9126 46.1352 46.6465C46.1135 46.6493 46.0937 46.6605 46.0798 46.6775C46.0658 46.6946 46.0588 46.7163 46.0602 46.7384C46.0613 46.7602 46.0705 46.7808 46.0861 46.796C46.1016 46.8112 46.1223 46.8199 46.1439 46.8204C48.0664 46.8822 52.8718 46.532 57.3848 42.1627C57.3976 42.1503 57.4063 42.1343 57.4098 42.1168C57.4133 42.0993 57.4113 42.0811 57.4042 42.0648C57.3971 42.0484 57.3852 42.0347 57.3701 42.0253C57.3549 42.016 57.3374 42.0116 57.3197 42.0127H57.3185Z" fill="#53381D"/>
<path fill-rule="evenodd" clip-rule="evenodd" d="M47.2682 22.0977C45.9513 22.2801 46.626 24.7976 47.9253 24.8559C49.2246 24.9142 47.8797 22.7784 47.2682 22.0977Z" fill="#53381D"/>
<path fill-rule="evenodd" clip-rule="evenodd" d="M8.65369 28.0864C8.48132 27.8539 -1.10231 38.6074 4.44238 45.3167C7.55125 48.5766 12.5471 45.2395 12.5471 45.2395C12.5471 45.2395 16.8139 57.7168 36.6128 52.1433C36.6128 52.1433 43.1807 40.1057 28.6965 24.8388C28.6965 24.8388 29.9007 23.3979 27.3951 20.3508C24.8894 17.3037 14.9888 18.7172 8.65369 28.0864Z" fill="#BA7852"/>
<path fill-rule="evenodd" clip-rule="evenodd" d="M9.8024 47.7764C8.36202 48.5839 5.12616 50.0012 3.40947 47.6318C1.15777 44.5248 3.97057 36.9373 3.97057 36.9373C3.97057 36.9373 6.0045 29.1506 16.767 21.9662C16.7683 21.9656 16.7694 21.9649 16.7705 21.9641C16.9015 21.8868 23.7187 17.8787 28.3686 22.0788C28.3841 22.0927 28.404 22.1007 28.4248 22.1013C28.4456 22.1018 28.4659 22.095 28.4822 22.0818C28.498 22.0688 28.5087 22.0505 28.5125 22.0303C28.5163 22.0101 28.5129 21.9891 28.5029 21.9712C27.6784 20.499 24.4136 16.1382 16.0392 19.6523C16.0392 19.6523 11.6002 21.4532 6.65614 27.5549C6.6454 27.5684 6.63092 27.5783 6.61454 27.5835C6.59816 27.5886 6.58063 27.5888 6.56419 27.5838C5.64705 27.3075 4.27746 26.535 2.78723 24.446C2.78497 24.4425 2.78228 24.4393 2.77923 24.4365C2.69598 24.3493 1.4388 23.0731 1.12062 25.1329C1.11921 25.1401 1.11732 25.1471 1.11497 25.154C1.05172 25.3043 0.303425 27.2232 2.70116 28.4738C3.73423 29.0125 4.57541 29.1923 5.20777 29.2172C5.22352 29.2178 5.23881 29.2227 5.252 29.2314C5.26518 29.2401 5.27576 29.2523 5.28258 29.2666C5.28941 29.2809 5.29223 29.2968 5.29073 29.3126C5.28923 29.3284 5.28347 29.3435 5.27408 29.3563C4.4757 30.4536 3.66744 31.6662 2.86318 33.0067C2.86271 33.008 2.86199 33.0092 2.86107 33.0102C2.77993 33.1337 -2.40919 41.0749 1.39035 48.8443C1.39053 48.8454 1.39102 48.8464 1.39176 48.8472C1.42422 48.9211 3.57879 53.6487 9.90469 47.9195C9.92056 47.905 9.93064 47.8852 9.93302 47.8638C9.9354 47.8424 9.92993 47.8208 9.91763 47.8031C9.90541 47.7847 9.88669 47.7717 9.86528 47.7667C9.84387 47.7618 9.82138 47.7652 9.8024 47.7764V47.7764Z" fill="#53381D"/>
<path fill-rule="evenodd" clip-rule="evenodd" d="M8.55981 48.956C8.71149 49.2124 8.79262 49.369 9.46566 49.9313C12.1679 52.0299 22.4799 57.9679 35.7624 55.334C36.4728 55.1938 36.9963 54.6537 37.1284 53.936C37.7994 50.2806 38.9931 38.6132 29.5715 28.7637C29.5601 28.7521 29.5459 28.7438 29.5302 28.7398C29.5145 28.7359 29.498 28.7364 29.4826 28.7413C29.4672 28.7462 29.4534 28.7553 29.4428 28.7677C29.4322 28.78 29.4252 28.795 29.4226 28.8111C29.1874 30.262 27.1142 40.365 14.2743 43.7429C14.2539 43.7481 14.2324 43.7457 14.2137 43.7361C14.1949 43.7266 14.1802 43.7105 14.1723 43.6909C14.1644 43.6713 14.1638 43.6495 14.1706 43.6295C14.1774 43.6095 14.1912 43.5926 14.2094 43.582C16.7802 42.1365 26.4781 35.9597 27.5385 24.5442C27.5381 24.542 27.5381 24.5397 27.5385 24.5375C27.5488 24.4738 27.74 23.4127 28.5497 24.093C29.3727 24.7849 43.0609 35.6566 39.0434 55.2729C38.9258 55.8435 38.7939 56.1655 38.2657 56.403C34.8558 57.934 20.4814 60.8934 9.53244 50.5569C9.46001 50.4892 8.45516 49.2454 8.41941 49.0811C8.41001 49.0356 8.38837 48.9989 8.41753 48.9646C8.44669 48.9302 8.53629 48.9172 8.55981 48.956Z" fill="#53381D"/>
<path fill-rule="evenodd" clip-rule="evenodd" d="M13.7806 48.2686C14.6338 48.2103 17.9936 47.8468 20.5714 45.659C20.5874 45.6452 20.6078 45.6378 20.6289 45.6382C20.6499 45.6386 20.67 45.6467 20.6855 45.6611C20.7013 45.6754 20.7113 45.6949 20.7138 45.7161C20.7163 45.7374 20.711 45.7587 20.6989 45.7763C20.0047 46.79 18.4561 48.8155 16.929 49.1885C16.929 49.1885 19.3702 51.9906 25.9381 52.0726C25.9598 52.0726 25.9807 52.0809 25.9965 52.0958C26.0124 52.1107 26.0221 52.1311 26.0237 52.1529C26.0259 52.1747 26.0198 52.1966 26.0067 52.2141C25.9937 52.2316 25.9746 52.2436 25.9532 52.2477C24.0154 52.605 18.7101 53.0273 13.7279 48.4231C13.7149 48.4116 13.7056 48.3964 13.7012 48.3794C13.6967 48.3625 13.6974 48.3447 13.703 48.3281C13.7086 48.3116 13.719 48.2971 13.7328 48.2865C13.7467 48.2759 13.7633 48.2697 13.7806 48.2686Z" fill="#53381D"/>
<path fill-rule="evenodd" clip-rule="evenodd" d="M22.3252 22.6512C24.0711 22.009 26.0356 25.9333 24.5736 26.8973C23.1116 27.8612 22.3539 24.004 22.3252 22.6512Z" fill="#53381D"/>
<path fill-rule="evenodd" clip-rule="evenodd" d="M33.9642 43.2498C35.465 43.0858 36.2552 46.5646 34.9161 47.0376C33.5771 47.5105 33.7255 44.3218 33.9642 43.2498Z" fill="#53381D"/>
<path fill-rule="evenodd" clip-rule="evenodd" d="M57.1387 2.84353C57.3638 3.639 59.6037 11.9255 57.4254 18.6488C57.6729 18.7702 57.9361 18.9069 58.2148 19.0587C60.4139 12.9556 60.1646 4.58045 57.6269 1.57224C57.6178 1.56104 57.6059 1.55241 57.5925 1.54718C57.5791 1.54195 57.5645 1.54029 57.5503 1.54238C55.4543 1.78787 53.0422 2.37719 50.6259 3.26461C51.9148 2.99684 54.0374 2.71036 57.0562 2.77931C57.0749 2.77934 57.0931 2.78558 57.1079 2.79706C57.1227 2.80854 57.1334 2.82462 57.1383 2.84282L57.1387 2.84353ZM12.619 4.97901C13.831 4.96314 25.9584 5.53587 34.3688 11.0452C27.1777 5.23493 16.7976 1.50162 11.6108 3.17954C11.5972 3.18409 11.585 3.1919 11.575 3.20231C11.5651 3.21271 11.5579 3.22539 11.5539 3.23925C10.3993 7.25099 9.73704 12.3598 9.8311 17.5336C9.84004 17.1578 9.85015 16.9505 9.85015 16.9505C9.85015 16.9505 9.63662 12.7994 12.531 5.03636C12.538 5.01887 12.5502 5.00399 12.5659 4.99372C12.5816 4.98346 12.6 4.97833 12.6187 4.97901H12.619Z" fill="black"/>
<path fill-rule="evenodd" clip-rule="evenodd" d="M60.8693 24.9829C60.8693 24.9829 69.2881 33.3786 65.0281 38.5536C62.2168 41.6104 57.6694 39.3924 57.6694 39.3924C57.6694 39.3924 57.2621 40.5457 56.0889 42.016C56.6361 42.0412 57.069 42.0277 57.3185 42.0141C57.3363 42.0128 57.354 42.0172 57.3691 42.0267C57.3842 42.0361 57.396 42.0501 57.4027 42.0668C57.4101 42.0831 57.4121 42.1014 57.4086 42.119C57.4051 42.1366 57.3962 42.1526 57.3832 42.1649C55.1195 44.3565 52.782 45.537 50.772 46.1614C48.1356 47.4216 44.5665 48.3054 39.7807 48.1519C39.7821 48.9718 39.7532 49.8118 39.6892 50.6717C50.183 51.293 60.0624 44.4212 62.466 41.995C61.9397 41.7731 61.4327 41.5072 60.9504 41.2C60.9328 41.1888 60.9197 41.1716 60.9136 41.1516C60.9074 41.1316 60.9085 41.11 60.9168 41.0907C60.9249 41.0712 60.9398 41.0553 60.9588 41.0461C60.9777 41.0369 60.9993 41.035 61.0195 41.0407C62.2424 41.3848 64.9959 41.8407 66.5929 39.6152C68.6885 36.6937 66.6804 31.1777 66.6804 31.1777C66.6804 31.1777 65.1848 26.6075 58.6825 22.2271C58.6507 22.2953 58.6185 22.3631 58.5851 22.4304C59.4334 23.1984 60.199 24.0544 60.8693 24.9841V24.9829ZM17.6255 51.0888L17.6208 51.0864C17.6222 51.0874 17.6238 51.0882 17.6255 51.0888ZM9.46528 49.9317C8.8381 49.4085 8.72499 49.236 8.59 49.0075C9.00624 48.6957 9.44412 48.3346 9.9034 47.9175C9.91233 47.9099 9.91953 47.9004 9.92452 47.8898C9.92951 47.8791 9.93217 47.8675 9.93232 47.8557C9.93325 47.8363 9.9277 47.8171 9.91656 47.8012C9.9069 47.7877 9.89371 47.7772 9.87847 47.7709C9.85975 47.7625 9.83858 47.7615 9.81921 47.7682C9.81363 47.7702 9.80821 47.7726 9.80298 47.7754C8.3626 48.5832 5.12722 50.0004 3.41005 47.631C2.33982 46.1543 2.4139 43.665 2.78569 41.4597C2.95595 42.816 3.46343 44.1293 4.44383 45.3159C7.5527 48.5758 12.5485 45.2385 12.5485 45.2385C12.5485 45.2385 13.0125 46.5951 14.3435 48.2125C14.1041 48.2415 13.9127 48.2576 13.7808 48.2668C13.7638 48.2679 13.7475 48.2741 13.7339 48.2846C13.7204 48.295 13.7103 48.3093 13.7048 48.3256C13.7048 48.3256 13.7048 48.3256 13.7048 48.3256C13.7013 48.335 13.6995 48.3449 13.6996 48.355C13.6996 48.3671 13.7021 48.3792 13.707 48.3904C13.7119 48.4015 13.7191 48.4115 13.7281 48.4196C15.0253 49.6196 16.3441 50.4788 17.6208 51.0859C17.6197 51.0853 17.6189 51.0845 17.6182 51.0836L17.6255 51.0883C21.2204 53.3439 27.1381 54.8109 36.6133 52.1435C36.6133 52.1435 37.1394 51.1793 37.5655 49.4507C37.5255 51.3961 37.3068 52.9543 37.1276 53.9354C36.9957 54.6533 36.4722 55.1934 35.7618 55.3334C22.4793 57.9677 12.1673 52.0295 9.46505 49.9312L9.46528 49.9317Z" fill="black"/>
<path fill-rule="evenodd" clip-rule="evenodd" d="M12.5481 45.2392C12.5481 45.2392 7.55228 48.5768 4.44459 45.3167C3.46419 44.13 2.95671 42.8168 2.78645 41.4604C2.41466 43.6658 2.33964 46.1551 3.41081 47.6318C5.12751 50.0014 8.36336 48.5839 9.80374 47.7761C9.82248 47.7653 9.84455 47.7619 9.86564 47.7666C9.88674 47.7712 9.90536 47.7836 9.91789 47.8014C9.93041 47.8191 9.93594 47.8409 9.9334 47.8625C9.93087 47.8841 9.92044 47.904 9.90416 47.9183C9.44488 48.3344 9.00701 48.6955 8.59077 49.0083C8.72575 49.2363 8.83886 49.4088 9.46605 49.9325C12.1683 52.0308 22.4803 57.969 35.7628 55.3352C36.4732 55.1949 36.9967 54.6548 37.1288 53.9371C37.309 52.9558 37.5267 51.3974 37.5665 49.4524C37.1406 51.1803 36.6143 52.1447 36.6143 52.1447C27.1332 54.8141 21.2141 53.3428 17.6192 51.0853C16.3439 50.4763 15.0244 49.6194 13.7277 48.4204C13.7155 48.4087 13.7069 48.3937 13.703 48.3772C13.699 48.3607 13.6999 48.3434 13.7055 48.3274C13.7111 48.3114 13.7211 48.2973 13.7345 48.2869C13.7478 48.2765 13.7638 48.2702 13.7806 48.2688C13.9125 48.2595 14.1039 48.2434 14.3433 48.2145C13.0123 46.597 12.5483 45.2404 12.5483 45.2404L12.5481 45.2392Z" fill="black"/>
<path fill-rule="evenodd" clip-rule="evenodd" d="M101.961 8.62057V34.3049H96.7326L86.5926 19.4852H86.4294V34.3049H80.2681V8.62057H85.5717L95.6005 23.4228H95.8105V8.62057H101.961ZM121.235 8.62057H127.385V25.1888C127.385 27.0782 126.935 28.7398 126.036 30.1738C125.131 31.61 123.867 32.7106 122.246 33.4756C120.615 34.2466 118.736 34.6313 116.61 34.6295C114.997 34.6295 113.523 34.4059 112.189 33.9587C110.851 33.5113 109.718 32.8813 108.779 32.0692C107.844 31.2514 107.115 30.2568 106.594 29.0854C106.08 27.9084 105.818 26.6077 105.818 25.1891V8.62104H111.979V24.6469C111.979 25.9949 112.406 27.0974 113.259 27.9544C114.117 28.8074 115.235 29.2352 116.611 29.2378C117.977 29.2378 119.094 28.8079 119.952 27.9544C120.81 27.0952 121.238 25.9927 121.237 24.6469V8.62057H121.235ZM130.411 13.6643V8.6201H151.952V13.6643H144.226V34.3035H138.15V13.6643H130.411ZM168.75 16.3251C168.668 15.3953 168.295 14.6768 167.635 14.165C166.975 13.6531 166.052 13.3996 164.866 13.3996C163.704 13.3996 162.816 13.6233 162.202 14.0647C161.589 14.5062 161.28 15.0948 161.268 15.8182C161.244 16.5481 161.554 17.1305 162.191 17.5717C162.828 18.0073 163.766 18.3604 165.006 18.6312L167.196 19.1314C172.371 20.2734 174.973 22.8473 175 26.853C174.982 29.2959 174.081 31.2027 172.295 32.5734C170.514 33.9454 168.037 34.6303 164.866 34.6279C163.248 34.6279 161.799 34.4454 160.509 34.0862C159.224 33.7214 158.114 33.178 157.18 32.4559C156.251 31.732 155.526 30.8022 155.024 29.6721C154.516 28.5361 154.255 27.2296 154.241 25.7525H160.135C160.205 26.9651 160.649 27.8947 161.478 28.5364C162.302 29.1777 163.406 29.4994 164.79 29.5015C166.011 29.5015 166.973 29.2562 167.676 28.7655C168.377 28.2769 168.734 27.6354 168.75 26.8414C168.745 26.1407 168.417 25.5699 167.781 25.1353C167.139 24.7059 166.105 24.317 164.668 23.982L162.004 23.3574C159.715 22.828 157.957 21.9846 156.73 20.8271C155.498 19.6617 154.891 18.1374 154.896 16.2478C154.89 14.6823 155.312 13.2914 156.163 12.0752C157.01 10.8629 158.196 9.92077 159.714 9.26178C161.232 8.6028 162.956 8.27295 164.878 8.27295C167.827 8.27295 170.181 9.00871 171.956 10.4854C173.726 11.957 174.623 13.9033 174.649 16.3244H168.75V16.3251Z" fill="black"/>
<path fill-rule="evenodd" clip-rule="evenodd" d="M83.3654 38.1846L85.9273 46.6379H86.0213L88.583 38.1846H91.6808L87.8168 49.7269H84.1313L80.2681 38.1846H83.3654ZM95.3157 49.7271H92.3407L96.2044 38.1848H99.8894L103.754 49.7269H100.779L100.023 47.304H96.0699L95.3148 49.7269L95.3157 49.7271ZM96.7302 45.1856H99.3657L98.0902 41.0935H98.0006L96.7307 45.1856H96.7302ZM106.329 49.7271V38.1848H109.097V47.4606H113.862V49.7271H106.329ZM116.315 49.7271V38.1848H119.085V47.4606H123.849V49.7271H116.315ZM126.302 49.7271V38.1848H134.29V40.4513H129.072V42.8188H133.879V45.0884H129.071V47.4608H134.289V49.7274H126.301L126.302 49.7271ZM136.476 38.1846H139.568L141.99 43.0145H142.089L144.512 38.1846H147.604L143.415 45.8734V49.7271H140.663V45.8734L136.476 38.1846Z" fill="black"/>
<path d="M80.7 54.9429V56.2348H80.2676V52.9344H81.4754C81.8341 52.9344 82.1149 53.0264 82.3177 53.2105C82.5206 53.3945 82.6225 53.6387 82.6234 53.9431C82.6234 54.2635 82.5242 54.5103 82.3257 54.6836C82.1273 54.8569 81.8426 54.9433 81.4719 54.9429H80.7ZM80.7 54.5874H81.4761C81.7072 54.5874 81.8843 54.5328 82.0076 54.4235C82.1308 54.3141 82.1922 54.1557 82.1919 53.9481C82.1919 53.7517 82.1305 53.5945 82.0076 53.4763C81.8846 53.3582 81.7157 53.2968 81.5008 53.2922H80.7012V54.5867L80.7 54.5874ZM84.2851 54.1588C84.2176 54.1476 84.1492 54.1422 84.0808 54.1426C83.8075 54.1426 83.6222 54.2597 83.5248 54.4938V56.2352H83.1086V53.7827H83.5133L83.5201 54.0671C83.657 53.8481 83.8505 53.7386 84.1007 53.7384C84.1637 53.7353 84.2267 53.746 84.2851 53.7699V54.16V54.1588ZM84.5574 54.9867C84.5542 54.7624 84.6025 54.5405 84.6985 54.3381C84.7841 54.1551 84.9201 54.0007 85.0903 53.8934C85.2625 53.7876 85.4609 53.7335 85.6625 53.7372C85.9941 53.7372 86.2622 53.8527 86.467 54.0836C86.6717 54.3146 86.7736 54.6227 86.7727 55.0078V55.0369C86.7764 55.2589 86.73 55.4788 86.637 55.6801C86.5523 55.8626 86.4171 56.0166 86.2476 56.1234C86.0727 56.231 85.871 56.286 85.6662 56.2819C85.3361 56.2819 85.0689 56.1664 84.8648 55.9353C84.6607 55.7041 84.5582 55.3981 84.5574 55.017V54.9877V54.9867ZM84.976 55.036C84.976 55.3085 85.0387 55.527 85.1642 55.6914C85.2218 55.7707 85.2978 55.8346 85.3854 55.8777C85.473 55.9208 85.5697 55.9419 85.6672 55.939C85.8784 55.939 86.0463 55.8555 86.1709 55.6883C86.2955 55.5212 86.3578 55.2873 86.3576 54.9867C86.3576 54.7182 86.2944 54.4999 86.1678 54.332C86.1091 54.2543 86.0335 54.1913 85.9467 54.1478C85.86 54.1043 85.7645 54.0816 85.6676 54.0813C85.5707 54.081 85.475 54.1031 85.388 54.1461C85.301 54.189 85.225 54.2516 85.1658 54.3289C85.04 54.4948 84.9777 54.7289 84.9777 55.036H84.976ZM88.2716 55.939C88.4132 55.9412 88.551 55.893 88.6608 55.803C88.7134 55.7623 88.7569 55.7109 88.7886 55.6522C88.8204 55.5936 88.8396 55.5289 88.8452 55.4623H89.2391C89.2301 55.6077 89.18 55.7475 89.0947 55.8651C89.0039 55.9943 88.8827 56.0988 88.7419 56.1691C88.5963 56.244 88.4351 56.2828 88.2716 56.2822C87.9399 56.2822 87.6763 56.1708 87.4808 55.9481C87.2853 55.7253 87.1874 55.4202 87.1873 55.0327V54.9616C87.1873 54.7232 87.2303 54.5114 87.318 54.3249C87.3981 54.1468 87.5281 53.9962 87.6919 53.8915C87.8547 53.7886 88.0471 53.7374 88.2693 53.7377C88.5418 53.7377 88.7692 53.8197 88.9496 53.9844C89.13 54.149 89.2266 54.3635 89.2391 54.6258H88.8449C88.8375 54.4772 88.7734 54.3372 88.666 54.2351C88.559 54.133 88.4163 54.0779 88.269 54.0818C88.0574 54.0818 87.8928 54.1583 87.7778 54.3123C87.6628 54.4663 87.6033 54.6877 87.6033 54.9779V55.0576C87.6033 55.3398 87.6609 55.5583 87.7761 55.7104C87.8914 55.8625 88.0583 55.9395 88.2714 55.9395L88.2716 55.939ZM90.7173 56.281C90.3872 56.281 90.1187 56.1719 89.9119 55.9537C89.7051 55.7356 89.6017 55.4433 89.6017 55.077V54.9983C89.5978 54.7734 89.6451 54.5505 89.74 54.3469C89.8249 54.164 89.9589 54.0086 90.1268 53.8983C90.2864 53.7918 90.4737 53.7352 90.6651 53.7358C90.9815 53.7358 91.2275 53.8407 91.4031 54.0505C91.5787 54.2611 91.6664 54.5611 91.6664 54.9526V55.1277H90.0179C90.0233 55.3696 90.0939 55.5656 90.2282 55.7139C90.3625 55.8623 90.5339 55.9376 90.7397 55.9376C90.8864 55.9376 91.0115 55.9075 91.1129 55.8471C91.2164 55.7847 91.3073 55.7031 91.3807 55.6066L91.6349 55.8061C91.4311 56.1221 91.1254 56.28 90.7178 56.28L90.7173 56.281ZM90.6651 54.0813C90.5857 54.0798 90.5069 54.0956 90.4341 54.1275C90.3612 54.1595 90.2961 54.2068 90.243 54.2663C90.1285 54.3893 90.058 54.5621 90.0313 54.7848H91.2504V54.7531C91.2382 54.5398 91.1815 54.3739 91.0792 54.2571C90.9769 54.1403 90.8398 54.0813 90.6653 54.0813H90.6651ZM93.5654 55.5855C93.5677 55.5342 93.5573 55.4831 93.535 55.4368C93.5128 55.3906 93.4794 55.3507 93.4379 55.3208C93.3533 55.2576 93.2056 55.2035 92.9949 55.1585C92.7844 55.1135 92.6172 55.0585 92.4935 54.995C92.3698 54.9315 92.2786 54.8566 92.2193 54.7685C92.1582 54.676 92.127 54.5667 92.1302 54.4557C92.1302 54.2547 92.2144 54.0848 92.383 53.946C92.5515 53.8071 92.7672 53.7375 93.0302 53.7372C93.3058 53.7372 93.5295 53.8089 93.7013 53.9521C93.7837 54.0176 93.8499 54.1014 93.8948 54.197C93.9397 54.2926 93.962 54.3974 93.96 54.5031H93.5414C93.5414 54.3884 93.493 54.2893 93.3963 54.2059C93.2994 54.1232 93.1774 54.0813 93.0309 54.0813C92.8787 54.0813 92.7607 54.1147 92.6755 54.1813C92.6349 54.2111 92.602 54.2504 92.5797 54.2958C92.5573 54.3412 92.5462 54.3913 92.5471 54.4419C92.545 54.4874 92.5549 54.5327 92.5758 54.5731C92.5967 54.6135 92.6279 54.6475 92.6661 54.6718C92.7461 54.7227 92.8895 54.7723 93.0969 54.8187C93.3044 54.8651 93.4732 54.9215 93.6023 54.9867C93.7314 55.0519 93.8264 55.1289 93.8885 55.2211C93.9531 55.3202 93.9859 55.4369 93.9826 55.5554C93.9853 55.6582 93.963 55.76 93.9175 55.852C93.8719 55.944 93.8047 56.0233 93.7215 56.0829C93.548 56.2151 93.3222 56.2811 93.0443 56.281C92.8663 56.2844 92.6898 56.2488 92.5269 56.1765C92.385 56.1141 92.263 56.0135 92.1742 55.8857C92.0915 55.7672 92.047 55.6259 92.0467 55.481H92.4629C92.4643 55.5459 92.4802 55.6096 92.5093 55.6674C92.5384 55.7253 92.58 55.7759 92.6311 55.8154C92.7348 55.8981 92.8731 55.939 93.0433 55.939C93.2001 55.939 93.3265 55.9068 93.4226 55.8424C93.5187 55.7779 93.5664 55.6923 93.5656 55.5855H93.5654ZM95.9405 55.5855C95.9429 55.5342 95.9325 55.4831 95.9102 55.4368C95.8879 55.3906 95.8546 55.3507 95.8131 55.3208C95.7284 55.2583 95.5812 55.2042 95.37 55.1585C95.1589 55.1128 94.9921 55.0585 94.8687 54.995C94.7452 54.9315 94.6537 54.8566 94.5945 54.7685C94.5334 54.676 94.5024 54.5667 94.5056 54.4557C94.5056 54.2547 94.5898 54.0848 94.7581 53.946C94.9265 53.8071 95.1422 53.7375 95.4053 53.7372C95.6809 53.7372 95.9046 53.8089 96.0765 53.9521C96.1589 54.0176 96.2251 54.1014 96.27 54.197C96.3148 54.2926 96.3371 54.3974 96.3351 54.5031H95.9166C95.9166 54.3884 95.8683 54.2893 95.7717 54.2059C95.6748 54.1232 95.5528 54.0813 95.406 54.0813C95.2539 54.0813 95.1358 54.1147 95.0504 54.1813C95.0099 54.2112 94.9771 54.2505 94.9548 54.2958C94.9325 54.3412 94.9213 54.3913 94.9223 54.4419C94.9201 54.4874 94.93 54.5327 94.9509 54.5731C94.9718 54.6135 95.003 54.6475 95.0413 54.6718C95.1212 54.7227 95.2649 54.7723 95.4721 54.8187C95.6793 54.8651 95.8484 54.9215 95.9775 54.9867C96.1066 55.0519 96.2016 55.1289 96.2639 55.2211C96.3284 55.3202 96.3612 55.4369 96.358 55.5554C96.3607 55.6582 96.3383 55.76 96.2928 55.852C96.2472 55.9439 96.18 56.0232 96.0969 56.0829C95.9231 56.2151 95.6972 56.2811 95.4194 56.281C95.2415 56.2844 95.0649 56.2488 94.9021 56.1765C94.7602 56.114 94.6382 56.0134 94.5493 55.8857C94.4668 55.7671 94.4224 55.6259 94.4221 55.481H94.8381C94.8396 55.5459 94.8554 55.6096 94.8845 55.6674C94.9136 55.7253 94.9552 55.7758 95.0062 55.8154C95.1099 55.8981 95.2482 55.939 95.4185 55.939C95.576 55.939 95.7028 55.9066 95.7978 55.8424C95.8928 55.7782 95.9408 55.6924 95.9408 55.5855H95.9405ZM97.3515 56.2352H96.9346V53.7827H97.3508V56.2352H97.3515ZM96.9014 53.1311C96.8998 53.0679 96.9221 53.0065 96.9637 52.9593C97.0044 52.9119 97.0658 52.8882 97.1465 52.8882C97.2271 52.8882 97.2892 52.9119 97.3315 52.9593C97.3734 53.0064 97.3959 53.0678 97.3946 53.1311C97.3963 53.1939 97.3737 53.2549 97.3315 53.3012C97.2892 53.3469 97.2281 53.3695 97.1465 53.3695C97.0649 53.3695 97.0054 53.3458 96.9637 53.3012C96.9218 53.2548 96.8994 53.1938 96.9014 53.1311V53.1311ZM98.4112 53.7818L98.4248 54.0898C98.6109 53.8538 98.8539 53.736 99.1538 53.7365C99.6684 53.7365 99.9279 54.0288 99.9324 54.6133V56.2341H99.5164V54.6111C99.5148 54.4336 99.4741 54.3031 99.3958 54.2187C99.3175 54.1344 99.1945 54.0917 99.028 54.0917C98.901 54.0892 98.7765 54.1275 98.6724 54.2009C98.5699 54.2735 98.4876 54.3714 98.4335 54.4853V56.2329H98.0163V53.7803L98.4112 53.7818ZM100.461 54.9879C100.461 54.605 100.548 54.3006 100.724 54.0749C100.9 53.8491 101.132 53.7363 101.421 53.7363C101.719 53.7363 101.951 53.842 102.116 54.0533L102.137 53.7818H102.517V56.1751C102.517 56.4924 102.423 56.7427 102.237 56.9258C102.05 57.1088 101.799 57.2001 101.484 57.1997C101.306 57.199 101.131 57.1605 100.969 57.0866C100.802 57.0108 100.674 56.9071 100.584 56.7755L100.801 56.5241C100.979 56.7462 101.197 56.8573 101.455 56.8575C101.658 56.8575 101.815 56.8004 101.929 56.685C102.042 56.5696 102.099 56.4087 102.099 56.1999V55.9895C101.932 56.1829 101.704 56.2796 101.417 56.2796C101.132 56.2796 100.901 56.164 100.725 55.9329C100.548 55.7018 100.46 55.3866 100.461 54.9874V54.9879ZM100.879 55.0353C100.879 55.3124 100.935 55.5298 101.048 55.6876C101.161 55.8455 101.318 55.9244 101.52 55.9246C101.783 55.9246 101.975 55.8045 102.099 55.5642V54.4436C101.971 54.2095 101.78 54.0924 101.525 54.0924C101.322 54.0924 101.164 54.1719 101.05 54.3308C100.937 54.4897 100.88 54.7246 100.879 55.0355V55.0353ZM104.197 55.3488C104.196 55.1929 104.242 55.0403 104.328 54.9109C104.417 54.7783 104.584 54.6236 104.831 54.4467C104.686 54.2678 104.589 54.1249 104.539 54.0156C104.491 53.9143 104.466 53.8037 104.465 53.6915C104.465 53.4408 104.538 53.2443 104.685 53.1019C104.833 52.9595 105.031 52.8887 105.284 52.8887C105.508 52.8887 105.694 52.9547 105.842 53.0868C105.913 53.1486 105.969 53.2254 106.007 53.3118C106.045 53.3982 106.064 53.492 106.062 53.5865C106.063 53.7163 106.028 53.8437 105.962 53.9547C105.895 54.0679 105.778 54.1863 105.612 54.3102L105.371 54.4886L106.1 55.3654C106.204 55.1632 106.257 54.9385 106.254 54.7109H106.63C106.63 55.0962 106.538 55.4157 106.354 55.6694L106.821 56.2334H106.322L106.103 55.9727C105.99 56.0744 105.857 56.152 105.713 56.2011C105.567 56.2525 105.413 56.2788 105.258 56.2791C104.938 56.2791 104.682 56.1937 104.488 56.0229C104.295 55.8522 104.198 55.6271 104.198 55.3476L104.197 55.3488ZM105.257 55.9383C105.477 55.9383 105.679 55.8537 105.862 55.6846L105.062 54.7204L104.988 54.7753C104.737 54.9611 104.612 55.1523 104.612 55.3488C104.612 55.5274 104.669 55.6699 104.784 55.7774C104.898 55.885 105.056 55.9383 105.254 55.9383H105.257ZM104.88 53.6777C104.88 53.823 104.969 54.004 105.145 54.2227L105.411 54.0332C105.513 53.9621 105.583 53.891 105.62 53.8256C105.66 53.7524 105.679 53.6699 105.677 53.5865C105.678 53.5385 105.668 53.4909 105.649 53.4471C105.629 53.4034 105.6 53.3645 105.564 53.3334C105.486 53.2652 105.385 53.2293 105.281 53.233C105.158 53.233 105.061 53.275 104.989 53.359C104.917 53.4427 104.881 53.5486 104.881 53.6773L104.88 53.6777ZM110.205 54.709H108.787V55.8789H110.435V56.2343H108.354V52.9344H110.413V53.2922H108.787V54.3531H110.206V54.7085L110.205 54.709ZM111.724 54.6772L112.264 53.782H112.751L111.953 54.9943L112.775 56.2345H112.293L111.73 55.3163L111.168 56.2345H110.684L111.505 54.9943L110.709 53.782H111.191L111.724 54.6772H111.724ZM115.247 55.0353C115.247 55.4092 115.161 55.7092 114.992 55.9374C114.823 56.1656 114.593 56.2803 114.304 56.2803C114.008 56.2803 113.776 56.1855 113.607 55.9959V57.1784H113.19V53.7822H113.57L113.591 54.0538C113.76 53.8427 113.995 53.7371 114.296 53.7367C114.589 53.7367 114.82 53.8479 114.99 54.0701C115.161 54.2924 115.246 54.6013 115.246 54.9969V55.0355L115.247 55.0353ZM114.83 54.9879C114.83 54.711 114.772 54.4926 114.655 54.3327C114.538 54.1728 114.377 54.0926 114.173 54.0919C113.921 54.0919 113.732 54.2047 113.607 54.4303V55.6023C113.731 55.826 113.921 55.9379 114.178 55.9381C114.27 55.9409 114.362 55.9205 114.446 55.8788C114.529 55.837 114.6 55.7753 114.654 55.699C114.771 55.5398 114.83 55.3021 114.83 54.9881V54.9879ZM115.665 54.9858C115.662 54.7615 115.71 54.5395 115.806 54.3372C115.891 54.1541 116.027 53.9997 116.198 53.8924C116.37 53.7867 116.568 53.7325 116.77 53.7363C117.101 53.7363 117.37 53.8517 117.574 54.0827C117.779 54.3137 117.881 54.6217 117.88 55.0068V55.036C117.884 55.258 117.837 55.4779 117.744 55.6791C117.66 55.8616 117.524 56.0156 117.355 56.1225C117.18 56.23 116.979 56.285 116.774 56.281C116.443 56.281 116.176 56.1654 115.972 55.9343C115.768 55.7032 115.666 55.3971 115.665 55.0161V54.9867L115.665 54.9858ZM116.083 55.035C116.083 55.3076 116.146 55.526 116.272 55.6905C116.397 55.8563 116.565 55.9381 116.775 55.9381C116.984 55.9381 117.154 55.8545 117.278 55.6874C117.402 55.5203 117.465 55.2867 117.465 54.9858C117.465 54.7172 117.402 54.499 117.275 54.331C117.217 54.251 117.141 54.1864 117.053 54.1427C116.965 54.099 116.868 54.0776 116.77 54.0803C116.673 54.0781 116.578 54.0995 116.491 54.1426C116.405 54.1857 116.33 54.2493 116.273 54.328C116.147 54.4938 116.085 54.7279 116.085 55.035H116.083ZM119.579 54.1583C119.511 54.1471 119.443 54.1417 119.375 54.1422C119.101 54.1422 118.916 54.2592 118.819 54.4934V56.2348H118.402V53.7822H118.807L118.814 54.0666C118.951 53.8476 119.144 53.7381 119.395 53.7379C119.458 53.7348 119.52 53.7455 119.579 53.7694V54.1595V54.1583ZM120.526 53.1868V53.781H120.98V54.1052H120.526V55.6263C120.526 55.7246 120.546 55.7981 120.587 55.8476C120.628 55.8971 120.696 55.921 120.794 55.921C120.86 55.9185 120.927 55.9095 120.992 55.894V56.2336C120.888 56.2632 120.78 56.2786 120.672 56.2793C120.486 56.2793 120.346 56.2226 120.251 56.1092C120.157 55.9958 120.11 55.8348 120.11 55.6263V54.1052H119.666V53.781H120.11V53.1879L120.526 53.1868ZM123.583 55.9374C123.725 55.9395 123.863 55.8914 123.973 55.8014C124.025 55.7606 124.069 55.7092 124.1 55.6506C124.132 55.5919 124.151 55.5272 124.157 55.4606H124.551C124.542 55.606 124.492 55.7457 124.407 55.8635C124.315 55.9928 124.194 56.0972 124.052 56.1675C123.907 56.2422 123.746 56.2809 123.583 56.2805C123.252 56.2805 122.988 56.1691 122.792 55.9464C122.597 55.7237 122.499 55.4185 122.499 55.031V54.9599C122.499 54.7215 122.542 54.5097 122.63 54.3232C122.71 54.1452 122.84 53.9946 123.004 53.8898C123.166 53.787 123.359 53.7357 123.581 53.736C123.854 53.736 124.081 53.818 124.261 53.9827C124.442 54.1474 124.539 54.3618 124.551 54.6242H124.157C124.15 54.4755 124.086 54.3356 123.978 54.2334C123.871 54.1314 123.728 54.0762 123.581 54.0801C123.37 54.0801 123.205 54.1566 123.09 54.3107C122.975 54.4647 122.915 54.686 122.915 54.9763V55.0559C122.915 55.3381 122.973 55.5566 123.088 55.7087C123.204 55.8609 123.371 55.9379 123.584 55.9379L123.583 55.9374ZM124.908 54.985C124.905 54.7608 124.953 54.5388 125.05 54.3365C125.135 54.1534 125.271 53.999 125.441 53.8917C125.613 53.786 125.812 53.7318 126.013 53.7356C126.345 53.7356 126.613 53.851 126.818 54.082C127.023 54.3129 127.125 54.621 127.124 55.0061V55.0353C127.127 55.2573 127.081 55.4772 126.988 55.6784C126.903 55.8609 126.768 56.0149 126.599 56.1217C126.424 56.2293 126.222 56.2843 126.017 56.2803C125.687 56.2803 125.42 56.1647 125.216 55.9336C125.011 55.7025 124.909 55.3964 124.908 55.0154V54.986L124.908 54.985ZM125.327 55.0343C125.327 55.3068 125.39 55.5253 125.515 55.6898C125.573 55.769 125.649 55.833 125.737 55.8761C125.824 55.9192 125.921 55.9403 126.018 55.9374C126.23 55.9374 126.398 55.8538 126.522 55.6867C126.647 55.5196 126.709 55.2857 126.709 54.985C126.709 54.7165 126.645 54.4983 126.519 54.3303C126.46 54.2526 126.385 54.1896 126.298 54.1461C126.211 54.1027 126.116 54.0799 126.019 54.0796C125.922 54.0793 125.826 54.1015 125.739 54.1444C125.652 54.1874 125.576 54.2499 125.517 54.3272C125.391 54.4931 125.329 54.7272 125.329 55.0343H125.327ZM128.038 53.781L128.049 54.0526C128.227 53.8416 128.468 53.7359 128.771 53.7356C129.111 53.7356 129.343 53.867 129.466 54.1299C129.548 54.0115 129.656 53.9141 129.782 53.8455C129.912 53.7728 130.064 53.7365 130.242 53.7365C130.776 53.7365 131.047 54.0215 131.057 54.5915V56.2345H130.641V54.6161C130.641 54.4405 130.601 54.3097 130.521 54.2223C130.441 54.1348 130.309 54.0922 130.121 54.0922C129.967 54.0922 129.838 54.1386 129.736 54.2315C129.634 54.3244 129.575 54.4498 129.558 54.6066V56.2345H129.14V54.6277C129.14 54.2712 128.967 54.0927 128.621 54.0922C128.347 54.0922 128.16 54.2092 128.06 54.4434V56.2345H127.644V53.782L128.038 53.781ZM133.74 55.0343C133.74 55.4083 133.655 55.7083 133.486 55.9364C133.317 56.1646 133.087 56.2793 132.798 56.2793C132.502 56.2793 132.27 56.1845 132.1 55.995V57.1784H131.684V53.7822H132.064L132.085 54.0538C132.254 53.8427 132.489 53.7371 132.79 53.7367C133.083 53.7367 133.314 53.8479 133.484 54.0701C133.655 54.2924 133.74 54.6013 133.74 54.9969V55.0355L133.74 55.0343ZM133.324 54.9869C133.324 54.71 133.266 54.4916 133.148 54.3317C133.031 54.1719 132.871 54.0916 132.667 54.091C132.415 54.091 132.226 54.2038 132.1 54.4294V55.6014C132.225 55.8251 132.415 55.937 132.671 55.9372C132.764 55.9399 132.856 55.9195 132.939 55.8778C133.022 55.8361 133.094 55.7743 133.147 55.6981C133.265 55.5388 133.324 55.3012 133.324 54.9872V54.9869ZM135.771 56.2334C135.748 56.186 135.728 56.099 135.713 55.9751C135.52 56.1776 135.289 56.2789 135.02 56.2791C134.78 56.2791 134.583 56.2108 134.43 56.0741C134.356 56.01 134.296 55.9299 134.256 55.8397C134.216 55.7495 134.197 55.6515 134.2 55.5528C134.2 55.2974 134.296 55.099 134.488 54.9578C134.681 54.8166 134.952 54.7455 135.302 54.7445H135.706V54.5519C135.706 54.4057 135.663 54.2889 135.576 54.2014C135.488 54.114 135.36 54.0742 135.191 54.0742C135.043 54.0742 134.918 54.1118 134.818 54.1872C134.717 54.263 134.667 54.3543 134.667 54.4621H134.249C134.249 54.3395 134.292 54.221 134.378 54.1066C134.47 53.9879 134.591 53.8948 134.729 53.8358C134.883 53.768 135.049 53.734 135.216 53.736C135.497 53.736 135.716 53.8066 135.875 53.9479C136.034 54.09 136.117 54.2836 136.122 54.5313V55.6618C136.122 55.8872 136.15 56.0646 136.208 56.1988V56.235L135.771 56.2334ZM135.081 55.9139C135.212 55.9139 135.34 55.8786 135.452 55.8118C135.562 55.7518 135.651 55.6591 135.706 55.5464V55.0457H135.381C134.871 55.0457 134.616 55.1958 134.616 55.4959C134.616 55.6274 134.659 55.7305 134.746 55.804C134.832 55.8774 134.944 55.9154 135.081 55.9154V55.9139ZM137.169 53.7813L137.183 54.0893C137.369 53.8533 137.612 53.7356 137.912 53.736C138.426 53.736 138.686 54.0283 138.69 54.6128V56.2336H138.274V54.6106C138.273 54.4332 138.232 54.3026 138.153 54.2182C138.075 54.1339 137.952 54.0912 137.786 54.0912C137.659 54.0888 137.534 54.1271 137.43 54.2005C137.328 54.273 137.245 54.3709 137.191 54.4848V56.2324H136.775V53.7799L137.169 53.7813ZM140.114 55.6196L140.681 53.7813H141.127L140.148 56.6125C139.996 57.0201 139.755 57.224 139.426 57.2243L139.347 57.2172L139.192 57.1881V56.8476L139.305 56.8568C139.446 56.8568 139.555 56.8282 139.634 56.771C139.712 56.7137 139.777 56.6085 139.828 56.4561L139.92 56.2068L139.052 53.7822H139.506L140.114 55.6196Z" fill="black"/>
</g>
<defs>
<clipPath id="clip0_212_2312">
<rect width="175" height="58" fill="white"/>
</clipPath>
</defs>
</svg>
