<svg width="152" height="54" viewBox="0 0 152 54" fill="none" xmlns="http://www.w3.org/2000/svg">
<path d="M12.4269 45.4226V51.0481H11.5042V48.5874H8.85732V51.0481H7.93457V45.4226H8.85732V47.8347H11.5042V45.4226H12.4269Z" fill="black"/>
<path d="M15.5762 51.121C15.1553 51.121 14.7749 51.0265 14.4349 50.8377C14.095 50.6434 13.8279 50.3736 13.6336 50.0282C13.4393 49.6775 13.3422 49.2728 13.3422 48.8141C13.3422 48.3608 13.442 47.9588 13.6417 47.608C13.8413 47.2573 14.1138 46.9875 14.4592 46.7986C14.8046 46.6097 15.1904 46.5153 15.6167 46.5153C16.043 46.5153 16.4288 46.6097 16.7742 46.7986C17.1195 46.9875 17.392 47.2573 17.5917 47.608C17.7914 47.9588 17.8912 48.3608 17.8912 48.8141C17.8912 49.2674 17.7887 49.6694 17.5836 50.0201C17.3785 50.3709 17.0979 50.6434 16.7418 50.8377C16.391 51.0265 16.0025 51.121 15.5762 51.121ZM15.5762 50.3196C15.8137 50.3196 16.0349 50.263 16.24 50.1496C16.4504 50.0363 16.6204 49.8663 16.7499 49.6397C16.8794 49.4131 16.9442 49.1379 16.9442 48.8141C16.9442 48.4903 16.8821 48.2178 16.758 47.9966C16.6339 47.7699 16.4693 47.5999 16.2642 47.4866C16.0592 47.3733 15.8379 47.3166 15.6005 47.3166C15.3631 47.3166 15.1418 47.3733 14.9368 47.4866C14.7371 47.5999 14.5779 47.7699 14.4592 47.9966C14.3405 48.2178 14.2811 48.4903 14.2811 48.8141C14.2811 49.2943 14.4025 49.6667 14.6454 49.9311C14.8936 50.1901 15.2039 50.3196 15.5762 50.3196Z" fill="black"/>
<path d="M21.0536 46.5153C21.4043 46.5153 21.7173 46.5882 21.9925 46.7339C22.2731 46.8796 22.4917 47.0954 22.6482 47.3814C22.8047 47.6674 22.8829 48.0128 22.8829 48.4175V51.0481H21.9682V48.5551C21.9682 48.1558 21.8684 47.8509 21.6688 47.6404C21.4691 47.4246 21.1966 47.3166 20.8512 47.3166C20.5059 47.3166 20.2307 47.4246 20.0256 47.6404C19.826 47.8509 19.7261 48.1558 19.7261 48.5551V51.0481H18.8034V46.5882H19.7261V47.0981C19.8772 46.9146 20.0688 46.7716 20.3008 46.6691C20.5383 46.5666 20.7892 46.5153 21.0536 46.5153Z" fill="black"/>
<path d="M28.1475 48.7089C28.1475 48.8761 28.1368 49.0272 28.1152 49.1621H24.7075C24.7345 49.5183 24.8667 49.8043 25.1041 50.0201C25.3415 50.236 25.6329 50.3439 25.9783 50.3439C26.4747 50.3439 26.8255 50.1362 27.0305 49.7206H28.0261C27.8912 50.1308 27.6457 50.468 27.2896 50.7324C26.9388 50.9915 26.5017 51.121 25.9783 51.121C25.552 51.121 25.1688 51.0265 24.8289 50.8377C24.4943 50.6434 24.2299 50.3736 24.0356 50.0282C23.8468 49.6775 23.7523 49.2728 23.7523 48.8141C23.7523 48.3554 23.8441 47.9534 24.0276 47.608C24.2164 47.2573 24.4781 46.9875 24.8127 46.7986C25.1527 46.6097 25.5412 46.5153 25.9783 46.5153C26.3992 46.5153 26.7742 46.607 27.1034 46.7905C27.4326 46.974 27.6889 47.233 27.8723 47.5676C28.0558 47.8967 28.1475 48.2772 28.1475 48.7089ZM27.1843 48.4175C27.1789 48.0775 27.0575 47.805 26.8201 47.5999C26.5827 47.3949 26.2886 47.2924 25.9378 47.2924C25.6194 47.2924 25.3469 47.3949 25.1203 47.5999C24.8936 47.7996 24.7587 48.0721 24.7156 48.4175H27.1843Z" fill="black"/>
<path d="M30.6745 51.121C30.3237 51.121 30.0081 51.0589 29.7275 50.9348C29.4522 50.8053 29.2337 50.6326 29.0718 50.4168C28.9099 50.1955 28.8236 49.95 28.8128 49.6802H29.7679C29.7841 49.869 29.8732 50.0282 30.035 50.1577C30.2023 50.2819 30.4101 50.3439 30.6583 50.3439C30.9173 50.3439 31.117 50.2953 31.2573 50.1982C31.403 50.0957 31.4758 49.9662 31.4758 49.8097C31.4758 49.6424 31.3949 49.5183 31.233 49.4373C31.0765 49.3564 30.8256 49.2674 30.4802 49.1702C30.1457 49.0785 29.8732 48.9895 29.6627 48.9031C29.4522 48.8168 29.2688 48.6846 29.1123 48.5065C28.9612 48.3284 28.8856 48.0937 28.8856 47.8023C28.8856 47.5649 28.9558 47.349 29.0961 47.1548C29.2364 46.9551 29.4361 46.7986 29.6951 46.6853C29.9595 46.572 30.2617 46.5153 30.6016 46.5153C31.1089 46.5153 31.5163 46.6448 31.8239 46.9038C32.1369 47.1575 32.3041 47.5055 32.3257 47.948H31.403C31.3868 47.7483 31.3058 47.5892 31.1601 47.4704C31.0144 47.3517 30.8175 47.2924 30.5693 47.2924C30.3264 47.2924 30.1403 47.3382 30.0108 47.43C29.8812 47.5217 29.8165 47.6431 29.8165 47.7942C29.8165 47.9129 29.8597 48.0128 29.946 48.0937C30.0323 48.1746 30.1376 48.2394 30.2617 48.288C30.3858 48.3311 30.5693 48.3878 30.8121 48.4579C31.1359 48.5443 31.4003 48.6333 31.6053 48.7251C31.8158 48.8114 31.9966 48.9409 32.1476 49.1136C32.2987 49.2863 32.377 49.5156 32.3824 49.8016C32.3824 50.0552 32.3122 50.2819 32.1719 50.4815C32.0316 50.6812 31.832 50.8377 31.573 50.951C31.3193 51.0643 31.0198 51.121 30.6745 51.121Z" fill="black"/>
<path d="M34.456 47.3409V49.8097C34.456 49.977 34.4938 50.0984 34.5693 50.1739C34.6502 50.2441 34.7851 50.2792 34.974 50.2792H35.5406V51.0481H34.8121C34.3966 51.0481 34.0782 50.951 33.857 50.7567C33.6358 50.5625 33.5251 50.2468 33.5251 49.8097V47.3409H32.999V46.5882H33.5251V45.4792H34.456V46.5882H35.5406V47.3409H34.456Z" fill="black"/>
<path d="M40.4059 46.5882L37.67 53.1445H36.7149L37.6214 50.9753L35.865 46.5882H36.8929L38.1475 49.9878L39.4507 46.5882H40.4059Z" fill="black"/>
<path d="M42.114 49.9392L41.1346 52.1732H40.5356L41.1103 49.9392H42.114Z" fill="black"/>
<path d="M46.8765 51.1048C46.4988 51.1048 46.1588 51.04 45.8566 50.9105C45.5544 50.7756 45.317 50.5867 45.1443 50.3439C44.9716 50.1011 44.8853 49.8178 44.8853 49.494H45.8728C45.8944 49.7368 45.9888 49.9365 46.1561 50.093C46.3288 50.2495 46.5689 50.3277 46.8765 50.3277C47.1949 50.3277 47.4431 50.2522 47.6212 50.1011C47.7992 49.9446 47.8883 49.7449 47.8883 49.5021C47.8883 49.3132 47.8316 49.1594 47.7183 49.0407C47.6104 48.922 47.4728 48.8303 47.3055 48.7655C47.1436 48.7008 46.917 48.6306 46.6256 48.5551C46.2586 48.4579 45.9591 48.3608 45.7271 48.2637C45.5005 48.1611 45.3062 48.0047 45.1443 47.7942C44.9824 47.5838 44.9015 47.3032 44.9015 46.9524C44.9015 46.6286 44.9824 46.3453 45.1443 46.1025C45.3062 45.8597 45.5328 45.6735 45.8242 45.544C46.1156 45.4145 46.4529 45.3497 46.836 45.3497C47.381 45.3497 47.8262 45.4873 48.1716 45.7625C48.5223 46.0323 48.7166 46.4047 48.7544 46.8796H47.7345C47.7183 46.6745 47.6212 46.4991 47.4431 46.3534C47.265 46.2077 47.0303 46.1349 46.7389 46.1349C46.4745 46.1349 46.2586 46.2023 46.0913 46.3372C45.9241 46.4721 45.8404 46.6664 45.8404 46.92C45.8404 47.0927 45.8917 47.2357 45.9942 47.349C46.1021 47.4569 46.237 47.5433 46.3989 47.608C46.5608 47.6728 46.7821 47.7429 47.0627 47.8185C47.435 47.921 47.7372 48.0235 47.9692 48.1261C48.2066 48.2286 48.4063 48.3878 48.5682 48.6036C48.7355 48.8141 48.8191 49.0974 48.8191 49.4535C48.8191 49.7395 48.7409 50.0093 48.5844 50.263C48.4333 50.5166 48.2093 50.7216 47.9126 50.8781C47.6212 51.0292 47.2758 51.1048 46.8765 51.1048Z" fill="black"/>
<path d="M50.3774 45.9973C50.2101 45.9973 50.0698 45.9406 49.9565 45.8273C49.8432 45.714 49.7865 45.5737 49.7865 45.4064C49.7865 45.2391 49.8432 45.0988 49.9565 44.9855C50.0698 44.8722 50.2101 44.8155 50.3774 44.8155C50.5393 44.8155 50.6769 44.8722 50.7902 44.9855C50.9035 45.0988 50.9602 45.2391 50.9602 45.4064C50.9602 45.5737 50.9035 45.714 50.7902 45.8273C50.6769 45.9406 50.5393 45.9973 50.3774 45.9973ZM50.8307 46.5882V51.0481H49.9079V46.5882H50.8307Z" fill="black"/>
<path d="M54.2924 46.5153C54.6431 46.5153 54.9561 46.5882 55.2313 46.7339C55.5119 46.8796 55.7305 47.0954 55.887 47.3814C56.0434 47.6674 56.1217 48.0128 56.1217 48.4175V51.0481H55.207V48.5551C55.207 48.1558 55.1072 47.8509 54.9075 47.6404C54.7079 47.4246 54.4354 47.3166 54.09 47.3166C53.7447 47.3166 53.4695 47.4246 53.2644 47.6404C53.0647 47.8509 52.9649 48.1558 52.9649 48.5551V51.0481H52.0422V46.5882H52.9649V47.0981C53.116 46.9146 53.3076 46.7716 53.5396 46.6691C53.777 46.5666 54.028 46.5153 54.2924 46.5153Z" fill="black"/>
<path d="M56.9911 48.8141C56.9911 48.3554 57.0829 47.9534 57.2663 47.608C57.4552 47.2573 57.7142 46.9875 58.0434 46.7986C58.3726 46.6097 58.7503 46.5153 59.1766 46.5153C59.7162 46.5153 60.1614 46.6448 60.5122 46.9038C60.8683 47.1575 61.1084 47.5217 61.2325 47.9966H60.2369C60.156 47.7753 60.0265 47.6026 59.8484 47.4785C59.6703 47.3544 59.4464 47.2924 59.1766 47.2924C58.7989 47.2924 58.4967 47.4273 58.27 47.6971C58.0488 47.9615 57.9382 48.3338 57.9382 48.8141C57.9382 49.2943 58.0488 49.6694 58.27 49.9392C58.4967 50.209 58.7989 50.3439 59.1766 50.3439C59.7108 50.3439 60.0643 50.1092 60.2369 49.6397H61.2325C61.103 50.093 60.8602 50.4545 60.5041 50.7243C60.1479 50.9888 59.7054 51.121 59.1766 51.121C58.7503 51.121 58.3726 51.0265 58.0434 50.8377C57.7142 50.6434 57.4552 50.3736 57.2663 50.0282C57.0829 49.6775 56.9911 49.2728 56.9911 48.8141Z" fill="black"/>
<path d="M66.2398 48.7089C66.2398 48.8761 66.229 49.0272 66.2074 49.1621H62.7997C62.8267 49.5183 62.9589 49.8043 63.1963 50.0201C63.4337 50.236 63.7251 50.3439 64.0705 50.3439C64.5669 50.3439 64.9177 50.1362 65.1227 49.7206H66.1183C65.9834 50.1308 65.7379 50.468 65.3818 50.7324C65.031 50.9915 64.5939 51.121 64.0705 51.121C63.6442 51.121 63.2611 51.0265 62.9211 50.8377C62.5865 50.6434 62.3221 50.3736 62.1279 50.0282C61.939 49.6775 61.8446 49.2728 61.8446 48.8141C61.8446 48.3554 61.9363 47.9534 62.1198 47.608C62.3086 47.2573 62.5703 46.9875 62.9049 46.7986C63.2449 46.6097 63.6334 46.5153 64.0705 46.5153C64.4914 46.5153 64.8664 46.607 65.1956 46.7905C65.5248 46.974 65.7811 47.233 65.9646 47.5676C66.148 47.8967 66.2398 48.2772 66.2398 48.7089ZM65.2765 48.4175C65.2711 48.0775 65.1497 47.805 64.9123 47.5999C64.6749 47.3949 64.3808 47.2924 64.03 47.2924C63.7116 47.2924 63.4391 47.3949 63.2125 47.5999C62.9858 47.7996 62.8509 48.0721 62.8078 48.4175H65.2765Z" fill="black"/>
<path d="M68.0706 47.2357C68.2055 47.0091 68.3836 46.8337 68.6048 46.7096C68.8314 46.5801 69.0986 46.5153 69.4061 46.5153V47.4704H69.1714C68.8099 47.4704 68.5347 47.5622 68.3458 47.7456C68.1623 47.9291 68.0706 48.2475 68.0706 48.7008V51.0481H67.1478V46.5882H68.0706V47.2357Z" fill="black"/>
<path d="M70.7238 45.9973C70.5565 45.9973 70.4162 45.9406 70.3029 45.8273C70.1896 45.714 70.1329 45.5737 70.1329 45.4064C70.1329 45.2391 70.1896 45.0988 70.3029 44.9855C70.4162 44.8722 70.5565 44.8155 70.7238 44.8155C70.8857 44.8155 71.0233 44.8722 71.1366 44.9855C71.2499 45.0988 71.3066 45.2391 71.3066 45.4064C71.3066 45.5737 71.2499 45.714 71.1366 45.8273C71.0233 45.9406 70.8857 45.9973 70.7238 45.9973ZM71.1771 46.5882V51.0481H70.2543V46.5882H71.1771Z" fill="black"/>
<path d="M73.4651 47.3409V49.8097C73.4651 49.977 73.5029 50.0984 73.5784 50.1739C73.6594 50.2441 73.7943 50.2792 73.9831 50.2792H74.5498V51.0481H73.8213C73.4058 51.0481 73.0874 50.951 72.8661 50.7567C72.6449 50.5625 72.5343 50.2468 72.5343 49.8097V47.3409H72.0081V46.5882H72.5343V45.4792H73.4651V46.5882H74.5498V47.3409H73.4651Z" fill="black"/>
<path d="M79.415 46.5882L76.6791 53.1445H75.724L76.6306 50.9753L74.8741 46.5882H75.9021L77.1567 49.9878L78.4599 46.5882H79.415Z" fill="black"/>
<path d="M81.1231 49.9392L80.1437 52.1732H79.5448L80.1195 49.9392H81.1231Z" fill="black"/>
<path d="M87.9659 47.0981C87.9659 47.3841 87.8984 47.6539 87.7635 47.9075C87.6286 48.1611 87.4127 48.3689 87.116 48.5308C86.8192 48.6873 86.4387 48.7655 85.9747 48.7655H84.9548V51.0481H84.032V45.4226H85.9747C86.4064 45.4226 86.7706 45.4981 87.0674 45.6492C87.3696 45.7949 87.5935 45.9946 87.7392 46.2482C87.8903 46.5018 87.9659 46.7851 87.9659 47.0981ZM85.9747 48.0128C86.3254 48.0128 86.5871 47.9345 86.7598 47.778C86.9325 47.6161 87.0188 47.3895 87.0188 47.0981C87.0188 46.4829 86.6708 46.1753 85.9747 46.1753H84.9548V48.0128H85.9747Z" fill="black"/>
<path d="M89.7687 47.2357C89.9036 47.0091 90.0817 46.8337 90.3029 46.7096C90.5295 46.5801 90.7967 46.5153 91.1042 46.5153V47.4704H90.8695C90.508 47.4704 90.2327 47.5622 90.0439 47.7456C89.8604 47.9291 89.7687 48.2475 89.7687 48.7008V51.0481H88.8459V46.5882H89.7687V47.2357Z" fill="black"/>
<path d="M93.887 51.121C93.4661 51.121 93.0856 51.0265 92.7457 50.8377C92.4057 50.6434 92.1386 50.3736 91.9443 50.0282C91.7501 49.6775 91.6529 49.2728 91.6529 48.8141C91.6529 48.3608 91.7528 47.9588 91.9524 47.608C92.1521 47.2573 92.4246 46.9875 92.77 46.7986C93.1153 46.6097 93.5011 46.5153 93.9274 46.5153C94.3537 46.5153 94.7396 46.6097 95.0849 46.7986C95.4303 46.9875 95.7028 47.2573 95.9024 47.608C96.1021 47.9588 96.2019 48.3608 96.2019 48.8141C96.2019 49.2674 96.0994 49.6694 95.8944 50.0201C95.6893 50.3709 95.4087 50.6434 95.0525 50.8377C94.7018 51.0265 94.3133 51.121 93.887 51.121ZM93.887 50.3196C94.1244 50.3196 94.3456 50.263 94.5507 50.1496C94.7612 50.0363 94.9311 49.8663 95.0606 49.6397C95.1901 49.4131 95.2549 49.1379 95.2549 48.8141C95.2549 48.4903 95.1928 48.2178 95.0687 47.9966C94.9446 47.7699 94.78 47.5999 94.575 47.4866C94.3699 47.3733 94.1487 47.3166 93.9112 47.3166C93.6738 47.3166 93.4526 47.3733 93.2475 47.4866C93.0479 47.5999 92.8887 47.7699 92.77 47.9966C92.6512 48.2178 92.5919 48.4903 92.5919 48.8141C92.5919 49.2943 92.7133 49.6667 92.9561 49.9311C93.2043 50.1901 93.5146 50.3196 93.887 50.3196Z" fill="black"/>
<path d="M98.9839 47.3409H98.1583V51.0481H97.2274V47.3409H96.7013V46.5882H97.2274V46.2725C97.2274 45.7598 97.3624 45.3875 97.6322 45.1555C97.9074 44.918 98.3364 44.7993 98.9191 44.7993V45.5683C98.6385 45.5683 98.4416 45.6222 98.3283 45.7302C98.2149 45.8327 98.1583 46.0135 98.1583 46.2725V46.5882H98.9839V47.3409Z" fill="black"/>
<path d="M100.271 45.9973C100.104 45.9973 99.9636 45.9406 99.8502 45.8273C99.7369 45.714 99.6803 45.5737 99.6803 45.4064C99.6803 45.2391 99.7369 45.0988 99.8502 44.9855C99.9636 44.8722 100.104 44.8155 100.271 44.8155C100.433 44.8155 100.571 44.8722 100.684 44.9855C100.797 45.0988 100.854 45.2391 100.854 45.4064C100.854 45.5737 100.797 45.714 100.684 45.8273C100.571 45.9406 100.433 45.9973 100.271 45.9973ZM100.724 46.5882V51.0481H99.8017V46.5882H100.724Z" fill="black"/>
<path d="M103.012 47.3409V49.8097C103.012 49.977 103.05 50.0984 103.126 50.1739C103.207 50.2441 103.342 50.2792 103.53 50.2792H104.097V51.0481H103.369C102.953 51.0481 102.635 50.951 102.413 50.7567C102.192 50.5625 102.082 50.2468 102.082 49.8097V47.3409H101.555V46.5882H102.082V45.4792H103.012V46.5882H104.097V47.3409H103.012Z" fill="black"/>
<path d="M104.64 48.7979C104.64 48.35 104.732 47.9534 104.915 47.608C105.104 47.2627 105.358 46.9956 105.676 46.8067C106 46.6124 106.356 46.5153 106.745 46.5153C107.095 46.5153 107.4 46.5855 107.659 46.7258C107.924 46.8607 108.134 47.0306 108.291 47.2357V46.5882H109.221V51.0481H108.291V50.3844C108.134 50.5948 107.921 50.7702 107.651 50.9105C107.381 51.0508 107.074 51.121 106.728 51.121C106.345 51.121 105.994 51.0238 105.676 50.8296C105.358 50.6299 105.104 50.3547 104.915 50.0039C104.732 49.6478 104.64 49.2458 104.64 48.7979ZM108.291 48.8141C108.291 48.5065 108.226 48.2394 108.096 48.0128C107.972 47.7861 107.808 47.6134 107.603 47.4947C107.397 47.376 107.176 47.3166 106.939 47.3166C106.701 47.3166 106.48 47.376 106.275 47.4947C106.07 47.608 105.903 47.778 105.773 48.0047C105.649 48.2259 105.587 48.4903 105.587 48.7979C105.587 49.1055 105.649 49.3753 105.773 49.6073C105.903 49.8394 106.07 50.0174 106.275 50.1416C106.485 50.2603 106.707 50.3196 106.939 50.3196C107.176 50.3196 107.397 50.2603 107.603 50.1416C107.808 50.0228 107.972 49.8502 108.096 49.6235C108.226 49.3915 108.291 49.1217 108.291 48.8141Z" fill="black"/>
<path d="M111.356 47.2519C111.513 47.036 111.726 46.8607 111.996 46.7258C112.271 46.5855 112.576 46.5153 112.91 46.5153C113.304 46.5153 113.66 46.6097 113.979 46.7986C114.297 46.9875 114.548 47.2573 114.731 47.608C114.915 47.9534 115.007 48.35 115.007 48.7979C115.007 49.2458 114.915 49.6478 114.731 50.0039C114.548 50.3547 114.294 50.6299 113.971 50.8296C113.652 51.0238 113.299 51.121 112.91 51.121C112.565 51.121 112.257 51.0535 111.987 50.9186C111.723 50.7837 111.513 50.611 111.356 50.4006V51.0481H110.433V45.0583H111.356V47.2519ZM114.068 48.7979C114.068 48.4903 114.003 48.2259 113.873 48.0047C113.749 47.778 113.582 47.608 113.372 47.4947C113.167 47.376 112.945 47.3166 112.708 47.3166C112.476 47.3166 112.255 47.376 112.044 47.4947C111.839 47.6134 111.672 47.7861 111.542 48.0128C111.418 48.2394 111.356 48.5065 111.356 48.8141C111.356 49.1217 111.418 49.3915 111.542 49.6235C111.672 49.8502 111.839 50.0228 112.044 50.1416C112.255 50.2603 112.476 50.3196 112.708 50.3196C112.945 50.3196 113.167 50.2603 113.372 50.1416C113.582 50.0174 113.749 49.8394 113.873 49.6073C114.003 49.3753 114.068 49.1055 114.068 48.7979Z" fill="black"/>
<path d="M116.389 45.9973C116.221 45.9973 116.081 45.9406 115.968 45.8273C115.854 45.714 115.798 45.5737 115.798 45.4064C115.798 45.2391 115.854 45.0988 115.968 44.9855C116.081 44.8722 116.221 44.8155 116.389 44.8155C116.55 44.8155 116.688 44.8722 116.801 44.9855C116.915 45.0988 116.971 45.2391 116.971 45.4064C116.971 45.5737 116.915 45.714 116.801 45.8273C116.688 45.9406 116.55 45.9973 116.389 45.9973ZM116.842 46.5882V51.0481H115.919V46.5882H116.842Z" fill="black"/>
<path d="M118.976 45.0583V51.0481H118.053V45.0583H118.976Z" fill="black"/>
<path d="M120.657 45.9973C120.49 45.9973 120.349 45.9406 120.236 45.8273C120.123 45.714 120.066 45.5737 120.066 45.4064C120.066 45.2391 120.123 45.0988 120.236 44.9855C120.349 44.8722 120.49 44.8155 120.657 44.8155C120.819 44.8155 120.957 44.8722 121.07 44.9855C121.183 45.0988 121.24 45.2391 121.24 45.4064C121.24 45.5737 121.183 45.714 121.07 45.8273C120.957 45.9406 120.819 45.9973 120.657 45.9973ZM121.11 46.5882V51.0481H120.188V46.5882H121.11Z" fill="black"/>
<path d="M123.398 47.3409V49.8097C123.398 49.977 123.436 50.0984 123.512 50.1739C123.593 50.2441 123.728 50.2792 123.916 50.2792H124.483V51.0481H123.755C123.339 51.0481 123.021 50.951 122.799 50.7567C122.578 50.5625 122.468 50.2468 122.468 49.8097V47.3409H121.941V46.5882H122.468V45.4792H123.398V46.5882H124.483V47.3409H123.398Z" fill="black"/>
<path d="M129.348 46.5882L126.612 53.1445H125.657L126.564 50.9753L124.807 46.5882H125.835L127.09 49.9878L128.393 46.5882H129.348Z" fill="black"/>
<path d="M130.417 51.1048C130.25 51.1048 130.109 51.0481 129.996 50.9348C129.883 50.8215 129.826 50.6812 129.826 50.5139C129.826 50.3466 129.883 50.2063 129.996 50.093C130.109 49.9797 130.25 49.923 130.417 49.923C130.579 49.923 130.716 49.9797 130.83 50.093C130.943 50.2063 131 50.3466 131 50.5139C131 50.6812 130.943 50.8215 130.83 50.9348C130.716 51.0481 130.579 51.1048 130.417 51.1048Z" fill="black"/>
<path d="M132.369 51.1048C132.202 51.1048 132.062 51.0481 131.949 50.9348C131.835 50.8215 131.779 50.6812 131.779 50.5139C131.779 50.3466 131.835 50.2063 131.949 50.093C132.062 49.9797 132.202 49.923 132.369 49.923C132.531 49.923 132.669 49.9797 132.782 50.093C132.896 50.2063 132.952 50.3466 132.952 50.5139C132.952 50.6812 132.896 50.8215 132.782 50.9348C132.669 51.0481 132.531 51.1048 132.369 51.1048Z" fill="black"/>
<path d="M134.322 51.1048C134.155 51.1048 134.014 51.0481 133.901 50.9348C133.788 50.8215 133.731 50.6812 133.731 50.5139C133.731 50.3466 133.788 50.2063 133.901 50.093C134.014 49.9797 134.155 49.923 134.322 49.923C134.484 49.923 134.621 49.9797 134.735 50.093C134.848 50.2063 134.905 50.3466 134.905 50.5139C134.905 50.6812 134.848 50.8215 134.735 50.9348C134.621 51.0481 134.484 51.1048 134.322 51.1048Z" fill="black"/>
<rect x="0.244141" y="4" width="2.02357" height="47.554" fill="black"/>
<path d="M7.99077 3.90909H11.9091L15.233 12.0142H15.3864L18.7102 3.90909H22.6286V17H19.5476V8.95881H19.4389L16.294 16.9169H14.3253L11.1804 8.91406H11.0717V17H7.99077V3.90909ZM24.1738 6.47869V3.90909H35.2385V6.47869H31.269V17H28.1497V6.47869H24.1738ZM40.6509 17V3.90909H49.587V6.47869H43.815V9.16335H49.0181V11.7393H43.815V17H40.6509ZM63.536 10.4545C63.536 11.8949 63.2591 13.1158 62.7051 14.1172C62.1511 15.1186 61.4011 15.8793 60.4551 16.3991C59.5133 16.919 58.4565 17.179 57.2846 17.179C56.1085 17.179 55.0495 16.9169 54.1078 16.3928C53.166 15.8686 52.4181 15.108 51.8642 14.1108C51.3145 13.1094 51.0396 11.8906 51.0396 10.4545C51.0396 9.0142 51.3145 7.79332 51.8642 6.7919C52.4181 5.79048 53.166 5.02983 54.1078 4.50994C55.0495 3.99006 56.1085 3.73011 57.2846 3.73011C58.4565 3.73011 59.5133 3.99006 60.4551 4.50994C61.4011 5.02983 62.1511 5.79048 62.7051 6.7919C63.2591 7.79332 63.536 9.0142 63.536 10.4545ZM60.3017 10.4545C60.3017 9.60227 60.1802 8.8821 59.9373 8.29403C59.6987 7.70597 59.3535 7.26065 58.9018 6.9581C58.4544 6.65554 57.9153 6.50426 57.2846 6.50426C56.6582 6.50426 56.1191 6.65554 55.6674 6.9581C55.2157 7.26065 54.8684 7.70597 54.6255 8.29403C54.3869 8.8821 54.2676 9.60227 54.2676 10.4545C54.2676 11.3068 54.3869 12.027 54.6255 12.6151C54.8684 13.2031 55.2157 13.6484 55.6674 13.951C56.1191 14.2536 56.6582 14.4048 57.2846 14.4048C57.9153 14.4048 58.4544 14.2536 58.9018 13.951C59.3535 13.6484 59.6987 13.2031 59.9373 12.6151C60.1802 12.027 60.3017 11.3068 60.3017 10.4545ZM77.7392 10.4545C77.7392 11.8949 77.4622 13.1158 76.9082 14.1172C76.3542 15.1186 75.6042 15.8793 74.6582 16.3991C73.7164 16.919 72.6596 17.179 71.4877 17.179C70.3116 17.179 69.2527 16.9169 68.3109 16.3928C67.3691 15.8686 66.6213 15.108 66.0673 14.1108C65.5176 13.1094 65.2427 11.8906 65.2427 10.4545C65.2427 9.0142 65.5176 7.79332 66.0673 6.7919C66.6213 5.79048 67.3691 5.02983 68.3109 4.50994C69.2527 3.99006 70.3116 3.73011 71.4877 3.73011C72.6596 3.73011 73.7164 3.99006 74.6582 4.50994C75.6042 5.02983 76.3542 5.79048 76.9082 6.7919C77.4622 7.79332 77.7392 9.0142 77.7392 10.4545ZM74.5048 10.4545C74.5048 9.60227 74.3833 8.8821 74.1404 8.29403C73.9018 7.70597 73.5566 7.26065 73.1049 6.9581C72.6575 6.65554 72.1184 6.50426 71.4877 6.50426C70.8613 6.50426 70.3223 6.65554 69.8706 6.9581C69.4189 7.26065 69.0716 7.70597 68.8287 8.29403C68.59 8.8821 68.4707 9.60227 68.4707 10.4545C68.4707 11.3068 68.59 12.027 68.8287 12.6151C69.0716 13.2031 69.4189 13.6484 69.8706 13.951C70.3223 14.2536 70.8613 14.4048 71.4877 14.4048C72.1184 14.4048 72.6575 14.2536 73.1049 13.951C73.5566 13.6484 73.9018 13.2031 74.1404 12.6151C74.3833 12.027 74.5048 11.3068 74.5048 10.4545ZM84.4252 17H79.5865V3.90909H84.4189C85.7527 3.90909 86.9011 4.17116 87.8642 4.69531C88.8315 5.2152 89.5772 5.9652 90.1014 6.94531C90.6255 7.92116 90.8876 9.08878 90.8876 10.4482C90.8876 11.8118 90.6255 12.9837 90.1014 13.9638C89.5815 14.9439 88.8379 15.696 87.8706 16.2202C86.9032 16.7401 85.7548 17 84.4252 17ZM82.7505 14.3026H84.3038C85.0368 14.3026 85.6568 14.179 86.1639 13.9318C86.6752 13.6804 87.0609 13.2734 87.3208 12.7109C87.5851 12.1442 87.7172 11.3899 87.7172 10.4482C87.7172 9.50639 87.5851 8.75639 87.3208 8.19815C87.0566 7.63565 86.6667 7.23082 86.1511 6.98366C85.6397 6.73224 85.0091 6.60653 84.2591 6.60653H82.7505V14.3026ZM99.8109 7.83381C99.7683 7.36506 99.5787 7.00071 99.242 6.74077C98.9096 6.47656 98.4345 6.34446 97.8166 6.34446C97.4075 6.34446 97.0666 6.39773 96.7939 6.50426C96.5211 6.6108 96.3166 6.75781 96.1802 6.94531C96.0439 7.12855 95.9735 7.33949 95.9693 7.57812C95.9608 7.77415 95.9991 7.94673 96.0843 8.09588C96.1738 8.24503 96.3017 8.37713 96.4679 8.49219C96.6383 8.60298 96.8429 8.70099 97.0815 8.78622C97.3201 8.87145 97.5886 8.94602 97.8869 9.00994L99.0119 9.26562C99.6596 9.40625 100.231 9.59375 100.725 9.82812C101.224 10.0625 101.641 10.3416 101.978 10.6655C102.319 10.9893 102.577 11.3622 102.751 11.7841C102.926 12.206 103.015 12.679 103.02 13.2031C103.015 14.0298 102.807 14.7393 102.393 15.3317C101.98 15.924 101.385 16.3778 100.61 16.6932C99.8386 17.0085 98.9075 17.1662 97.8166 17.1662C96.7214 17.1662 95.7669 17.0021 94.9529 16.674C94.139 16.3459 93.5062 15.8473 93.0545 15.1783C92.6028 14.5092 92.3706 13.6634 92.3578 12.6406H95.3876C95.4132 13.0625 95.5261 13.4141 95.7264 13.6953C95.9267 13.9766 96.2015 14.1896 96.551 14.3345C96.9047 14.4794 97.3137 14.5518 97.7782 14.5518C98.2044 14.5518 98.5666 14.4943 98.8649 14.3793C99.1674 14.2642 99.3997 14.1044 99.5616 13.8999C99.7235 13.6953 99.8066 13.4609 99.8109 13.1967C99.8066 12.9496 99.7299 12.7386 99.5808 12.5639C99.4316 12.3849 99.2015 12.2315 98.8904 12.1037C98.5836 11.9716 98.1916 11.8501 97.7143 11.7393L96.3464 11.4197C95.2129 11.1598 94.3201 10.7401 93.6681 10.1605C93.0162 9.5767 92.6923 8.78835 92.6966 7.79545C92.6923 6.9858 92.9096 6.27628 93.3485 5.6669C93.7875 5.05753 94.3947 4.58239 95.1703 4.24148C95.9458 3.90057 96.8301 3.73011 97.823 3.73011C98.8372 3.73011 99.7172 3.9027 100.463 4.24787C101.213 4.58878 101.795 5.06818 102.208 5.68608C102.621 6.30398 102.832 7.01989 102.841 7.83381H99.8109ZM104.189 6.47869V3.90909H115.254V6.47869H111.285V17H108.165V6.47869H104.189ZM124.719 3.90909H127.877V12.353C127.877 13.3288 127.645 14.179 127.18 14.9034C126.716 15.6236 126.068 16.1818 125.237 16.5781C124.406 16.9702 123.441 17.1662 122.341 17.1662C121.229 17.1662 120.257 16.9702 119.426 16.5781C118.596 16.1818 117.95 15.6236 117.49 14.9034C117.029 14.179 116.799 13.3288 116.799 12.353V3.90909H119.963V12.0781C119.963 12.5298 120.061 12.9325 120.257 13.2862C120.458 13.6399 120.737 13.9169 121.095 14.1172C121.453 14.3175 121.868 14.4176 122.341 14.4176C122.814 14.4176 123.228 14.3175 123.581 14.1172C123.939 13.9169 124.218 13.6399 124.419 13.2862C124.619 12.9325 124.719 12.5298 124.719 12.0781V3.90909ZM129.86 17V3.90909H138.796V6.47869H133.024V9.16335H138.227V11.7393H133.024V17H129.86ZM140.389 17V3.90909H149.325V6.47869H143.553V9.16335H148.756V11.7393H143.553V17H140.389ZM7.5625 27.4787V24.9091H18.6271V27.4787H14.6577V38H11.5384V27.4787H7.5625ZM20.1724 38V24.9091H25.5801C26.5602 24.9091 27.4061 25.0859 28.1177 25.4396C28.8336 25.7891 29.3855 26.2919 29.7733 26.9482C30.161 27.6001 30.3549 28.3736 30.3549 29.2685C30.3549 30.1761 30.1568 30.9474 29.7605 31.5824C29.3642 32.2131 28.8017 32.6946 28.073 33.027C27.3443 33.3551 26.4814 33.5192 25.4842 33.5192H22.0645V31.0263H24.8961C25.3734 31.0263 25.7718 30.9645 26.0914 30.8409C26.4153 30.7131 26.6603 30.5213 26.8265 30.2656C26.9927 30.0057 27.0758 29.6733 27.0758 29.2685C27.0758 28.8636 26.9927 28.5291 26.8265 28.2649C26.6603 27.9964 26.4153 27.7962 26.0914 27.6641C25.7676 27.5277 25.3691 27.4595 24.8961 27.4595H23.3365V38H20.1724ZM27.5424 32.017L30.8024 38H27.3507L24.1547 32.017H27.5424ZM34.9221 38H31.5215L35.9384 24.9091H40.1507L44.5676 38H41.1671L38.0925 28.2074H37.9902L34.9221 38ZM34.4682 32.848H41.5762V35.2514H34.4682V32.848ZM50.8159 38H45.9771V24.9091H50.8095C52.1433 24.9091 53.2917 25.1712 54.2548 25.6953C55.2221 26.2152 55.9679 26.9652 56.492 27.9453C57.0162 28.9212 57.2782 30.0888 57.2782 31.4482C57.2782 32.8118 57.0162 33.9837 56.492 34.9638C55.9721 35.9439 55.2285 36.696 54.2612 37.2202C53.2939 37.7401 52.1454 38 50.8159 38ZM49.1412 35.3026H50.6944C51.4274 35.3026 52.0474 35.179 52.5545 34.9318C53.0659 34.6804 53.4515 34.2734 53.7115 33.7109C53.9757 33.1442 54.1078 32.3899 54.1078 31.4482C54.1078 30.5064 53.9757 29.7564 53.7115 29.1982C53.4473 28.6357 53.0574 28.2308 52.5417 27.9837C52.0304 27.7322 51.3997 27.6065 50.6497 27.6065H49.1412V35.3026ZM62.2896 24.9091V38H59.1255V24.9091H62.2896ZM75.4173 24.9091V38H72.7326L67.5231 30.4446H67.44V38H64.2759V24.9091H66.9989L72.1509 32.4517H72.2596V24.9091H75.4173ZM85.9977 29.1854C85.9252 28.9169 85.8187 28.6804 85.6781 28.4759C85.5375 28.267 85.3649 28.0902 85.1603 27.9453C84.9558 27.8004 84.7214 27.6918 84.4572 27.6193C84.193 27.5426 83.9032 27.5043 83.5879 27.5043C82.9529 27.5043 82.4032 27.6577 81.9387 27.9645C81.4785 28.2713 81.1227 28.7187 80.8713 29.3068C80.6199 29.8906 80.4941 30.6001 80.4941 31.4354C80.4941 32.2749 80.6156 32.9908 80.8585 33.5831C81.1014 34.1754 81.4529 34.6271 81.9132 34.9382C82.3734 35.2493 82.9316 35.4048 83.5879 35.4048C84.1674 35.4048 84.6575 35.3111 85.0581 35.1236C85.4629 34.9318 85.7697 34.6612 85.9785 34.3118C86.1873 33.9624 86.2917 33.5511 86.2917 33.0781L86.8798 33.1484H83.6966V30.8409H89.3407V32.5732C89.3407 33.745 89.0914 34.7486 88.5929 35.5838C88.0985 36.419 87.4167 37.0604 86.5474 37.5078C85.6824 37.9553 84.6873 38.179 83.5623 38.179C82.3137 38.179 81.2164 37.9084 80.2704 37.3672C79.3244 36.826 78.5872 36.0547 78.0588 35.0533C77.5304 34.0476 77.2662 32.8544 77.2662 31.4737C77.2662 30.3999 77.426 29.4474 77.7456 28.6165C78.0652 27.7812 78.5105 27.0739 79.0815 26.4943C79.6568 25.9148 80.3216 25.4759 81.0758 25.1776C81.8343 24.8793 82.6504 24.7301 83.524 24.7301C84.2825 24.7301 84.9877 24.8388 85.6397 25.0561C86.296 25.2734 86.8755 25.5803 87.3784 25.9766C87.8855 26.3729 88.2967 26.8438 88.612 27.3892C88.9274 27.9347 89.1234 28.5334 89.2001 29.1854H85.9977Z" fill="black"/>
</svg>
