<svg width="650" height="425" viewBox="0 0 650 425" fill="none" xmlns="http://www.w3.org/2000/svg">
<path fill-rule="evenodd" clip-rule="evenodd" d="M497.675 223.378L498.323 222.979L498.373 223.627L498.622 224.175L499.569 225.271L500.167 224.623L500.216 224.823L500.017 225.321L500.466 226.168L501.612 226.467L502.807 224.922L504.701 223.178L506.146 222.481L505.747 222.082L505.996 221.634L505.598 221.036L505.099 220.687L505.697 219.691L505.548 218.893L504.153 217.996L503.007 217.847L502.11 217.199H500.814L498.821 219.242L498.522 220.837L497.526 223.278L497.675 223.378ZM577.349 176.989L577.498 177.039L576.95 178.932L575.555 179.929L572.416 180.825L567.084 184.812L565.54 185.16L563.696 185.061L562.151 185.459L561.504 187.303L561.404 190.193L561.005 191.04L559.71 191.538L555.973 191.987L554.827 192.684L551.09 195.873L549.446 197.816L548.349 200.208L547.452 201.554L546.306 202.301L545.061 202.899L542.819 204.693L536.69 208.28L535.893 209.576L536.59 211.22L537.985 211.967L543.317 212.565L544.712 213.412L545.36 214.01L545.908 214.708L546.805 216.452L547.353 217L548.001 217.05L547.552 218.246L547.203 218.893L545.36 221.385L545.26 221.684L545.21 222.032L545.31 222.63V223.428L545.459 223.677L545.609 223.876L546.655 224.026L546.805 224.424L546.605 225.122L546.506 225.421L545.808 226.965L545.758 227.264V227.613L545.858 227.962L546.107 228.36L546.855 229.407L547.602 230.702L547.751 231.799L547.851 235.536L547.552 236.682L547.104 236.183L545.41 235.486L543.965 235.884L542.918 241.166L540.825 243.608L538.085 245.252L534.149 246.796L530.561 249.537L523.585 251.729L522.738 252.128L521.991 252.776L520.396 254.769L519.5 255.566L518.503 255.865L517.357 255.417L516.859 254.968L516.46 254.47L515.762 253.274L515.364 252.776L514.417 252.128L513.969 251.729L512.474 249.437L511.627 248.64L510.431 248.54L509.833 248.192L509.385 247.693L508.886 247.295L508.189 247.195L506.943 247.594L506.345 247.942L505.797 248.391L504.85 249.637L504.252 250.932L504.003 252.427V254.27L504.252 256.911L504.103 257.559L503.555 257.908L501.263 258.107L499.918 259.054V260.1L501.412 262.691L502.21 265.482L502.558 266.378L503.555 268.172L503.954 269.119L504.203 270.215L503.904 272.657L502.708 272.856L501.263 272.308L500.266 272.457L500.416 273.902L503.156 276.394V277.54L501.761 278.187L499.868 278.138L496.479 277.141L495.184 276.493L495.383 275.846L495.931 273.902L495.881 273.155L495.632 272.756L495.084 271.411L495.881 266.877L495.981 266.528L496.23 266.03L496.43 265.681L496.978 264.983L497.127 264.535L497.077 264.086L496.928 263.638L496.828 263.239L496.579 262.94L496.181 262.542L496.081 262.143L496.778 261.745L496.43 261.495L496.031 261.346L495.632 261.296L495.234 261.346L495.682 259.552L496.031 258.855L496.978 258.406V258.057L496.729 257.709L496.38 257.559L496.031 257.758L495.632 258.157L495.284 258.456L494.985 258.257V257.908L495.583 257.31L495.732 256.861L495.533 256.413L494.835 255.815L494.387 254.569L493.689 254.52L492.095 254.819L492.693 253.822L492.842 253.324L492.493 253.124L491.895 253.324L491.347 253.673L490.799 253.822L490.201 253.473L490.7 252.826L490.6 252.178L490.201 251.58L489.703 251.082L489.454 250.982L489.205 251.032H488.956L488.706 250.783L488.657 250.583L488.706 249.985L488.657 249.786L488.258 248.989L488.059 248.74L487.66 248.391L486.664 247.893L486.414 247.693L486.115 247.295L485.667 246.448L485.318 245.999L484.77 245.601L483.973 245.252L483.126 245.102L482.528 245.351L482.428 244.504L482.329 244.156H482.179L481.83 244.405L481.631 244.255L481.531 243.906L481.482 242.711L481.382 242.212L481.083 241.764L479.189 240.02L479.538 239.87L480.684 239.372L481.083 238.924L481.482 238.475L482.179 236.482L482.877 234.489L483.375 233.891L483.923 233.293L485.219 232.745L486.514 232.197L486.963 231.4L487.411 230.603L487.66 230.254L487.909 229.955L488.308 229.805L488.706 229.656L489.504 229.556L490.301 229.457L490.998 229.108L491.696 228.759L492.344 228.311L492.992 227.862L493.291 227.563L493.639 227.264L493.789 226.965L493.938 226.666L494.237 224.275L494.536 221.883V221.484V221.086L494.486 220.787L494.437 220.488L494.387 220.388L494.337 220.288L494.237 220.239L494.138 220.189L493.938 219.99L493.789 219.79L493.739 219.591L493.689 219.392L493.789 219.192L493.888 218.993L494.038 218.843L494.187 218.694L495.034 218.246L495.881 217.797L496.23 217.697L496.579 217.598L496.928 217.747L497.277 217.897L497.476 217.398L497.675 216.9L498.124 216.452L498.572 216.003L499.619 215.356L500.665 214.708L500.964 214.658L501.263 214.608L501.811 214.808L502.359 215.007L502.658 214.957L502.957 214.907L503.704 214.459L504.452 214.01L504.751 213.911L505.05 213.811L506.146 214.01L507.292 214.21L507.491 214.06L507.691 213.911V213.661V213.412L507.392 212.814L507.093 212.217L507.043 211.967L506.993 211.718L507.242 211.07L507.491 210.423L507.989 210.074L508.488 209.725L509.584 209.376L510.68 209.028L512.623 207.533L514.517 205.988L515.065 205.34L515.613 204.693L515.912 204.443L516.261 204.194L518.802 203.497L521.343 202.799L523.436 202.7L525.529 202.6L526.326 202.251L527.123 201.902L527.721 201.205L528.319 200.507L528.568 200.109L528.817 199.71L529.116 199.461L529.415 199.212L530.461 198.813L531.508 198.414L533.052 197.268L534.647 196.122L535.145 195.574L535.643 195.026L536.939 192.784L538.234 190.542L538.484 190.243L538.733 189.944L539.032 189.745L539.38 189.545L539.729 189.446L540.078 189.346L540.377 189.196L540.676 189.047L540.925 188.798L541.174 188.549L541.324 188.1L541.473 187.652L541.922 186.605L542.37 185.559L543.167 184.861L543.965 184.164L545.808 183.367L547.652 182.569L547.951 182.619L548.25 182.669L548.598 182.918L548.947 183.167L549.246 183.516L549.545 183.865L549.695 184.214L549.844 184.563L549.994 185.061L550.143 185.559L550.442 185.858L550.741 186.157L551.14 186.306L551.538 186.456L551.987 186.506L552.435 186.556L553.033 186.257L553.631 185.958L554.03 185.21L554.428 184.463L554.777 183.516L555.126 182.569L555.574 181.722L556.023 180.875L556.571 180.228L557.119 179.58L557.318 179.231L557.518 178.882L557.667 178.384L557.816 177.936L558.066 177.587L558.315 177.238H558.763H559.212L560.108 177.487L561.005 177.736L561.703 177.637L562.401 177.537L563.098 177.188L563.796 176.839L565.091 175.793L566.387 174.747L567.234 173.949L568.928 172.704L570.124 172.554L571.32 173.052L576.601 176.889L577.349 176.989Z" fill="#23B674" stroke="white" stroke-width="0.5" stroke-miterlimit="10"/>
<path fill-rule="evenodd" clip-rule="evenodd" d="M501.662 226.467L500.516 226.168L500.018 225.321L500.267 224.873L500.217 224.673L499.619 225.271L498.672 224.225L498.423 223.627L498.324 223.029L497.676 223.378L497.576 223.278L498.573 220.837L498.872 219.242L500.865 217.249L502.16 217.199L503.057 217.847L504.203 217.996L505.598 218.893L505.748 219.74L505.15 220.737L505.698 221.036L506.047 221.634L505.798 222.082L506.196 222.481L504.751 223.228L502.858 224.972L501.662 226.467Z" fill="#23B674" stroke="white" stroke-width="0.5" stroke-miterlimit="10"/>
<path d="M491.596 281.127L489.852 279.832L481.033 281.576L479.438 283.718L478.84 284.765L478.691 285.313L478.641 285.662V286.01L478.691 286.309L478.84 286.758L478.94 287.007V287.057L479.04 287.256L479.339 288.153L479.438 288.651L479.488 288.9L479.538 289.349L479.438 290.993L479.289 291.242H479.139L479.04 291.043L478.89 290.844L478.691 290.744L478.442 290.694L478.143 290.893L478.093 291.093L478.193 291.292L478.392 291.442L479.089 291.89L479.289 292.039L479.388 292.239L479.339 292.538L479.239 292.887L479.04 293.335V294.082L478.94 294.581L479.339 294.73L480.634 293.584L481.232 294.033L482.229 295.677L482.727 295.926L482.976 295.627L483.076 295.129V294.88V294.83L483.325 294.082L483.474 293.983L483.873 293.933L484.022 293.833L484.471 292.887V292.189L483.624 290.395L483.275 289.349L483.125 288.452L483.375 288.053L484.172 288.601L484.919 290.296L485.517 292.438L486.364 293.783L487.959 293.136L487.809 292.039L484.471 287.455L484.271 286.957L484.222 286.509L484.321 285.512L484.172 285.114L483.524 284.565L483.424 284.117L483.923 283.22L484.521 283.718L485.368 285.263L485.866 285.114L487.211 283.918L487.959 283.669L490.699 284.117L491.546 283.967L491.845 283.37L491.895 282.672L491.795 281.925L491.596 281.127ZM497.077 263.937L496.928 263.489L496.828 263.09L496.579 262.791L496.18 262.392L496.08 261.994L496.778 261.595L496.429 261.346L496.031 261.197L495.632 261.147L495.233 261.197L495.682 259.403L496.031 258.705L496.977 258.257V257.908L496.728 257.559L496.379 257.41L496.031 257.609L495.632 258.008L495.283 258.307L494.984 258.107V257.758L495.582 257.161L495.732 256.712L495.532 256.264L494.835 255.666L494.386 254.42L493.689 254.37L492.094 254.669L492.692 253.673L492.842 253.174L492.493 252.975L491.895 253.174L491.347 253.523L490.799 253.673L490.201 253.324L490.699 252.676L490.599 252.028L490.201 251.43L489.703 250.932L489.453 250.833L489.204 250.882H488.955L488.706 250.633L488.656 250.434L488.706 249.836L488.656 249.637L488.258 248.839L488.058 248.59L487.66 248.242L486.663 247.743L486.414 247.544L486.115 247.145L485.667 246.298L485.318 245.85L484.77 245.451L483.973 245.102L483.125 244.953L482.528 245.202L482.428 244.355L482.328 244.006H482.179L481.83 244.255L481.631 244.106L481.531 243.757L481.481 242.561L481.381 242.063L481.083 241.615L479.189 239.871L478.392 240.219L477.844 240.568L477.345 240.917L477.146 241.515L476.947 242.113L476.847 242.063L476.748 242.013L476.548 241.963L476.349 241.913L476.249 241.864L476.15 241.814V242.113V242.362L476.199 242.91L476.249 243.458V243.707L476.199 243.956L476.1 244.255L475.95 244.554L475.851 244.654L475.751 244.754L475.651 244.903L475.552 245.003L475.502 245.401L475.452 245.8L475.651 247.893L475.851 249.985L475.95 250.484L476.1 250.932L476.249 251.131L476.399 251.331L476.598 251.43L476.797 251.53L477.296 251.63L477.744 251.729V252.028V252.327L477.794 252.626L477.844 252.925L477.943 253.224L478.093 253.523L478.242 253.822L478.392 254.121L478.342 254.271L478.292 254.42L477.844 255.167L477.395 255.915L477.744 256.114L478.093 256.314L477.993 256.662L477.894 257.011L477.495 257.26L477.096 257.509L476.598 257.46L476.1 257.36L475.352 256.961L474.605 256.563L474.406 256.513L474.206 256.463L474.007 256.563L473.808 256.662L473.608 257.111L473.459 257.26L473.31 257.46L472.761 257.41L472.512 257.659L472.263 257.908L472.114 258.157L467.679 255.815L464.739 254.271L464.64 256.264L464.141 256.812L462.049 257.161L461.55 257.26L461.351 257.36L461.152 257.509L461.052 257.758L461.002 258.954L460.753 260.798L460.853 261.047L461.052 261.246L461.7 261.147L462.397 260.947L462.746 260.898L462.846 261.545L458.411 271.81L458.262 272.507L458.162 273.305L458.312 274.65L458.461 275.048L458.66 275.447L458.81 275.646L459.856 275.796L468.426 275.995L479.737 273.205H479.887L479.936 273.305L479.737 273.653L479.538 273.902L479.388 274.152L479.239 274.5L478.741 276.394L478.591 276.743L478.492 277.141L478.94 278.038L481.033 277.49L481.88 277.39L484.072 277.789L484.969 277.689L486.265 276.942L487.012 276.643L493.141 275.696L493.988 275.846L495.184 276.444L495.383 275.796L495.931 273.853L495.881 273.105L495.632 272.707L495.084 271.361L495.881 266.827L495.981 266.478L496.23 265.98L496.429 265.631L496.977 264.934L497.127 264.485L497.077 263.937Z" fill="#23B674" stroke="white" stroke-width="0.5" stroke-miterlimit="10"/>
<path fill-rule="evenodd" clip-rule="evenodd" d="M447.849 337.282H448.895L451.735 336.286H451.785L452.283 336.037L452.781 335.887H453.33L453.977 336.136L454.276 336.286L454.874 336.834L455.472 336.983L456.12 336.734L456.718 336.286L457.017 336.186H457.316H457.615L457.914 336.286H457.963L458.511 336.983L459.807 339.824L460.505 340.87L460.903 341.468L461.252 342.415V343.511L460.903 344.308L460.455 344.956L459.857 345.454L459.209 345.853L458.312 346.052L457.664 346.002L457.216 346.251L457.116 347.298L457.216 347.796L457.465 348.244L457.615 348.693L457.565 349.241L457.415 349.54L456.419 350.188L456.12 350.935L456.219 351.832L456.768 353.626L456.817 354.572L456.718 357.363L456.817 358.409L457.067 359.057L458.013 360.452L458.213 361.199L458.312 362.744L458.412 363.442L458.761 364.139L460.255 365.534L461.651 368.125L462.298 368.773L464.242 369.869L467.231 372.56L468.178 374.005L468.327 375.848L467.729 378.689L466.783 381.329L465.288 383.572L464.84 384.469V384.518L464.541 385.316L464.391 386.063L464.092 386.661L463.694 386.96L463.494 387.109L462.946 387.259L461.202 387.508L460.006 387.907L459.359 388.604L457.714 393.487L456.618 395.68L453.878 399.516L451.835 401.46L449.891 403.951L448.297 406.741L447.201 409.681L447.051 411.674L447.799 415.411L447.948 417.404L447.749 419.098L447.3 420.743L446.603 422.138L446.453 422.835L446.254 421.938L445.806 421.341L445.158 420.892L444.361 420.743L443.015 420.792L442.567 420.743L442.118 420.493L441.321 419.896L440.873 419.746L440.474 419.796L439.727 420.045L439.328 420.095L439.079 420.294L438.88 420.743L438.581 421.191L438.182 421.341L437.534 420.792L436.837 418.849L435.99 418.401L435.192 418.65L434.495 419.148L433.249 420.444L432.502 420.992L431.754 421.39L430.907 421.59L430.01 421.689L429.064 421.889L427.619 422.835L426.772 423.035L425.925 422.686L425.476 421.938L425.227 421.042L424.828 420.244L424.081 419.547L422.387 418.899L421.64 418.401L421.291 417.703L420.643 415.66L420.195 415.212L419.397 414.963L417.903 413.866L417.205 413.568L415.411 413.518L411.923 414.365L406.99 414.564L406.592 414.713L405.844 415.361L405.446 415.511L404.399 415.461L403.951 415.361L401.46 414.315L400.563 414.215L399.616 414.265L398.869 414.514L397.922 413.817L398.022 412.92L398.57 412.123L399.267 411.375L399.865 410.428L399.716 409.631L399.118 408.983L398.37 408.336L397.872 406.99L398.022 405.296L398.819 402.107L398.968 400.214L398.669 396.477L398.819 394.583L400.164 392.242L402.257 389.501L403.602 386.81L403.253 385.814L404.399 385.066L404.997 383.92L405.197 383.273L405.396 381.379L405.595 380.582L405.944 380.183L410.528 375.848L410.827 375.35L411.076 374.802L411.276 374.204L411.375 373.656L411.824 372.66L412.372 371.713L412.721 371.314L413.019 371.065L414.415 370.866L414.863 370.716L417.006 369.52L421.191 366.132L421.64 365.634L421.739 365.335L422.038 364.239L422.487 361.747L422.686 360.9L422.935 360.302L423.134 360.003L424.53 358.808L425.227 358.11L425.626 357.412L425.925 356.715L427.419 356.316L428.017 356.017L428.366 355.718L429.014 355.071L429.413 354.523L431.655 350.138L431.854 349.889L432.103 349.639L432.452 349.39L433 349.141L433.498 348.992H434.046L434.644 349.042L435.192 349.241L435.442 349.341L435.641 349.44L435.79 349.59L436.488 350.287L436.687 350.437L436.936 350.486L437.086 350.287L437.136 350.088V349.241L437.235 348.892L437.385 348.493L437.783 347.846L437.983 347.497L438.082 347.148V346.849V346.6L437.933 346.102L437.883 345.853L437.833 345.603L437.783 345.354V345.105L437.833 344.856L437.883 344.557L437.933 344.258L437.983 343.959V343.71L437.933 343.461L437.883 343.262L436.936 341.568L436.737 339.824L436.438 338.727V338.279L436.538 337.93L436.787 337.581L437.036 337.332L437.285 337.133L437.485 336.983L437.933 336.784L438.431 336.684L441.172 336.535L441.819 336.286L442.368 335.837L443.065 336.485L447.849 337.282Z" fill="#23B674" stroke="white" stroke-width="0.5" stroke-miterlimit="10"/>
<path fill-rule="evenodd" clip-rule="evenodd" d="M402.655 262.591L402.954 262.84L407.688 262.99L409.282 263.488L409.88 263.638L410.478 263.737L411.375 263.687L412.371 263.488L412.571 263.438L412.77 263.588L412.969 263.937L413.268 264.535L413.418 265.033L413.468 265.481V266.179L413.219 266.876L412.92 267.624L412.82 267.923L412.77 268.272V268.571L412.82 270.912L412.92 271.759L413.468 274.301L413.567 274.55L413.667 274.799L413.966 275.048L414.763 275.397L414.962 275.596L415.062 275.795L415.012 276.144L414.962 276.443L414.913 276.792L415.062 277.191L416.059 278.436V279.582L415.909 280.031L415.76 280.18L415.61 280.38L414.863 280.579L414.664 280.728L414.564 280.928V281.227L414.713 283.419L414.863 283.668L415.012 283.867L415.461 284.017H415.76L416.059 283.967L416.308 283.867L417.005 283.519L417.205 283.469H417.454L417.753 283.519L418.002 283.718L418.201 284.017L418.251 284.665L418.102 285.013V285.412L418.201 285.661L419.497 287.106L419.995 286.957L420.194 286.907L420.344 286.857L420.792 287.604L423.782 288.402L424.18 288.501L424.828 288.452L425.077 288.352H425.326L425.924 288.75L426.223 288.9L426.572 288.95L426.921 288.8L427.818 288.9L434.345 290.146L434.993 291.142L435.989 295.726L435.84 296.125L435.292 296.274L434.993 296.324L433.947 296.523L433.149 296.822L431.953 297.47L431.405 297.869L431.057 298.168L431.007 298.417L430.907 298.716V299.463V299.912L430.957 300.211L431.007 300.46L431.106 301.008V301.257V301.855L431.007 302.154L430.857 302.353L430.509 302.503L430.21 302.553L429.064 302.602L428.515 302.702L428.316 303.15L428.216 303.549L428.117 306.937L428.515 307.735L429.014 308.382L430.608 309.777L433.448 312.319L433.1 312.767L432.651 314.66L432.402 316.604L432.352 318.398L431.854 320.042L431.605 321.686L431.356 321.786L431.007 321.636L430.608 321.786L430.509 321.836L421.49 319.593L419.497 319.494V319.743L419.547 320.191V320.44L419.497 320.69L419.447 320.939L419.297 321.188L419.098 321.337L418.899 321.437L418.45 321.537L414.265 321.686L413.767 321.586L413.468 321.487L413.219 321.337L413.019 321.188L412.87 320.889L412.82 320.49L412.87 319.743L413.119 318.398L412.969 317.7L412.222 316.255L411.425 316.155L408.186 315.508L405.246 315.009H404.748L404.05 315.209L403.452 315.557L403.153 315.807L402.904 316.056L401.709 317.949L401.36 318.298L398.52 319.444H398.221L397.722 319.344L397.124 318.995L394.882 317.202L393.935 316.604L393.188 316.654L387.757 317.899L387.558 317.949L383.97 319.693L383.173 320.241L382.575 320.44H381.23L378.738 319.743L378.489 319.593L378.29 319.294L378.24 318.696L378.19 318.348V318.049L378.24 317.252V316.504L378.09 316.205L377.991 315.956L377.044 315.258L375.948 314.461L373.955 312.518L373.556 311.97L373.357 311.621L373.307 311.571L373.207 311.322L372.859 309.728L372.759 309.528L372.659 309.329L372.46 309.18L372.261 309.03L372.061 308.93L371.663 308.881L370.467 308.831L370.068 308.93L369.769 309.13L369.67 309.379V309.628V310.375V310.625L369.62 310.874L369.47 311.073L369.321 311.272L368.524 311.87L367.726 312.269L367.278 312.418L351.184 312.02L349.141 307.984L348.693 306.539L348.742 306.24L349.839 303.748L349.938 303.35L350.038 302.901V302.154L349.988 301.805L348.892 297.67L348.543 297.171L348.244 296.872L347.497 296.225L346.401 294.929L346.102 294.331L346.151 294.082L346.351 293.883L346.6 293.783L346.899 293.683L348.792 293.434L351.034 292.836L351.333 292.587L351.632 292.338L351.782 291.441L351.882 291.192L352.081 290.843L352.33 290.694L352.579 290.744L353.875 291.441L354.971 291.939L356.067 292.139L357.113 292.089L357.612 291.939L357.96 291.74L358.21 291.142L358.857 288.601L358.957 288.302L359.555 287.007L359.655 286.608L359.704 286.309L359.655 286.11L359.505 285.91L359.306 285.811L359.057 285.711L358.758 285.661L358.658 285.512V285.163L359.655 283.718L359.754 283.519L359.854 283.319L359.904 283.12L359.953 282.871L360.053 281.874V281.227V280.977L360.153 280.678L360.402 280.23L360.601 279.981L360.85 279.831L361.398 279.881L364.837 281.426L365.584 281.575L365.733 281.625L366.132 281.725L367.079 283.07L367.677 283.718L369.221 284.266L369.919 284.814L370.666 285.213L371.464 284.914L373.058 285.96L374.652 286.309L382.824 284.565L383.223 284.316L385.664 282.074L386.013 281.675L386.212 281.227V280.878L386.113 280.529L385.864 280.23L385.614 280.13L385.266 280.081H384.917L384.219 280.18H383.92L383.771 280.081L383.671 279.831L383.771 279.433L384.767 277.141L385.066 275.995L385.266 275.347L385.614 274.749L386.561 273.404L386.76 273.055V272.557L386.212 272.058L386.063 271.809L385.963 271.46L386.013 271.162L386.511 270.016L386.81 268.969L386.661 267.175L386.262 266.029V265.631L386.461 265.332L387.159 264.983L387.458 264.734L387.757 264.136V263.787L387.607 263.389L387.358 262.94L387.01 262.093V261.246L387.109 260.499L387.607 259.153L387.906 258.505L388.255 257.957L388.704 257.459L389.152 257.11L389.65 256.911L390.198 257.011L390.747 257.26L391.544 257.858L392.241 258.256L392.889 258.505L393.537 258.605L394.284 258.505L395.131 258.107L397.872 256.213L398.221 256.064L398.569 256.114L398.968 256.363L400.064 257.31L401.36 258.804L401.459 259.004L401.509 259.203L401.459 259.701L401.26 260.449V260.698V260.847L401.36 261.096L401.509 261.296L401.908 261.894L402.655 262.591Z" fill="#23B674" stroke="white" stroke-width="0.5" stroke-miterlimit="10"/>
<path fill-rule="evenodd" clip-rule="evenodd" d="M372.161 142.309L377.642 139.369L383.074 136.38L382.276 149.185L381.429 161.941L381.38 163.286L381.28 164.632L381.081 165.03L380.881 165.479L380.433 165.678L379.984 165.828L379.885 166.176L379.785 166.525L379.735 168.07L379.636 176.491L379.486 186.406L379.536 186.655L379.586 186.954L379.735 187.054L379.885 187.203H384.469L388.604 187.253H392.69H397.274H397.424H397.523H397.673H397.822H397.972L398.072 187.303L398.171 187.353L398.271 187.403L398.919 193.83L399.566 200.208L400.812 206.437L402.008 212.665L403.602 220.089L405.247 227.464L406.094 228.51L406.891 229.556L407.838 229.805V229.955L403.204 231.848L402.905 232.646L402.456 233.243L403.054 240.219L403.154 240.518L403.254 240.718L403.453 241.166L403.752 241.515L404.001 241.714L404.499 242.013L407.937 242.91L408.137 243.109L408.286 243.259L408.336 243.508V243.857V244.355L408.236 245.252V246.099L408.336 246.348L408.685 247.195L409.482 248.69L408.436 251.331L402.656 262.592L401.908 261.894L401.51 261.296L401.36 261.097L401.26 260.848V260.698V260.449L401.46 259.702L401.51 259.203L401.46 259.004L401.36 258.805L400.065 257.31L398.968 256.363L398.57 256.114L398.221 256.064L397.872 256.214L395.132 258.107L394.285 258.506L393.537 258.605L392.89 258.506L392.242 258.257L391.544 257.858L390.747 257.26L390.199 257.011L389.651 256.911L389.152 257.111L388.704 257.459L388.256 257.958L387.907 258.506L387.608 259.154L387.11 260.499L387.01 261.246V262.093L387.359 262.94L387.608 263.389L387.757 263.787V264.136L387.458 264.734L387.159 264.983L386.462 265.332L386.263 265.631V266.03L386.661 267.176L386.811 268.969L386.512 270.016L386.013 271.162L385.964 271.461L386.063 271.81L386.213 272.059L386.761 272.557V273.055L386.561 273.404L385.615 274.749L385.266 275.347L385.067 275.995L384.768 277.141L383.771 279.433L383.672 279.832L383.771 280.081L383.921 280.18H384.22L384.917 280.081H385.266L385.615 280.131L385.864 280.23L386.113 280.529L386.213 280.878V281.227L386.013 281.675L385.665 282.074L383.223 284.316L382.824 284.565L374.653 286.309L373.058 285.96L371.464 284.914L370.667 285.213L369.919 284.814L369.222 284.266L367.677 283.718L367.079 283.07L366.132 281.725L365.734 281.625L365.584 281.576L364.837 281.426L361.399 279.882L360.851 279.832L360.602 279.981L360.402 280.23L360.153 280.679L360.054 280.978V281.227V281.875L359.954 282.871L359.904 283.12L359.854 283.32L359.755 283.519L359.655 283.718L358.658 285.163V285.512L358.758 285.661L359.057 285.711L359.306 285.811L359.505 285.911L359.655 286.11L359.705 286.309L359.655 286.608L359.555 287.007L358.957 288.302L358.858 288.601L358.21 291.142L357.961 291.74L357.612 291.94L357.114 292.089L356.067 292.139L354.971 291.94L353.875 291.441L352.579 290.744L352.33 290.694L352.081 290.843L351.882 291.192L351.782 291.441L351.633 292.338L351.334 292.587L351.035 292.837L348.793 293.434L346.899 293.684L346.6 293.783L346.351 293.883L346.152 294.082L346.102 294.331L346.401 294.929L347.497 296.225L348.245 296.873L348.544 297.172L348.892 297.67L349.988 301.805L350.038 302.154V302.902L349.939 303.35L349.839 303.749L348.743 306.24L348.693 306.539L349.141 307.984L351.184 312.02L350.437 312.468L346.7 313.365L346.65 312.02L346.55 311.671L346.202 310.376L345.952 309.828L345.803 309.529L345.205 308.731L344.508 308.034L343.959 307.735L343.063 307.386L342.315 306.987L342.016 305.941L341.917 304.895L341.867 304.097L341.568 303.001L340.87 301.855L336.386 299.713L336.037 299.165L335.489 299.065L333.845 299.812L333.097 299.763L332.599 299.513L332.449 299.065L332.25 298.616L332.2 298.367L330.406 297.371L329.36 296.623L326.62 292.837L326.072 291.641L326.57 290.345L327.218 289L328.413 287.455L328.563 287.256L328.862 286.957L329.161 286.309L331.453 285.213L332.15 284.765L332.798 284.117L333.296 283.369L335.09 279.732L335.688 279.234H336.037L336.286 279.034L336.535 278.835L336.784 278.785L337.93 278.636L337.98 278.486L337.831 278.138L337.233 277.44L336.137 276.294L335.688 275.596L335.638 275.397L335.688 275.248L335.838 275.198L336.186 274.899L336.784 273.005L335.887 272.059L335.688 271.112V270.664L335.738 270.215L335.838 269.767L336.186 269.318L336.834 268.969L338.13 268.77L338.977 268.72L339.724 268.969L340.472 269.617L341.269 270.165L342.166 270.464H346.6L346.999 269.667L347.846 266.927L348.544 266.279L349.341 265.332L350.387 262.143L350.437 261.545L350.885 260.897L351.135 260.648L351.533 260.549H351.882L353.875 260.997H354.373V260.449L354.274 259.851L354.174 258.855V257.609L354.224 256.313L354.423 255.018L355.32 251.929L353.476 252.477L342.066 251.679L338.329 250.783L337.033 250.035L335.738 248.939L335.19 247.444L334.841 246.149L334.044 241.116L333.745 239.92L333.247 239.87L332.051 241.565L330.855 242.113L329.211 242.461L324.228 242.661L322.932 243.159L322.235 243.558L321.089 247.992L320.242 248.789L309.977 247.594L308.383 246.996L307.885 245.9L307.835 242.611L307.636 240.917L306.838 239.771L306.091 239.173L305.393 238.974L304.646 239.223L303.899 239.821L303.201 240.817L300.959 245.501L298.268 249.537L293.784 251.131L293.833 250.135L292.488 248.74L291.591 247.245L280.281 240.219L274.451 236.931L269.468 235.037L266.13 234.24L265.233 233.742L260.15 224.723L253.822 217.199L252.876 215.555L251.68 212.765L248.491 212.715L235.137 217.797L218.944 195.475L218.645 194.777V194.129L219.442 193.432L227.564 188.848L228.012 188.349L228.162 188.1L227.414 186.506L223.129 178.583L223.029 178.085V177.437L223.876 166.874L225.919 161.991L235.586 143.356L245.9 123.923L246.099 123.325V122.827L245.501 122.478L235.337 119.638L233.443 117.894L229.407 110.968L232.496 110.42L233.842 110.171L235.187 109.922L236.483 109.673L237.828 109.423L239.97 109.025L242.063 108.626L244.206 108.228L246.348 107.829L249.786 107.281L253.224 106.733L256.663 106.185L260.101 105.587L263.588 105.039L267.027 104.491L270.465 103.942L273.903 103.345L279.633 103.893L285.413 104.391L291.143 104.939L296.873 105.437L302.105 105.936L307.337 106.384L312.568 106.882L317.8 107.38L319.893 107.53L320.541 107.38L321.188 107.181L324.975 105.039L328.613 103.046L332.4 100.953L336.037 98.9099L336.734 98.6608L337.432 98.3618L338.03 98.4615L338.628 98.5611L339.226 99.159L339.874 99.7072L343.959 105.039L347.995 110.32L349.889 112.313L351.782 114.306L355.669 116.748L359.555 119.189L360.303 119.837L361.05 120.535L364.239 127.162L366.282 131.397L369.122 137.227L371.514 142.21L371.863 142.259L372.161 142.309Z" fill="#23B674" stroke="white" stroke-width="0.5" stroke-miterlimit="10"/>
<path fill-rule="evenodd" clip-rule="evenodd" d="M554.529 240.718L554.479 239.871L553.981 238.675L553.482 237.828L552.585 237.031L551.539 236.582L550.941 236.732L551.389 237.778L551.439 237.828L552.087 238.476L553.183 239.971L553.831 240.569L554.529 240.718ZM593.643 216.253L593.842 215.854L593.992 215.306L594.191 215.007L594.59 215.157L594.789 215.954L595.138 216.103L595.437 215.854L595.486 214.808L595.736 214.609L596.034 214.758L596.333 215.057L599.871 220.339L600.469 221.834L600.668 223.478L600.569 225.62L600.768 227.713L601.765 228.211L604.754 227.713L605.651 228.461L606.249 229.308L606.897 229.656L608.043 228.959L608.84 228.211L609.737 227.614L610.634 227.464L611.581 228.012L612.029 228.959L612.228 230.304L612.278 231.749L612.627 234.34V235.337L612.378 236.234L611.879 237.429L613.026 237.081L612.826 237.878L611.929 242.014L611.63 242.263L611.481 242.362L611.232 242.462L610.684 242.562L608.441 242.661L607.844 242.761L607.196 242.661L602.263 241.465L601.216 241.565L600.32 241.515H599.473L599.024 241.665L597.43 242.412L596.184 241.764L592.297 242.811L591.799 243.558L591.301 243.907L590.055 245.053L589.906 245.352L589.956 245.701L590.404 246.299L591.002 247.544L589.906 248.641L586.767 249.687L583.428 251.53L582.681 252.178L581.485 254.022L579.043 256.364L578.196 256.513L577.648 256.364L575.954 255.417L575.207 254.769L574.808 254.62L574.111 254.47L573.712 254.321L573.413 254.171L572.317 253.025L572.018 252.876L570.523 252.726L570.324 252.527L572.715 249.238L568.43 249.488L567.235 249.338L566.985 249.139L566.686 248.939L566.088 248.69H565.341L563.547 250.285L563.049 250.335L562.003 250.235L561.504 250.285L560.857 250.584L560.458 251.032L560.109 251.53L559.711 251.979L558.764 252.577L558.864 252.178L559.212 250.484L557.767 249.637L554.329 248.84L553.731 248.092L553.632 247.245L553.981 246.598L554.728 246.498L556.023 247.644L556.771 247.943L556.87 247.046L556.572 246.598L549.695 238.775L548.5 237.728L548.4 237.579L548.3 237.429L547.553 236.632L547.852 235.486L547.752 231.749L547.603 230.653L546.855 229.357L546.108 228.311L545.859 227.912L545.759 227.564V227.215L545.809 226.916L546.506 225.371L546.606 225.072L546.805 224.375L546.656 223.976L545.61 223.827L545.46 223.627L545.311 223.378V222.581L545.211 221.983L545.261 221.634L545.36 221.335L547.204 218.844L547.553 218.196L548.001 217H548.25L549.546 216.502L554.18 213.811L555.475 213.612L556.173 214.061L556.821 214.908L558.913 218.595L559.262 219.641L559.312 220.688L558.764 223.777L558.814 224.674L559.262 225.371L559.86 225.272L560.607 224.923L561.455 224.823L562.202 225.122L562.9 225.62L563.497 226.268L563.996 226.966L564.693 227.614L565.441 227.713L567.085 227.464L568.879 227.813L569.726 228.211L570.523 228.809L571.221 229.208L572.616 229.407L573.214 229.906L574.16 231.5L574.758 231.899L575.107 230.952L575.008 229.906L574.808 229.009L574.908 228.311L575.705 227.863L576.602 227.912L577.05 228.51L577.499 230.404L577.848 231.101L578.346 231.6L578.844 231.55L579.243 230.603L580.19 229.407L582.781 231.65L583.628 230.902L583.827 229.158L583.478 220.488L583.727 219.841L584.225 219.99L586.019 221.684L587.664 222.382L588.959 222.133L590.005 221.036L591.251 218.296L591.799 216.602L591.949 215.605L591.799 214.659L590.753 213.263L590.354 212.416L591.102 210.473L591.55 209.925L592.397 209.576L593.244 209.726L593.742 210.373L593.942 211.37V212.416L593.244 215.256L593.294 215.854L593.643 216.253Z" fill="#23B674" stroke="white" stroke-width="0.5" stroke-miterlimit="10"/>
<path fill-rule="evenodd" clip-rule="evenodd" d="M202.45 223.129L203.397 223.029L204.045 222.531L205.539 219.641L206.187 218.893L206.735 218.445L207.433 218.096L208.18 217.897L210.223 217.947L217.448 219.691L219.242 220.438L220.936 221.484L223.178 223.178L229.606 230.304L234.09 237.529L234.29 237.678L234.788 237.977L235.386 238.176L237.379 237.529L243.508 244.455L244.753 246.348L245.202 248.042L243.258 252.277L235.386 262.093L235.336 261.994L234.987 260.848L234.788 260.399L233.393 258.506L232.894 257.459L232.097 254.42L231.649 253.722L230.403 252.327L230.004 251.679L229.705 250.633L229.257 248.341L228.111 244.156L227.663 243.159L227.961 242.81L227.762 242.063L227.663 238.525L227.513 237.529L227.214 236.681L224.474 231.998L223.726 231.201L215.256 224.972L212.017 223.527L208.33 222.58L206.934 222.431L206.087 222.83L205.589 223.876L205.191 225.67L204.294 226.168L203.546 227.762L202.5 228.908L201.204 229.606L199.759 229.656L198.215 229.008L194.328 226.218H193.681L191.438 226.616L191.239 226.168L191.139 225.72L190.99 225.57L190.741 225.969L190.242 226.816L189.993 227.115L189.744 227.314L187.95 225.421L185.31 224.773L177.736 225.271L173.152 226.766L170.91 226.816L169.564 226.467L168.518 225.67L166.425 223.627L164.183 221.933L160.546 220.039L156.41 217.947L155.364 216.85L155.065 215.704L155.563 211.619L155.862 210.771L156.36 210.074L157.008 209.526L158.553 208.729L159.051 208.081L158.702 207.134L156.211 203.596L155.065 201.354L154.716 199.56L155.663 198.165L156.709 197.468L157.905 197.368L159.3 197.816L160.595 198.614L161.343 198.962L161.941 198.863L162.389 198.215L162.339 197.517L161.941 196.82L161.492 196.222L160.944 195.774L159.15 194.727L158.602 194.129L158.154 193.481V193.432L158.602 192.983L159.051 191.837L159.001 191.289L158.553 190.392L158.503 190.193L158.403 189.944L158.553 189.744L158.802 189.495L159.4 189.396L160.396 189.346L161.193 189.047L163.137 187.652L163.834 187.054L164.033 186.904L164.681 186.805L165.478 187.403L165.877 187.652L167.77 188.15L169.614 188.349L170.162 188.748L170.312 189.794L170.262 192.086L170.561 192.884L171.607 194.478L172.006 195.774L173.052 197.667L173.6 198.365L174.248 198.813L175.045 199.012L176.839 199.062L177.437 199.411L177.885 200.208L178.533 202.201L179.48 203.945L180.726 205.34L189.645 213.412L190.591 213.612L191.09 213.861L191.538 214.11L192.883 215.654L194.029 216.701L194.926 217.05L197.069 217.498L197.816 217.897L199.809 220.139L200.258 220.886L200.706 222.331L201.304 222.63L201.553 222.78L202.45 223.129Z" fill="#23B674" stroke="white" stroke-width="0.5" stroke-miterlimit="10"/>
<path fill-rule="evenodd" clip-rule="evenodd" d="M381.23 320.441H382.575L383.173 320.241L383.97 319.693L387.558 317.949L387.757 317.9L393.188 316.654L393.936 316.604L394.882 317.202L397.124 318.996L397.722 319.345L398.221 319.444H398.52L401.36 318.298L401.709 317.949L402.904 316.056L403.153 315.807L403.452 315.558L404.05 315.209L404.748 315.01H405.246L408.186 315.508L411.425 316.156L412.222 316.255L412.969 317.7L413.119 318.398L412.87 319.743L412.82 320.491L412.87 320.889L413.019 321.188L413.219 321.338L413.468 321.487L413.767 321.587L414.265 321.686L418.45 321.537L418.899 321.437L419.098 321.338L419.297 321.188L419.447 320.939L419.497 320.69L419.547 320.441V320.192L419.497 319.743V319.494L421.49 319.594L430.509 321.836L430.259 322.135L430.06 322.334L429.96 322.683L429.911 323.381L430.21 325.274V325.324L431.256 326.271L435.84 327.915L438.879 328.014L440.374 328.662L440.524 328.812L440.823 329.36L441.072 329.609L441.321 329.659L441.919 329.509L442.168 329.609L442.517 330.157L442.616 330.855L442.168 334.592L442.367 335.787V335.837L441.819 336.286L441.172 336.535L438.431 336.684L437.933 336.784L437.484 336.983L437.285 337.133L437.036 337.332L436.787 337.581L436.538 337.93L436.438 338.279V338.727L436.737 339.823L436.936 341.567L437.883 343.261L437.933 343.461L437.983 343.71V343.959L437.933 344.258L437.883 344.557L437.833 344.856L437.783 345.105V345.354L437.833 345.603L437.883 345.853L437.933 346.102L438.082 346.6V346.849V347.148L437.983 347.497L437.783 347.846L437.385 348.493L437.235 348.892L437.136 349.241V350.088L437.086 350.287L436.936 350.486L436.687 350.437L436.488 350.287L435.79 349.59L435.641 349.44L435.441 349.34L435.192 349.241L434.644 349.041L434.046 348.992H433.498L433 349.141L432.452 349.39L432.103 349.639L431.854 349.889L431.655 350.138L429.412 354.522L429.014 355.071L428.366 355.718L428.017 356.017L427.419 356.316L425.924 356.715L425.625 357.412L425.227 358.11L424.529 358.808L423.134 360.003L422.935 360.302L422.686 360.9L422.486 361.747L422.038 364.239L421.739 365.335L421.639 365.634L421.191 366.132L417.005 369.52L414.863 370.716L414.414 370.866L413.019 371.065L412.72 371.314L412.371 371.713L411.823 372.659L411.375 373.656L411.275 374.204L411.076 374.802L410.827 375.35L410.528 375.848L405.944 380.183L405.595 380.582L405.396 381.379L405.196 383.273L404.997 383.92L404.399 385.066L403.253 385.814L402.805 384.518V384.468L401.509 383.572L400.164 382.924L398.719 382.525H395.829L394.683 382.176L390.846 380.333L389.102 378.14L387.956 377.094L386.76 376.496L384.319 375.799L381.977 373.905L380.881 373.357L378.39 372.958L374.603 371.115L373.307 371.015L372.261 371.414L370.417 372.909L369.47 373.457L366.879 373.656L364.338 372.809L358.11 368.623L354.373 366.082L349.291 362.594L345.703 359.356L340.67 354.772L338.129 353.177L332.598 351.184L327.765 348.394L319.793 341.667L317.65 338.877L318.248 338.279L321.686 334.492L323.48 333.246L328.662 331.154L330.655 330.456L336.933 328.164L337.183 328.014L337.332 327.815L337.432 327.417L337.382 327.118L337.282 326.918L337.183 326.719L335.987 325.224L335.688 324.826L335.538 324.427L335.439 324.178V323.929V323.68V323.43L335.688 323.032L336.037 322.533L338.927 319.394L339.126 319.195L339.425 319.095L339.873 318.996L340.222 319.046L340.67 318.896L341.169 318.498L344.956 314.711L346.7 313.365L350.437 312.468L351.184 312.02L367.278 312.419L367.727 312.269L368.524 311.871L369.321 311.273L369.47 311.073L369.62 310.874L369.67 310.625V310.376V309.628V309.379L369.769 309.13L370.068 308.931L370.467 308.831L371.663 308.881L372.061 308.931L372.261 309.03L372.46 309.18L372.659 309.329L372.759 309.529L372.859 309.728L373.207 311.322L373.307 311.572L373.357 311.621L373.556 311.97L373.955 312.518L375.948 314.462L377.044 315.259L377.991 315.956L378.091 316.205L378.24 316.504V317.252L378.19 318.049V318.348L378.24 318.697L378.29 319.295L378.489 319.594L378.738 319.743L381.23 320.441Z" fill="#23B674" stroke="white" stroke-width="0.5" stroke-miterlimit="10"/>
<path fill-rule="evenodd" clip-rule="evenodd" d="M117.197 13.6062L119.638 15.3004L126.165 19.6851L133.191 24.4187L140.615 29.4014L148.189 34.4837L155.763 39.5661L163.087 44.4491L169.963 49.083L176.291 53.3183L181.772 56.9557L186.307 59.9453L189.595 62.1875L191.937 63.7322L192.934 64.8284L193.631 66.2235L193.83 67.519L194.08 70.2595L194.478 71.4554L196.671 75.0429L201.006 79.7266L203.098 81.9689L205.141 84.2111L207.782 87.2505L209.974 89.7917L212.117 92.2831L214.309 94.8242L216.452 97.3156L218.594 99.7571L220.687 102.199L222.83 104.64L224.972 107.082L227.763 110.32L228.56 110.669L229.307 111.018L229.407 110.968L233.443 117.894L235.336 119.638L245.501 122.478L246.099 122.827V123.325L245.9 123.923L235.585 143.356L225.919 161.991L223.876 166.874L223.029 177.437V178.085L223.129 178.583L227.414 186.506L228.161 188.1L228.012 188.349L227.563 188.848L219.442 193.432L218.644 194.129V194.777L218.943 195.475L235.137 217.797L245.85 232.745L245.9 233.393L237.379 237.529L235.386 238.176L234.788 237.977L234.29 237.678L234.091 237.529L229.606 230.304L223.179 223.179L220.936 221.484L219.242 220.438L217.448 219.691L210.224 217.947L208.181 217.897L207.433 218.096L206.736 218.445L206.188 218.893L205.54 219.641L204.045 222.531L203.397 223.029L202.451 223.129L201.554 222.78L201.305 222.63L200.707 222.331L200.258 220.886L199.81 220.139L197.817 217.897L197.069 217.498L194.927 217.05L194.03 216.701L192.884 215.655L191.538 214.11L191.09 213.861L190.592 213.612L189.645 213.412L180.726 205.34L179.48 203.945L178.534 202.201L177.886 200.208L177.437 199.411L176.839 199.062L175.046 199.012L174.248 198.813L173.601 198.365L173.053 197.667L172.006 195.774L171.608 194.478L170.561 192.884L170.262 192.087L170.312 189.794L170.163 188.748L169.615 188.349L167.771 188.15L165.878 187.652L165.479 187.403L164.682 186.805L164.034 186.905L163.835 187.054L163.137 187.652L161.194 189.047L160.397 189.346L159.4 189.396L158.802 189.495L158.553 189.745L158.403 189.944L158.503 190.193L158.553 190.392L159.001 191.289L159.051 191.837L158.603 192.983L158.154 193.432V193.482L157.307 192.136L156.211 191.19L152.225 189.645L150.282 189.745L149.734 189.495L149.335 188.748L149.385 188.1L149.783 187.602L150.481 187.403H150.531L152.723 186.556L152.624 184.513L151.876 182.021L152.225 179.68L152.873 179.231L153.62 178.882L154.268 178.434L154.367 177.587L153.919 176.939L153.022 176.391L151.378 175.743L150.033 174.547L148.986 172.903L147.79 171.608L146.096 171.408L144.402 171.608L141.114 171.309L133.141 172.554L131.198 172.505L130.251 172.106L128.756 170.511L127.86 170.163L125.966 169.963L124.87 169.365L124.372 168.469L123.923 164.582L123.574 163.585L123.026 162.738L120.635 160.197L119.738 159.649L118.741 159.749L117.645 160.297L116.599 160.596L115.453 160.646L113.808 160.347L111.118 159.151L108.626 156.809L100.505 147.192L99.5578 146.644L98.8602 147.84L98.3619 152.175L97.5647 153.67L95.9702 154.118L94.0768 154.019L92.1336 153.57L88.0478 151.926L87.1509 151.876L86.4035 152.075L84.4104 153.321L83.0152 153.969L82.3177 154.467L81.9689 155.215L82.1682 156.211L82.8657 156.859L87.5993 159.101L88.9446 160.098L90.0907 161.891L91.0872 164.283L93.9273 168.867L95.4221 170.661L95.8706 171.06L96.0201 171.508L95.9204 171.956L95.4221 172.206L92.9806 172.604L92.3827 172.405L91.9343 171.757V170.96L92.1336 170.063L92.2831 169.166L91.8844 167.322L90.9377 166.027L89.6422 165.08L85.9052 163.287L85.0581 163.137L84.4104 163.287L83.0152 163.835L82.4173 163.934L81.8194 163.536L80.9225 162.29L80.4242 161.742L79.6768 161.493L78.8298 161.443L77.9827 161.592L77.2851 161.941L76.8865 162.439L76.5876 163.037L75.591 164.134L74.5945 164.582L73.9467 165.13L74.146 166.525L74.9433 168.269L75.0429 169.017L74.6941 170.212L73.1495 173.75L72.6014 174.398L71.1564 174.846L70.8574 175.494L71.1564 176.291L71.6049 176.839L71.7543 177.338L70.9073 177.936L70.2097 178.085L67.6187 177.985L66.8713 178.185L64.7785 179.181L63.0346 179.53L57.7031 178.633L54.0657 178.783L50.528 180.477L47.4886 183.516L45.4457 187.403L44.0007 189.495L42.4561 190.691L38.8187 192.385L37.7723 193.88V195.824L38.5695 199.81L38.5197 201.703L38.2208 203.347L38.1709 204.942L38.8187 206.736L39.6657 208.131L40.1142 209.476L40.2637 210.921L40.2138 212.665L40.4132 214.06L40.9114 215.455L41.609 216.701L42.4561 217.648L43.0042 218.046L43.5522 218.345L45.4457 218.794L45.7446 218.993L45.645 219.342L45.2464 219.84L44.4491 220.438L42.6554 221.335L41.908 222.182L40.7619 224.325L40.0145 224.723L35.4305 223.776L31.8429 223.029L23.4221 222.531L22.0768 222.481L14.254 222.033L7.22837 221.684L1.09965 221.335V209.775V198.215V186.556V174.896L1.04983 163.187V151.428V139.619V127.76V115.851V103.943V91.9343V79.926V67.818L1 55.71V43.5523V31.3446V31.2948V31.245H1.04983V31.1952H1.09965L4.63737 30.0491L8.17508 28.9031L11.7128 27.7571L15.2505 26.6111L18.7882 25.4651L22.326 24.319L25.8637 23.2228L28.6042 22.326L29.4014 22.0768L32.9391 20.9308L36.4768 19.7848L40.0145 18.6388L43.5522 17.4927L47.09 16.3467L50.6277 15.2007L54.1654 14.0547L57.7031 12.9585L62.4367 11.4637L67.1204 10.0187L71.854 8.57371L76.5876 7.12873L78.7301 6.48097L80.9225 5.83322L83.1149 5.18548L85.3073 4.53772L87.5495 3.88997L89.8415 3.1924L92.1336 2.54464L94.3758 1.89689L97.4152 1L98.3121 1.09966L99.3585 1.5481L102.248 3.49135L103.096 4.08928L105.437 5.68375L109.075 8.12527L113.908 11.4139L117.197 13.6062Z" fill="#23B674" stroke="white" stroke-width="0.5" stroke-miterlimit="10"/>
<path fill-rule="evenodd" clip-rule="evenodd" d="M456.02 235.336L456.219 235.137L456.468 234.937L456.718 234.838L456.967 234.738H457.166L457.415 234.788L457.615 235.037L457.814 235.336L458.063 234.788L458.362 234.19L458.761 234.14H459.159L459.209 234.638L459.309 235.187V235.236V235.286L459.259 235.535L459.209 235.735L459.408 235.834L459.558 235.884L459.608 235.934L459.657 235.984L459.259 236.283L458.81 236.632L458.661 236.681L458.462 236.781L458.661 236.881L458.81 236.931L458.86 237.08L458.96 237.18L459.109 237.479L459.259 237.778V238.475V239.173L459.109 240.02L458.91 240.867L458.611 241.714L458.362 242.511L458.063 243.159L457.764 243.807L457.565 244.155L457.365 244.454L457.066 244.753L456.767 245.102L456.468 245.351L456.17 245.6L455.522 245.899L454.824 246.198L454.675 246.348L454.475 246.497L454.426 246.697L454.376 246.896L454.525 246.996L454.625 247.045L455.372 247.245L456.12 247.394L456.718 247.743L457.266 248.042L459.01 249.736L460.704 251.48L461.999 252.477L463.245 253.473L464.79 254.27L464.69 256.263L464.192 256.811L462.099 257.16L461.601 257.31L461.401 257.409L461.252 257.509L461.152 257.808L461.102 258.954L460.853 260.798L460.953 261.047L461.152 261.246L461.75 261.196L462.448 260.947H462.797L462.896 261.545L458.462 271.809L458.312 272.507L458.163 273.254L458.362 274.65L458.511 275.048L458.711 275.397L458.86 275.596L459.907 275.746L468.477 275.945L479.788 273.155H479.937L479.987 273.254L479.788 273.603L479.588 273.852L479.439 274.101L479.289 274.45L478.791 276.344L478.642 276.692L478.492 277.141L478.94 277.988L478.99 278.038L477.446 278.436L476.648 278.985L477.645 280.081L479.289 281.127L480.635 281.625L480.983 281.576L479.389 283.718L478.791 284.764L478.642 285.313L478.592 285.711L478.642 286.01L478.691 286.309L478.841 286.758L478.94 287.007L478.99 287.056L479.04 287.256L479.339 288.153L479.489 288.601L479.538 288.9V289.349L479.439 290.943L479.289 291.242H479.19L479.04 291.043L478.891 290.843L478.691 290.744L478.492 290.694L478.143 290.893V291.092L478.193 291.292L478.392 291.441L479.04 291.89L479.239 292.039L479.339 292.238L479.289 292.537L479.19 292.886L478.99 293.285V294.032L478.891 294.58L478.791 294.531L478.343 294.481L477.944 295.527L477.595 303.45L477.396 304.645L476.848 305.592L475.951 306.539L474.356 307.585L473.858 308.333L473.958 308.632L474.257 309.229V309.279L473.509 309.578L471.167 310.226L469.324 310.376L467.48 310.276L464.391 309.13L458.711 308.98L445.855 305.642L444.062 305.592L442.666 306.041L439.129 308.582L436.139 309.03L435.392 309.778L435.641 311.92L435.541 312.119L435.342 312.269L435.192 312.319L434.993 312.369L434.046 312.269L433.448 312.319L430.608 309.778L429.014 308.382L428.516 307.735L428.117 306.937L428.217 303.549L428.316 303.151L428.516 302.702L429.064 302.602L430.21 302.553L430.509 302.503L430.857 302.353L431.007 302.154L431.107 301.855V301.257V301.008L431.007 300.46L430.957 300.211L430.907 299.912V299.463V298.716L431.007 298.417L431.057 298.168L431.406 297.869L431.954 297.47L433.149 296.823L433.947 296.524L434.993 296.324L435.292 296.274L435.84 296.125L435.99 295.726L434.993 291.142L434.345 290.146L427.818 288.9L426.921 288.8L426.572 288.95L426.224 288.9L425.925 288.751L425.327 288.352H425.077L424.828 288.452L424.181 288.501L423.782 288.402L420.792 287.605L420.344 286.857L420.194 286.907L419.995 286.957L419.497 287.106L418.201 285.661L418.102 285.412V285.014L418.251 284.665L418.201 284.017L418.002 283.718L417.753 283.519L417.454 283.469H417.205L417.006 283.519L416.308 283.868L416.059 283.967L415.76 284.017H415.461L415.012 283.868L414.863 283.668L414.713 283.419L414.564 281.227V280.928L414.664 280.728L414.863 280.579L415.61 280.38L415.76 280.18L415.909 280.031L416.059 279.582V278.436L415.062 277.191L414.913 276.792L414.963 276.443L415.012 276.144L415.062 275.796L414.963 275.596L414.763 275.397L413.966 275.048L413.667 274.799L413.567 274.55L413.468 274.301L412.92 271.76L412.82 270.913L412.77 268.571V268.272L412.82 267.923L412.92 267.624L413.219 266.877L413.468 266.179V265.481L413.418 265.033L413.269 264.535L412.97 263.937L412.77 263.588L412.571 263.438L412.372 263.488L411.375 263.688L410.478 263.737L409.88 263.638L409.282 263.488L407.688 262.99L402.954 262.841L402.655 262.591L408.435 251.331L409.482 248.69L408.684 247.195L408.336 246.348L408.236 246.099V245.252L408.336 244.355V243.856V243.508L408.286 243.259L408.136 243.109L407.937 242.91L404.499 242.013L404.001 241.714L403.752 241.515L403.453 241.166L403.253 240.717L403.154 240.518L403.054 240.219L402.456 233.243L402.904 232.645L403.203 231.848L407.837 229.955V229.805L408.485 229.955L410.03 230.353L414.415 230.104L418.102 229.855L423.583 229.556L427.619 229.307L432.452 229.008L435.491 228.809L440.374 228.51L445.208 228.261L445.656 228.36L446.055 228.46L446.852 228.908L447.649 229.307L448.098 229.456L448.496 229.606L448.845 229.556L449.194 229.506L450.29 228.759L451.386 228.061L451.884 227.762L452.383 227.414L452.582 228.161L452.831 228.859L452.881 228.908H452.931L453.03 229.207L453.18 229.456L454.027 230.602L454.824 231.699L455.023 232.097L455.223 232.546L455.372 233.542L455.522 234.489L455.771 234.937L456.02 235.336Z" fill="#23B674" stroke="white" stroke-width="0.5" stroke-miterlimit="10"/>
<path d="M576.353 284.217L575.406 284.466L575.207 284.565L574.808 284.914L574.609 284.964L574.31 284.914L574.16 284.815L574.011 284.715L571.918 283.818L570.872 283.12L570.224 282.323L569.726 280.978L569.078 279.782L568.231 279.234L567.035 279.882L566.387 281.426L566.188 282.273L566.138 283.071L566.337 283.868L567.284 285.911L567.733 286.509L568.231 286.758L569.227 286.957L569.676 287.306L569.825 288.751L568.231 291.292L568.281 292.538L568.779 292.787L569.327 292.438L569.825 291.94L570.224 291.641L570.921 291.691L571.121 292.089L571.22 292.637L571.669 293.036L572.217 293.086L574.011 292.588L575.256 292.538L575.755 292.338L576.153 291.741L576.203 290.246L574.559 288.452L574.459 287.156L575.057 286.559L576.801 285.313L577.05 284.565L576.751 284.117L576.353 284.217ZM614.271 264.336L614.221 264.087L613.872 262.941L613.773 262.243L613.872 261.346L614.022 260.399L614.072 259.801V259.552L614.022 259.303L613.474 258.805L611.53 258.207L611.082 258.157L610.833 257.958L610.085 256.862L609.537 256.463L609.139 256.812L608.74 257.31L608.092 257.36L605.8 256.862L604.056 256.264L602.96 256.314L602.213 256.463L601.316 256.314L600.967 256.214L600.668 256.064L599.173 253.972L598.825 253.374L598.526 253.025L598.127 252.776L596.134 252.078L595.536 252.028L595.137 252.078L594.938 252.228L594.539 252.178L594.041 251.979L593.045 251.431H592.646L592.397 251.58L592.347 252.477L592.198 252.377L591.799 251.829L590.952 250.235L589.806 248.541L586.667 249.587L583.328 251.431L582.581 252.078L581.385 253.922L578.944 256.264L578.096 256.413L577.548 256.264L575.854 255.317L575.107 254.669L574.708 254.52L574.011 254.37L573.612 254.221L573.313 254.071L572.217 252.925L571.918 252.776L570.423 252.626L570.224 252.427L572.616 249.138L568.33 249.388L567.135 249.238L566.885 249.039L566.586 248.84L565.989 248.59H565.241L563.447 250.185L562.949 250.235L561.903 250.135L561.404 250.185L560.757 250.484L560.358 250.932L560.009 251.431L559.611 251.879L558.664 252.477L558.066 252.826L557.917 253.025L557.867 253.274L557.717 253.473L557.119 253.623L556.82 253.772L556.272 254.221L555.724 254.719L553.432 256.613L552.087 258.257L551.589 258.655L551.04 258.905L550.492 259.054L549.944 259.303L549.446 259.801L548.549 261.346L548.15 261.844L547.802 261.994L545.211 262.592L544.115 263.339L543.517 264.286L543.566 265.332L543.616 265.581L543.666 265.731L544.164 266.478L544.264 266.578L544.613 266.977L544.712 267.176L544.214 268.92L546.108 269.767L546.905 270.016L547.752 269.966L548.449 269.767L549.147 269.667L549.994 270.016L550.991 271.66L551.489 273.952L552.186 276.045L553.731 277.141L555.326 277.241L556.97 277.091L562.351 275.447L565.69 275.148L566.487 275.248L567.832 273.853L570.025 273.454L574.409 274.102L575.605 274.002L576.153 273.155L576.502 272.059L577.1 271.162L577.648 271.013L578.047 271.311L578.395 271.81L578.794 272.258L579.292 272.507L579.89 272.557L581.086 272.408L581.834 272.457L583.029 273.554L584.723 274.102L585.072 274.7L585.371 275.447L586.069 276.095L586.866 276.593L587.713 276.942L589.507 277.291L590.454 277.191L590.802 276.643L590.902 275.796L591.151 274.849L591.849 274.251L592.496 274.849L593.045 275.945L593.294 276.942V278.985L593.543 279.732L594.29 280.081L594.789 279.932L596.782 278.736L597.38 278.138L597.778 277.49L598.476 275.896L599.622 274.7L601.017 274.6L602.512 274.949L604.007 275.098L604.455 274.949L604.654 274.899L604.953 274.949L605.402 275.148L606 275.248L606.548 275.098L606.797 274.55L606.598 274.152L606.348 274.002L606.049 273.803L604.953 273.305L604.256 272.806L604.007 272.059L604.206 271.361L607.494 269.717L608.491 268.72L609.039 267.325L609.288 266.379L609.637 265.88L612.128 264.485L612.776 264.336H614.271ZM596.632 287.904L595.237 288.95L594.589 289.299L593.643 289.349L593.045 290.096L593.393 290.794L594.191 291.392L594.938 291.741L595.885 292.04L596.483 291.94L596.831 291.342L597.679 288.203L597.529 287.705L596.632 287.904Z" fill="#23B674" stroke="white" stroke-width="0.5" stroke-miterlimit="10"/>
<path fill-rule="evenodd" clip-rule="evenodd" d="M293.783 251.131L298.267 249.537L300.958 245.501L303.2 240.817L303.898 239.821L304.645 239.223L305.393 238.974L306.09 239.173L306.838 239.771L307.635 240.917L307.834 242.611L307.884 245.9L308.382 246.996L309.977 247.594L320.241 248.79L321.088 247.992L322.234 243.558L322.932 243.159L324.227 242.661L329.21 242.462L330.854 242.113L332.05 241.565L333.246 239.871L333.744 239.92L334.043 241.116L334.841 246.149L335.189 247.444L335.737 248.939L337.033 250.035L338.328 250.783L342.065 251.68L353.476 252.477L355.319 251.929L354.423 255.018L354.223 256.313L354.173 257.609V258.855L354.273 259.851L354.373 260.449V260.997H353.874L351.881 260.549H351.533L351.134 260.648L350.885 260.898L350.436 261.545L350.387 262.143L349.34 265.332L348.543 266.279L347.845 266.927L346.998 269.667L346.6 270.464H342.165L341.268 270.165L340.471 269.617L339.724 268.969L338.976 268.72L338.129 268.77L336.834 268.969L336.186 269.318L335.837 269.767L335.737 270.215L335.688 270.664V271.112L335.887 272.059L336.784 273.006L336.186 274.899L335.837 275.198L335.688 275.248L335.638 275.397L335.688 275.597L336.136 276.294L337.232 277.44L337.83 278.138L337.98 278.486L337.93 278.636L336.784 278.785L336.535 278.835L336.286 279.035L336.036 279.234H335.688L335.09 279.732L333.296 283.37L332.798 284.117L332.15 284.765L331.452 285.213L329.16 286.309L328.861 286.957L328.562 287.256L328.413 287.455L327.217 289L326.569 290.345L326.071 291.641L326.619 292.837L329.36 296.623L330.406 297.371L332.2 298.367L332.25 298.617L332.449 299.065L332.598 299.513L333.097 299.763L333.844 299.812L335.488 299.065L336.036 299.165L336.385 299.713L340.87 301.855L341.567 303.001L341.866 304.098L341.916 304.895L342.016 305.941L342.315 306.988L343.062 307.386L343.959 307.735L344.507 308.034L345.205 308.731L345.802 309.529L345.952 309.828L346.201 310.376L346.55 311.671L346.65 312.02L346.699 313.365L344.955 314.711L341.169 318.498L340.67 318.896L340.222 319.046L339.873 318.996L339.425 319.095L339.126 319.195L338.926 319.394L336.036 322.534L335.688 323.032L335.438 323.43V323.68V323.929V324.178L335.538 324.427L335.688 324.826L335.987 325.224L337.182 326.719L337.282 326.918L337.382 327.118L337.432 327.417L337.332 327.815L337.182 328.014L336.933 328.164L330.655 330.456L328.662 331.154L323.48 333.246L321.686 334.492L318.248 338.279L317.65 338.877L316.504 337.382L315.607 336.834L314.461 336.983L311.571 338.428L310.575 338.677L309.479 338.428L308.333 337.83L302.254 333.495L297.022 329.709L292.836 326.719L290.544 324.327L286.459 318.647L284.067 316.355L278.835 312.618L266.378 303.749L260.25 299.364L255.117 295.677L250.683 292.488L248.54 290.295L248.092 290.046L245.401 286.608L245.002 285.313L244.355 282.522L244.205 281.426L244.405 280.33L244.703 279.433L244.903 278.536L244.753 277.49L243.607 274.999L243.458 273.952L243.408 272.657L243.259 271.66L242.96 270.763L242.013 268.82L241.764 267.923L241.664 265.83L241.265 265.382L238.176 263.588L236.382 263.04L235.535 262.392L235.386 262.093L243.259 252.277L245.202 248.042L244.753 246.348L243.508 244.455L237.379 237.529L245.899 233.393L245.85 232.745L235.137 217.797L248.49 212.715L251.679 212.765L252.875 215.555L253.822 217.199L260.15 224.723L265.232 233.742L266.129 234.24L269.467 235.037L274.45 236.931L280.28 240.219L291.591 247.245L292.488 248.74L293.833 250.135L293.783 251.131Z" fill="#23B674" stroke="white" stroke-width="0.5" stroke-miterlimit="10"/>
<path fill-rule="evenodd" clip-rule="evenodd" d="M632.109 244.305L636.992 243.857L638.437 244.255L638.586 245.7L638.487 246.547L638.985 246.448L640.729 245.252L643.519 243.956L644.117 244.355L644.665 245.102L645.413 245.65L647.655 245.501L648.502 245.7L648.801 245.75L649 246.747L647.854 248.291L646.06 249.338L642.523 250.633L639.284 252.676L636.543 253.373L635.248 253.922L634.351 255.317L633.902 258.655L632.806 259.153L631.411 258.506H630.714L630.415 259.353L630.365 260.05L630.215 260.748L629.817 261.396L629.269 261.844L627.774 261.944L625.083 260.1L623.638 259.901L622.542 259.353L621.296 257.908L620.051 256.812L618.954 257.31L618.805 258.107L619.602 259.502V260.399L619.353 261.196V261.744L619.702 262.193L621.346 263.389L621.496 263.787L621.745 264.385L621.695 265.531L621.296 266.777L620.549 267.873L619.652 268.023L618.606 267.674L616.363 266.329L615.815 266.129L614.121 266.229L613.623 266.079V266.03L613.822 265.581L614.271 265.481L614.918 265.382L615.466 265.232L615.616 264.734L615.267 264.435L614.57 264.335L614.271 264.385V264.335L614.221 264.136L613.872 262.99L613.822 262.293L613.922 261.396L614.022 260.499L614.071 259.901V259.602L614.022 259.353L613.473 258.904L611.53 258.306L611.082 258.257L610.833 258.007L610.085 256.961L609.587 256.562L609.188 256.911L608.79 257.41L608.142 257.459L605.85 257.011L604.106 256.413L603.01 256.463L602.262 256.612L601.365 256.463L601.017 256.363L600.718 256.164L599.223 254.121L598.874 253.523L598.525 253.174L598.127 252.925L596.134 252.227L595.536 252.178L595.137 252.277L594.938 252.377L594.589 252.327L594.091 252.178L593.044 251.63H592.646L592.446 251.779L592.347 252.676L592.197 252.576L591.849 252.028L591.001 250.434L589.855 248.74L590.952 247.643L590.354 246.398L589.905 245.8V245.451L590.055 245.152L591.251 244.056L591.749 243.707L592.247 242.96L596.134 241.913L597.379 242.561L598.974 241.764L599.422 241.664H600.219L601.116 241.714L602.163 241.614L607.096 242.81L607.793 242.91L608.391 242.76L610.683 242.711L611.231 242.561L611.48 242.461L611.63 242.362L611.929 242.113L612.826 237.977L613.025 237.13L615.217 236.482L616.613 236.283L616.862 236.034L617.31 234.738L617.509 234.389L618.207 233.841L618.705 234.14L619.801 235.884L620.549 236.383L621.645 236.681L623.638 236.881L623.837 237.03L623.937 237.23L623.987 237.479L623.887 237.778V238.924L624.585 239.272L625.532 239.372L626.229 239.621L627.873 242.162L629.019 243.458L630.514 244.106L632.109 244.305Z" fill="#23B674" stroke="white" stroke-width="0.5" stroke-miterlimit="10"/>
</svg>
