<svg width="64" height="64" viewBox="0 0 64 64" fill="none" xmlns="http://www.w3.org/2000/svg">
<path d="M6.9999 46.2C6.3999 46.2 5.8999 45.7 5.8999 45.1C5.8999 44.5 6.3999 44 6.9999 44H12.2999C12.8999 44 13.3999 44.5 13.3999 45.1C13.3999 45.7 12.8999 46.2 12.2999 46.2H6.9999Z" fill="white"/>
<path d="M36.9999 46.2C36.3999 46.2 35.8999 45.7 35.8999 45.1C35.8999 44.5 36.3999 44 36.9999 44H42.2999C42.8999 44 43.3999 44.5 43.3999 45.1C43.3999 45.7 42.8999 46.2 42.2999 46.2H36.9999Z" fill="white"/>
<path d="M22.4999 23.0999C21.8999 23.0999 21.3999 22.5999 21.3999 21.9999C21.3999 21.3999 21.8999 20.8999 22.4999 20.8999H27.7999C28.3999 20.8999 28.8999 21.3999 28.8999 21.9999C28.8999 22.5999 28.3999 23.0999 27.7999 23.0999H22.4999Z" fill="white"/>
<path d="M56.4 61.4C55.8 61.4 55.3 60.8999 55.3 60.2999V56H35.9V60.2999C35.9 60.8999 35.4 61.4 34.8 61.4H29.3C28.7 61.4 28.2 60.8999 28.2 60.2999V56H8.8V60.2999C8.8 60.8999 8.3 61.4 7.7 61.4H2.1C1.5 61.4 1 60.8999 1 60.2999V54.7999C1 54.1999 1.5 53.7 2.1 53.7H61.8C62.1 53.7 62.4 53.8 62.6 54C62.8 54.2 62.9 54.4999 62.9 54.7999V60.2999C62.9 60.8999 62.4 61.4 61.8 61.4H56.4ZM57.5 59.0999H60.7V55.9H57.5V59.0999ZM30.4 59.0999H33.6V55.9H30.4V59.0999ZM3.3 59.0999H6.5V55.9H3.3V59.0999Z" fill="white"/>
<path d="M12.8002 38.7C12.6002 38.7 12.4002 38.7 12.3002 38.6C11.9002 38.4 11.7002 38 11.7002 37.6V28H14.0002V35.4L15.9002 34C16.1002 33.9 16.3002 33.8 16.6002 33.8C16.8002 33.8 17.0002 33.9 17.2002 34L19.8002 35.6V28H22.0002V37.6C22.0002 38 21.8002 38.4 21.4002 38.6C21.2002 38.7 21.0002 38.7 20.8002 38.7C20.6002 38.7 20.4002 38.6 20.2002 38.5L16.6002 36.3L13.5002 38.5C13.3002 38.6 13.1002 38.7 12.8002 38.7Z" fill="white"/>
<path d="M42.9999 38.7C42.7999 38.7 42.5999 38.7 42.4999 38.6C42.0999 38.4 41.8999 38 41.8999 37.6V28H44.1999V35.4L46.0999 34C46.2999 33.9 46.4999 33.8 46.7999 33.8C46.9999 33.8 47.1999 33.9 47.3999 34L49.9999 35.6V28H52.2999V37.6C52.2999 38 52.0999 38.4 51.6999 38.6C51.4999 38.7 51.2999 38.7 51.0999 38.7C50.8999 38.7 50.6999 38.6 50.4999 38.5L46.7999 36.3L43.6999 38.5C43.3999 38.6 43.1999 38.7 42.9999 38.7Z" fill="white"/>
<path d="M27.9999 15.4999C27.7999 15.4999 27.5999 15.4999 27.4999 15.3999C27.0999 15.1999 26.8999 14.7999 26.8999 14.3999V4.79993H29.1999V12.1999L31.0999 10.7999C31.2999 10.6999 31.4999 10.5999 31.7999 10.5999C31.9999 10.5999 32.1999 10.6999 32.3999 10.7999L34.9999 12.3999V4.79993H37.2999V14.3999C37.2999 14.7999 37.0999 15.1999 36.6999 15.3999C36.4999 15.4999 36.2999 15.4999 36.0999 15.4999C35.8999 15.4999 35.6999 15.3999 35.4999 15.2999L31.7999 13.0999L28.5999 15.2999C28.3999 15.4999 28.1999 15.4999 27.9999 15.4999Z" fill="white"/>
<path d="M32.1 51.2999C31.7 51.2999 31.3 51.0999 31.1 50.7999L31 50.5L30.8 50.5999C30.1 51 29.3 51.2 28.5 51.2H2.1C1.5 51.2 1 50.6999 1 50.0999V26.9C1 26.2999 1.5 25.7999 2.1 25.7999H16V3.79995C16 3.19995 16.5 2.69995 17.1 2.69995H46.8C47.4 2.69995 47.9 3.19995 47.9 3.79995V23.6C47.9 24.2 47.8 24.7999 47.5 25.4L47.3 25.7999H61.7C62.3 25.7999 62.8 26.2999 62.8 26.9V46.7C62.8 49.2 60.8 51.2 58.3 51.2H32.1V51.2999ZM33.3 49H58.5C59.7 49 60.7 48 60.7 46.7999V28.1H33.3V49ZM3.3 49H28.5C29.7 49 30.7 48 30.7 46.7999V28.1H3.3V49ZM18.3 25.7999H43.5C44.7 25.7999 45.7 24.8 45.7 23.6V4.89995H18.3V25.7999Z" fill="white"/>
</svg>
