<svg width="18" height="18" viewBox="0 0 18 18" fill="none" xmlns="http://www.w3.org/2000/svg">
<path d="M15.772 12.3222V14.4247C15.7728 14.6199 15.7342 14.8131 15.6588 14.9919C15.5833 15.1708 15.4727 15.3313 15.334 15.4633C15.1952 15.5952 15.0314 15.6957 14.853 15.7582C14.6747 15.8207 14.4857 15.844 14.2982 15.8264C12.2178 15.5921 10.2194 14.8551 8.46364 13.6748C6.83013 12.5988 5.4452 11.1632 4.4072 9.46983C3.26463 7.6415 2.55358 5.55988 2.33166 3.39361C2.31476 3.1998 2.33698 3.00448 2.3969 2.82006C2.45682 2.63565 2.55312 2.46619 2.67968 2.32247C2.80624 2.17875 2.96028 2.06392 3.13199 1.9853C3.3037 1.90667 3.48933 1.86597 3.67705 1.86579H5.70526C6.03337 1.86244 6.35145 1.98288 6.60022 2.20467C6.849 2.42645 7.01149 2.73444 7.05741 3.07122C7.14302 3.74407 7.30178 4.40472 7.53066 5.04057C7.62162 5.29141 7.64131 5.56403 7.58739 5.82612C7.53347 6.0882 7.4082 6.32877 7.22643 6.51932L6.36782 7.40938C7.33024 9.16395 8.73167 10.6167 10.4243 11.6144L11.2829 10.7243C11.4667 10.5359 11.6988 10.406 11.9516 10.3501C12.2044 10.2942 12.4674 10.3147 12.7094 10.4089C13.3228 10.6462 13.9601 10.8108 14.6091 10.8995C14.9376 10.9476 15.2375 11.119 15.4519 11.3814C15.6663 11.6437 15.7802 11.9785 15.772 12.3222Z" stroke="white" stroke-linecap="round" stroke-linejoin="round"/>
</svg>
