<svg width="58" height="58" viewBox="0 0 58 58" fill="none" xmlns="http://www.w3.org/2000/svg">
<path d="M50.9668 24.575C51.5978 24.575 52.1094 24.0634 52.1094 23.4324V8.80452C52.1094 8.50185 51.989 8.21112 51.7748 7.99695L44.1115 0.334534C43.8974 0.120361 43.6066 0 43.304 0H9.29526C7.41771 0 5.89062 1.52753 5.89062 3.40552V54.5914C5.89062 56.4707 7.41771 58 9.29526 58H48.7016C50.5805 58 52.1094 56.4707 52.1094 54.5914V33.1972C52.1094 32.5661 51.5978 32.0546 50.9668 32.0546C50.3363 32.0546 49.8247 32.5661 49.8247 33.1972V54.5909C49.8247 55.2109 49.3212 55.7149 48.7016 55.7149H9.29526C8.67796 55.7149 8.17528 55.2109 8.17528 54.5909V3.40552C8.17528 2.78778 8.67752 2.2851 9.29526 2.2851H42.1619V6.54155C42.1619 8.41954 43.6903 9.94707 45.5696 9.94707H49.8252V23.4324C49.8247 24.0634 50.3363 24.575 50.9668 24.575ZM44.4461 6.54155V3.90024L48.2091 7.66241H45.5696C44.9501 7.66241 44.4461 7.15929 44.4461 6.54155Z" fill="white"/>
<path d="M38.4455 15.5965H33.5903C32.9593 15.5965 32.4482 15.085 32.4482 14.4544C32.4482 13.8234 32.9593 13.3119 33.5903 13.3119H38.4455C39.0761 13.3119 39.5876 13.8234 39.5876 14.4544C39.5876 15.085 39.0761 15.5965 38.4455 15.5965Z" fill="white"/>
<path d="M30.9657 13.8761C30.9657 14.5987 30.7599 15.1762 30.3431 15.6129C29.9258 16.0461 29.4222 16.332 28.8319 16.4731V17.4458C28.8319 17.8954 28.45 18.2644 27.9973 18.2644C27.5482 18.2644 27.1822 17.8954 27.1822 17.4458V16.4793C26.8132 16.3961 26.4795 16.2581 26.1808 16.0687C25.783 15.8151 25.6357 15.6771 25.3627 15.3209C24.6086 14.3354 25.8538 13.2791 26.5756 14.0398C26.6654 14.1332 26.7588 14.242 26.8645 14.3611C27.1663 14.6978 27.6088 14.7527 27.9717 14.7527C28.6549 14.7527 28.9983 14.4699 28.9983 13.9048C28.9983 13.7031 28.8669 13.5455 28.6102 13.4336C28.35 13.3212 28.0358 13.2216 27.6668 13.1349C27.2942 13.0482 26.9251 12.9296 26.5565 12.7818C26.1875 12.634 25.8729 12.3773 25.6127 12.018C25.3529 11.6582 25.2246 11.1994 25.2246 10.644C25.2246 10.0887 25.4043 9.59087 25.7507 9.14482C26.0977 8.70497 26.595 8.40672 27.1951 8.28769L27.1982 8.10139V7.16771C27.1982 6.71812 27.5637 6.35217 28.0133 6.35217C28.4624 6.35217 28.8315 6.71812 28.8315 7.16771V8.30052C29.0881 8.35539 29.3257 8.43239 29.5377 8.53505C29.7523 8.63771 29.9001 8.7209 29.9833 8.78551L30.1054 8.89746C31.1803 9.70016 30.1439 11.1286 29.2164 10.3484C28.5907 9.81876 27.1659 9.70326 27.1659 10.6728C27.1659 10.875 27.2623 11.0387 27.4513 11.164C27.6411 11.2888 27.8752 11.3724 28.1513 11.4144C28.427 11.456 28.735 11.5264 29.0655 11.6228C29.3992 11.7193 29.7041 11.8317 29.9833 11.9631C30.2594 12.0915 30.4935 12.3194 30.6829 12.6503C30.8723 12.9778 30.9657 13.3884 30.9657 13.8761Z" fill="white"/>
<path d="M22.173 15.5965H17.3178C16.6868 15.5965 16.1753 15.085 16.1753 14.4544C16.1753 13.8234 16.6868 13.3119 17.3178 13.3119H22.173C22.8036 13.3119 23.3151 13.8234 23.3151 14.4544C23.3151 15.085 22.8036 15.5965 22.173 15.5965Z" fill="white"/>
<path d="M38.4455 11.472H33.5903C32.9593 11.472 32.4482 10.9604 32.4482 10.3294C32.4482 9.69843 32.9593 9.18689 33.5903 9.18689H38.4455C39.0761 9.18689 39.5876 9.69843 39.5876 10.3294C39.5876 10.9604 39.0761 11.472 38.4455 11.472Z" fill="white"/>
<path d="M22.173 11.472H17.3178C16.6868 11.472 16.1753 10.9604 16.1753 10.3294C16.1753 9.69843 16.6868 9.18689 17.3178 9.18689H22.173C22.8036 9.18689 23.3151 9.69843 23.3151 10.3294C23.3151 10.9604 22.8036 11.472 22.173 11.472Z" fill="white"/>
<path d="M40.7434 24.3723H27.7568C27.1258 24.3723 26.6143 23.8612 26.6143 23.2302C26.6143 22.5992 27.1258 22.0876 27.7568 22.0876H40.7434C41.3745 22.0876 41.8855 22.5992 41.8855 23.2302C41.8855 23.8612 41.3745 24.3723 40.7434 24.3723Z" fill="white"/>
<path d="M40.7434 28.6929H27.7568C27.1258 28.6929 26.6143 28.1818 26.6143 27.5508C26.6143 26.9197 27.1258 26.4082 27.7568 26.4082H40.7434C41.3745 26.4082 41.8855 26.9197 41.8855 27.5508C41.8855 28.1818 41.3745 28.6929 40.7434 28.6929Z" fill="white"/>
<path d="M22.2983 29.3929H15.5722C14.9412 29.3929 14.4297 28.8814 14.4297 28.2504V22.1323C14.4297 21.5013 14.9412 20.9897 15.5722 20.9897H22.2983C22.9289 20.9897 23.4404 21.5013 23.4404 22.1323V28.2504C23.4404 28.8814 22.9289 29.3929 22.2983 29.3929ZM16.7143 27.1083H21.1558V23.2748H16.7143V27.1083Z" fill="white"/>
<path d="M22.2983 39.8188H15.5722C14.9412 39.8188 14.4297 39.3073 14.4297 38.6763V32.5582C14.4297 31.9272 14.9412 31.4156 15.5722 31.4156H22.2983C22.9289 31.4156 23.4404 31.9272 23.4404 32.5582V38.6763C23.4404 39.3073 22.9289 39.8188 22.2983 39.8188ZM16.7143 37.5342H21.1558V33.7007H16.7143V37.5342Z" fill="white"/>
<path d="M22.2983 51.3235H15.5722C14.9412 51.3235 14.4297 50.8119 14.4297 50.1809V44.0593C14.4297 43.4283 14.9412 42.9167 15.5722 42.9167H22.2983C22.9289 42.9167 23.4404 43.4283 23.4404 44.0593V50.1809C23.4404 50.8119 22.9289 51.3235 22.2983 51.3235ZM16.7143 49.0384H21.1558V45.2018H16.7143V49.0384Z" fill="white"/>
<path d="M40.6663 34.6092H27.6797C27.0486 34.6092 26.5371 34.0977 26.5371 33.4666C26.5371 32.8356 27.0486 32.3241 27.6797 32.3241H40.6663C41.2973 32.3241 41.8084 32.8356 41.8084 33.4666C41.8084 34.0977 41.2973 34.6092 40.6663 34.6092Z" fill="white"/>
<path d="M40.6663 38.9328H27.6797C27.0486 38.9328 26.5371 38.4213 26.5371 37.7903C26.5371 37.1597 27.0486 36.6482 27.6797 36.6482H40.6663C41.2973 36.6482 41.8084 37.1597 41.8084 37.7903C41.8084 38.4213 41.2973 38.9328 40.6663 38.9328Z" fill="white"/>
<path d="M40.6694 46.1683H27.6797C27.0486 46.1683 26.5371 45.6567 26.5371 45.0257C26.5371 44.3947 27.0486 43.8832 27.6797 43.8832H40.6694C41.3004 43.8832 41.8119 44.3947 41.8119 45.0257C41.8119 45.6567 41.3004 46.1683 40.6694 46.1683Z" fill="white"/>
<path d="M40.6694 50.4885H27.6797C27.0486 50.4885 26.5371 49.9774 26.5371 49.3464C26.5371 48.7154 27.0486 48.2039 27.6797 48.2039H40.6694C41.3004 48.2039 41.8119 48.7154 41.8119 49.3464C41.8119 49.9774 41.3004 50.4885 40.6694 50.4885Z" fill="white"/>
<path d="M50.9668 29.0974C50.3362 29.0974 49.8247 28.5863 49.8247 27.9553V27.9327C49.8247 27.3017 50.3362 26.7902 50.9668 26.7902C51.5978 26.7902 52.1094 27.3017 52.1094 27.9327V27.9553C52.1094 28.5863 51.5978 29.0974 50.9668 29.0974Z" fill="white"/>
</svg>
