<svg width="72" height="63" viewBox="0 0 72 63" fill="none" xmlns="http://www.w3.org/2000/svg">
<path d="M61.5531 7.57255L56.256 5.20576C54.4527 4.41683 52.8748 2.95167 52.0859 1.0357C52.0859 0.922992 52.0859 0.922992 52.0859 0.922992C51.9732 0.246766 51.297 -0.0913468 50.6207 0.0213575C50.0572 0.134062 49.6064 0.697583 49.7191 1.26111C49.4937 1.82463 49.2683 2.38815 49.0429 2.95167C48.7048 3.8533 47.9158 4.98035 45.6618 5.31846C42.0552 5.76928 35.293 9.82663 31.7991 17.0397C28.3053 14.6729 25.1496 13.4332 24.4733 13.2078C24.0225 12.8697 23.5717 12.7569 23.1209 12.7569H23.0082C22.8955 12.7569 20.416 12.9824 18.9508 15.5746C16.584 16.7016 6.55336 21.3225 4.63738 24.1401C0.805436 29.7753 -0.434311 34.7343 0.12921 42.2855C0.241915 42.7363 1.48166 50.6256 7.34229 55.81C10.2726 59.3038 16.584 62.1214 23.2336 62.1214C25.1496 62.1214 26.9528 61.896 28.8688 61.4452C32.2499 60.5436 36.0819 58.5149 39.1249 54.3448C41.379 55.9227 43.9712 56.7116 46.9015 56.7116C48.0285 56.7116 49.1556 56.5989 50.3953 56.3735C54.7908 56.5989 69.4424 55.5846 71.6965 34.6216C71.3583 34.5089 75.4157 15.1237 61.5531 7.57255ZM2.27059 42.1728C1.81978 35.1851 2.83411 30.9023 6.44065 25.6052C7.6804 23.802 15.457 19.7446 20.1906 17.7159C20.416 17.6032 20.6414 17.3778 20.7541 17.1524C21.543 15.5746 22.6701 15.3491 23.0082 15.2364C23.0082 15.2364 23.1209 15.2364 23.2336 15.3491C23.459 15.5746 23.9098 15.9127 24.3606 16.7016C24.9242 17.6032 25.6004 18.3922 26.3893 19.1811L28.3053 20.9844C38.7868 28.9864 36.3073 41.6093 36.1946 42.0601C34.1659 48.935 30.8975 53.5559 26.2766 55.9227C20.1906 59.1911 13.7664 57.0497 13.6537 57.0497C4.18657 53.894 2.27059 42.1728 2.27059 42.1728ZM27.8545 59.1911C26.0512 59.6419 24.1352 59.8674 22.2193 59.8674C23.9098 59.5292 25.6004 59.0784 27.291 58.1768C32.4754 55.4719 36.1946 50.2875 38.4487 42.7363C38.5614 42.1728 41.379 28.0847 29.7704 19.1811L28.3053 17.8286C29.2069 18.3922 30.2213 18.9557 31.2356 19.7446C31.3483 19.8573 31.5737 20.0827 31.6864 20.0827C36.9835 24.0274 42.506 30.6769 41.0409 41.0457C39.463 53.5559 33.0389 57.8387 27.8545 59.1911ZM40.1392 52.4289C41.7171 49.6113 43.0696 46.0047 43.6331 41.2711C45.2109 30.1134 39.3503 22.9003 33.7151 18.5049C36.8708 11.7426 43.1823 8.13607 45.8872 7.79796C48.254 7.45984 49.7191 6.4455 50.3953 5.31846C50.8462 8.13607 51.4097 11.6299 51.297 13.5459C51.0716 17.0397 48.9302 27.0704 48.0285 29.2118C47.1269 31.3532 45.7745 38.4535 49.2683 45.5539C50.6207 48.3715 49.9445 51.7526 48.9302 54.2321C45.549 54.683 42.506 54.1194 40.1392 52.4289ZM68.9916 34.2835C67.0756 51.3018 56.5941 53.7813 51.6351 54.0067C52.8748 50.4002 52.8748 47.1318 51.5224 44.4269C48.3667 38.1154 49.7191 31.804 50.3953 30.0007C51.4097 27.4085 53.5511 17.1524 53.7765 13.6586C53.8892 11.8553 53.4384 8.69959 52.9875 5.99469C53.6638 6.55821 54.4527 7.00903 55.2416 7.34714L60.426 9.60122C72.5981 16.3635 68.9916 33.9454 68.9916 34.2835Z" fill="white"/>
<path d="M44.4223 23.3511C46.6763 16.8143 44.6477 12.4188 44.6477 12.1934C44.4223 11.6299 43.6333 11.2918 43.0698 11.6299C42.5063 11.8553 42.1682 12.6442 42.5063 13.2078C42.5063 13.2078 44.0841 16.927 42.1682 22.5622C41.9428 23.2384 42.2809 23.9147 42.9571 24.1401C43.0698 24.1401 43.1825 24.2528 43.2952 24.2528C43.746 24.1401 44.1969 23.9147 44.4223 23.3511Z" fill="white"/>
<path d="M61.7786 25.2671C57.1578 23.8019 59.1864 15.6872 59.1864 15.5745C59.2991 14.8983 58.961 14.2221 58.2848 14.1094C57.6086 13.9967 56.9323 14.3348 56.8196 15.011C56.7069 15.4618 54.3401 25.4925 61.1024 27.6339C61.2151 27.6339 61.3278 27.6339 61.4405 27.6339C62.004 27.6339 62.4549 27.2958 62.5676 26.7323C62.793 26.1687 62.4549 25.4925 61.7786 25.2671Z" fill="white"/>
<path d="M63.0182 31.1278C63.5817 33.3819 64.3706 37.5519 63.2436 40.8204C63.0182 41.4966 63.3563 42.1728 64.0325 42.3982C64.1452 42.3982 64.2579 42.5109 64.3706 42.5109C64.8214 42.5109 65.385 42.1728 65.4977 41.722C66.6247 38.1155 66.0612 33.72 65.2723 30.7897C65.1596 30.1135 64.4833 29.7754 63.8071 29.8881C63.2436 29.7754 62.9055 30.4516 63.0182 31.1278Z" fill="white"/>
<path d="M57.2702 35.974C57.2702 35.2978 56.8194 34.7343 56.1432 34.6216C55.467 34.6216 54.9034 35.0724 54.7907 35.7486C54.7907 36.0867 54.2272 42.9617 57.9465 48.7096C58.1719 49.0477 58.51 49.2731 58.9608 49.2731C59.1862 49.2731 59.4116 49.1604 59.637 49.0477C60.2005 48.7096 60.3132 47.9207 59.9751 47.3572C56.7067 42.2855 57.2702 35.974 57.2702 35.974Z" fill="white"/>
<path d="M10.3852 52.2035C11.6249 53.4433 13.3155 54.0068 15.4569 54.0068C15.795 54.0068 16.0204 54.0068 16.3585 54.0068C17.711 54.683 18.9507 55.0211 20.0778 55.0211C20.8667 55.0211 21.6556 54.7957 22.4445 54.4576C24.3605 53.4433 25.1495 51.5273 25.4876 50.4003C27.2908 49.6113 28.5306 48.597 29.2068 47.3572C29.6576 46.5683 29.883 45.554 29.6576 44.6523C31.4609 43.0745 32.4752 41.3839 32.5879 39.4679C32.5879 37.552 31.6863 35.9741 30.8974 34.9598C32.1371 33.9454 32.5879 32.593 32.5879 32.3676C32.5879 32.2549 33.1515 29.0991 31.2355 26.9578C30.3339 25.8307 28.8687 25.1545 27.1781 24.9291C26.9527 24.591 26.6146 24.3656 26.2765 24.1402C25.8257 23.9147 24.3605 21.9988 23.2335 20.1955C23.2335 20.1955 23.2335 20.1955 23.2335 20.0828C23.2335 20.0828 23.2335 20.0828 23.1208 19.9701C23.1208 19.9701 23.1208 19.9701 23.0081 19.9701H22.8954H22.7827C22.7827 19.9701 22.7827 19.9701 22.67 19.9701C22.4445 19.9701 22.2191 19.9701 21.9937 20.0828C21.9937 20.0828 21.9937 20.0828 21.881 20.0828C21.881 20.0828 21.881 20.0828 21.7683 20.0828C21.7683 20.0828 21.7683 20.0828 21.6556 20.0828C20.0778 21.4352 18.1618 22.675 17.5983 22.7877C17.1474 22.7877 16.8093 22.9004 16.4712 23.1258C14.7807 22.675 13.3155 22.7877 11.963 23.4639C9.48355 24.8164 8.80733 27.8594 8.69462 28.0848C8.69462 28.3102 8.46921 29.6627 9.37085 31.1278C8.2438 31.804 6.77865 32.9311 6.21513 34.7344C5.5389 36.5376 5.87701 38.4536 7.00406 40.595C6.55324 41.3839 6.32783 42.2855 6.44054 43.1872C6.66594 44.6523 7.45487 46.0048 8.80733 47.4699C8.58192 48.4843 8.80733 50.6257 10.3852 52.2035ZM27.1781 46.2302C26.84 46.7937 26.1638 47.4699 24.8113 48.1462L23.1208 46.3429C22.67 45.8921 21.881 45.7794 21.4302 46.2302C20.9794 46.681 20.8667 47.4699 21.3175 47.9208L23.1208 49.9494C22.8954 50.6257 22.4445 51.8654 21.3175 52.3162C20.4159 52.7671 19.2888 52.6543 17.9364 52.0908L19.4015 43.7507C19.4015 43.8634 19.4015 44.0888 19.5142 44.2015C19.7396 44.765 20.5286 45.1032 21.0921 44.765C22.1064 44.3142 25.3749 43.2999 26.84 44.3142C27.2908 44.8777 27.5162 45.554 27.1781 46.2302ZM25.2622 26.3942C25.2622 26.5069 25.3749 26.7324 25.2622 27.2959C25.1495 27.634 24.6986 28.6483 23.1208 29.2118C22.4445 29.4373 22.1064 30.1135 22.3318 30.7897C22.5573 31.2405 23.0081 31.5786 23.4589 31.5786C23.5716 31.5786 23.6843 31.5786 23.797 31.4659C26.1638 30.677 27.2908 29.0991 27.5162 27.634C28.3052 27.8594 28.8687 28.1975 29.3195 28.6483C30.4466 30.0008 30.1084 32.0295 30.1084 32.0295C30.1084 32.0295 29.7703 33.0438 28.756 33.6073C27.5162 34.2835 25.6003 34.1708 23.2335 33.3819C22.5573 33.1565 21.881 33.4946 21.6556 34.1708C21.4302 34.8471 21.7683 35.5233 22.4445 35.7487C24.0224 36.3122 25.3749 36.5376 26.6146 36.5376C27.2908 36.5376 27.9671 36.4249 28.5306 36.3122C29.0941 36.9884 29.9957 38.2282 29.9957 39.5806C29.9957 40.595 29.4322 41.722 28.3052 42.7364L28.1925 42.6237C25.3749 40.4823 20.5286 42.511 20.0778 42.7364C19.7396 42.8491 19.5142 43.0745 19.4015 43.4126L22.7827 24.1402C23.6843 25.1545 24.4732 26.0561 25.2622 26.3942ZM9.48355 41.2712C11.1741 40.8204 13.879 42.9618 14.668 43.7507C15.1188 44.2015 15.9077 44.2015 16.3585 43.7507C16.8093 43.2999 16.8093 42.511 16.3585 42.0601C15.9077 41.6093 12.1885 38.0028 8.80733 38.9044H8.69462C8.0184 37.552 7.90569 36.4249 8.2438 35.4106C8.69462 34.0581 10.0471 33.2692 10.836 32.9311C12.1885 33.9454 14.2171 34.5089 16.6966 34.6217C17.3729 34.6217 17.8237 34.1708 17.9364 33.4946C17.9364 32.8184 17.4856 32.2549 16.8093 32.2549C14.3298 32.1422 12.5266 31.5786 11.6249 30.4516C10.836 29.55 10.836 28.5356 10.836 28.5356C10.836 28.5356 11.2868 26.3942 12.8647 25.6053C13.4282 25.2672 14.1044 25.1545 14.8934 25.2672C14.668 26.7324 15.0061 28.6483 16.922 30.2262C17.1474 30.4516 17.3729 30.5643 17.711 30.5643C18.0491 30.5643 18.3872 30.4516 18.6126 30.1135C19.0634 29.55 18.9507 28.8737 18.4999 28.4229C17.2602 27.4086 17.1474 26.2815 17.2601 25.9434C17.2601 25.6053 17.3729 25.4926 17.3729 25.2672L17.4856 25.1545C18.2745 25.0418 19.4015 24.4783 20.4159 23.802L15.5696 51.64C13.9917 51.64 12.8647 51.3019 12.0758 50.513C11.1741 49.6113 10.9487 48.3716 10.9487 47.5826L13.3155 46.4556C13.879 46.1175 14.2171 45.4413 13.879 44.8777C13.5409 44.3142 12.8647 43.9761 12.3012 44.3142L10.0471 45.4413C9.03274 44.3142 8.69462 43.4126 8.58192 42.7364C8.46921 42.0601 8.92003 41.3839 9.48355 41.2712Z" fill="white"/>
<path d="M45.7747 39.9187C45.0985 39.806 44.535 40.2569 44.4223 40.9331C44.4223 41.1585 43.6333 45.554 43.9714 48.0335C44.0841 48.7097 44.535 49.1605 45.2112 49.1605H45.3239C46.0001 49.0478 46.4509 48.4843 46.4509 47.8081C46.2255 45.6667 46.9018 41.2712 46.9018 41.2712C46.9018 40.595 46.4509 40.0315 45.7747 39.9187Z" fill="white"/>
</svg>
