<svg width="51" height="51" viewBox="0 0 51 51" fill="none" xmlns="http://www.w3.org/2000/svg">
<path d="M25.5 51C39.5833 51 51 39.5833 51 25.5C51 11.4167 39.5833 0 25.5 0C11.4167 0 0 11.4167 0 25.5C0 39.5833 11.4167 51 25.5 51Z" fill="#6F3FAA"/>
<path d="M40.2293 17.227V17.1893C39.8874 15.8042 38.9949 14.3727 37.8242 13.1672C36.4565 11.7531 34.7149 10.6433 33.0516 10.284H33.0169C28.0566 9.33356 22.9611 9.33356 18.0008 10.284H17.9661C14.8771 10.9534 11.5244 14.1814 10.7768 17.1893V17.227C9.85825 21.397 9.85825 25.7171 10.7768 29.8871V29.9219C11.31 32.0662 13.1645 34.3206 15.3031 35.6826C16.0015 36.1377 16.7617 36.49 17.5604 36.7287V40.0842C17.5615 40.3524 17.6425 40.6141 17.7929 40.8361C17.9434 41.0581 18.1565 41.2303 18.4052 41.3307C18.6538 41.4311 18.9268 41.4552 19.1892 41.3999C19.4516 41.3446 19.6916 41.2124 19.8786 41.0202L23.2805 37.485C24.0165 37.5255 24.7583 37.5487 25.4944 37.5487C28.0139 37.5479 30.5277 37.3093 33.0024 36.8359H33.0371C36.1174 36.1636 39.473 32.9355 40.2148 29.9277V29.8929C41.139 25.722 41.1439 21.3999 40.2293 17.227ZM37.5373 29.267C37.0389 31.2288 34.4947 33.6716 32.4692 34.1207C29.8384 34.6247 27.1608 34.8433 24.4831 34.7727C24.457 34.7711 24.4309 34.7755 24.4068 34.7855C24.3827 34.7956 24.3612 34.811 24.344 34.8306L21.8606 37.3806L19.2179 40.09C19.1756 40.1347 19.1209 40.1657 19.0608 40.1789C19.0007 40.1921 18.9381 40.187 18.881 40.1642C18.8238 40.1414 18.7748 40.102 18.7404 40.0511C18.7059 40.0001 18.6875 39.94 18.6876 39.8785V34.3148C18.6877 34.2701 18.6721 34.2268 18.6435 34.1923C18.6149 34.1579 18.5751 34.1346 18.5311 34.1265C18.1086 34.0262 17.7013 33.8703 17.3199 33.6629C15.5986 32.7443 13.8629 30.8608 13.463 29.267C12.6347 25.4976 12.6347 21.5933 13.463 17.8239C13.9585 15.8708 16.5172 13.4338 18.5282 12.9818C23.1334 12.1006 27.864 12.1006 32.4692 12.9818C33.5848 13.231 34.8598 14.08 35.8566 15.1232C36.6767 15.9722 37.3055 16.9517 37.5373 17.8326C38.3643 21.5992 38.3643 25.5004 37.5373 29.267Z" fill="white"/>
<path d="M32.5416 29.5567C32.1651 30.4159 31.5179 31.1283 30.6986 31.5851C30.4416 31.6942 30.1748 31.7786 29.9018 31.8372C29.5917 31.7445 29.2961 31.6808 29.0324 31.5678C26.8358 30.713 24.791 29.5105 22.9762 28.0064C22.4371 27.5467 21.9307 27.05 21.4607 26.5199C20.3 25.1832 19.3252 23.6958 18.5629 22.098C18.192 21.3417 17.8791 20.5593 17.5603 19.7798C17.2706 19.0699 17.6994 18.3309 18.1399 17.8007C18.571 17.3089 19.1013 16.9139 19.696 16.6416C19.9052 16.5364 20.1447 16.5078 20.3728 16.5607C20.6009 16.6137 20.8033 16.7448 20.9449 16.9313C21.6852 17.7631 22.3378 18.6691 22.8922 19.6349C23.0668 19.9157 23.1266 20.253 23.0591 20.5768C22.9917 20.9005 22.8022 21.1858 22.5299 21.3736C22.3851 21.475 22.2402 21.5909 22.1156 21.7039C21.9927 21.7949 21.8868 21.9067 21.8026 22.0342C21.73 22.1536 21.6859 22.2882 21.6738 22.4274C21.6618 22.5667 21.682 22.7068 21.7331 22.8369C22.2923 24.3756 23.1414 25.6593 24.4106 26.5605C24.8401 26.8642 25.3029 27.1179 25.7899 27.3168C26.1079 27.4898 26.4653 27.5776 26.8273 27.5718C27.459 27.4964 27.6676 26.7981 28.1081 26.4388C28.3102 26.2732 28.5604 26.1773 28.8215 26.1653C29.0825 26.1533 29.3404 26.2259 29.5569 26.3721C30.0264 26.6619 30.4784 26.9893 30.9305 27.3081C31.3776 27.6132 31.808 27.9421 32.22 28.2933C32.4126 28.4333 32.5502 28.6362 32.609 28.8669C32.6677 29.0977 32.6439 29.3417 32.5416 29.5567Z" fill="white"/>
<path d="M26.3318 15.6709H25.9609C26.0797 15.6651 26.2043 15.6709 26.3318 15.6709Z" fill="white"/>
<path d="M32.7446 24.3553C32.4548 24.3553 32.3128 24.109 32.2925 23.8395C32.2549 23.3092 32.2259 22.7761 32.1534 22.2487C32.0282 21.3589 31.7183 20.5051 31.2435 19.7421C30.7556 18.9473 30.1063 18.2638 29.3376 17.7357C28.5689 17.2076 27.698 16.8467 26.781 16.6763C26.3638 16.601 25.9378 16.5836 25.5176 16.5402C25.251 16.5112 24.9004 16.4938 24.8425 16.1635C24.8338 16.0993 24.8389 16.034 24.8575 15.972C24.8761 15.91 24.9077 15.8527 24.9502 15.8038C24.9927 15.755 25.0452 15.7158 25.1041 15.6889C25.1629 15.662 25.2269 15.6479 25.2916 15.6477C25.3611 15.6437 25.4308 15.6437 25.5003 15.6477C26.7669 15.6584 28.0113 15.9813 29.1233 16.5878C30.2353 17.1944 31.1805 18.0658 31.8753 19.1249C32.4237 19.9786 32.7961 20.9333 32.9706 21.9328C33.0807 22.5587 33.1213 23.202 33.1705 23.8395C33.1804 23.902 33.1769 23.9659 33.1603 24.0269C33.1436 24.0879 33.1141 24.1447 33.0739 24.1935C33.0336 24.2423 32.9834 24.2819 32.9266 24.3098C32.8698 24.3377 32.8078 24.3532 32.7446 24.3553Z" fill="white"/>
<path d="M31.1766 23.0021C31.175 23.0882 31.1633 23.1738 31.1419 23.2571C31.1166 23.3409 31.0661 23.4148 30.9972 23.4689C30.9284 23.523 30.8446 23.5545 30.7572 23.5593C30.6698 23.564 30.5831 23.5417 30.5088 23.4954C30.4346 23.4492 30.3763 23.3811 30.3421 23.3006C30.3102 23.1836 30.2956 23.0625 30.2986 22.9413C30.3054 22.2931 30.1771 21.6507 29.9219 21.0548C29.864 20.9273 29.8002 20.7969 29.7278 20.6723C29.313 19.9574 28.6973 19.38 27.9573 19.0119C27.5108 18.8011 27.0366 18.6548 26.549 18.5773C26.3345 18.5425 26.1201 18.5222 25.9057 18.4932C25.8499 18.4904 25.7952 18.4762 25.7451 18.4515C25.695 18.4267 25.6505 18.3919 25.6144 18.3493C25.5783 18.3066 25.5513 18.257 25.5351 18.2036C25.5189 18.1501 25.5139 18.0938 25.5203 18.0383C25.5203 17.9815 25.5323 17.9254 25.5556 17.8736C25.5789 17.8218 25.6128 17.7755 25.6552 17.7377C25.6976 17.6999 25.7476 17.6716 25.8017 17.6545C25.8559 17.6373 25.913 17.6319 25.9694 17.6384C26.8203 17.6713 27.6538 17.8888 28.4122 18.2759C29.3383 18.7419 30.0938 19.4883 30.571 20.4086C30.8398 20.946 31.0199 21.5234 31.1042 22.1183C31.1198 22.1959 31.1314 22.2742 31.139 22.353C31.1535 22.5269 31.1593 22.7008 31.1737 22.9152C31.1737 22.9355 31.1766 22.9615 31.1766 23.0021Z" fill="white"/>
<path d="M29.1919 22.6022C29.1755 22.6757 29.1374 22.7425 29.0827 22.7942C29.0279 22.8458 28.959 22.8799 28.8847 22.892H28.8209C28.726 22.8981 28.6317 22.8732 28.5522 22.8209C28.4727 22.7686 28.4124 22.6918 28.3805 22.6022C28.3625 22.5547 28.3508 22.505 28.3457 22.4544C28.3305 22.2594 28.3014 22.0658 28.2588 21.8749C28.1727 21.4884 27.9531 21.1447 27.6387 20.9041C27.4867 20.795 27.3171 20.7127 27.1374 20.6607C26.9084 20.5941 26.6679 20.6115 26.4419 20.5564C26.3302 20.5366 26.2309 20.4734 26.1657 20.3805C26.1005 20.2876 26.0748 20.1727 26.0942 20.0609C26.1158 19.9538 26.1756 19.8583 26.2626 19.7921C26.3495 19.726 26.4576 19.6938 26.5665 19.7016C27.8937 19.7972 28.8847 20.4347 29.1397 21.8575C29.1659 21.9896 29.1843 22.1231 29.1948 22.2574C29.211 22.3718 29.21 22.488 29.1919 22.6022Z" fill="white"/>
</svg>
