<svg width="51" height="51" viewBox="0 0 51 51" fill="none" xmlns="http://www.w3.org/2000/svg">
<path d="M25.5 51C39.5833 51 51 39.5833 51 25.5C51 11.4167 39.5833 0 25.5 0C11.4167 0 0 11.4167 0 25.5C0 39.5833 11.4167 51 25.5 51Z" fill="#2DC100"/>
<path d="M36.7144 22.3125C28.2386 18.0065 18.6065 25.9202 23.0111 33.179C25.0569 36.5867 29.7773 38.7397 35.3612 37.1257C36.4797 37.5575 37.4736 38.2616 38.5487 38.7861C38.2589 37.8414 37.9691 36.9113 37.6533 35.984C43.4313 31.875 42.1679 25.0856 36.7144 22.3125ZM29.9482 27.2097C29.8704 27.415 29.7423 27.5974 29.5756 27.7402C29.4088 27.8831 29.2089 27.9817 28.9941 28.0271C28.7793 28.0724 28.5565 28.0631 28.3463 27.9999C28.1361 27.9367 27.9451 27.8216 27.7909 27.6653C27.6368 27.509 27.5244 27.3165 27.464 27.1054C27.4037 26.8943 27.3975 26.6714 27.4458 26.4573C27.4941 26.2431 27.5955 26.0446 27.7406 25.8798C27.8857 25.7151 28.0699 25.5895 28.2762 25.5145C29.2528 25.103 30.3771 26.2331 29.9482 27.2097ZM36.2913 27.3343H36.3087C36.2142 27.5166 36.0788 27.6745 35.913 27.7957C35.7473 27.9169 35.5557 27.9981 35.3534 28.0329C35.151 28.0677 34.9433 28.0552 34.7466 27.9963C34.5499 27.9375 34.3694 27.8338 34.2195 27.6936C33.983 27.4159 33.8259 27.0795 33.7645 26.72C33.9007 26.1085 34.3209 25.4768 34.999 25.4479C35.932 25.3175 36.7695 26.4765 36.2913 27.3343Z" fill="white"/>
<path d="M32.6864 20.5391C32.1069 17.6935 30.119 15.2913 27.6154 13.9062H27.6502C18.7599 8.88155 7.69351 15.8883 9.83203 24.1497C10.4116 26.6012 12.101 28.6585 14.1583 30.0292C13.7614 31.1622 13.3817 32.2923 13.0253 33.4311C14.3177 32.753 15.613 32.0431 16.9083 31.3534C18.4743 31.8613 20.1164 32.0947 21.762 32.0431C19.7336 26.1897 24.9495 19.9885 32.6864 20.5391ZM24.6307 17.1401C24.881 17.0494 25.1496 17.0212 25.4132 17.0579C25.6768 17.0946 25.9275 17.1952 26.1434 17.3508C26.3593 17.5065 26.5339 17.7125 26.6521 17.951C26.7703 18.1895 26.8284 18.4533 26.8214 18.7193V18.7367C26.8214 20.0146 25.1291 20.8144 24.1729 19.948C23.1819 19.2322 23.4716 17.4994 24.6307 17.1401ZM18.7802 19.0613C18.5513 20.174 17.0677 20.7101 16.1983 19.9625C15.1899 19.2496 15.4739 17.4849 16.6562 17.1256C17.8153 16.6764 19.1308 17.8587 18.7802 19.0613Z" fill="white"/>
</svg>
