<svg width="51" height="51" viewBox="0 0 51 51" fill="none" xmlns="http://www.w3.org/2000/svg">
<path d="M25.5 51C39.5833 51 51 39.5833 51 25.5C51 11.4167 39.5833 0 25.5 0C11.4167 0 0 11.4167 0 25.5C0 39.5833 11.4167 51 25.5 51Z" fill="#29A71A"/>
<path d="M36.7431 14.2569C34.09 11.5773 30.5667 9.93406 26.8088 9.62346C23.0508 9.31286 19.3056 10.3554 16.2486 12.563C13.1916 14.7706 11.0241 17.9979 10.1371 21.6628C9.2501 25.3278 9.70193 29.1891 11.4111 32.5502L9.73334 40.6957C9.71593 40.7768 9.71544 40.8606 9.73189 40.9419C9.74835 41.0231 9.78139 41.1002 9.82896 41.1681C9.89865 41.2711 9.99813 41.3505 10.1141 41.3955C10.2301 41.4406 10.3571 41.4492 10.4781 41.4202L18.4613 39.528C21.813 41.1939 25.647 41.6167 29.2812 40.7211C32.9153 39.8255 36.1139 37.6696 38.3077 34.6371C40.5015 31.6045 41.5483 27.892 41.2618 24.1601C40.9753 20.4282 39.3741 16.919 36.7431 14.2569ZM34.2539 34.1237C32.4183 35.9542 30.0545 37.1625 27.4957 37.5784C24.937 37.9943 22.3122 37.5968 19.9913 36.4419L18.8786 35.8913L13.9843 37.0504L13.9988 36.9895L15.013 32.0634L14.4682 30.9883C13.2824 28.6594 12.864 26.0148 13.2732 23.4335C13.6823 20.8522 14.8979 18.4666 16.7458 16.6185C19.0678 14.2973 22.2166 12.9933 25.4999 12.9933C28.7831 12.9933 31.9319 14.2973 34.2539 16.6185C34.2737 16.6412 34.295 16.6625 34.3177 16.6823C36.6108 19.0095 37.891 22.1489 37.8791 25.4161C37.8671 28.6833 36.564 31.8133 34.2539 34.1237Z" fill="white"/>
<path d="M33.8195 30.5102C33.2196 31.4549 32.2721 32.6111 31.0811 32.898C28.9947 33.4022 25.7928 32.9153 21.8084 29.2005L21.7591 29.157C18.2558 25.9086 17.3459 23.2051 17.5661 21.0608C17.6878 19.8437 18.702 18.7426 19.5568 18.0239C19.692 17.9086 19.8523 17.8265 20.0248 17.7841C20.1974 17.7418 20.3774 17.7404 20.5506 17.7801C20.7238 17.8198 20.8853 17.8995 21.0222 18.0128C21.1591 18.1261 21.2675 18.2698 21.3389 18.4325L22.6284 21.3302C22.7122 21.5181 22.7433 21.7253 22.7183 21.9295C22.6933 22.1337 22.6131 22.3272 22.4864 22.4893L21.8345 23.3355C21.6946 23.5102 21.6101 23.7228 21.5921 23.9458C21.574 24.1689 21.6231 24.3923 21.733 24.5873C22.0981 25.2277 22.9733 26.1694 23.944 27.0417C25.0335 28.0269 26.2419 28.9281 27.0069 29.2352C27.2116 29.3189 27.4367 29.3393 27.6531 29.2938C27.8695 29.2484 28.0673 29.1391 28.221 28.9802L28.9774 28.2181C29.1233 28.0742 29.3048 27.9716 29.5033 27.9207C29.7018 27.8698 29.9103 27.8724 30.1075 27.9284L33.1704 28.7977C33.3393 28.8495 33.4942 28.9393 33.6231 29.0601C33.7521 29.181 33.8517 29.3297 33.9143 29.495C33.9769 29.6603 34.0009 29.8376 33.9845 30.0136C33.9681 30.1896 33.9116 30.3594 33.8195 30.5102Z" fill="white"/>
</svg>
