<svg width="51" height="51" viewBox="0 0 51 51" fill="none" xmlns="http://www.w3.org/2000/svg">
<path d="M25.5 51C39.5833 51 51 39.5833 51 25.5C51 11.4167 39.5833 0 25.5 0C11.4167 0 0 11.4167 0 25.5C0 39.5833 11.4167 51 25.5 51Z" fill="#03A9F4"/>
<path d="M38.1227 28.3352C40.0654 19.6115 32.4187 11.6797 23.4434 13.1996C18.5682 10.1765 12.0791 13.5922 12.0791 19.3935C12.0764 20.6919 12.4241 21.967 13.0857 23.0842C11.2806 31.8314 18.991 39.6458 27.9596 38.0185C34.3111 41.3805 41.3202 34.6935 38.1227 28.3352ZM29.5902 33.5963C27.2416 34.566 23.3562 34.5727 21.0108 33.3446C17.6556 31.5596 17.0717 27.5434 19.9573 27.5434C22.1315 27.5434 21.4437 30.08 23.6481 31.1134C24.6546 31.5798 26.8221 31.6267 28.0804 30.7779C29.3386 29.929 29.191 28.6372 28.5199 28.0098C26.7282 26.3556 21.6047 27.0032 19.2594 24.1177C18.7129 23.3822 18.4214 22.4884 18.4293 21.5721C18.4372 20.6558 18.7439 19.7672 19.303 19.0412C21.4839 16.2328 27.8824 16.0617 30.6371 18.1822C33.177 20.1484 32.4925 22.7588 30.4391 22.7588C27.973 22.7588 29.2715 19.531 25.2888 19.531C22.4033 19.531 21.2625 21.5844 23.2991 22.5843C26.0639 23.9533 33.0831 23.4869 33.0831 28.8553C33.0831 31.0798 31.7141 32.7407 29.5902 33.6064V33.5963Z" fill="white"/>
</svg>
