<svg width="51" height="51" viewBox="0 0 51 51" fill="none" xmlns="http://www.w3.org/2000/svg">
<path d="M25.5 51C39.5833 51 51 39.5833 51 25.5C51 11.4167 39.5833 0 25.5 0C11.4167 0 0 11.4167 0 25.5C0 39.5833 11.4167 51 25.5 51Z" fill="#039BE5"/>
<path d="M11.6683 24.9475L36.2546 15.4678C37.3957 15.0556 38.3923 15.7462 38.0226 17.4717L38.0247 17.4696L33.8385 37.1917C33.5282 38.59 32.6973 38.93 31.535 38.2712L25.16 33.5728L22.0851 36.5351C21.7451 36.8751 21.4582 37.162 20.7995 37.162L21.2521 30.6743L33.0671 20.0005C33.5813 19.5478 32.9523 19.2928 32.2745 19.7433L17.6736 28.9361L11.3793 26.9726C10.0129 26.5391 9.9832 25.6062 11.6683 24.9475Z" fill="white"/>
</svg>
