<svg width="51" height="51" viewBox="0 0 51 51" fill="none" xmlns="http://www.w3.org/2000/svg">
<circle cx="25.5" cy="25.5" r="25.5" fill="#57B04F"/>
<path d="M35.0448 31.52C34.3892 30.9703 30.5448 28.5358 29.9058 28.6475C29.6058 28.7008 29.3763 28.9565 28.762 29.6893C28.4779 30.0499 28.166 30.3877 27.829 30.6995C27.2116 30.5504 26.614 30.3288 26.0485 30.0395C23.831 28.9599 22.0395 27.1679 20.9605 24.95C20.6712 24.3846 20.4496 23.7869 20.3005 23.1695C20.6123 22.8325 20.9501 22.5206 21.3108 22.2365C22.0428 21.6223 22.2993 21.3942 22.3525 21.0927C22.4643 20.4523 20.0275 16.6093 19.48 15.9538C19.2505 15.6823 19.042 15.5 18.775 15.5C18.001 15.5 14.5 19.829 14.5 20.39C14.5 20.4358 14.575 24.9425 20.2668 30.7333C26.0575 36.425 30.5642 36.5 30.61 36.5C31.171 36.5 35.5 32.999 35.5 32.225C35.5 31.958 35.3177 31.7495 35.0448 31.52Z" fill="white"/>
<path d="M30.25 25.25H31.75C31.7482 23.6592 31.1155 22.1342 29.9907 21.0093C28.8658 19.8845 27.3408 19.2518 25.75 19.25V20.75C26.9431 20.7512 28.087 21.2257 28.9307 22.0693C29.7743 22.913 30.2488 24.0569 30.25 25.25Z" fill="white"/>
<path d="M34 25.25H35.5C35.497 22.6651 34.4688 20.1868 32.641 18.359C30.8132 16.5312 28.3349 15.503 25.75 15.5V17C27.9372 17.0026 30.0342 17.8726 31.5808 19.4192C33.1274 20.9658 33.9974 23.0628 34 25.25Z" fill="white"/>
</svg>
