<svg width="29" height="28" viewBox="0 0 29 28" fill="none" xmlns="http://www.w3.org/2000/svg">
<path fill-rule="evenodd" clip-rule="evenodd" d="M0.277344 12.8558C0.277344 5.7658 6.68845 0.0178223 14.5967 0.0178223C22.5049 0.0178223 28.916 5.7658 28.916 12.8558C28.916 19.9459 22.5049 25.6939 14.5967 25.6939C12.8675 25.6939 11.2124 25.4139 9.67774 24.9102C12.433 23.1144 12.4404 23.0344 12.4354 22.7273C12.4325 22.5569 12.3401 22.3965 12.194 22.3086C11.9713 22.1748 11.6854 22.2375 11.5373 22.4453C11.2543 22.6774 9.88759 23.5934 8.52281 24.4826L8.51194 24.4782C5.1869 26.4864 0.277344 27.1752 0.277344 27.1752C1.88407 25.5684 2.44894 22.2686 2.64546 19.9256C1.15033 17.8977 0.277344 15.4689 0.277344 12.8558ZM9.1652 12.8558C9.1652 13.6739 8.50199 14.3371 7.68389 14.3371C6.86579 14.3371 6.20258 13.6739 6.20258 12.8558C6.20258 12.0377 6.86579 11.3745 7.68389 11.3745C8.50199 11.3745 9.1652 12.0377 9.1652 12.8558ZM14.5967 14.3371C15.4148 14.3371 16.078 13.6739 16.078 12.8558C16.078 12.0377 15.4148 11.3745 14.5967 11.3745C13.7785 11.3745 13.1153 12.0377 13.1153 12.8558C13.1153 13.6739 13.7785 14.3371 14.5967 14.3371ZM22.9907 12.8558C22.9907 13.6739 22.3275 14.3371 21.5094 14.3371C20.6913 14.3371 20.0281 13.6739 20.0281 12.8558C20.0281 12.0377 20.6913 11.3745 21.5094 11.3745C22.3275 11.3745 22.9907 12.0377 22.9907 12.8558Z" fill="white"/>
</svg>
