<svg width="93" height="93" viewBox="0 0 93 93" fill="none" xmlns="http://www.w3.org/2000/svg">
<path d="M82.8026 84.2873C68.572 95.9042 24.1376 95.9042 10.1973 84.2873C-4.03336 72.6705 -2.58128 23.0085 10.1973 9.93954C22.9758 -3.1294 70.024 -3.1294 82.8026 9.93954C95.5812 23.0085 97.0332 72.6707 82.8026 84.2873Z" fill="#DA5D5D"/>
<g opacity="0.2">
<path opacity="0.2" d="M46.791 63.958C34.0124 74.1227 19.7818 79.3503 6.42244 79.6407C-3.45197 62.7962 -1.41893 21.847 10.1979 9.93974C20.6531 -0.805788 53.4706 -2.83882 72.3481 3.84083C76.9947 23.0087 67.4109 47.4039 46.791 63.958Z" fill="white"/>
</g>
<path d="M63.9012 59.195C65.4813 60.7751 65.4813 63.3291 63.9012 64.9093C63.1131 65.6973 62.0786 66.0933 61.044 66.0933C60.0095 66.0933 58.975 65.6973 58.1869 64.9093L46.0431 52.7614L33.8993 64.9093C33.1113 65.6973 32.0768 66.0933 31.0422 66.0933C30.0077 66.0933 28.9731 65.6973 28.1851 64.9093C26.605 63.3291 26.605 60.7751 28.1851 59.195L40.3289 47.0472L28.1851 34.8993C26.605 33.3192 26.605 30.7652 28.1851 29.1851C29.7652 27.605 32.3192 27.605 33.8993 29.1851L46.0431 41.3329L58.1869 29.1851C59.767 27.605 62.3211 27.605 63.9012 29.1851C65.4813 30.7652 65.4813 33.3192 63.9012 34.8993L51.7574 47.0472L63.9012 59.195Z" fill="#FAFAFA"/>
<path d="M31.0422 28.0009C30.0077 28.0009 28.9731 28.397 28.1851 29.185C26.605 30.7651 26.605 33.3191 28.1851 34.8993L40.3289 47.0471L28.1851 59.1949C26.605 60.775 26.605 63.3291 28.1851 64.9092C28.9731 65.6972 30.0077 66.0932 31.0422 66.0932C32.0768 66.0932 33.1113 65.6972 33.8993 64.9092L46.0431 52.7613V41.3328L33.8993 29.185C33.1073 28.397 32.0727 28.0009 31.0422 28.0009Z" fill="white"/>
</svg>
